G04 EAGLE Gerber RS-274X export*
G75*
%MOMM*%
%FSLAX34Y34*%
%LPD*%
%INTop Copper*%
%IPPOS*%
%AMOC8*
5,1,8,0,0,1.08239X$1,22.5*%
G01*
%ADD10C,1.320800*%
%ADD11P,1.814519X8X202.500000*%
%ADD12P,1.814519X8X22.500000*%
%ADD13R,2.000000X1.200000*%
%ADD14C,0.254000*%
%ADD15C,0.609600*%
%ADD16C,0.406400*%

G36*
X148481Y131544D02*
X148481Y131544D01*
X148480Y131544D01*
X148481Y131544D01*
X148481Y131629D01*
X149371Y132519D01*
X167460Y132519D01*
X167465Y132524D01*
X167464Y132524D01*
X167465Y132524D01*
X167465Y137476D01*
X167460Y137481D01*
X167460Y137480D01*
X167460Y137481D01*
X149371Y137481D01*
X148481Y138371D01*
X148481Y151629D01*
X149371Y152519D01*
X167460Y152519D01*
X167465Y152524D01*
X167464Y152524D01*
X167465Y152524D01*
X167465Y157476D01*
X167460Y157481D01*
X167460Y157480D01*
X167460Y157481D01*
X149371Y157481D01*
X148481Y158371D01*
X148481Y170194D01*
X148476Y170199D01*
X148476Y170198D01*
X148476Y170199D01*
X146029Y170199D01*
X140199Y176029D01*
X140199Y263527D01*
X140197Y263529D01*
X140197Y263531D01*
X131449Y272279D01*
X131449Y305134D01*
X131448Y305136D01*
X131448Y305137D01*
X131446Y305138D01*
X131444Y305139D01*
X131443Y305138D01*
X131440Y305138D01*
X126401Y300099D01*
X118199Y300099D01*
X112399Y305899D01*
X112399Y313827D01*
X112397Y313829D01*
X112397Y313831D01*
X112281Y313947D01*
X112278Y313948D01*
X112277Y313949D01*
X96928Y313949D01*
X96923Y313944D01*
X96924Y313944D01*
X96923Y313944D01*
X96923Y313484D01*
X95687Y310499D01*
X93401Y308213D01*
X90416Y306977D01*
X87184Y306977D01*
X84199Y308213D01*
X81913Y310499D01*
X80677Y313484D01*
X80677Y329924D01*
X81913Y332909D01*
X84199Y335195D01*
X87184Y336431D01*
X90416Y336431D01*
X93401Y335195D01*
X95687Y332909D01*
X96923Y329924D01*
X96923Y321056D01*
X96928Y321051D01*
X96928Y321052D01*
X96928Y321051D01*
X115221Y321051D01*
X117281Y318991D01*
X117284Y318991D01*
X117284Y318990D01*
X117286Y318990D01*
X117288Y318990D01*
X117288Y318991D01*
X118199Y319901D01*
X126401Y319901D01*
X131440Y314862D01*
X131442Y314862D01*
X131443Y314861D01*
X131445Y314862D01*
X131447Y314862D01*
X131447Y314864D01*
X131449Y314866D01*
X131449Y335194D01*
X131444Y335199D01*
X131444Y335198D01*
X131444Y335199D01*
X124779Y335199D01*
X116699Y343279D01*
X116692Y343280D01*
X116692Y343279D01*
X116511Y343099D01*
X108309Y343099D01*
X102509Y348899D01*
X102509Y357101D01*
X108309Y362901D01*
X116511Y362901D01*
X116567Y362846D01*
X116569Y362846D01*
X116570Y362844D01*
X116571Y362845D01*
X116573Y362845D01*
X116573Y362846D01*
X116574Y362846D01*
X137797Y384069D01*
X137798Y384072D01*
X137799Y384073D01*
X137799Y389101D01*
X143599Y394901D01*
X151801Y394901D01*
X157601Y389101D01*
X157601Y380899D01*
X151801Y375099D01*
X143599Y375099D01*
X141238Y377459D01*
X141232Y377460D01*
X141232Y377459D01*
X141231Y377459D01*
X121596Y357824D01*
X121596Y357822D01*
X121595Y357822D01*
X121596Y357821D01*
X121595Y357817D01*
X121596Y357817D01*
X122311Y357101D01*
X122311Y348899D01*
X121721Y348308D01*
X121721Y348307D01*
X121720Y348306D01*
X121721Y348306D01*
X121720Y348302D01*
X121721Y348302D01*
X121721Y348301D01*
X127719Y342303D01*
X127722Y342302D01*
X127723Y342301D01*
X136471Y342301D01*
X138551Y340221D01*
X138551Y316302D01*
X138552Y316301D01*
X138552Y316299D01*
X138554Y316299D01*
X138556Y316297D01*
X138557Y316299D01*
X138560Y316299D01*
X143178Y320917D01*
X147695Y320917D01*
X147695Y310000D01*
X147695Y299083D01*
X143178Y299083D01*
X138560Y303701D01*
X138558Y303701D01*
X138557Y303703D01*
X138555Y303701D01*
X138553Y303702D01*
X138553Y303699D01*
X138551Y303698D01*
X138551Y275223D01*
X138553Y275221D01*
X138553Y275219D01*
X145219Y268553D01*
X145222Y268553D01*
X145222Y268552D01*
X145223Y268551D01*
X148476Y268551D01*
X148481Y268556D01*
X148480Y268556D01*
X148481Y268556D01*
X148481Y271629D01*
X149371Y272519D01*
X167460Y272519D01*
X167465Y272524D01*
X167464Y272524D01*
X167465Y272524D01*
X167465Y385000D01*
X167250Y387732D01*
X167249Y387732D01*
X167250Y387733D01*
X165562Y392928D01*
X165561Y392929D01*
X165561Y392930D01*
X162350Y397349D01*
X162349Y397349D01*
X162349Y397350D01*
X157930Y400561D01*
X157928Y400561D01*
X157928Y400562D01*
X152733Y402250D01*
X152732Y402249D01*
X152732Y402250D01*
X150000Y402465D01*
X10000Y402465D01*
X9999Y402465D01*
X9248Y402406D01*
X9185Y402401D01*
X8490Y402346D01*
X8427Y402341D01*
X8364Y402336D01*
X7670Y402281D01*
X7607Y402276D01*
X7268Y402250D01*
X7268Y402249D01*
X7267Y402250D01*
X2072Y400562D01*
X2071Y400561D01*
X2070Y400561D01*
X-2349Y397350D01*
X-2349Y397349D01*
X-2350Y397349D01*
X-5561Y392930D01*
X-5561Y392928D01*
X-5562Y392928D01*
X-7250Y387733D01*
X-7249Y387732D01*
X-7250Y387732D01*
X-7262Y387580D01*
X-7262Y387579D01*
X-7263Y387570D01*
X-7275Y387406D01*
X-7276Y387406D01*
X-7288Y387242D01*
X-7289Y387232D01*
X-7302Y387068D01*
X-7303Y387058D01*
X-7316Y386894D01*
X-7329Y386730D01*
X-7329Y386720D01*
X-7342Y386556D01*
X-7343Y386546D01*
X-7356Y386382D01*
X-7369Y386218D01*
X-7370Y386208D01*
X-7383Y386044D01*
X-7383Y386034D01*
X-7396Y385870D01*
X-7409Y385706D01*
X-7410Y385696D01*
X-7423Y385532D01*
X-7424Y385522D01*
X-7436Y385368D01*
X-7437Y385358D01*
X-7450Y385195D01*
X-7450Y385194D01*
X-7450Y385185D01*
X-7463Y385021D01*
X-7464Y385011D01*
X-7465Y385001D01*
X-7465Y385000D01*
X-7465Y273540D01*
X-7460Y273535D01*
X-7460Y273536D01*
X-7460Y273535D01*
X-5Y273535D01*
X-5Y265000D01*
X-5Y256465D01*
X-7460Y256465D01*
X-7465Y256460D01*
X-7464Y256460D01*
X-7465Y256460D01*
X-7465Y253540D01*
X-7460Y253535D01*
X-7460Y253536D01*
X-7460Y253535D01*
X-5Y253535D01*
X-5Y245000D01*
X-5Y236465D01*
X-7460Y236465D01*
X-7465Y236460D01*
X-7465Y232524D01*
X-7460Y232519D01*
X-7460Y232520D01*
X-7460Y232519D01*
X10629Y232519D01*
X11519Y231629D01*
X11519Y218371D01*
X10629Y217481D01*
X-7460Y217481D01*
X-7465Y217476D01*
X-7464Y217476D01*
X-7465Y217476D01*
X-7465Y212524D01*
X-7460Y212519D01*
X-7460Y212520D01*
X-7460Y212519D01*
X10629Y212519D01*
X11519Y211629D01*
X11519Y204044D01*
X11524Y204039D01*
X11524Y204040D01*
X11524Y204039D01*
X30078Y204039D01*
X30080Y204041D01*
X30082Y204041D01*
X31858Y205817D01*
X35642Y205817D01*
X38317Y203142D01*
X38317Y199358D01*
X35642Y196683D01*
X31858Y196683D01*
X30082Y198459D01*
X30079Y198460D01*
X30078Y198461D01*
X11524Y198461D01*
X11519Y198456D01*
X11520Y198456D01*
X11519Y198456D01*
X11519Y198371D01*
X10629Y197481D01*
X-7460Y197481D01*
X-7465Y197476D01*
X-7464Y197476D01*
X-7465Y197476D01*
X-7465Y192524D01*
X-7460Y192519D01*
X-7460Y192520D01*
X-7460Y192519D01*
X10629Y192519D01*
X11519Y191629D01*
X11519Y178371D01*
X10629Y177481D01*
X-7460Y177481D01*
X-7465Y177476D01*
X-7464Y177476D01*
X-7465Y177476D01*
X-7465Y172524D01*
X-7460Y172519D01*
X-7460Y172520D01*
X-7460Y172519D01*
X10629Y172519D01*
X11519Y171629D01*
X11519Y158371D01*
X10629Y157481D01*
X-7460Y157481D01*
X-7465Y157476D01*
X-7464Y157476D01*
X-7465Y157476D01*
X-7465Y152524D01*
X-7460Y152519D01*
X-7460Y152520D01*
X-7460Y152519D01*
X10629Y152519D01*
X11519Y151629D01*
X11519Y151544D01*
X11524Y151539D01*
X11524Y151540D01*
X11524Y151539D01*
X96328Y151539D01*
X96330Y151541D01*
X96332Y151541D01*
X98108Y153317D01*
X101892Y153317D01*
X104567Y150642D01*
X104567Y146858D01*
X101892Y144183D01*
X98108Y144183D01*
X96332Y145959D01*
X96329Y145960D01*
X96328Y145961D01*
X71760Y145961D01*
X71759Y145960D01*
X71757Y145960D01*
X71757Y145958D01*
X71755Y145956D01*
X71757Y145955D01*
X71757Y145952D01*
X73317Y144392D01*
X73317Y143129D01*
X73319Y143128D01*
X73319Y143126D01*
X84904Y131541D01*
X84906Y131540D01*
X84907Y131539D01*
X148476Y131539D01*
X148481Y131544D01*
G37*
%LPC*%
G36*
X91858Y260433D02*
X91858Y260433D01*
X89183Y263108D01*
X89183Y265621D01*
X89181Y265622D01*
X89181Y265624D01*
X58846Y295959D01*
X58844Y295959D01*
X58843Y295960D01*
X58843Y295961D01*
X35095Y295961D01*
X19805Y311250D01*
X19804Y311250D01*
X19804Y311251D01*
X19802Y311250D01*
X19799Y311251D01*
X19799Y311249D01*
X19797Y311249D01*
X19487Y310499D01*
X17201Y308213D01*
X14216Y306977D01*
X10984Y306977D01*
X7999Y308213D01*
X5713Y310499D01*
X4477Y313484D01*
X4477Y329924D01*
X5713Y332909D01*
X7999Y335195D01*
X10984Y336431D01*
X14216Y336431D01*
X17201Y335195D01*
X19487Y332909D01*
X20723Y329924D01*
X20723Y318223D01*
X20725Y318222D01*
X20725Y318220D01*
X37404Y301541D01*
X37406Y301540D01*
X37407Y301540D01*
X37407Y301539D01*
X54504Y301539D01*
X54506Y301540D01*
X54507Y301540D01*
X54507Y301542D01*
X54509Y301544D01*
X54508Y301545D01*
X54508Y301548D01*
X45088Y310967D01*
X45087Y310967D01*
X45087Y310968D01*
X45085Y310968D01*
X45082Y310968D01*
X45081Y310966D01*
X45080Y310966D01*
X44887Y310499D01*
X42601Y308213D01*
X39616Y306977D01*
X36384Y306977D01*
X33399Y308213D01*
X31113Y310499D01*
X29877Y313484D01*
X29877Y329924D01*
X31113Y332909D01*
X33399Y335195D01*
X36384Y336431D01*
X39616Y336431D01*
X42601Y335195D01*
X44887Y332909D01*
X46123Y329924D01*
X46123Y317823D01*
X46125Y317822D01*
X46125Y317820D01*
X57404Y306541D01*
X57406Y306540D01*
X57407Y306539D01*
X64905Y306539D01*
X86876Y284569D01*
X86878Y284568D01*
X86879Y284567D01*
X89392Y284567D01*
X92067Y281892D01*
X92067Y278108D01*
X89392Y275433D01*
X87274Y275433D01*
X87272Y275432D01*
X87271Y275432D01*
X87271Y275430D01*
X87269Y275428D01*
X87270Y275427D01*
X87270Y275424D01*
X93126Y269569D01*
X93128Y269568D01*
X93129Y269567D01*
X95642Y269567D01*
X98317Y266892D01*
X98317Y263108D01*
X95642Y260433D01*
X91858Y260433D01*
G37*
%LPD*%
%LPC*%
G36*
X73108Y355433D02*
X73108Y355433D01*
X70433Y358108D01*
X70433Y361892D01*
X73108Y364567D01*
X75621Y364567D01*
X75622Y364569D01*
X75624Y364569D01*
X83226Y372171D01*
X83227Y372177D01*
X83226Y372177D01*
X83226Y372178D01*
X81913Y373491D01*
X80677Y376476D01*
X80677Y392916D01*
X81913Y395901D01*
X84199Y398187D01*
X87184Y399423D01*
X90416Y399423D01*
X93401Y398187D01*
X95687Y395901D01*
X96923Y392916D01*
X96923Y376476D01*
X95687Y373491D01*
X93401Y371205D01*
X90416Y369969D01*
X88915Y369969D01*
X88914Y369967D01*
X88912Y369967D01*
X79569Y360624D01*
X79568Y360622D01*
X79567Y360621D01*
X79567Y358108D01*
X76892Y355433D01*
X73108Y355433D01*
G37*
%LPD*%
%LPC*%
G36*
X61784Y369969D02*
X61784Y369969D01*
X58799Y371205D01*
X56513Y373491D01*
X55277Y376476D01*
X55277Y392916D01*
X56513Y395901D01*
X58799Y398187D01*
X61784Y399423D01*
X65016Y399423D01*
X68001Y398187D01*
X70287Y395901D01*
X71523Y392916D01*
X71523Y376476D01*
X70287Y373491D01*
X68001Y371205D01*
X65016Y369969D01*
X61784Y369969D01*
G37*
%LPD*%
%LPC*%
G36*
X36384Y369969D02*
X36384Y369969D01*
X33399Y371205D01*
X31113Y373491D01*
X29877Y376476D01*
X29877Y392916D01*
X31113Y395901D01*
X33399Y398187D01*
X36384Y399423D01*
X39616Y399423D01*
X42601Y398187D01*
X44887Y395901D01*
X46123Y392916D01*
X46123Y376476D01*
X44887Y373491D01*
X42601Y371205D01*
X39616Y369969D01*
X36384Y369969D01*
G37*
%LPD*%
%LPC*%
G36*
X61784Y306977D02*
X61784Y306977D01*
X58799Y308213D01*
X56513Y310499D01*
X55277Y313484D01*
X55277Y329924D01*
X56513Y332909D01*
X58799Y335195D01*
X61784Y336431D01*
X65016Y336431D01*
X68001Y335195D01*
X70287Y332909D01*
X71523Y329924D01*
X71523Y313484D01*
X70287Y310499D01*
X68001Y308213D01*
X65016Y306977D01*
X61784Y306977D01*
G37*
%LPD*%
%LPC*%
G36*
X129899Y343099D02*
X129899Y343099D01*
X124099Y348899D01*
X124099Y357101D01*
X129899Y362901D01*
X138101Y362901D01*
X143901Y357101D01*
X143901Y348899D01*
X138101Y343099D01*
X129899Y343099D01*
G37*
%LPD*%
%LPC*%
G36*
X12605Y391295D02*
X12605Y391295D01*
X21739Y391295D01*
X21739Y377192D01*
X21735Y377170D01*
X21732Y377155D01*
X21727Y377130D01*
X21724Y377115D01*
X21721Y377100D01*
X21719Y377090D01*
X21716Y377076D01*
X21713Y377061D01*
X21711Y377051D01*
X21708Y377036D01*
X21705Y377021D01*
X21703Y377011D01*
X21700Y376996D01*
X21697Y376981D01*
X21692Y376956D01*
X21689Y376941D01*
X21684Y376917D01*
X21681Y376902D01*
X21677Y376877D01*
X21674Y376862D01*
X21671Y376847D01*
X21669Y376837D01*
X21666Y376822D01*
X21663Y376807D01*
X21661Y376797D01*
X21658Y376782D01*
X21655Y376768D01*
X21655Y376767D01*
X21653Y376758D01*
X21650Y376743D01*
X21647Y376728D01*
X21642Y376703D01*
X21639Y376688D01*
X21634Y376663D01*
X21631Y376648D01*
X21626Y376623D01*
X21623Y376609D01*
X21623Y376608D01*
X21620Y376594D01*
X21618Y376584D01*
X21615Y376569D01*
X21612Y376554D01*
X21610Y376544D01*
X21607Y376529D01*
X21604Y376514D01*
X21602Y376504D01*
X21599Y376489D01*
X21596Y376474D01*
X21592Y376450D01*
X21592Y376449D01*
X21589Y376435D01*
X21584Y376410D01*
X21581Y376395D01*
X21576Y376370D01*
X21573Y376355D01*
X21568Y376330D01*
X21565Y376315D01*
X21562Y376300D01*
X21560Y376291D01*
X21560Y376290D01*
X21557Y376276D01*
X21554Y376261D01*
X21552Y376251D01*
X21549Y376236D01*
X21546Y376221D01*
X21544Y376211D01*
X21541Y376196D01*
X21538Y376181D01*
X21533Y376156D01*
X21530Y376141D01*
X21525Y376117D01*
X21522Y376102D01*
X21517Y376077D01*
X21514Y376062D01*
X21511Y376047D01*
X21510Y376037D01*
X21509Y376037D01*
X21507Y376022D01*
X21504Y376007D01*
X21502Y375997D01*
X21499Y375982D01*
X21496Y375968D01*
X21496Y375967D01*
X21494Y375958D01*
X21491Y375943D01*
X21488Y375928D01*
X21483Y375903D01*
X21480Y375888D01*
X21475Y375863D01*
X21472Y375848D01*
X21467Y375823D01*
X21464Y375809D01*
X21464Y375808D01*
X21459Y375784D01*
X21456Y375769D01*
X21453Y375754D01*
X21451Y375744D01*
X21448Y375729D01*
X21445Y375714D01*
X21443Y375704D01*
X21440Y375689D01*
X21437Y375674D01*
X21435Y375664D01*
X21432Y375650D01*
X21432Y375649D01*
X21429Y375635D01*
X21425Y375610D01*
X21424Y375610D01*
X21422Y375595D01*
X21417Y375570D01*
X21414Y375555D01*
X21409Y375530D01*
X21406Y375515D01*
X21403Y375500D01*
X21401Y375491D01*
X21401Y375490D01*
X21398Y375476D01*
X21395Y375461D01*
X21393Y375451D01*
X21390Y375436D01*
X21388Y375426D01*
X20699Y373763D01*
X19699Y372266D01*
X18426Y370993D01*
X16929Y369993D01*
X15266Y369304D01*
X13500Y368953D01*
X12605Y368953D01*
X12605Y391295D01*
G37*
%LPD*%
%LPC*%
G36*
X11700Y368953D02*
X11700Y368953D01*
X9934Y369304D01*
X8271Y369993D01*
X6774Y370993D01*
X5501Y372266D01*
X4501Y373763D01*
X3812Y375426D01*
X3461Y377192D01*
X3461Y391295D01*
X12595Y391295D01*
X12595Y368953D01*
X11700Y368953D01*
G37*
%LPD*%
%LPC*%
G36*
X5Y265005D02*
X5Y265005D01*
X5Y273535D01*
X10504Y273535D01*
X11436Y273149D01*
X12149Y272436D01*
X12535Y271504D01*
X12535Y265005D01*
X5Y265005D01*
G37*
%LPD*%
%LPC*%
G36*
X5Y245005D02*
X5Y245005D01*
X5Y253535D01*
X10504Y253535D01*
X11436Y253149D01*
X12149Y252436D01*
X12535Y251504D01*
X12535Y245005D01*
X5Y245005D01*
G37*
%LPD*%
%LPC*%
G36*
X5Y256465D02*
X5Y256465D01*
X5Y264995D01*
X12535Y264995D01*
X12535Y258496D01*
X12149Y257564D01*
X11436Y256851D01*
X10504Y256465D01*
X5Y256465D01*
G37*
%LPD*%
%LPC*%
G36*
X5Y236465D02*
X5Y236465D01*
X5Y244995D01*
X12535Y244995D01*
X12535Y238496D01*
X12149Y237564D01*
X11436Y236851D01*
X10504Y236465D01*
X5Y236465D01*
G37*
%LPD*%
%LPC*%
G36*
X111383Y385005D02*
X111383Y385005D01*
X111383Y389522D01*
X117778Y395917D01*
X122295Y395917D01*
X122295Y385005D01*
X111383Y385005D01*
G37*
%LPD*%
%LPC*%
G36*
X144673Y353005D02*
X144673Y353005D01*
X144673Y357522D01*
X151068Y363917D01*
X155585Y363917D01*
X155585Y353005D01*
X144673Y353005D01*
G37*
%LPD*%
%LPC*%
G36*
X122305Y385005D02*
X122305Y385005D01*
X122305Y395917D01*
X126822Y395917D01*
X133217Y389522D01*
X133217Y385005D01*
X122305Y385005D01*
G37*
%LPD*%
%LPC*%
G36*
X155595Y353005D02*
X155595Y353005D01*
X155595Y363917D01*
X160112Y363917D01*
X166507Y357522D01*
X166507Y353005D01*
X155595Y353005D01*
G37*
%LPD*%
%LPC*%
G36*
X147705Y310005D02*
X147705Y310005D01*
X147705Y320917D01*
X152222Y320917D01*
X158617Y314522D01*
X158617Y310005D01*
X147705Y310005D01*
G37*
%LPD*%
%LPC*%
G36*
X117778Y374083D02*
X117778Y374083D01*
X111383Y380478D01*
X111383Y384995D01*
X122295Y384995D01*
X122295Y374083D01*
X117778Y374083D01*
G37*
%LPD*%
%LPC*%
G36*
X151068Y342083D02*
X151068Y342083D01*
X144673Y348478D01*
X144673Y352995D01*
X155585Y352995D01*
X155585Y342083D01*
X151068Y342083D01*
G37*
%LPD*%
%LPC*%
G36*
X122305Y374083D02*
X122305Y374083D01*
X122305Y384995D01*
X133217Y384995D01*
X133217Y380478D01*
X126822Y374083D01*
X122305Y374083D01*
G37*
%LPD*%
%LPC*%
G36*
X155595Y342083D02*
X155595Y342083D01*
X155595Y352995D01*
X166507Y352995D01*
X166507Y348478D01*
X160112Y342083D01*
X155595Y342083D01*
G37*
%LPD*%
%LPC*%
G36*
X147705Y299083D02*
X147705Y299083D01*
X147705Y309995D01*
X158617Y309995D01*
X158617Y305478D01*
X152222Y299083D01*
X147705Y299083D01*
G37*
%LPD*%
%LPC*%
G36*
X12605Y391305D02*
X12605Y391305D01*
X12605Y400439D01*
X13500Y400439D01*
X15266Y400088D01*
X16929Y399399D01*
X18426Y398399D01*
X19699Y397126D01*
X20699Y395629D01*
X21388Y393966D01*
X21739Y392200D01*
X21739Y391305D01*
X12605Y391305D01*
G37*
%LPD*%
%LPC*%
G36*
X3461Y391305D02*
X3461Y391305D01*
X3461Y392200D01*
X3462Y392204D01*
X3465Y392219D01*
X3468Y392234D01*
X3469Y392244D01*
X3470Y392244D01*
X3472Y392259D01*
X3475Y392274D01*
X3477Y392284D01*
X3480Y392299D01*
X3483Y392313D01*
X3488Y392338D01*
X3491Y392353D01*
X3496Y392378D01*
X3499Y392393D01*
X3504Y392418D01*
X3507Y392433D01*
X3512Y392458D01*
X3515Y392472D01*
X3518Y392487D01*
X3520Y392497D01*
X3523Y392512D01*
X3526Y392527D01*
X3528Y392537D01*
X3531Y392552D01*
X3534Y392567D01*
X3536Y392577D01*
X3539Y392592D01*
X3542Y392607D01*
X3547Y392631D01*
X3550Y392646D01*
X3554Y392671D01*
X3555Y392671D01*
X3557Y392686D01*
X3562Y392711D01*
X3565Y392726D01*
X3568Y392741D01*
X3570Y392751D01*
X3573Y392766D01*
X3576Y392780D01*
X3576Y392781D01*
X3578Y392790D01*
X3581Y392805D01*
X3584Y392820D01*
X3586Y392830D01*
X3589Y392845D01*
X3592Y392860D01*
X3597Y392885D01*
X3600Y392900D01*
X3605Y392925D01*
X3608Y392939D01*
X3608Y392940D01*
X3613Y392964D01*
X3616Y392979D01*
X3621Y393004D01*
X3624Y393019D01*
X3627Y393034D01*
X3629Y393044D01*
X3632Y393059D01*
X3635Y393074D01*
X3637Y393084D01*
X3639Y393098D01*
X3640Y393099D01*
X3639Y393099D01*
X3642Y393113D01*
X3644Y393123D01*
X3647Y393138D01*
X3650Y393153D01*
X3655Y393178D01*
X3658Y393193D01*
X3663Y393218D01*
X3666Y393233D01*
X3671Y393257D01*
X3671Y393258D01*
X3674Y393272D01*
X3677Y393287D01*
X3679Y393297D01*
X3682Y393312D01*
X3685Y393327D01*
X3687Y393337D01*
X3690Y393352D01*
X3693Y393367D01*
X3695Y393377D01*
X3698Y393392D01*
X3701Y393407D01*
X3706Y393431D01*
X3709Y393446D01*
X3714Y393471D01*
X3717Y393486D01*
X3722Y393511D01*
X3724Y393526D01*
X3725Y393526D01*
X3724Y393526D01*
X3727Y393541D01*
X3729Y393551D01*
X3732Y393566D01*
X3735Y393580D01*
X3735Y393581D01*
X3737Y393590D01*
X3740Y393605D01*
X3743Y393620D01*
X3745Y393630D01*
X3748Y393645D01*
X3751Y393660D01*
X3756Y393685D01*
X3759Y393700D01*
X3764Y393725D01*
X3767Y393739D01*
X3767Y393740D01*
X3772Y393764D01*
X3775Y393779D01*
X3780Y393804D01*
X3783Y393819D01*
X3786Y393834D01*
X3788Y393844D01*
X3791Y393859D01*
X3794Y393874D01*
X3796Y393884D01*
X3799Y393898D01*
X3799Y393899D01*
X3802Y393913D01*
X3804Y393923D01*
X3807Y393938D01*
X3809Y393953D01*
X3810Y393953D01*
X3809Y393953D01*
X3812Y393966D01*
X4501Y395629D01*
X5501Y397126D01*
X6774Y398399D01*
X8271Y399399D01*
X9934Y400088D01*
X11700Y400439D01*
X12595Y400439D01*
X12595Y391305D01*
X3461Y391305D01*
G37*
%LPD*%
D10*
X88800Y391300D02*
X88800Y378092D01*
X63400Y378092D02*
X63400Y391300D01*
X38000Y391300D02*
X38000Y378092D01*
X12600Y378092D02*
X12600Y391300D01*
X12600Y328308D02*
X12600Y315100D01*
X38000Y315100D02*
X38000Y328308D01*
X63400Y328308D02*
X63400Y315100D01*
X88800Y315100D02*
X88800Y328308D01*
D11*
X155590Y353000D03*
X134000Y353000D03*
X112410Y353000D03*
X147700Y385000D03*
X122300Y385000D03*
D12*
X122300Y310000D03*
X147700Y310000D03*
D13*
X160000Y125000D03*
X160000Y145000D03*
X160000Y165000D03*
X160000Y185000D03*
X160000Y205000D03*
X160000Y225000D03*
X160000Y245000D03*
X160000Y265000D03*
X0Y265000D03*
X0Y245000D03*
X0Y225000D03*
X0Y205000D03*
X0Y185000D03*
X0Y165000D03*
X0Y145000D03*
X0Y125000D03*
D14*
X93750Y265000D02*
X60000Y298750D01*
X36250Y298750D01*
X18750Y316250D01*
X13750Y316250D01*
X12600Y315100D01*
D15*
X93750Y265000D03*
D14*
X87500Y280000D02*
X63750Y303750D01*
X56250Y303750D01*
X43750Y316250D01*
X38750Y316250D01*
X38000Y315100D01*
D15*
X87500Y280000D03*
D14*
X156250Y128750D02*
X160000Y125000D01*
X156250Y128750D02*
X83750Y128750D01*
X70000Y142500D01*
X68750Y142500D01*
D15*
X68750Y142500D03*
D14*
X75000Y360000D02*
X88750Y373750D01*
X88750Y391250D01*
X88800Y391300D01*
D15*
X75000Y360000D03*
D14*
X3750Y128750D02*
X0Y125000D01*
X3750Y128750D02*
X75000Y128750D01*
D15*
X75000Y128750D03*
D14*
X3750Y148750D02*
X0Y145000D01*
X3750Y148750D02*
X100000Y148750D01*
D15*
X100000Y148750D03*
D16*
X121250Y310000D02*
X113750Y317500D01*
X91250Y317500D01*
X90000Y316250D01*
X121250Y310000D02*
X122300Y310000D01*
X90000Y316250D02*
X88800Y315100D01*
X151250Y173750D02*
X160000Y165000D01*
X151250Y173750D02*
X147500Y173750D01*
X143750Y177500D01*
X143750Y265000D01*
X160000Y265000D01*
X112500Y353750D02*
X143750Y385000D01*
X147700Y385000D01*
X112500Y353750D02*
X112410Y353000D01*
X135000Y273750D02*
X143750Y265000D01*
X135000Y273750D02*
X135000Y338750D01*
X126250Y338750D01*
X113750Y351250D01*
X112500Y351250D01*
X112410Y353000D01*
D14*
X0Y205000D02*
X3750Y201250D01*
X33750Y201250D01*
D15*
X33750Y201250D03*
M02*
