G04 EAGLE Gerber RS-274X export*
G75*
%MOMM*%
%FSLAX34Y34*%
%LPD*%
%INBottom Copper*%
%IPPOS*%
%AMOC8*
5,1,8,0,0,1.08239X$1,22.5*%
G01*
%ADD10C,1.320800*%
%ADD11P,1.814519X8X202.500000*%
%ADD12P,1.814519X8X22.500000*%
%ADD13R,2.540000X0.990600*%
%ADD14C,0.254000*%
%ADD15C,0.609600*%
%ADD16C,0.406400*%

G36*
X167460Y104995D02*
X167460Y104995D01*
X167465Y104999D01*
X167464Y105000D01*
X167465Y105000D01*
X167465Y385000D01*
X167250Y387732D01*
X167249Y387732D01*
X167250Y387733D01*
X165562Y392928D01*
X165561Y392929D01*
X165561Y392930D01*
X162350Y397349D01*
X162349Y397349D01*
X162349Y397350D01*
X157930Y400561D01*
X157928Y400561D01*
X157928Y400562D01*
X152733Y402250D01*
X152732Y402249D01*
X152732Y402250D01*
X150000Y402465D01*
X10000Y402465D01*
X9999Y402465D01*
X9549Y402429D01*
X9486Y402424D01*
X8792Y402370D01*
X8729Y402365D01*
X8665Y402360D01*
X7971Y402305D01*
X7908Y402300D01*
X7845Y402295D01*
X7268Y402250D01*
X7268Y402249D01*
X7267Y402250D01*
X2072Y400562D01*
X2071Y400561D01*
X2070Y400561D01*
X-2349Y397350D01*
X-2349Y397349D01*
X-2350Y397349D01*
X-5561Y392930D01*
X-5561Y392928D01*
X-5562Y392928D01*
X-7250Y387733D01*
X-7249Y387733D01*
X-7250Y387732D01*
X-7249Y387732D01*
X-7250Y387732D01*
X-7253Y387693D01*
X-7254Y387683D01*
X-7267Y387519D01*
X-7279Y387355D01*
X-7280Y387355D01*
X-7279Y387355D01*
X-7280Y387345D01*
X-7293Y387181D01*
X-7294Y387171D01*
X-7307Y387007D01*
X-7320Y386843D01*
X-7321Y386833D01*
X-7333Y386669D01*
X-7334Y386659D01*
X-7347Y386495D01*
X-7360Y386331D01*
X-7361Y386321D01*
X-7374Y386157D01*
X-7375Y386147D01*
X-7387Y385983D01*
X-7400Y385819D01*
X-7401Y385809D01*
X-7414Y385646D01*
X-7414Y385645D01*
X-7415Y385636D01*
X-7428Y385472D01*
X-7441Y385308D01*
X-7441Y385298D01*
X-7454Y385134D01*
X-7455Y385124D01*
X-7465Y385001D01*
X-7465Y385000D01*
X-7465Y105000D01*
X-7460Y104995D01*
X167460Y104995D01*
G37*
%LPC*%
G36*
X34921Y105728D02*
X34921Y105728D01*
X34031Y106618D01*
X34031Y117782D01*
X34921Y118672D01*
X49898Y118672D01*
X49900Y118674D01*
X49902Y118674D01*
X69152Y137924D01*
X69152Y137926D01*
X69154Y137927D01*
X69152Y137929D01*
X69153Y137931D01*
X69150Y137931D01*
X69149Y137933D01*
X66858Y137933D01*
X64183Y140608D01*
X64183Y143121D01*
X64181Y143122D01*
X64181Y143124D01*
X50779Y156526D01*
X50777Y156527D01*
X50776Y156528D01*
X34921Y156528D01*
X34031Y157418D01*
X34031Y168582D01*
X34921Y169472D01*
X61579Y169472D01*
X62469Y168582D01*
X62469Y157418D01*
X61579Y156528D01*
X58679Y156528D01*
X58677Y156527D01*
X58676Y156527D01*
X58676Y156525D01*
X58674Y156523D01*
X58675Y156522D01*
X58675Y156519D01*
X68126Y147069D01*
X68128Y147068D01*
X68129Y147067D01*
X70642Y147067D01*
X73317Y144392D01*
X73317Y142101D01*
X73318Y142100D01*
X73318Y142098D01*
X73320Y142098D01*
X73322Y142096D01*
X73322Y142097D01*
X73324Y142098D01*
X73326Y142098D01*
X76447Y145219D01*
X76447Y145221D01*
X76448Y145221D01*
X76447Y145222D01*
X76448Y145222D01*
X76449Y145223D01*
X76449Y288742D01*
X76448Y288744D01*
X76448Y288745D01*
X76446Y288745D01*
X76444Y288747D01*
X76443Y288746D01*
X76440Y288746D01*
X76154Y288459D01*
X58775Y271081D01*
X58775Y271079D01*
X58774Y271078D01*
X58775Y271076D01*
X58775Y271074D01*
X58777Y271074D01*
X58779Y271072D01*
X61579Y271072D01*
X62469Y270182D01*
X62469Y259018D01*
X61579Y258128D01*
X34921Y258128D01*
X34031Y259018D01*
X34031Y270182D01*
X34921Y271072D01*
X50876Y271072D01*
X50877Y271074D01*
X50879Y271074D01*
X72209Y292404D01*
X72209Y292405D01*
X72210Y292406D01*
X72209Y292406D01*
X72210Y292406D01*
X72211Y292407D01*
X72211Y356328D01*
X72209Y356330D01*
X72209Y356332D01*
X70433Y358108D01*
X70433Y361892D01*
X73108Y364567D01*
X75226Y364567D01*
X75228Y364568D01*
X75229Y364568D01*
X75229Y364570D01*
X75231Y364572D01*
X75230Y364573D01*
X75230Y364576D01*
X68304Y371501D01*
X68298Y371502D01*
X68298Y371501D01*
X68297Y371501D01*
X68001Y371205D01*
X65016Y369969D01*
X61784Y369969D01*
X58799Y371205D01*
X56513Y373491D01*
X55277Y376476D01*
X55277Y392916D01*
X56513Y395901D01*
X58799Y398187D01*
X61784Y399423D01*
X65016Y399423D01*
X68001Y398187D01*
X70287Y395901D01*
X71523Y392916D01*
X71523Y376476D01*
X71435Y376264D01*
X71436Y376260D01*
X71436Y376258D01*
X102789Y344905D01*
X102789Y302407D01*
X102791Y302406D01*
X102791Y302404D01*
X108721Y296474D01*
X108723Y296473D01*
X108724Y296472D01*
X125079Y296472D01*
X125969Y295582D01*
X125969Y284418D01*
X125079Y283528D01*
X98421Y283528D01*
X97531Y284418D01*
X97531Y295582D01*
X98421Y296472D01*
X100821Y296472D01*
X100823Y296473D01*
X100824Y296473D01*
X100824Y296475D01*
X100826Y296477D01*
X100825Y296478D01*
X100825Y296481D01*
X98846Y298459D01*
X97211Y300095D01*
X97211Y342593D01*
X97209Y342594D01*
X97209Y342596D01*
X79576Y360230D01*
X79574Y360230D01*
X79573Y360231D01*
X79571Y360230D01*
X79569Y360230D01*
X79569Y360228D01*
X79567Y360226D01*
X79567Y358108D01*
X77791Y356332D01*
X77791Y356330D01*
X77790Y356330D01*
X77791Y356330D01*
X77790Y356329D01*
X77789Y356328D01*
X77789Y307823D01*
X77790Y307822D01*
X77790Y307820D01*
X77792Y307820D01*
X77794Y307818D01*
X77795Y307819D01*
X77796Y307820D01*
X77798Y307820D01*
X81490Y311512D01*
X81490Y311514D01*
X81492Y311515D01*
X81491Y311516D01*
X81491Y311518D01*
X80677Y313484D01*
X80677Y329924D01*
X81913Y332909D01*
X84199Y335195D01*
X87184Y336431D01*
X90416Y336431D01*
X93401Y335195D01*
X95687Y332909D01*
X96923Y329924D01*
X96923Y313484D01*
X95687Y310499D01*
X93401Y308213D01*
X90416Y306977D01*
X87184Y306977D01*
X87056Y307030D01*
X87055Y307029D01*
X87054Y307029D01*
X87053Y307029D01*
X87051Y307029D01*
X83553Y303531D01*
X83552Y303528D01*
X83551Y303527D01*
X83551Y282522D01*
X83552Y282521D01*
X83552Y282519D01*
X83554Y282519D01*
X83556Y282517D01*
X83557Y282518D01*
X83558Y282519D01*
X83560Y282519D01*
X85608Y284567D01*
X89392Y284567D01*
X92067Y281892D01*
X92067Y278108D01*
X90291Y276332D01*
X90290Y276329D01*
X90289Y276328D01*
X90289Y268010D01*
X90290Y268009D01*
X90290Y268007D01*
X90292Y268007D01*
X90294Y268005D01*
X90295Y268007D01*
X90298Y268007D01*
X91858Y269567D01*
X95642Y269567D01*
X97418Y267791D01*
X97421Y267790D01*
X97422Y267789D01*
X97526Y267789D01*
X97531Y267794D01*
X97530Y267794D01*
X97531Y267794D01*
X97531Y270182D01*
X98421Y271072D01*
X125079Y271072D01*
X125969Y270182D01*
X125969Y259018D01*
X125079Y258128D01*
X98421Y258128D01*
X97531Y259018D01*
X97531Y262206D01*
X97526Y262211D01*
X97526Y262210D01*
X97526Y262211D01*
X97422Y262211D01*
X97420Y262209D01*
X97418Y262209D01*
X95642Y260433D01*
X92274Y260433D01*
X92272Y260432D01*
X92271Y260432D01*
X92271Y260430D01*
X92269Y260428D01*
X92270Y260427D01*
X92270Y260424D01*
X104039Y248655D01*
X104039Y245677D01*
X104044Y245672D01*
X104044Y245673D01*
X104044Y245672D01*
X125079Y245672D01*
X125969Y244782D01*
X125969Y233618D01*
X125079Y232728D01*
X98421Y232728D01*
X97531Y233618D01*
X97531Y244782D01*
X98421Y245672D01*
X98456Y245672D01*
X98461Y245677D01*
X98460Y245677D01*
X98461Y245677D01*
X98461Y246343D01*
X98459Y246344D01*
X98459Y246346D01*
X84711Y260095D01*
X84711Y276328D01*
X84709Y276330D01*
X84709Y276332D01*
X83560Y277481D01*
X83558Y277481D01*
X83557Y277483D01*
X83555Y277482D01*
X83553Y277482D01*
X83553Y277479D01*
X83551Y277478D01*
X83551Y142279D01*
X81469Y140197D01*
X74598Y133326D01*
X74598Y133324D01*
X74596Y133323D01*
X74598Y133321D01*
X74597Y133319D01*
X74600Y133319D01*
X74601Y133317D01*
X75621Y133317D01*
X75622Y133319D01*
X75624Y133319D01*
X90959Y148654D01*
X90960Y148656D01*
X90961Y148657D01*
X90961Y171155D01*
X101725Y181919D01*
X101725Y181921D01*
X101726Y181922D01*
X101725Y181924D01*
X101725Y181926D01*
X101723Y181926D01*
X101721Y181928D01*
X98421Y181928D01*
X97531Y182818D01*
X97531Y193982D01*
X98421Y194872D01*
X125079Y194872D01*
X125969Y193982D01*
X125969Y182818D01*
X125079Y181928D01*
X109624Y181928D01*
X109623Y181926D01*
X109621Y181926D01*
X96541Y168846D01*
X96541Y168844D01*
X96540Y168844D01*
X96539Y168843D01*
X96539Y151760D01*
X96540Y151759D01*
X96540Y151757D01*
X96542Y151757D01*
X96544Y151755D01*
X96544Y151756D01*
X96545Y151756D01*
X96546Y151757D01*
X96548Y151757D01*
X98108Y153317D01*
X100621Y153317D01*
X100622Y153319D01*
X100624Y153319D01*
X103825Y156519D01*
X103825Y156521D01*
X103826Y156522D01*
X103825Y156524D01*
X103825Y156526D01*
X103823Y156526D01*
X103821Y156528D01*
X98421Y156528D01*
X97531Y157418D01*
X97531Y168582D01*
X98421Y169472D01*
X125079Y169472D01*
X125969Y168582D01*
X125969Y157418D01*
X125079Y156528D01*
X111724Y156528D01*
X111723Y156526D01*
X111721Y156526D01*
X104569Y149374D01*
X104569Y149372D01*
X104568Y149372D01*
X104568Y149371D01*
X104567Y149371D01*
X104567Y146858D01*
X101892Y144183D01*
X98108Y144183D01*
X96246Y146045D01*
X96240Y146045D01*
X96239Y146045D01*
X94904Y144709D01*
X79569Y129374D01*
X79569Y129373D01*
X79568Y129372D01*
X79569Y129372D01*
X79568Y129372D01*
X79567Y129371D01*
X79567Y126858D01*
X76892Y124183D01*
X73108Y124183D01*
X70433Y126858D01*
X70433Y129149D01*
X70432Y129150D01*
X70432Y129152D01*
X70430Y129152D01*
X70428Y129154D01*
X70428Y129153D01*
X70427Y129153D01*
X70426Y129152D01*
X70424Y129152D01*
X59953Y118681D01*
X59953Y118679D01*
X59951Y118678D01*
X59953Y118676D01*
X59952Y118674D01*
X59955Y118674D01*
X59956Y118672D01*
X61579Y118672D01*
X62469Y117782D01*
X62469Y106618D01*
X61579Y105728D01*
X34921Y105728D01*
G37*
%LPD*%
%LPC*%
G36*
X118199Y300099D02*
X118199Y300099D01*
X112399Y305899D01*
X112399Y314101D01*
X118199Y319901D01*
X118944Y319901D01*
X118949Y319906D01*
X118948Y319906D01*
X118949Y319906D01*
X118949Y342721D01*
X121031Y344803D01*
X124609Y348381D01*
X124609Y348383D01*
X124610Y348384D01*
X124609Y348384D01*
X124610Y348388D01*
X124609Y348388D01*
X124099Y348899D01*
X124099Y357101D01*
X129899Y362901D01*
X138101Y362901D01*
X143901Y357101D01*
X143901Y348899D01*
X138101Y343099D01*
X129899Y343099D01*
X129638Y343359D01*
X129632Y343360D01*
X129632Y343359D01*
X129631Y343359D01*
X126053Y339781D01*
X126052Y339778D01*
X126051Y339777D01*
X126051Y319906D01*
X126056Y319901D01*
X126056Y319902D01*
X126056Y319901D01*
X126401Y319901D01*
X132201Y314101D01*
X132201Y305899D01*
X126401Y300099D01*
X118199Y300099D01*
G37*
%LPD*%
%LPC*%
G36*
X34921Y181928D02*
X34921Y181928D01*
X34031Y182818D01*
X34031Y193982D01*
X34921Y194872D01*
X36171Y194872D01*
X36173Y194873D01*
X36174Y194873D01*
X36174Y194875D01*
X36176Y194877D01*
X36175Y194878D01*
X36175Y194881D01*
X34374Y196681D01*
X34372Y196682D01*
X34371Y196683D01*
X31858Y196683D01*
X29183Y199358D01*
X29183Y203142D01*
X31858Y205817D01*
X35642Y205817D01*
X38317Y203142D01*
X38317Y200629D01*
X38319Y200628D01*
X38319Y200626D01*
X44071Y194874D01*
X44073Y194873D01*
X44074Y194872D01*
X61579Y194872D01*
X62469Y193982D01*
X62469Y182818D01*
X61579Y181928D01*
X34921Y181928D01*
G37*
%LPD*%
%LPC*%
G36*
X10984Y306977D02*
X10984Y306977D01*
X7999Y308213D01*
X5713Y310499D01*
X4477Y313484D01*
X4477Y329924D01*
X5713Y332909D01*
X7999Y335195D01*
X10984Y336431D01*
X14216Y336431D01*
X17201Y335195D01*
X19487Y332909D01*
X20723Y329924D01*
X20723Y313484D01*
X19487Y310499D01*
X17201Y308213D01*
X14216Y306977D01*
X10984Y306977D01*
G37*
%LPD*%
%LPC*%
G36*
X36384Y369969D02*
X36384Y369969D01*
X33399Y371205D01*
X31113Y373491D01*
X29877Y376476D01*
X29877Y392916D01*
X31113Y395901D01*
X33399Y398187D01*
X36384Y399423D01*
X39616Y399423D01*
X42601Y398187D01*
X44887Y395901D01*
X46123Y392916D01*
X46123Y376476D01*
X44887Y373491D01*
X42601Y371205D01*
X39616Y369969D01*
X36384Y369969D01*
G37*
%LPD*%
%LPC*%
G36*
X87184Y369969D02*
X87184Y369969D01*
X84199Y371205D01*
X81913Y373491D01*
X80677Y376476D01*
X80677Y392916D01*
X81913Y395901D01*
X84199Y398187D01*
X87184Y399423D01*
X90416Y399423D01*
X93401Y398187D01*
X95687Y395901D01*
X96923Y392916D01*
X96923Y376476D01*
X95687Y373491D01*
X93401Y371205D01*
X90416Y369969D01*
X87184Y369969D01*
G37*
%LPD*%
%LPC*%
G36*
X36384Y306977D02*
X36384Y306977D01*
X33399Y308213D01*
X31113Y310499D01*
X29877Y313484D01*
X29877Y329924D01*
X31113Y332909D01*
X33399Y335195D01*
X36384Y336431D01*
X39616Y336431D01*
X42601Y335195D01*
X44887Y332909D01*
X46123Y329924D01*
X46123Y313484D01*
X44887Y310499D01*
X42601Y308213D01*
X39616Y306977D01*
X36384Y306977D01*
G37*
%LPD*%
%LPC*%
G36*
X61784Y306977D02*
X61784Y306977D01*
X58799Y308213D01*
X56513Y310499D01*
X55277Y313484D01*
X55277Y329924D01*
X56513Y332909D01*
X58799Y335195D01*
X61784Y336431D01*
X65016Y336431D01*
X68001Y335195D01*
X70287Y332909D01*
X71523Y329924D01*
X71523Y313484D01*
X70287Y310499D01*
X68001Y308213D01*
X65016Y306977D01*
X61784Y306977D01*
G37*
%LPD*%
%LPC*%
G36*
X34921Y207328D02*
X34921Y207328D01*
X34031Y208218D01*
X34031Y219382D01*
X34921Y220272D01*
X61579Y220272D01*
X62469Y219382D01*
X62469Y208218D01*
X61579Y207328D01*
X34921Y207328D01*
G37*
%LPD*%
%LPC*%
G36*
X98421Y131128D02*
X98421Y131128D01*
X97531Y132018D01*
X97531Y143182D01*
X98421Y144072D01*
X125079Y144072D01*
X125969Y143182D01*
X125969Y132018D01*
X125079Y131128D01*
X98421Y131128D01*
G37*
%LPD*%
%LPC*%
G36*
X34921Y131128D02*
X34921Y131128D01*
X34031Y132018D01*
X34031Y143182D01*
X34921Y144072D01*
X61579Y144072D01*
X62469Y143182D01*
X62469Y132018D01*
X61579Y131128D01*
X34921Y131128D01*
G37*
%LPD*%
%LPC*%
G36*
X98421Y105728D02*
X98421Y105728D01*
X97531Y106618D01*
X97531Y117782D01*
X98421Y118672D01*
X125079Y118672D01*
X125969Y117782D01*
X125969Y106618D01*
X125079Y105728D01*
X98421Y105728D01*
G37*
%LPD*%
%LPC*%
G36*
X34921Y232728D02*
X34921Y232728D01*
X34031Y233618D01*
X34031Y244782D01*
X34921Y245672D01*
X61579Y245672D01*
X62469Y244782D01*
X62469Y233618D01*
X61579Y232728D01*
X34921Y232728D01*
G37*
%LPD*%
%LPC*%
G36*
X98421Y207328D02*
X98421Y207328D01*
X97531Y208218D01*
X97531Y219382D01*
X98421Y220272D01*
X125079Y220272D01*
X125969Y219382D01*
X125969Y208218D01*
X125079Y207328D01*
X98421Y207328D01*
G37*
%LPD*%
%LPC*%
G36*
X143599Y375099D02*
X143599Y375099D01*
X137799Y380899D01*
X137799Y389101D01*
X143599Y394901D01*
X151801Y394901D01*
X157601Y389101D01*
X157601Y380899D01*
X151801Y375099D01*
X143599Y375099D01*
G37*
%LPD*%
%LPC*%
G36*
X108309Y343099D02*
X108309Y343099D01*
X102509Y348899D01*
X102509Y357101D01*
X108309Y362901D01*
X116511Y362901D01*
X122311Y357101D01*
X122311Y348899D01*
X116511Y343099D01*
X108309Y343099D01*
G37*
%LPD*%
%LPC*%
G36*
X12605Y391295D02*
X12605Y391295D01*
X21739Y391295D01*
X21739Y377192D01*
X21737Y377179D01*
X21734Y377164D01*
X21732Y377154D01*
X21729Y377139D01*
X21726Y377124D01*
X21724Y377114D01*
X21721Y377099D01*
X21718Y377084D01*
X21713Y377060D01*
X21713Y377059D01*
X21710Y377045D01*
X21705Y377020D01*
X21702Y377005D01*
X21697Y376980D01*
X21694Y376965D01*
X21689Y376940D01*
X21686Y376925D01*
X21683Y376910D01*
X21681Y376901D01*
X21681Y376900D01*
X21678Y376886D01*
X21675Y376871D01*
X21673Y376861D01*
X21670Y376846D01*
X21667Y376831D01*
X21665Y376821D01*
X21662Y376806D01*
X21660Y376791D01*
X21659Y376791D01*
X21660Y376791D01*
X21655Y376766D01*
X21652Y376751D01*
X21647Y376727D01*
X21644Y376712D01*
X21639Y376687D01*
X21636Y376672D01*
X21633Y376657D01*
X21631Y376647D01*
X21628Y376632D01*
X21625Y376617D01*
X21623Y376607D01*
X21620Y376592D01*
X21617Y376578D01*
X21615Y376568D01*
X21612Y376553D01*
X21609Y376538D01*
X21604Y376513D01*
X21601Y376498D01*
X21596Y376473D01*
X21593Y376458D01*
X21588Y376433D01*
X21585Y376419D01*
X21582Y376404D01*
X21580Y376394D01*
X21577Y376379D01*
X21575Y376364D01*
X21574Y376364D01*
X21575Y376364D01*
X21573Y376354D01*
X21570Y376339D01*
X21567Y376324D01*
X21565Y376314D01*
X21562Y376299D01*
X21559Y376284D01*
X21557Y376274D01*
X21554Y376260D01*
X21551Y376245D01*
X21546Y376220D01*
X21543Y376205D01*
X21538Y376180D01*
X21535Y376165D01*
X21530Y376140D01*
X21527Y376125D01*
X21524Y376111D01*
X21524Y376110D01*
X21522Y376101D01*
X21519Y376086D01*
X21516Y376071D01*
X21514Y376061D01*
X21511Y376046D01*
X21508Y376031D01*
X21506Y376021D01*
X21503Y376006D01*
X21500Y375991D01*
X21495Y375966D01*
X21492Y375952D01*
X21492Y375951D01*
X21488Y375927D01*
X21485Y375912D01*
X21480Y375887D01*
X21477Y375872D01*
X21474Y375857D01*
X21472Y375847D01*
X21469Y375832D01*
X21466Y375817D01*
X21464Y375807D01*
X21461Y375793D01*
X21461Y375792D01*
X21458Y375778D01*
X21456Y375768D01*
X21453Y375753D01*
X21450Y375738D01*
X21445Y375713D01*
X21442Y375698D01*
X21437Y375673D01*
X21434Y375658D01*
X21429Y375634D01*
X21429Y375633D01*
X21426Y375619D01*
X21421Y375594D01*
X21418Y375579D01*
X21415Y375564D01*
X21413Y375554D01*
X21410Y375539D01*
X21407Y375524D01*
X21406Y375514D01*
X21405Y375514D01*
X21403Y375499D01*
X21400Y375484D01*
X21398Y375475D01*
X21398Y375474D01*
X21395Y375460D01*
X21392Y375445D01*
X21388Y375426D01*
X20699Y373763D01*
X19699Y372266D01*
X18426Y370993D01*
X16929Y369993D01*
X15266Y369304D01*
X13500Y368953D01*
X12605Y368953D01*
X12605Y391295D01*
G37*
%LPD*%
%LPC*%
G36*
X11700Y368953D02*
X11700Y368953D01*
X9934Y369304D01*
X8271Y369993D01*
X6774Y370993D01*
X5501Y372266D01*
X4501Y373763D01*
X3812Y375426D01*
X3461Y377192D01*
X3461Y391295D01*
X12595Y391295D01*
X12595Y368953D01*
X11700Y368953D01*
G37*
%LPD*%
%LPC*%
G36*
X33015Y290005D02*
X33015Y290005D01*
X33015Y295457D01*
X33401Y296389D01*
X34114Y297102D01*
X35046Y297488D01*
X48245Y297488D01*
X48245Y290005D01*
X33015Y290005D01*
G37*
%LPD*%
%LPC*%
G36*
X48255Y290005D02*
X48255Y290005D01*
X48255Y297488D01*
X61454Y297488D01*
X62386Y297102D01*
X63099Y296389D01*
X63485Y295457D01*
X63485Y290005D01*
X48255Y290005D01*
G37*
%LPD*%
%LPC*%
G36*
X48255Y282512D02*
X48255Y282512D01*
X48255Y289995D01*
X63485Y289995D01*
X63485Y284543D01*
X63099Y283611D01*
X62386Y282898D01*
X61454Y282512D01*
X48255Y282512D01*
G37*
%LPD*%
%LPC*%
G36*
X35046Y282512D02*
X35046Y282512D01*
X34114Y282898D01*
X33401Y283611D01*
X33015Y284543D01*
X33015Y289995D01*
X48245Y289995D01*
X48245Y282512D01*
X35046Y282512D01*
G37*
%LPD*%
%LPC*%
G36*
X111383Y385005D02*
X111383Y385005D01*
X111383Y389522D01*
X117778Y395917D01*
X122295Y395917D01*
X122295Y385005D01*
X111383Y385005D01*
G37*
%LPD*%
%LPC*%
G36*
X144673Y353005D02*
X144673Y353005D01*
X144673Y357522D01*
X151068Y363917D01*
X155585Y363917D01*
X155585Y353005D01*
X144673Y353005D01*
G37*
%LPD*%
%LPC*%
G36*
X136783Y310005D02*
X136783Y310005D01*
X136783Y314522D01*
X143178Y320917D01*
X147695Y320917D01*
X147695Y310005D01*
X136783Y310005D01*
G37*
%LPD*%
%LPC*%
G36*
X122305Y385005D02*
X122305Y385005D01*
X122305Y395917D01*
X126822Y395917D01*
X133217Y389522D01*
X133217Y385005D01*
X122305Y385005D01*
G37*
%LPD*%
%LPC*%
G36*
X155595Y353005D02*
X155595Y353005D01*
X155595Y363917D01*
X160112Y363917D01*
X166507Y357522D01*
X166507Y353005D01*
X155595Y353005D01*
G37*
%LPD*%
%LPC*%
G36*
X147705Y310005D02*
X147705Y310005D01*
X147705Y320917D01*
X152222Y320917D01*
X158617Y314522D01*
X158617Y310005D01*
X147705Y310005D01*
G37*
%LPD*%
%LPC*%
G36*
X117778Y374083D02*
X117778Y374083D01*
X111383Y380478D01*
X111383Y384995D01*
X122295Y384995D01*
X122295Y374083D01*
X117778Y374083D01*
G37*
%LPD*%
%LPC*%
G36*
X143178Y299083D02*
X143178Y299083D01*
X136783Y305478D01*
X136783Y309995D01*
X147695Y309995D01*
X147695Y299083D01*
X143178Y299083D01*
G37*
%LPD*%
%LPC*%
G36*
X151068Y342083D02*
X151068Y342083D01*
X144673Y348478D01*
X144673Y352995D01*
X155585Y352995D01*
X155585Y342083D01*
X151068Y342083D01*
G37*
%LPD*%
%LPC*%
G36*
X122305Y374083D02*
X122305Y374083D01*
X122305Y384995D01*
X133217Y384995D01*
X133217Y380478D01*
X126822Y374083D01*
X122305Y374083D01*
G37*
%LPD*%
%LPC*%
G36*
X147705Y299083D02*
X147705Y299083D01*
X147705Y309995D01*
X158617Y309995D01*
X158617Y305478D01*
X152222Y299083D01*
X147705Y299083D01*
G37*
%LPD*%
%LPC*%
G36*
X155595Y342083D02*
X155595Y342083D01*
X155595Y352995D01*
X166507Y352995D01*
X166507Y348478D01*
X160112Y342083D01*
X155595Y342083D01*
G37*
%LPD*%
%LPC*%
G36*
X12605Y391305D02*
X12605Y391305D01*
X12605Y400439D01*
X13500Y400439D01*
X15266Y400088D01*
X16929Y399399D01*
X18426Y398399D01*
X19699Y397126D01*
X20699Y395629D01*
X21388Y393966D01*
X21739Y392200D01*
X21739Y391305D01*
X12605Y391305D01*
G37*
%LPD*%
%LPC*%
G36*
X3461Y391305D02*
X3461Y391305D01*
X3461Y392200D01*
X3461Y392203D01*
X3466Y392228D01*
X3469Y392243D01*
X3474Y392268D01*
X3477Y392282D01*
X3477Y392283D01*
X3480Y392297D01*
X3482Y392307D01*
X3485Y392322D01*
X3488Y392337D01*
X3490Y392347D01*
X3493Y392362D01*
X3496Y392377D01*
X3498Y392387D01*
X3501Y392402D01*
X3504Y392417D01*
X3509Y392441D01*
X3509Y392442D01*
X3512Y392456D01*
X3517Y392481D01*
X3520Y392496D01*
X3525Y392521D01*
X3528Y392536D01*
X3531Y392551D01*
X3533Y392561D01*
X3535Y392576D01*
X3536Y392576D01*
X3535Y392576D01*
X3538Y392591D01*
X3540Y392600D01*
X3540Y392601D01*
X3543Y392615D01*
X3546Y392630D01*
X3548Y392640D01*
X3551Y392655D01*
X3554Y392670D01*
X3559Y392695D01*
X3562Y392710D01*
X3567Y392735D01*
X3570Y392750D01*
X3575Y392774D01*
X3578Y392789D01*
X3581Y392804D01*
X3583Y392814D01*
X3586Y392829D01*
X3589Y392844D01*
X3591Y392854D01*
X3594Y392869D01*
X3597Y392884D01*
X3599Y392894D01*
X3602Y392909D01*
X3605Y392923D01*
X3605Y392924D01*
X3607Y392933D01*
X3610Y392948D01*
X3613Y392963D01*
X3618Y392988D01*
X3620Y393003D01*
X3621Y393003D01*
X3620Y393003D01*
X3625Y393028D01*
X3628Y393043D01*
X3633Y393068D01*
X3636Y393082D01*
X3636Y393083D01*
X3639Y393097D01*
X3641Y393107D01*
X3644Y393122D01*
X3647Y393137D01*
X3649Y393147D01*
X3652Y393162D01*
X3655Y393177D01*
X3657Y393187D01*
X3660Y393202D01*
X3663Y393217D01*
X3668Y393241D01*
X3668Y393242D01*
X3671Y393256D01*
X3676Y393281D01*
X3679Y393296D01*
X3684Y393321D01*
X3687Y393336D01*
X3690Y393351D01*
X3692Y393361D01*
X3695Y393376D01*
X3698Y393391D01*
X3700Y393400D01*
X3703Y393415D01*
X3705Y393430D01*
X3706Y393430D01*
X3705Y393430D01*
X3707Y393440D01*
X3710Y393455D01*
X3713Y393470D01*
X3718Y393495D01*
X3721Y393510D01*
X3726Y393535D01*
X3729Y393550D01*
X3734Y393574D01*
X3737Y393589D01*
X3742Y393614D01*
X3745Y393629D01*
X3748Y393644D01*
X3750Y393654D01*
X3753Y393669D01*
X3756Y393684D01*
X3758Y393694D01*
X3761Y393709D01*
X3764Y393723D01*
X3766Y393733D01*
X3769Y393748D01*
X3772Y393763D01*
X3777Y393788D01*
X3780Y393803D01*
X3785Y393828D01*
X3788Y393843D01*
X3792Y393868D01*
X3795Y393882D01*
X3798Y393897D01*
X3800Y393907D01*
X3803Y393922D01*
X3806Y393937D01*
X3808Y393947D01*
X3811Y393962D01*
X3812Y393966D01*
X4501Y395629D01*
X5501Y397126D01*
X6774Y398399D01*
X8271Y399399D01*
X9934Y400088D01*
X11700Y400439D01*
X12595Y400439D01*
X12595Y391305D01*
X3461Y391305D01*
G37*
%LPD*%
D10*
X88800Y391300D02*
X88800Y378092D01*
X63400Y378092D02*
X63400Y391300D01*
X38000Y391300D02*
X38000Y378092D01*
X12600Y378092D02*
X12600Y391300D01*
X12600Y328308D02*
X12600Y315100D01*
X38000Y315100D02*
X38000Y328308D01*
X63400Y328308D02*
X63400Y315100D01*
X88800Y315100D02*
X88800Y328308D01*
D11*
X155590Y353000D03*
X134000Y353000D03*
X112410Y353000D03*
X147700Y385000D03*
X122300Y385000D03*
D12*
X122300Y310000D03*
X147700Y310000D03*
D13*
X48250Y290000D03*
X111750Y290000D03*
X48250Y264600D03*
X111750Y264600D03*
X48250Y239200D03*
X111750Y239200D03*
X48250Y213800D03*
X111750Y213800D03*
X48250Y188400D03*
X111750Y188400D03*
X48250Y163000D03*
X111750Y163000D03*
X48250Y137600D03*
X111750Y137600D03*
X48250Y112200D03*
X111750Y112200D03*
D14*
X111250Y265000D02*
X93750Y265000D01*
X111250Y265000D02*
X111750Y264600D01*
D15*
X93750Y265000D03*
D14*
X101250Y240000D02*
X111250Y240000D01*
X101250Y240000D02*
X101250Y247500D01*
X87500Y261250D01*
X87500Y280000D01*
X111250Y240000D02*
X111750Y239200D01*
D15*
X87500Y280000D03*
D14*
X48250Y163000D02*
X68750Y142500D01*
D15*
X68750Y142500D03*
D14*
X48750Y265000D02*
X75000Y291250D01*
X75000Y360000D01*
X48750Y265000D02*
X48250Y264600D01*
D15*
X75000Y360000D03*
D14*
X93750Y147500D02*
X75000Y128750D01*
X93750Y147500D02*
X93750Y170000D01*
X111250Y187500D01*
X111750Y188400D01*
D15*
X75000Y128750D03*
D14*
X100000Y148750D02*
X111250Y160000D01*
X111250Y162500D01*
X111750Y163000D01*
D15*
X100000Y148750D03*
D16*
X80000Y143750D02*
X48750Y112500D01*
X80000Y143750D02*
X80000Y305000D01*
X88750Y313750D01*
X88750Y315000D01*
X48750Y112500D02*
X48250Y112200D01*
X88750Y315000D02*
X88800Y315100D01*
X122500Y341250D02*
X133750Y352500D01*
X122500Y341250D02*
X122500Y310000D01*
X133750Y352500D02*
X134000Y353000D01*
X122500Y310000D02*
X122300Y310000D01*
D14*
X111250Y290000D02*
X100000Y301250D01*
X100000Y343750D01*
X63750Y380000D01*
X63750Y391250D01*
X111250Y290000D02*
X111750Y290000D01*
X63750Y391250D02*
X63400Y391300D01*
X33750Y201250D02*
X47500Y187500D01*
X48250Y188400D01*
D15*
X33750Y201250D03*
M02*
