M48
;GenerationSoftware,Autodesk,EAGLE,9.6.2*%
;CreationDate,2024-08-07T02:43:24Z*%
FMAT,2
ICI,OFF
METRIC,TZ,000.000
T2C0.305
T1C0.813
%
G90
M71
T1
X8880Y39130
X6340Y39130
X3800Y39130
X1260Y39130
X1260Y31510
X3800Y31510
X6340Y31510
X8880Y31510
X15559Y35300
X13400Y35300
X11241Y35300
X14770Y38500
X12230Y38500
X12230Y31000
X14770Y31000
T2
X9375Y26500
X8750Y28000
X6875Y14250
X7500Y36000
X7500Y12875
X10000Y14875
X3375Y20125
M30