G04 EAGLE Gerber RS-274X export*
G75*
%MOMM*%
%FSLAX34Y34*%
%LPD*%
%IN*%
%IPPOS*%
%AMOC8*
5,1,8,0,0,1.08239X$1,22.5*%
G01*
%ADD10C,0.000000*%
%ADD11C,0.254000*%


D10*
X10000Y0D02*
X150000Y0D01*
X170000Y20000D02*
X170000Y385000D01*
X10000Y405000D02*
X9517Y404994D01*
X9034Y404977D01*
X8551Y404947D01*
X8070Y404907D01*
X7589Y404854D01*
X7110Y404790D01*
X6633Y404715D01*
X6157Y404627D01*
X5684Y404529D01*
X5214Y404419D01*
X4746Y404298D01*
X4281Y404165D01*
X3820Y404021D01*
X3362Y403866D01*
X2908Y403700D01*
X2458Y403523D01*
X2013Y403336D01*
X1572Y403137D01*
X1136Y402929D01*
X706Y402709D01*
X280Y402479D01*
X-139Y402239D01*
X-553Y401989D01*
X-960Y401729D01*
X-1361Y401460D01*
X-1756Y401180D01*
X-2143Y400892D01*
X-2524Y400593D01*
X-2897Y400286D01*
X-3262Y399970D01*
X-3620Y399645D01*
X-3970Y399312D01*
X-4312Y398970D01*
X-4645Y398620D01*
X-4970Y398262D01*
X-5286Y397897D01*
X-5593Y397524D01*
X-5892Y397143D01*
X-6180Y396756D01*
X-6460Y396361D01*
X-6729Y395960D01*
X-6989Y395553D01*
X-7239Y395139D01*
X-7479Y394720D01*
X-7709Y394294D01*
X-7929Y393864D01*
X-8137Y393428D01*
X-8336Y392987D01*
X-8523Y392542D01*
X-8700Y392092D01*
X-8866Y391638D01*
X-9021Y391180D01*
X-9165Y390719D01*
X-9298Y390254D01*
X-9419Y389786D01*
X-9529Y389316D01*
X-9627Y388843D01*
X-9715Y388367D01*
X-9790Y387890D01*
X-9854Y387411D01*
X-9907Y386930D01*
X-9947Y386449D01*
X-9977Y385966D01*
X-9994Y385483D01*
X-10000Y385000D01*
X150000Y405000D02*
X150483Y404994D01*
X150966Y404977D01*
X151449Y404947D01*
X151930Y404907D01*
X152411Y404854D01*
X152890Y404790D01*
X153367Y404715D01*
X153843Y404627D01*
X154316Y404529D01*
X154786Y404419D01*
X155254Y404298D01*
X155719Y404165D01*
X156180Y404021D01*
X156638Y403866D01*
X157092Y403700D01*
X157542Y403523D01*
X157987Y403336D01*
X158428Y403137D01*
X158864Y402929D01*
X159294Y402709D01*
X159720Y402479D01*
X160139Y402239D01*
X160553Y401989D01*
X160960Y401729D01*
X161361Y401460D01*
X161756Y401180D01*
X162143Y400892D01*
X162524Y400593D01*
X162897Y400286D01*
X163262Y399970D01*
X163620Y399645D01*
X163970Y399312D01*
X164312Y398970D01*
X164645Y398620D01*
X164970Y398262D01*
X165286Y397897D01*
X165593Y397524D01*
X165892Y397143D01*
X166180Y396756D01*
X166460Y396361D01*
X166729Y395960D01*
X166989Y395553D01*
X167239Y395139D01*
X167479Y394720D01*
X167709Y394294D01*
X167929Y393864D01*
X168137Y393428D01*
X168336Y392987D01*
X168523Y392542D01*
X168700Y392092D01*
X168866Y391638D01*
X169021Y391180D01*
X169165Y390719D01*
X169298Y390254D01*
X169419Y389786D01*
X169529Y389316D01*
X169627Y388843D01*
X169715Y388367D01*
X169790Y387890D01*
X169854Y387411D01*
X169907Y386930D01*
X169947Y386449D01*
X169977Y385966D01*
X169994Y385483D01*
X170000Y385000D01*
X-10000Y20000D02*
X-9994Y19517D01*
X-9977Y19034D01*
X-9947Y18551D01*
X-9907Y18070D01*
X-9854Y17589D01*
X-9790Y17110D01*
X-9715Y16633D01*
X-9627Y16157D01*
X-9529Y15684D01*
X-9419Y15214D01*
X-9298Y14746D01*
X-9165Y14281D01*
X-9021Y13820D01*
X-8866Y13362D01*
X-8700Y12908D01*
X-8523Y12458D01*
X-8336Y12013D01*
X-8137Y11572D01*
X-7929Y11136D01*
X-7709Y10706D01*
X-7479Y10280D01*
X-7239Y9861D01*
X-6989Y9447D01*
X-6729Y9040D01*
X-6460Y8639D01*
X-6180Y8244D01*
X-5892Y7857D01*
X-5593Y7476D01*
X-5286Y7103D01*
X-4970Y6738D01*
X-4645Y6380D01*
X-4312Y6030D01*
X-3970Y5688D01*
X-3620Y5355D01*
X-3262Y5030D01*
X-2897Y4714D01*
X-2524Y4407D01*
X-2143Y4108D01*
X-1756Y3820D01*
X-1361Y3540D01*
X-960Y3271D01*
X-553Y3011D01*
X-139Y2761D01*
X280Y2521D01*
X706Y2291D01*
X1136Y2071D01*
X1572Y1863D01*
X2013Y1664D01*
X2458Y1477D01*
X2908Y1300D01*
X3362Y1134D01*
X3820Y979D01*
X4281Y835D01*
X4746Y702D01*
X5214Y581D01*
X5684Y471D01*
X6157Y373D01*
X6633Y285D01*
X7110Y210D01*
X7589Y146D01*
X8070Y93D01*
X8551Y53D01*
X9034Y23D01*
X9517Y6D01*
X10000Y0D01*
X150000Y0D02*
X150483Y6D01*
X150966Y23D01*
X151449Y53D01*
X151930Y93D01*
X152411Y146D01*
X152890Y210D01*
X153367Y285D01*
X153843Y373D01*
X154316Y471D01*
X154786Y581D01*
X155254Y702D01*
X155719Y835D01*
X156180Y979D01*
X156638Y1134D01*
X157092Y1300D01*
X157542Y1477D01*
X157987Y1664D01*
X158428Y1863D01*
X158864Y2071D01*
X159294Y2291D01*
X159720Y2521D01*
X160139Y2761D01*
X160553Y3011D01*
X160960Y3271D01*
X161361Y3540D01*
X161756Y3820D01*
X162143Y4108D01*
X162524Y4407D01*
X162897Y4714D01*
X163262Y5030D01*
X163620Y5355D01*
X163970Y5688D01*
X164312Y6030D01*
X164645Y6380D01*
X164970Y6738D01*
X165286Y7103D01*
X165593Y7476D01*
X165892Y7857D01*
X166180Y8244D01*
X166460Y8639D01*
X166729Y9040D01*
X166989Y9447D01*
X167239Y9861D01*
X167479Y10280D01*
X167709Y10706D01*
X167929Y11136D01*
X168137Y11572D01*
X168336Y12013D01*
X168523Y12458D01*
X168700Y12908D01*
X168866Y13362D01*
X169021Y13820D01*
X169165Y14281D01*
X169298Y14746D01*
X169419Y15214D01*
X169529Y15684D01*
X169627Y16157D01*
X169715Y16633D01*
X169790Y17110D01*
X169854Y17589D01*
X169907Y18070D01*
X169947Y18551D01*
X169977Y19034D01*
X169994Y19517D01*
X170000Y20000D01*
X-10000Y20000D02*
X-10000Y385000D01*
X10000Y405000D02*
X150000Y405000D01*
D11*
X-10000Y20000D02*
X-9924Y18257D01*
X-9696Y16527D01*
X-9319Y14824D01*
X-8794Y13160D01*
X-8126Y11548D01*
X-7321Y10000D01*
X-6383Y8528D01*
X-5321Y7144D01*
X-4142Y5858D01*
X-2856Y4679D01*
X-1472Y3617D01*
X0Y2679D01*
X1548Y1874D01*
X3160Y1206D01*
X4824Y681D01*
X6527Y304D01*
X8257Y76D01*
X10000Y0D01*
X150000Y0D01*
X151743Y76D01*
X153473Y304D01*
X155176Y681D01*
X156840Y1206D01*
X158452Y1874D01*
X160000Y2680D01*
X161472Y3617D01*
X162856Y4679D01*
X164142Y5858D01*
X165321Y7144D01*
X166383Y8528D01*
X167321Y10000D01*
X168126Y11548D01*
X168794Y13160D01*
X169319Y14824D01*
X169696Y16527D01*
X169924Y18257D01*
X170000Y20000D01*
X170000Y385000D01*
X169924Y386743D01*
X169696Y388473D01*
X169319Y390176D01*
X168794Y391840D01*
X168126Y393452D01*
X167321Y395000D01*
X166383Y396472D01*
X165321Y397856D01*
X164142Y399142D01*
X162856Y400321D01*
X161472Y401383D01*
X160000Y402321D01*
X158452Y403126D01*
X156840Y403794D01*
X155176Y404319D01*
X153473Y404696D01*
X151743Y404924D01*
X150000Y405000D01*
X10000Y405000D01*
X8257Y404924D01*
X6527Y404696D01*
X4824Y404319D01*
X3160Y403794D01*
X1548Y403126D01*
X0Y402320D01*
X-1472Y401383D01*
X-2856Y400321D01*
X-4142Y399142D01*
X-5321Y397856D01*
X-6383Y396472D01*
X-7321Y395000D01*
X-8126Y393452D01*
X-8794Y391840D01*
X-9319Y390176D01*
X-9696Y388473D01*
X-9924Y386743D01*
X-10000Y385000D01*
X-10000Y20000D01*
M02*
