G04 EAGLE Gerber RS-274X export*
G75*
%MOMM*%
%FSLAX34Y34*%
%LPD*%
%INSilkscreen Bottom*%
%IPPOS*%
%AMOC8*
5,1,8,0,0,1.08239X$1,22.5*%
G01*
%ADD10C,0.076200*%
%ADD11C,0.127000*%
%ADD12C,0.101600*%


D10*
X30253Y147881D02*
X24110Y147881D01*
X22881Y149110D01*
X22881Y151567D01*
X24110Y152796D01*
X30253Y152796D01*
X27796Y155365D02*
X27796Y160280D01*
X22881Y155365D01*
X22881Y160280D01*
X22881Y164078D02*
X22881Y166535D01*
X22881Y164078D02*
X24110Y162849D01*
X26567Y162849D01*
X27796Y164078D01*
X27796Y166535D01*
X26567Y167764D01*
X25338Y167764D01*
X25338Y162849D01*
X22881Y170333D02*
X27796Y170333D01*
X27796Y174020D01*
X26567Y175248D01*
X22881Y175248D01*
X22881Y179046D02*
X22881Y181504D01*
X22881Y179046D02*
X24110Y177818D01*
X26567Y177818D01*
X27796Y179046D01*
X27796Y181504D01*
X26567Y182732D01*
X25338Y182732D01*
X25338Y177818D01*
X24110Y186530D02*
X29025Y186530D01*
X24110Y186530D02*
X22881Y187759D01*
X27796Y187759D02*
X27796Y185302D01*
X30253Y197775D02*
X22881Y197775D01*
X27796Y200233D02*
X30253Y197775D01*
X27796Y200233D02*
X30253Y202690D01*
X22881Y202690D01*
X22881Y206488D02*
X22881Y208946D01*
X24110Y210174D01*
X26567Y210174D01*
X27796Y208946D01*
X27796Y206488D01*
X26567Y205260D01*
X24110Y205260D01*
X22881Y206488D01*
X22881Y217659D02*
X30253Y217659D01*
X22881Y217659D02*
X22881Y213972D01*
X24110Y212744D01*
X26567Y212744D01*
X27796Y213972D01*
X27796Y217659D01*
X27796Y220228D02*
X24110Y220228D01*
X22881Y221457D01*
X22881Y225143D01*
X27796Y225143D01*
X30253Y227712D02*
X30253Y228941D01*
X22881Y228941D01*
X22881Y230169D02*
X22881Y227712D01*
X22881Y233930D02*
X22881Y236388D01*
X22881Y233930D02*
X24110Y232701D01*
X26567Y232701D01*
X27796Y233930D01*
X27796Y236388D01*
X26567Y237616D01*
X25338Y237616D01*
X25338Y232701D01*
X131610Y157881D02*
X135296Y157881D01*
X131610Y157881D02*
X130381Y159110D01*
X130381Y162796D01*
X135296Y162796D01*
X135296Y165365D02*
X135296Y170280D01*
X130381Y165365D01*
X130381Y170280D01*
X130381Y174078D02*
X130381Y176535D01*
X130381Y174078D02*
X131610Y172849D01*
X134067Y172849D01*
X135296Y174078D01*
X135296Y176535D01*
X134067Y177764D01*
X132838Y177764D01*
X132838Y172849D01*
X130381Y180333D02*
X137753Y180333D01*
X130381Y180333D02*
X130381Y184020D01*
X131610Y185248D01*
X134067Y185248D01*
X135296Y184020D01*
X135296Y180333D01*
X130381Y189046D02*
X130381Y191504D01*
X131610Y192732D01*
X134067Y192732D01*
X135296Y191504D01*
X135296Y189046D01*
X134067Y187818D01*
X131610Y187818D01*
X130381Y189046D01*
X135296Y195302D02*
X130381Y200217D01*
X130381Y195302D02*
X135296Y200217D01*
X131610Y202786D02*
X130381Y202786D01*
X131610Y202786D02*
X131610Y204015D01*
X130381Y204015D01*
X130381Y202786D01*
X130381Y207757D02*
X130381Y210214D01*
X131610Y211443D01*
X134067Y211443D01*
X135296Y210214D01*
X135296Y207757D01*
X134067Y206528D01*
X131610Y206528D01*
X130381Y207757D01*
X130381Y214012D02*
X135296Y214012D01*
X132838Y214012D02*
X135296Y216470D01*
X135296Y217698D01*
X127924Y222706D02*
X127924Y223935D01*
X129152Y225164D01*
X135296Y225164D01*
X135296Y221478D01*
X134067Y220249D01*
X131610Y220249D01*
X130381Y221478D01*
X130381Y225164D01*
D11*
X105000Y305000D02*
X55000Y305000D01*
X105000Y305000D02*
X105000Y300000D01*
X55000Y300000D02*
X55000Y305000D01*
X55000Y105000D02*
X55000Y95000D01*
X105000Y95000D01*
X105000Y105000D01*
D12*
X95725Y287408D02*
X97674Y289357D01*
X95725Y287408D02*
X93776Y287408D01*
X91827Y289357D01*
X91827Y299102D01*
X93776Y299102D02*
X89878Y299102D01*
X85980Y299102D02*
X85980Y287408D01*
X85980Y299102D02*
X80133Y299102D01*
X78184Y297153D01*
X78184Y293255D01*
X80133Y291306D01*
X85980Y291306D01*
X74286Y295204D02*
X70388Y299102D01*
X70388Y287408D01*
X74286Y287408D02*
X66490Y287408D01*
M02*
