M48
;GenerationSoftware,Autodesk,EAGLE,9.6.2*%
;CreationDate,2024-08-23T21:58:47Z*%
FMAT,2
ICI,OFF
METRIC,TZ,000.000
T3C0.600
T2C0.813
T1C1.016
%
G90
M71
T1
X8890Y4445
X12700Y22860
X12700Y20320
X7341Y26111
X2819Y26111
X7341Y19609
X19050Y4445
X16510Y4445
X13970Y4445
X11430Y4445
X2819Y19609
X6350Y4445
X12700Y25400
X22581Y26111
X22581Y19609
X18059Y26111
X18059Y19609
T2
X20955Y10795
X4445Y9906
X4445Y12065
X4445Y14224
X15875Y10795
X15875Y13335
X10160Y13335
X10160Y10795
X20955Y13335
T3
X19700Y37140
X19700Y39140
X19700Y41140
X19700Y43140
X19700Y45140
X5700Y35140
X5700Y37140
X5700Y39140
X5700Y41140
X5700Y43140
X5700Y33140
X5700Y45140
X5700Y31140
X19700Y31140
X19700Y33140
X19700Y35140
M30