G04 EAGLE Gerber RS-274X export*
G75*
%MOMM*%
%FSLAX34Y34*%
%LPD*%
%INSoldermask Bottom*%
%IPPOS*%
%AMOC8*
5,1,8,0,0,1.08239X$1,22.5*%
G01*
%ADD10P,1.803519X8X112.500000*%
%ADD11C,1.981200*%
%ADD12P,2.144431X8X292.500000*%
%ADD13C,2.032000*%
%ADD14P,2.034460X8X112.500000*%
%ADD15R,1.311200X1.311200*%
%ADD16C,2.082800*%


D10*
X158750Y107950D03*
X158750Y133350D03*
D11*
X101600Y133350D03*
D12*
X101600Y107950D03*
D11*
X209550Y133350D03*
D12*
X209550Y107950D03*
D13*
X190500Y53594D02*
X190500Y35306D01*
X165100Y35306D02*
X165100Y53594D01*
X139700Y53594D02*
X139700Y35306D01*
X114300Y35306D02*
X114300Y53594D01*
X88900Y53594D02*
X88900Y35306D01*
X63500Y35306D02*
X63500Y53594D01*
D14*
X44450Y99060D03*
X44450Y120650D03*
X44450Y142240D03*
D15*
X57000Y451400D03*
X57000Y431400D03*
X57000Y411400D03*
X57000Y391400D03*
X57000Y371400D03*
X57000Y351400D03*
X57000Y331400D03*
X57000Y311400D03*
X197000Y311400D03*
X197000Y331400D03*
X197000Y351400D03*
X197000Y371400D03*
X197000Y391400D03*
X197000Y411400D03*
X197000Y431400D03*
X197000Y451400D03*
D13*
X136144Y203200D02*
X117856Y203200D01*
X117856Y228600D02*
X136144Y228600D01*
X136144Y254000D02*
X117856Y254000D01*
D16*
X28194Y196088D03*
X28194Y261112D03*
X73406Y196088D03*
X73406Y261112D03*
X225806Y261112D03*
X225806Y196088D03*
X180594Y261112D03*
X180594Y196088D03*
M02*
