G04 #@! TF.GenerationSoftware,KiCad,Pcbnew,9.0.0*
G04 #@! TF.CreationDate,2025-04-17T23:52:22+01:00*
G04 #@! TF.ProjectId,SNES_CONTROLLER,534e4553-5f43-44f4-9e54-524f4c4c4552,rev?*
G04 #@! TF.SameCoordinates,Original*
G04 #@! TF.FileFunction,Legend,Top*
G04 #@! TF.FilePolarity,Positive*
%FSLAX46Y46*%
G04 Gerber Fmt 4.6, Leading zero omitted, Abs format (unit mm)*
G04 Created by KiCad (PCBNEW 9.0.0) date 2025-04-17 23:52:22*
%MOMM*%
%LPD*%
G01*
G04 APERTURE LIST*
G04 Aperture macros list*
%AMRoundRect*
0 Rectangle with rounded corners*
0 $1 Rounding radius*
0 $2 $3 $4 $5 $6 $7 $8 $9 X,Y pos of 4 corners*
0 Add a 4 corners polygon primitive as box body*
4,1,4,$2,$3,$4,$5,$6,$7,$8,$9,$2,$3,0*
0 Add four circle primitives for the rounded corners*
1,1,$1+$1,$2,$3*
1,1,$1+$1,$4,$5*
1,1,$1+$1,$6,$7*
1,1,$1+$1,$8,$9*
0 Add four rect primitives between the rounded corners*
20,1,$1+$1,$2,$3,$4,$5,0*
20,1,$1+$1,$4,$5,$6,$7,0*
20,1,$1+$1,$6,$7,$8,$9,0*
20,1,$1+$1,$8,$9,$2,$3,0*%
G04 Aperture macros list end*
%ADD10C,0.100000*%
%ADD11C,0.150000*%
%ADD12C,0.120000*%
%ADD13C,4.300000*%
%ADD14C,1.600000*%
%ADD15O,1.600000X1.600000*%
%ADD16RoundRect,0.250001X1.149999X-1.149999X1.149999X1.149999X-1.149999X1.149999X-1.149999X-1.149999X0*%
%ADD17C,2.800000*%
%ADD18R,1.600000X1.600000*%
%ADD19RoundRect,0.250001X-1.149999X-1.149999X1.149999X-1.149999X1.149999X1.149999X-1.149999X1.149999X0*%
G04 APERTURE END LIST*
D10*
X139446741Y-127178609D02*
X140399122Y-127178609D01*
X139256265Y-127750038D02*
X139922931Y-125750038D01*
X139922931Y-125750038D02*
X140589598Y-127750038D01*
X139351503Y-115750038D02*
X140684836Y-117750038D01*
X140684836Y-115750038D02*
X139351503Y-117750038D01*
X140494360Y-107250038D02*
X139541979Y-107250038D01*
X139541979Y-107250038D02*
X139541979Y-105250038D01*
X140684836Y-97750038D02*
X140018169Y-96797657D01*
X139541979Y-97750038D02*
X139541979Y-95750038D01*
X139541979Y-95750038D02*
X140303884Y-95750038D01*
X140303884Y-95750038D02*
X140494360Y-95845276D01*
X140494360Y-95845276D02*
X140589598Y-95940514D01*
X140589598Y-95940514D02*
X140684836Y-96130990D01*
X140684836Y-96130990D02*
X140684836Y-96416704D01*
X140684836Y-96416704D02*
X140589598Y-96607180D01*
X140589598Y-96607180D02*
X140494360Y-96702419D01*
X140494360Y-96702419D02*
X140303884Y-96797657D01*
X140303884Y-96797657D02*
X139541979Y-96797657D01*
X140684836Y-87750038D02*
X140018169Y-86797657D01*
X139541979Y-87750038D02*
X139541979Y-85750038D01*
X139541979Y-85750038D02*
X140303884Y-85750038D01*
X140303884Y-85750038D02*
X140494360Y-85845276D01*
X140494360Y-85845276D02*
X140589598Y-85940514D01*
X140589598Y-85940514D02*
X140684836Y-86130990D01*
X140684836Y-86130990D02*
X140684836Y-86416704D01*
X140684836Y-86416704D02*
X140589598Y-86607180D01*
X140589598Y-86607180D02*
X140494360Y-86702419D01*
X140494360Y-86702419D02*
X140303884Y-86797657D01*
X140303884Y-86797657D02*
X139541979Y-86797657D01*
X141541979Y-87750038D02*
X141541979Y-85750038D01*
X143541979Y-85845276D02*
X143351503Y-85750038D01*
X143351503Y-85750038D02*
X143065789Y-85750038D01*
X143065789Y-85750038D02*
X142780074Y-85845276D01*
X142780074Y-85845276D02*
X142589598Y-86035752D01*
X142589598Y-86035752D02*
X142494360Y-86226228D01*
X142494360Y-86226228D02*
X142399122Y-86607180D01*
X142399122Y-86607180D02*
X142399122Y-86892895D01*
X142399122Y-86892895D02*
X142494360Y-87273847D01*
X142494360Y-87273847D02*
X142589598Y-87464323D01*
X142589598Y-87464323D02*
X142780074Y-87654800D01*
X142780074Y-87654800D02*
X143065789Y-87750038D01*
X143065789Y-87750038D02*
X143256265Y-87750038D01*
X143256265Y-87750038D02*
X143541979Y-87654800D01*
X143541979Y-87654800D02*
X143637217Y-87559561D01*
X143637217Y-87559561D02*
X143637217Y-86892895D01*
X143637217Y-86892895D02*
X143256265Y-86892895D01*
X144494360Y-87750038D02*
X144494360Y-85750038D01*
X144494360Y-86702419D02*
X145637217Y-86702419D01*
X145637217Y-87750038D02*
X145637217Y-85750038D01*
X146303884Y-85750038D02*
X147446741Y-85750038D01*
X146875312Y-87750038D02*
X146875312Y-85750038D01*
X140494360Y-78250038D02*
X139541979Y-78250038D01*
X139541979Y-78250038D02*
X139541979Y-76250038D01*
X141161027Y-77202419D02*
X141827694Y-77202419D01*
X142113408Y-78250038D02*
X141161027Y-78250038D01*
X141161027Y-78250038D02*
X141161027Y-76250038D01*
X141161027Y-76250038D02*
X142113408Y-76250038D01*
X143637218Y-77202419D02*
X142970551Y-77202419D01*
X142970551Y-78250038D02*
X142970551Y-76250038D01*
X142970551Y-76250038D02*
X143922932Y-76250038D01*
X144399123Y-76250038D02*
X145541980Y-76250038D01*
X144970551Y-78250038D02*
X144970551Y-76250038D01*
X105541979Y-127750038D02*
X105541979Y-125750038D01*
X105541979Y-125750038D02*
X106018169Y-125750038D01*
X106018169Y-125750038D02*
X106303884Y-125845276D01*
X106303884Y-125845276D02*
X106494360Y-126035752D01*
X106494360Y-126035752D02*
X106589598Y-126226228D01*
X106589598Y-126226228D02*
X106684836Y-126607180D01*
X106684836Y-126607180D02*
X106684836Y-126892895D01*
X106684836Y-126892895D02*
X106589598Y-127273847D01*
X106589598Y-127273847D02*
X106494360Y-127464323D01*
X106494360Y-127464323D02*
X106303884Y-127654800D01*
X106303884Y-127654800D02*
X106018169Y-127750038D01*
X106018169Y-127750038D02*
X105541979Y-127750038D01*
X107922931Y-125750038D02*
X108303884Y-125750038D01*
X108303884Y-125750038D02*
X108494360Y-125845276D01*
X108494360Y-125845276D02*
X108684836Y-126035752D01*
X108684836Y-126035752D02*
X108780074Y-126416704D01*
X108780074Y-126416704D02*
X108780074Y-127083371D01*
X108780074Y-127083371D02*
X108684836Y-127464323D01*
X108684836Y-127464323D02*
X108494360Y-127654800D01*
X108494360Y-127654800D02*
X108303884Y-127750038D01*
X108303884Y-127750038D02*
X107922931Y-127750038D01*
X107922931Y-127750038D02*
X107732455Y-127654800D01*
X107732455Y-127654800D02*
X107541979Y-127464323D01*
X107541979Y-127464323D02*
X107446741Y-127083371D01*
X107446741Y-127083371D02*
X107446741Y-126416704D01*
X107446741Y-126416704D02*
X107541979Y-126035752D01*
X107541979Y-126035752D02*
X107732455Y-125845276D01*
X107732455Y-125845276D02*
X107922931Y-125750038D01*
X109446741Y-125750038D02*
X109922931Y-127750038D01*
X109922931Y-127750038D02*
X110303884Y-126321466D01*
X110303884Y-126321466D02*
X110684836Y-127750038D01*
X110684836Y-127750038D02*
X111161027Y-125750038D01*
X111922931Y-127750038D02*
X111922931Y-125750038D01*
X111922931Y-125750038D02*
X113065788Y-127750038D01*
X113065788Y-127750038D02*
X113065788Y-125750038D01*
X109541979Y-115750038D02*
X109541979Y-117369085D01*
X109541979Y-117369085D02*
X109637217Y-117559561D01*
X109637217Y-117559561D02*
X109732455Y-117654800D01*
X109732455Y-117654800D02*
X109922931Y-117750038D01*
X109922931Y-117750038D02*
X110303884Y-117750038D01*
X110303884Y-117750038D02*
X110494360Y-117654800D01*
X110494360Y-117654800D02*
X110589598Y-117559561D01*
X110589598Y-117559561D02*
X110684836Y-117369085D01*
X110684836Y-117369085D02*
X110684836Y-115750038D01*
X111637217Y-117750038D02*
X111637217Y-115750038D01*
X111637217Y-115750038D02*
X112399122Y-115750038D01*
X112399122Y-115750038D02*
X112589598Y-115845276D01*
X112589598Y-115845276D02*
X112684836Y-115940514D01*
X112684836Y-115940514D02*
X112780074Y-116130990D01*
X112780074Y-116130990D02*
X112780074Y-116416704D01*
X112780074Y-116416704D02*
X112684836Y-116607180D01*
X112684836Y-116607180D02*
X112589598Y-116702419D01*
X112589598Y-116702419D02*
X112399122Y-116797657D01*
X112399122Y-116797657D02*
X111637217Y-116797657D01*
X111922931Y-106797657D02*
X111922931Y-107750038D01*
X111256265Y-105750038D02*
X111922931Y-106797657D01*
X111922931Y-106797657D02*
X112589598Y-105750038D01*
X105446741Y-97654800D02*
X105732455Y-97750038D01*
X105732455Y-97750038D02*
X106208646Y-97750038D01*
X106208646Y-97750038D02*
X106399122Y-97654800D01*
X106399122Y-97654800D02*
X106494360Y-97559561D01*
X106494360Y-97559561D02*
X106589598Y-97369085D01*
X106589598Y-97369085D02*
X106589598Y-97178609D01*
X106589598Y-97178609D02*
X106494360Y-96988133D01*
X106494360Y-96988133D02*
X106399122Y-96892895D01*
X106399122Y-96892895D02*
X106208646Y-96797657D01*
X106208646Y-96797657D02*
X105827693Y-96702419D01*
X105827693Y-96702419D02*
X105637217Y-96607180D01*
X105637217Y-96607180D02*
X105541979Y-96511942D01*
X105541979Y-96511942D02*
X105446741Y-96321466D01*
X105446741Y-96321466D02*
X105446741Y-96130990D01*
X105446741Y-96130990D02*
X105541979Y-95940514D01*
X105541979Y-95940514D02*
X105637217Y-95845276D01*
X105637217Y-95845276D02*
X105827693Y-95750038D01*
X105827693Y-95750038D02*
X106303884Y-95750038D01*
X106303884Y-95750038D02*
X106589598Y-95845276D01*
X107446741Y-96702419D02*
X108113408Y-96702419D01*
X108399122Y-97750038D02*
X107446741Y-97750038D01*
X107446741Y-97750038D02*
X107446741Y-95750038D01*
X107446741Y-95750038D02*
X108399122Y-95750038D01*
X110208646Y-97750038D02*
X109256265Y-97750038D01*
X109256265Y-97750038D02*
X109256265Y-95750038D01*
X110875313Y-96702419D02*
X111541980Y-96702419D01*
X111827694Y-97750038D02*
X110875313Y-97750038D01*
X110875313Y-97750038D02*
X110875313Y-95750038D01*
X110875313Y-95750038D02*
X111827694Y-95750038D01*
X113827694Y-97559561D02*
X113732456Y-97654800D01*
X113732456Y-97654800D02*
X113446742Y-97750038D01*
X113446742Y-97750038D02*
X113256266Y-97750038D01*
X113256266Y-97750038D02*
X112970551Y-97654800D01*
X112970551Y-97654800D02*
X112780075Y-97464323D01*
X112780075Y-97464323D02*
X112684837Y-97273847D01*
X112684837Y-97273847D02*
X112589599Y-96892895D01*
X112589599Y-96892895D02*
X112589599Y-96607180D01*
X112589599Y-96607180D02*
X112684837Y-96226228D01*
X112684837Y-96226228D02*
X112780075Y-96035752D01*
X112780075Y-96035752D02*
X112970551Y-95845276D01*
X112970551Y-95845276D02*
X113256266Y-95750038D01*
X113256266Y-95750038D02*
X113446742Y-95750038D01*
X113446742Y-95750038D02*
X113732456Y-95845276D01*
X113732456Y-95845276D02*
X113827694Y-95940514D01*
X114399123Y-95750038D02*
X115541980Y-95750038D01*
X114970551Y-97750038D02*
X114970551Y-95750038D01*
X105946741Y-87654800D02*
X106232455Y-87750038D01*
X106232455Y-87750038D02*
X106708646Y-87750038D01*
X106708646Y-87750038D02*
X106899122Y-87654800D01*
X106899122Y-87654800D02*
X106994360Y-87559561D01*
X106994360Y-87559561D02*
X107089598Y-87369085D01*
X107089598Y-87369085D02*
X107089598Y-87178609D01*
X107089598Y-87178609D02*
X106994360Y-86988133D01*
X106994360Y-86988133D02*
X106899122Y-86892895D01*
X106899122Y-86892895D02*
X106708646Y-86797657D01*
X106708646Y-86797657D02*
X106327693Y-86702419D01*
X106327693Y-86702419D02*
X106137217Y-86607180D01*
X106137217Y-86607180D02*
X106041979Y-86511942D01*
X106041979Y-86511942D02*
X105946741Y-86321466D01*
X105946741Y-86321466D02*
X105946741Y-86130990D01*
X105946741Y-86130990D02*
X106041979Y-85940514D01*
X106041979Y-85940514D02*
X106137217Y-85845276D01*
X106137217Y-85845276D02*
X106327693Y-85750038D01*
X106327693Y-85750038D02*
X106803884Y-85750038D01*
X106803884Y-85750038D02*
X107089598Y-85845276D01*
X107661027Y-85750038D02*
X108803884Y-85750038D01*
X108232455Y-87750038D02*
X108232455Y-85750038D01*
X109375313Y-87178609D02*
X110327694Y-87178609D01*
X109184837Y-87750038D02*
X109851503Y-85750038D01*
X109851503Y-85750038D02*
X110518170Y-87750038D01*
X112327694Y-87750038D02*
X111661027Y-86797657D01*
X111184837Y-87750038D02*
X111184837Y-85750038D01*
X111184837Y-85750038D02*
X111946742Y-85750038D01*
X111946742Y-85750038D02*
X112137218Y-85845276D01*
X112137218Y-85845276D02*
X112232456Y-85940514D01*
X112232456Y-85940514D02*
X112327694Y-86130990D01*
X112327694Y-86130990D02*
X112327694Y-86416704D01*
X112327694Y-86416704D02*
X112232456Y-86607180D01*
X112232456Y-86607180D02*
X112137218Y-86702419D01*
X112137218Y-86702419D02*
X111946742Y-86797657D01*
X111946742Y-86797657D02*
X111184837Y-86797657D01*
X112899123Y-85750038D02*
X114041980Y-85750038D01*
X113470551Y-87750038D02*
X113470551Y-85750038D01*
X111708646Y-76702419D02*
X111994360Y-76797657D01*
X111994360Y-76797657D02*
X112089598Y-76892895D01*
X112089598Y-76892895D02*
X112184836Y-77083371D01*
X112184836Y-77083371D02*
X112184836Y-77369085D01*
X112184836Y-77369085D02*
X112089598Y-77559561D01*
X112089598Y-77559561D02*
X111994360Y-77654800D01*
X111994360Y-77654800D02*
X111803884Y-77750038D01*
X111803884Y-77750038D02*
X111041979Y-77750038D01*
X111041979Y-77750038D02*
X111041979Y-75750038D01*
X111041979Y-75750038D02*
X111708646Y-75750038D01*
X111708646Y-75750038D02*
X111899122Y-75845276D01*
X111899122Y-75845276D02*
X111994360Y-75940514D01*
X111994360Y-75940514D02*
X112089598Y-76130990D01*
X112089598Y-76130990D02*
X112089598Y-76321466D01*
X112089598Y-76321466D02*
X111994360Y-76511942D01*
X111994360Y-76511942D02*
X111899122Y-76607180D01*
X111899122Y-76607180D02*
X111708646Y-76702419D01*
X111708646Y-76702419D02*
X111041979Y-76702419D01*
X133137217Y-72348609D02*
X133280074Y-72396228D01*
X133280074Y-72396228D02*
X133327693Y-72443847D01*
X133327693Y-72443847D02*
X133375312Y-72539085D01*
X133375312Y-72539085D02*
X133375312Y-72681942D01*
X133375312Y-72681942D02*
X133327693Y-72777180D01*
X133327693Y-72777180D02*
X133280074Y-72824800D01*
X133280074Y-72824800D02*
X133184836Y-72872419D01*
X133184836Y-72872419D02*
X132803884Y-72872419D01*
X132803884Y-72872419D02*
X132803884Y-71872419D01*
X132803884Y-71872419D02*
X133137217Y-71872419D01*
X133137217Y-71872419D02*
X133232455Y-71920038D01*
X133232455Y-71920038D02*
X133280074Y-71967657D01*
X133280074Y-71967657D02*
X133327693Y-72062895D01*
X133327693Y-72062895D02*
X133327693Y-72158133D01*
X133327693Y-72158133D02*
X133280074Y-72253371D01*
X133280074Y-72253371D02*
X133232455Y-72300990D01*
X133232455Y-72300990D02*
X133137217Y-72348609D01*
X133137217Y-72348609D02*
X132803884Y-72348609D01*
X134375312Y-72872419D02*
X134041979Y-72396228D01*
X133803884Y-72872419D02*
X133803884Y-71872419D01*
X133803884Y-71872419D02*
X134184836Y-71872419D01*
X134184836Y-71872419D02*
X134280074Y-71920038D01*
X134280074Y-71920038D02*
X134327693Y-71967657D01*
X134327693Y-71967657D02*
X134375312Y-72062895D01*
X134375312Y-72062895D02*
X134375312Y-72205752D01*
X134375312Y-72205752D02*
X134327693Y-72300990D01*
X134327693Y-72300990D02*
X134280074Y-72348609D01*
X134280074Y-72348609D02*
X134184836Y-72396228D01*
X134184836Y-72396228D02*
X133803884Y-72396228D01*
X134803884Y-72872419D02*
X134803884Y-71872419D01*
X134803884Y-71872419D02*
X135375312Y-72872419D01*
X135375312Y-72872419D02*
X135375312Y-71872419D01*
X128375312Y-72872419D02*
X128041979Y-72396228D01*
X127803884Y-72872419D02*
X127803884Y-71872419D01*
X127803884Y-71872419D02*
X128184836Y-71872419D01*
X128184836Y-71872419D02*
X128280074Y-71920038D01*
X128280074Y-71920038D02*
X128327693Y-71967657D01*
X128327693Y-71967657D02*
X128375312Y-72062895D01*
X128375312Y-72062895D02*
X128375312Y-72205752D01*
X128375312Y-72205752D02*
X128327693Y-72300990D01*
X128327693Y-72300990D02*
X128280074Y-72348609D01*
X128280074Y-72348609D02*
X128184836Y-72396228D01*
X128184836Y-72396228D02*
X127803884Y-72396228D01*
X128803884Y-72348609D02*
X129137217Y-72348609D01*
X129280074Y-72872419D02*
X128803884Y-72872419D01*
X128803884Y-72872419D02*
X128803884Y-71872419D01*
X128803884Y-71872419D02*
X129280074Y-71872419D01*
X129708646Y-72872419D02*
X129708646Y-71872419D01*
X129708646Y-71872419D02*
X129946741Y-71872419D01*
X129946741Y-71872419D02*
X130089598Y-71920038D01*
X130089598Y-71920038D02*
X130184836Y-72015276D01*
X130184836Y-72015276D02*
X130232455Y-72110514D01*
X130232455Y-72110514D02*
X130280074Y-72300990D01*
X130280074Y-72300990D02*
X130280074Y-72443847D01*
X130280074Y-72443847D02*
X130232455Y-72634323D01*
X130232455Y-72634323D02*
X130184836Y-72729561D01*
X130184836Y-72729561D02*
X130089598Y-72824800D01*
X130089598Y-72824800D02*
X129946741Y-72872419D01*
X129946741Y-72872419D02*
X129708646Y-72872419D01*
X122994360Y-72396228D02*
X122994360Y-72872419D01*
X122661027Y-71872419D02*
X122994360Y-72396228D01*
X122994360Y-72396228D02*
X123327693Y-71872419D01*
X123661027Y-72348609D02*
X123994360Y-72348609D01*
X124137217Y-72872419D02*
X123661027Y-72872419D01*
X123661027Y-72872419D02*
X123661027Y-71872419D01*
X123661027Y-71872419D02*
X124137217Y-71872419D01*
X125041979Y-72872419D02*
X124565789Y-72872419D01*
X124565789Y-72872419D02*
X124565789Y-71872419D01*
X118137217Y-72348609D02*
X118280074Y-72396228D01*
X118280074Y-72396228D02*
X118327693Y-72443847D01*
X118327693Y-72443847D02*
X118375312Y-72539085D01*
X118375312Y-72539085D02*
X118375312Y-72681942D01*
X118375312Y-72681942D02*
X118327693Y-72777180D01*
X118327693Y-72777180D02*
X118280074Y-72824800D01*
X118280074Y-72824800D02*
X118184836Y-72872419D01*
X118184836Y-72872419D02*
X117803884Y-72872419D01*
X117803884Y-72872419D02*
X117803884Y-71872419D01*
X117803884Y-71872419D02*
X118137217Y-71872419D01*
X118137217Y-71872419D02*
X118232455Y-71920038D01*
X118232455Y-71920038D02*
X118280074Y-71967657D01*
X118280074Y-71967657D02*
X118327693Y-72062895D01*
X118327693Y-72062895D02*
X118327693Y-72158133D01*
X118327693Y-72158133D02*
X118280074Y-72253371D01*
X118280074Y-72253371D02*
X118232455Y-72300990D01*
X118232455Y-72300990D02*
X118137217Y-72348609D01*
X118137217Y-72348609D02*
X117803884Y-72348609D01*
X119280074Y-72872419D02*
X118803884Y-72872419D01*
X118803884Y-72872419D02*
X118803884Y-71872419D01*
X119613408Y-71872419D02*
X119613408Y-72681942D01*
X119613408Y-72681942D02*
X119661027Y-72777180D01*
X119661027Y-72777180D02*
X119708646Y-72824800D01*
X119708646Y-72824800D02*
X119803884Y-72872419D01*
X119803884Y-72872419D02*
X119994360Y-72872419D01*
X119994360Y-72872419D02*
X120089598Y-72824800D01*
X120089598Y-72824800D02*
X120137217Y-72777180D01*
X120137217Y-72777180D02*
X120184836Y-72681942D01*
X120184836Y-72681942D02*
X120184836Y-71872419D01*
X112708646Y-71872419D02*
X112946741Y-72872419D01*
X112946741Y-72872419D02*
X113137217Y-72158133D01*
X113137217Y-72158133D02*
X113327693Y-72872419D01*
X113327693Y-72872419D02*
X113565789Y-71872419D01*
X113946741Y-72872419D02*
X113946741Y-71872419D01*
X113946741Y-72348609D02*
X114518169Y-72348609D01*
X114518169Y-72872419D02*
X114518169Y-71872419D01*
X114851503Y-71872419D02*
X115422931Y-71872419D01*
X115137217Y-72872419D02*
X115137217Y-71872419D01*
X133327693Y-60920038D02*
X133232455Y-60872419D01*
X133232455Y-60872419D02*
X133089598Y-60872419D01*
X133089598Y-60872419D02*
X132946741Y-60920038D01*
X132946741Y-60920038D02*
X132851503Y-61015276D01*
X132851503Y-61015276D02*
X132803884Y-61110514D01*
X132803884Y-61110514D02*
X132756265Y-61300990D01*
X132756265Y-61300990D02*
X132756265Y-61443847D01*
X132756265Y-61443847D02*
X132803884Y-61634323D01*
X132803884Y-61634323D02*
X132851503Y-61729561D01*
X132851503Y-61729561D02*
X132946741Y-61824800D01*
X132946741Y-61824800D02*
X133089598Y-61872419D01*
X133089598Y-61872419D02*
X133184836Y-61872419D01*
X133184836Y-61872419D02*
X133327693Y-61824800D01*
X133327693Y-61824800D02*
X133375312Y-61777180D01*
X133375312Y-61777180D02*
X133375312Y-61443847D01*
X133375312Y-61443847D02*
X133184836Y-61443847D01*
X133803884Y-61872419D02*
X133803884Y-60872419D01*
X133803884Y-60872419D02*
X134375312Y-61872419D01*
X134375312Y-61872419D02*
X134375312Y-60872419D01*
X134851503Y-61872419D02*
X134851503Y-60872419D01*
X134851503Y-60872419D02*
X135089598Y-60872419D01*
X135089598Y-60872419D02*
X135232455Y-60920038D01*
X135232455Y-60920038D02*
X135327693Y-61015276D01*
X135327693Y-61015276D02*
X135375312Y-61110514D01*
X135375312Y-61110514D02*
X135422931Y-61300990D01*
X135422931Y-61300990D02*
X135422931Y-61443847D01*
X135422931Y-61443847D02*
X135375312Y-61634323D01*
X135375312Y-61634323D02*
X135327693Y-61729561D01*
X135327693Y-61729561D02*
X135232455Y-61824800D01*
X135232455Y-61824800D02*
X135089598Y-61872419D01*
X135089598Y-61872419D02*
X134851503Y-61872419D01*
X128303884Y-61872419D02*
X128303884Y-60872419D01*
X128303884Y-60872419D02*
X128541979Y-60872419D01*
X128541979Y-60872419D02*
X128684836Y-60920038D01*
X128684836Y-60920038D02*
X128780074Y-61015276D01*
X128780074Y-61015276D02*
X128827693Y-61110514D01*
X128827693Y-61110514D02*
X128875312Y-61300990D01*
X128875312Y-61300990D02*
X128875312Y-61443847D01*
X128875312Y-61443847D02*
X128827693Y-61634323D01*
X128827693Y-61634323D02*
X128780074Y-61729561D01*
X128780074Y-61729561D02*
X128684836Y-61824800D01*
X128684836Y-61824800D02*
X128541979Y-61872419D01*
X128541979Y-61872419D02*
X128303884Y-61872419D01*
X129256265Y-61586704D02*
X129732455Y-61586704D01*
X129161027Y-61872419D02*
X129494360Y-60872419D01*
X129494360Y-60872419D02*
X129827693Y-61872419D01*
X130018170Y-60872419D02*
X130589598Y-60872419D01*
X130303884Y-61872419D02*
X130303884Y-60872419D01*
X123780074Y-61872419D02*
X123303884Y-61872419D01*
X123303884Y-61872419D02*
X123303884Y-60872419D01*
X124065789Y-61586704D02*
X124541979Y-61586704D01*
X123970551Y-61872419D02*
X124303884Y-60872419D01*
X124303884Y-60872419D02*
X124637217Y-61872419D01*
X124827694Y-60872419D02*
X125399122Y-60872419D01*
X125113408Y-61872419D02*
X125113408Y-60872419D01*
X118375312Y-61777180D02*
X118327693Y-61824800D01*
X118327693Y-61824800D02*
X118184836Y-61872419D01*
X118184836Y-61872419D02*
X118089598Y-61872419D01*
X118089598Y-61872419D02*
X117946741Y-61824800D01*
X117946741Y-61824800D02*
X117851503Y-61729561D01*
X117851503Y-61729561D02*
X117803884Y-61634323D01*
X117803884Y-61634323D02*
X117756265Y-61443847D01*
X117756265Y-61443847D02*
X117756265Y-61300990D01*
X117756265Y-61300990D02*
X117803884Y-61110514D01*
X117803884Y-61110514D02*
X117851503Y-61015276D01*
X117851503Y-61015276D02*
X117946741Y-60920038D01*
X117946741Y-60920038D02*
X118089598Y-60872419D01*
X118089598Y-60872419D02*
X118184836Y-60872419D01*
X118184836Y-60872419D02*
X118327693Y-60920038D01*
X118327693Y-60920038D02*
X118375312Y-60967657D01*
X119280074Y-61872419D02*
X118803884Y-61872419D01*
X118803884Y-61872419D02*
X118803884Y-60872419D01*
X119613408Y-61872419D02*
X119613408Y-60872419D01*
X120184836Y-61872419D02*
X119756265Y-61300990D01*
X120184836Y-60872419D02*
X119613408Y-61443847D01*
X112661027Y-60872419D02*
X112994360Y-61872419D01*
X112994360Y-61872419D02*
X113327693Y-60872419D01*
X114232455Y-61777180D02*
X114184836Y-61824800D01*
X114184836Y-61824800D02*
X114041979Y-61872419D01*
X114041979Y-61872419D02*
X113946741Y-61872419D01*
X113946741Y-61872419D02*
X113803884Y-61824800D01*
X113803884Y-61824800D02*
X113708646Y-61729561D01*
X113708646Y-61729561D02*
X113661027Y-61634323D01*
X113661027Y-61634323D02*
X113613408Y-61443847D01*
X113613408Y-61443847D02*
X113613408Y-61300990D01*
X113613408Y-61300990D02*
X113661027Y-61110514D01*
X113661027Y-61110514D02*
X113708646Y-61015276D01*
X113708646Y-61015276D02*
X113803884Y-60920038D01*
X113803884Y-60920038D02*
X113946741Y-60872419D01*
X113946741Y-60872419D02*
X114041979Y-60872419D01*
X114041979Y-60872419D02*
X114184836Y-60920038D01*
X114184836Y-60920038D02*
X114232455Y-60967657D01*
X115232455Y-61777180D02*
X115184836Y-61824800D01*
X115184836Y-61824800D02*
X115041979Y-61872419D01*
X115041979Y-61872419D02*
X114946741Y-61872419D01*
X114946741Y-61872419D02*
X114803884Y-61824800D01*
X114803884Y-61824800D02*
X114708646Y-61729561D01*
X114708646Y-61729561D02*
X114661027Y-61634323D01*
X114661027Y-61634323D02*
X114613408Y-61443847D01*
X114613408Y-61443847D02*
X114613408Y-61300990D01*
X114613408Y-61300990D02*
X114661027Y-61110514D01*
X114661027Y-61110514D02*
X114708646Y-61015276D01*
X114708646Y-61015276D02*
X114803884Y-60920038D01*
X114803884Y-60920038D02*
X114946741Y-60872419D01*
X114946741Y-60872419D02*
X115041979Y-60872419D01*
X115041979Y-60872419D02*
X115184836Y-60920038D01*
X115184836Y-60920038D02*
X115232455Y-60967657D01*
X113756265Y-132824800D02*
X113899122Y-132872419D01*
X113899122Y-132872419D02*
X114137217Y-132872419D01*
X114137217Y-132872419D02*
X114232455Y-132824800D01*
X114232455Y-132824800D02*
X114280074Y-132777180D01*
X114280074Y-132777180D02*
X114327693Y-132681942D01*
X114327693Y-132681942D02*
X114327693Y-132586704D01*
X114327693Y-132586704D02*
X114280074Y-132491466D01*
X114280074Y-132491466D02*
X114232455Y-132443847D01*
X114232455Y-132443847D02*
X114137217Y-132396228D01*
X114137217Y-132396228D02*
X113946741Y-132348609D01*
X113946741Y-132348609D02*
X113851503Y-132300990D01*
X113851503Y-132300990D02*
X113803884Y-132253371D01*
X113803884Y-132253371D02*
X113756265Y-132158133D01*
X113756265Y-132158133D02*
X113756265Y-132062895D01*
X113756265Y-132062895D02*
X113803884Y-131967657D01*
X113803884Y-131967657D02*
X113851503Y-131920038D01*
X113851503Y-131920038D02*
X113946741Y-131872419D01*
X113946741Y-131872419D02*
X114184836Y-131872419D01*
X114184836Y-131872419D02*
X114327693Y-131920038D01*
X114756265Y-132872419D02*
X114756265Y-131872419D01*
X114756265Y-131872419D02*
X115327693Y-132872419D01*
X115327693Y-132872419D02*
X115327693Y-131872419D01*
X115803884Y-132348609D02*
X116137217Y-132348609D01*
X116280074Y-132872419D02*
X115803884Y-132872419D01*
X115803884Y-132872419D02*
X115803884Y-131872419D01*
X115803884Y-131872419D02*
X116280074Y-131872419D01*
X116661027Y-132824800D02*
X116803884Y-132872419D01*
X116803884Y-132872419D02*
X117041979Y-132872419D01*
X117041979Y-132872419D02*
X117137217Y-132824800D01*
X117137217Y-132824800D02*
X117184836Y-132777180D01*
X117184836Y-132777180D02*
X117232455Y-132681942D01*
X117232455Y-132681942D02*
X117232455Y-132586704D01*
X117232455Y-132586704D02*
X117184836Y-132491466D01*
X117184836Y-132491466D02*
X117137217Y-132443847D01*
X117137217Y-132443847D02*
X117041979Y-132396228D01*
X117041979Y-132396228D02*
X116851503Y-132348609D01*
X116851503Y-132348609D02*
X116756265Y-132300990D01*
X116756265Y-132300990D02*
X116708646Y-132253371D01*
X116708646Y-132253371D02*
X116661027Y-132158133D01*
X116661027Y-132158133D02*
X116661027Y-132062895D01*
X116661027Y-132062895D02*
X116708646Y-131967657D01*
X116708646Y-131967657D02*
X116756265Y-131920038D01*
X116756265Y-131920038D02*
X116851503Y-131872419D01*
X116851503Y-131872419D02*
X117089598Y-131872419D01*
X117089598Y-131872419D02*
X117232455Y-131920038D01*
X119232456Y-132872419D02*
X119184837Y-132872419D01*
X119184837Y-132872419D02*
X119089598Y-132824800D01*
X119089598Y-132824800D02*
X118946741Y-132681942D01*
X118946741Y-132681942D02*
X118708646Y-132396228D01*
X118708646Y-132396228D02*
X118613408Y-132253371D01*
X118613408Y-132253371D02*
X118565789Y-132110514D01*
X118565789Y-132110514D02*
X118565789Y-132015276D01*
X118565789Y-132015276D02*
X118613408Y-131920038D01*
X118613408Y-131920038D02*
X118708646Y-131872419D01*
X118708646Y-131872419D02*
X118756265Y-131872419D01*
X118756265Y-131872419D02*
X118851503Y-131920038D01*
X118851503Y-131920038D02*
X118899122Y-132015276D01*
X118899122Y-132015276D02*
X118899122Y-132062895D01*
X118899122Y-132062895D02*
X118851503Y-132158133D01*
X118851503Y-132158133D02*
X118803884Y-132205752D01*
X118803884Y-132205752D02*
X118518170Y-132396228D01*
X118518170Y-132396228D02*
X118470551Y-132443847D01*
X118470551Y-132443847D02*
X118422932Y-132539085D01*
X118422932Y-132539085D02*
X118422932Y-132681942D01*
X118422932Y-132681942D02*
X118470551Y-132777180D01*
X118470551Y-132777180D02*
X118518170Y-132824800D01*
X118518170Y-132824800D02*
X118613408Y-132872419D01*
X118613408Y-132872419D02*
X118756265Y-132872419D01*
X118756265Y-132872419D02*
X118851503Y-132824800D01*
X118851503Y-132824800D02*
X118899122Y-132777180D01*
X118899122Y-132777180D02*
X119041979Y-132586704D01*
X119041979Y-132586704D02*
X119089598Y-132443847D01*
X119089598Y-132443847D02*
X119089598Y-132348609D01*
X120422932Y-131872419D02*
X120422932Y-132681942D01*
X120422932Y-132681942D02*
X120470551Y-132777180D01*
X120470551Y-132777180D02*
X120518170Y-132824800D01*
X120518170Y-132824800D02*
X120613408Y-132872419D01*
X120613408Y-132872419D02*
X120803884Y-132872419D01*
X120803884Y-132872419D02*
X120899122Y-132824800D01*
X120899122Y-132824800D02*
X120946741Y-132777180D01*
X120946741Y-132777180D02*
X120994360Y-132681942D01*
X120994360Y-132681942D02*
X120994360Y-131872419D01*
X121375313Y-132205752D02*
X121899122Y-132205752D01*
X121899122Y-132205752D02*
X121375313Y-132872419D01*
X121375313Y-132872419D02*
X121899122Y-132872419D01*
X122661027Y-132824800D02*
X122565789Y-132872419D01*
X122565789Y-132872419D02*
X122375313Y-132872419D01*
X122375313Y-132872419D02*
X122280075Y-132824800D01*
X122280075Y-132824800D02*
X122232456Y-132729561D01*
X122232456Y-132729561D02*
X122232456Y-132348609D01*
X122232456Y-132348609D02*
X122280075Y-132253371D01*
X122280075Y-132253371D02*
X122375313Y-132205752D01*
X122375313Y-132205752D02*
X122565789Y-132205752D01*
X122565789Y-132205752D02*
X122661027Y-132253371D01*
X122661027Y-132253371D02*
X122708646Y-132348609D01*
X122708646Y-132348609D02*
X122708646Y-132443847D01*
X122708646Y-132443847D02*
X122232456Y-132539085D01*
X123137218Y-132872419D02*
X123137218Y-131872419D01*
X123137218Y-132253371D02*
X123232456Y-132205752D01*
X123232456Y-132205752D02*
X123422932Y-132205752D01*
X123422932Y-132205752D02*
X123518170Y-132253371D01*
X123518170Y-132253371D02*
X123565789Y-132300990D01*
X123565789Y-132300990D02*
X123613408Y-132396228D01*
X123613408Y-132396228D02*
X123613408Y-132681942D01*
X123613408Y-132681942D02*
X123565789Y-132777180D01*
X123565789Y-132777180D02*
X123518170Y-132824800D01*
X123518170Y-132824800D02*
X123422932Y-132872419D01*
X123422932Y-132872419D02*
X123232456Y-132872419D01*
X123232456Y-132872419D02*
X123137218Y-132824800D01*
X124184837Y-132872419D02*
X124089599Y-132824800D01*
X124089599Y-132824800D02*
X124041980Y-132777180D01*
X124041980Y-132777180D02*
X123994361Y-132681942D01*
X123994361Y-132681942D02*
X123994361Y-132396228D01*
X123994361Y-132396228D02*
X124041980Y-132300990D01*
X124041980Y-132300990D02*
X124089599Y-132253371D01*
X124089599Y-132253371D02*
X124184837Y-132205752D01*
X124184837Y-132205752D02*
X124327694Y-132205752D01*
X124327694Y-132205752D02*
X124422932Y-132253371D01*
X124422932Y-132253371D02*
X124470551Y-132300990D01*
X124470551Y-132300990D02*
X124518170Y-132396228D01*
X124518170Y-132396228D02*
X124518170Y-132681942D01*
X124518170Y-132681942D02*
X124470551Y-132777180D01*
X124470551Y-132777180D02*
X124422932Y-132824800D01*
X124422932Y-132824800D02*
X124327694Y-132872419D01*
X124327694Y-132872419D02*
X124184837Y-132872419D01*
X124851504Y-132872419D02*
X125375313Y-132205752D01*
X124851504Y-132205752D02*
X125375313Y-132872419D01*
X126946742Y-132824800D02*
X126851504Y-132872419D01*
X126851504Y-132872419D02*
X126661028Y-132872419D01*
X126661028Y-132872419D02*
X126565790Y-132824800D01*
X126565790Y-132824800D02*
X126518171Y-132777180D01*
X126518171Y-132777180D02*
X126470552Y-132681942D01*
X126470552Y-132681942D02*
X126470552Y-132396228D01*
X126470552Y-132396228D02*
X126518171Y-132300990D01*
X126518171Y-132300990D02*
X126565790Y-132253371D01*
X126565790Y-132253371D02*
X126661028Y-132205752D01*
X126661028Y-132205752D02*
X126851504Y-132205752D01*
X126851504Y-132205752D02*
X126946742Y-132253371D01*
X127518171Y-132872419D02*
X127422933Y-132824800D01*
X127422933Y-132824800D02*
X127375314Y-132777180D01*
X127375314Y-132777180D02*
X127327695Y-132681942D01*
X127327695Y-132681942D02*
X127327695Y-132396228D01*
X127327695Y-132396228D02*
X127375314Y-132300990D01*
X127375314Y-132300990D02*
X127422933Y-132253371D01*
X127422933Y-132253371D02*
X127518171Y-132205752D01*
X127518171Y-132205752D02*
X127661028Y-132205752D01*
X127661028Y-132205752D02*
X127756266Y-132253371D01*
X127756266Y-132253371D02*
X127803885Y-132300990D01*
X127803885Y-132300990D02*
X127851504Y-132396228D01*
X127851504Y-132396228D02*
X127851504Y-132681942D01*
X127851504Y-132681942D02*
X127803885Y-132777180D01*
X127803885Y-132777180D02*
X127756266Y-132824800D01*
X127756266Y-132824800D02*
X127661028Y-132872419D01*
X127661028Y-132872419D02*
X127518171Y-132872419D01*
X128280076Y-132205752D02*
X128280076Y-132872419D01*
X128280076Y-132300990D02*
X128327695Y-132253371D01*
X128327695Y-132253371D02*
X128422933Y-132205752D01*
X128422933Y-132205752D02*
X128565790Y-132205752D01*
X128565790Y-132205752D02*
X128661028Y-132253371D01*
X128661028Y-132253371D02*
X128708647Y-132348609D01*
X128708647Y-132348609D02*
X128708647Y-132872419D01*
X129041981Y-132205752D02*
X129422933Y-132205752D01*
X129184838Y-131872419D02*
X129184838Y-132729561D01*
X129184838Y-132729561D02*
X129232457Y-132824800D01*
X129232457Y-132824800D02*
X129327695Y-132872419D01*
X129327695Y-132872419D02*
X129422933Y-132872419D01*
X129756267Y-132872419D02*
X129756267Y-132205752D01*
X129756267Y-132396228D02*
X129803886Y-132300990D01*
X129803886Y-132300990D02*
X129851505Y-132253371D01*
X129851505Y-132253371D02*
X129946743Y-132205752D01*
X129946743Y-132205752D02*
X130041981Y-132205752D01*
X130518172Y-132872419D02*
X130422934Y-132824800D01*
X130422934Y-132824800D02*
X130375315Y-132777180D01*
X130375315Y-132777180D02*
X130327696Y-132681942D01*
X130327696Y-132681942D02*
X130327696Y-132396228D01*
X130327696Y-132396228D02*
X130375315Y-132300990D01*
X130375315Y-132300990D02*
X130422934Y-132253371D01*
X130422934Y-132253371D02*
X130518172Y-132205752D01*
X130518172Y-132205752D02*
X130661029Y-132205752D01*
X130661029Y-132205752D02*
X130756267Y-132253371D01*
X130756267Y-132253371D02*
X130803886Y-132300990D01*
X130803886Y-132300990D02*
X130851505Y-132396228D01*
X130851505Y-132396228D02*
X130851505Y-132681942D01*
X130851505Y-132681942D02*
X130803886Y-132777180D01*
X130803886Y-132777180D02*
X130756267Y-132824800D01*
X130756267Y-132824800D02*
X130661029Y-132872419D01*
X130661029Y-132872419D02*
X130518172Y-132872419D01*
X131422934Y-132872419D02*
X131327696Y-132824800D01*
X131327696Y-132824800D02*
X131280077Y-132729561D01*
X131280077Y-132729561D02*
X131280077Y-131872419D01*
X131946744Y-132872419D02*
X131851506Y-132824800D01*
X131851506Y-132824800D02*
X131803887Y-132729561D01*
X131803887Y-132729561D02*
X131803887Y-131872419D01*
X132708649Y-132824800D02*
X132613411Y-132872419D01*
X132613411Y-132872419D02*
X132422935Y-132872419D01*
X132422935Y-132872419D02*
X132327697Y-132824800D01*
X132327697Y-132824800D02*
X132280078Y-132729561D01*
X132280078Y-132729561D02*
X132280078Y-132348609D01*
X132280078Y-132348609D02*
X132327697Y-132253371D01*
X132327697Y-132253371D02*
X132422935Y-132205752D01*
X132422935Y-132205752D02*
X132613411Y-132205752D01*
X132613411Y-132205752D02*
X132708649Y-132253371D01*
X132708649Y-132253371D02*
X132756268Y-132348609D01*
X132756268Y-132348609D02*
X132756268Y-132443847D01*
X132756268Y-132443847D02*
X132280078Y-132539085D01*
X133184840Y-132872419D02*
X133184840Y-132205752D01*
X133184840Y-132396228D02*
X133232459Y-132300990D01*
X133232459Y-132300990D02*
X133280078Y-132253371D01*
X133280078Y-132253371D02*
X133375316Y-132205752D01*
X133375316Y-132205752D02*
X133470554Y-132205752D01*
X134565793Y-132872419D02*
X134565793Y-131872419D01*
X134565793Y-131872419D02*
X134946745Y-131872419D01*
X134946745Y-131872419D02*
X135041983Y-131920038D01*
X135041983Y-131920038D02*
X135089602Y-131967657D01*
X135089602Y-131967657D02*
X135137221Y-132062895D01*
X135137221Y-132062895D02*
X135137221Y-132205752D01*
X135137221Y-132205752D02*
X135089602Y-132300990D01*
X135089602Y-132300990D02*
X135041983Y-132348609D01*
X135041983Y-132348609D02*
X134946745Y-132396228D01*
X134946745Y-132396228D02*
X134565793Y-132396228D01*
X136137221Y-132777180D02*
X136089602Y-132824800D01*
X136089602Y-132824800D02*
X135946745Y-132872419D01*
X135946745Y-132872419D02*
X135851507Y-132872419D01*
X135851507Y-132872419D02*
X135708650Y-132824800D01*
X135708650Y-132824800D02*
X135613412Y-132729561D01*
X135613412Y-132729561D02*
X135565793Y-132634323D01*
X135565793Y-132634323D02*
X135518174Y-132443847D01*
X135518174Y-132443847D02*
X135518174Y-132300990D01*
X135518174Y-132300990D02*
X135565793Y-132110514D01*
X135565793Y-132110514D02*
X135613412Y-132015276D01*
X135613412Y-132015276D02*
X135708650Y-131920038D01*
X135708650Y-131920038D02*
X135851507Y-131872419D01*
X135851507Y-131872419D02*
X135946745Y-131872419D01*
X135946745Y-131872419D02*
X136089602Y-131920038D01*
X136089602Y-131920038D02*
X136137221Y-131967657D01*
X136899126Y-132348609D02*
X137041983Y-132396228D01*
X137041983Y-132396228D02*
X137089602Y-132443847D01*
X137089602Y-132443847D02*
X137137221Y-132539085D01*
X137137221Y-132539085D02*
X137137221Y-132681942D01*
X137137221Y-132681942D02*
X137089602Y-132777180D01*
X137089602Y-132777180D02*
X137041983Y-132824800D01*
X137041983Y-132824800D02*
X136946745Y-132872419D01*
X136946745Y-132872419D02*
X136565793Y-132872419D01*
X136565793Y-132872419D02*
X136565793Y-131872419D01*
X136565793Y-131872419D02*
X136899126Y-131872419D01*
X136899126Y-131872419D02*
X136994364Y-131920038D01*
X136994364Y-131920038D02*
X137041983Y-131967657D01*
X137041983Y-131967657D02*
X137089602Y-132062895D01*
X137089602Y-132062895D02*
X137089602Y-132158133D01*
X137089602Y-132158133D02*
X137041983Y-132253371D01*
X137041983Y-132253371D02*
X136994364Y-132300990D01*
X136994364Y-132300990D02*
X136899126Y-132348609D01*
X136899126Y-132348609D02*
X136565793Y-132348609D01*
X138232460Y-132205752D02*
X138470555Y-132872419D01*
X138470555Y-132872419D02*
X138708650Y-132205752D01*
X139613412Y-132872419D02*
X139041984Y-132872419D01*
X139327698Y-132872419D02*
X139327698Y-131872419D01*
X139327698Y-131872419D02*
X139232460Y-132015276D01*
X139232460Y-132015276D02*
X139137222Y-132110514D01*
X139137222Y-132110514D02*
X139041984Y-132158133D01*
X140041984Y-132777180D02*
X140089603Y-132824800D01*
X140089603Y-132824800D02*
X140041984Y-132872419D01*
X140041984Y-132872419D02*
X139994365Y-132824800D01*
X139994365Y-132824800D02*
X140041984Y-132777180D01*
X140041984Y-132777180D02*
X140041984Y-132872419D01*
X140946745Y-132205752D02*
X140946745Y-132872419D01*
X140708650Y-131824800D02*
X140470555Y-132539085D01*
X140470555Y-132539085D02*
X141089602Y-132539085D01*
D11*
X125897142Y-81684819D02*
X125563809Y-81208628D01*
X125325714Y-81684819D02*
X125325714Y-80684819D01*
X125325714Y-80684819D02*
X125706666Y-80684819D01*
X125706666Y-80684819D02*
X125801904Y-80732438D01*
X125801904Y-80732438D02*
X125849523Y-80780057D01*
X125849523Y-80780057D02*
X125897142Y-80875295D01*
X125897142Y-80875295D02*
X125897142Y-81018152D01*
X125897142Y-81018152D02*
X125849523Y-81113390D01*
X125849523Y-81113390D02*
X125801904Y-81161009D01*
X125801904Y-81161009D02*
X125706666Y-81208628D01*
X125706666Y-81208628D02*
X125325714Y-81208628D01*
X126849523Y-81684819D02*
X126278095Y-81684819D01*
X126563809Y-81684819D02*
X126563809Y-80684819D01*
X126563809Y-80684819D02*
X126468571Y-80827676D01*
X126468571Y-80827676D02*
X126373333Y-80922914D01*
X126373333Y-80922914D02*
X126278095Y-80970533D01*
X127468571Y-80684819D02*
X127563809Y-80684819D01*
X127563809Y-80684819D02*
X127659047Y-80732438D01*
X127659047Y-80732438D02*
X127706666Y-80780057D01*
X127706666Y-80780057D02*
X127754285Y-80875295D01*
X127754285Y-80875295D02*
X127801904Y-81065771D01*
X127801904Y-81065771D02*
X127801904Y-81303866D01*
X127801904Y-81303866D02*
X127754285Y-81494342D01*
X127754285Y-81494342D02*
X127706666Y-81589580D01*
X127706666Y-81589580D02*
X127659047Y-81637200D01*
X127659047Y-81637200D02*
X127563809Y-81684819D01*
X127563809Y-81684819D02*
X127468571Y-81684819D01*
X127468571Y-81684819D02*
X127373333Y-81637200D01*
X127373333Y-81637200D02*
X127325714Y-81589580D01*
X127325714Y-81589580D02*
X127278095Y-81494342D01*
X127278095Y-81494342D02*
X127230476Y-81303866D01*
X127230476Y-81303866D02*
X127230476Y-81065771D01*
X127230476Y-81065771D02*
X127278095Y-80875295D01*
X127278095Y-80875295D02*
X127325714Y-80780057D01*
X127325714Y-80780057D02*
X127373333Y-80732438D01*
X127373333Y-80732438D02*
X127468571Y-80684819D01*
X134577142Y-85734819D02*
X134243809Y-85258628D01*
X134005714Y-85734819D02*
X134005714Y-84734819D01*
X134005714Y-84734819D02*
X134386666Y-84734819D01*
X134386666Y-84734819D02*
X134481904Y-84782438D01*
X134481904Y-84782438D02*
X134529523Y-84830057D01*
X134529523Y-84830057D02*
X134577142Y-84925295D01*
X134577142Y-84925295D02*
X134577142Y-85068152D01*
X134577142Y-85068152D02*
X134529523Y-85163390D01*
X134529523Y-85163390D02*
X134481904Y-85211009D01*
X134481904Y-85211009D02*
X134386666Y-85258628D01*
X134386666Y-85258628D02*
X134005714Y-85258628D01*
X135529523Y-85734819D02*
X134958095Y-85734819D01*
X135243809Y-85734819D02*
X135243809Y-84734819D01*
X135243809Y-84734819D02*
X135148571Y-84877676D01*
X135148571Y-84877676D02*
X135053333Y-84972914D01*
X135053333Y-84972914D02*
X134958095Y-85020533D01*
X136100952Y-85163390D02*
X136005714Y-85115771D01*
X136005714Y-85115771D02*
X135958095Y-85068152D01*
X135958095Y-85068152D02*
X135910476Y-84972914D01*
X135910476Y-84972914D02*
X135910476Y-84925295D01*
X135910476Y-84925295D02*
X135958095Y-84830057D01*
X135958095Y-84830057D02*
X136005714Y-84782438D01*
X136005714Y-84782438D02*
X136100952Y-84734819D01*
X136100952Y-84734819D02*
X136291428Y-84734819D01*
X136291428Y-84734819D02*
X136386666Y-84782438D01*
X136386666Y-84782438D02*
X136434285Y-84830057D01*
X136434285Y-84830057D02*
X136481904Y-84925295D01*
X136481904Y-84925295D02*
X136481904Y-84972914D01*
X136481904Y-84972914D02*
X136434285Y-85068152D01*
X136434285Y-85068152D02*
X136386666Y-85115771D01*
X136386666Y-85115771D02*
X136291428Y-85163390D01*
X136291428Y-85163390D02*
X136100952Y-85163390D01*
X136100952Y-85163390D02*
X136005714Y-85211009D01*
X136005714Y-85211009D02*
X135958095Y-85258628D01*
X135958095Y-85258628D02*
X135910476Y-85353866D01*
X135910476Y-85353866D02*
X135910476Y-85544342D01*
X135910476Y-85544342D02*
X135958095Y-85639580D01*
X135958095Y-85639580D02*
X136005714Y-85687200D01*
X136005714Y-85687200D02*
X136100952Y-85734819D01*
X136100952Y-85734819D02*
X136291428Y-85734819D01*
X136291428Y-85734819D02*
X136386666Y-85687200D01*
X136386666Y-85687200D02*
X136434285Y-85639580D01*
X136434285Y-85639580D02*
X136481904Y-85544342D01*
X136481904Y-85544342D02*
X136481904Y-85353866D01*
X136481904Y-85353866D02*
X136434285Y-85258628D01*
X136434285Y-85258628D02*
X136386666Y-85211009D01*
X136386666Y-85211009D02*
X136291428Y-85163390D01*
X133683095Y-103644819D02*
X133683095Y-104454342D01*
X133683095Y-104454342D02*
X133730714Y-104549580D01*
X133730714Y-104549580D02*
X133778333Y-104597200D01*
X133778333Y-104597200D02*
X133873571Y-104644819D01*
X133873571Y-104644819D02*
X134064047Y-104644819D01*
X134064047Y-104644819D02*
X134159285Y-104597200D01*
X134159285Y-104597200D02*
X134206904Y-104549580D01*
X134206904Y-104549580D02*
X134254523Y-104454342D01*
X134254523Y-104454342D02*
X134254523Y-103644819D01*
X134683095Y-103740057D02*
X134730714Y-103692438D01*
X134730714Y-103692438D02*
X134825952Y-103644819D01*
X134825952Y-103644819D02*
X135064047Y-103644819D01*
X135064047Y-103644819D02*
X135159285Y-103692438D01*
X135159285Y-103692438D02*
X135206904Y-103740057D01*
X135206904Y-103740057D02*
X135254523Y-103835295D01*
X135254523Y-103835295D02*
X135254523Y-103930533D01*
X135254523Y-103930533D02*
X135206904Y-104073390D01*
X135206904Y-104073390D02*
X134635476Y-104644819D01*
X134635476Y-104644819D02*
X135254523Y-104644819D01*
X134577142Y-89784819D02*
X134243809Y-89308628D01*
X134005714Y-89784819D02*
X134005714Y-88784819D01*
X134005714Y-88784819D02*
X134386666Y-88784819D01*
X134386666Y-88784819D02*
X134481904Y-88832438D01*
X134481904Y-88832438D02*
X134529523Y-88880057D01*
X134529523Y-88880057D02*
X134577142Y-88975295D01*
X134577142Y-88975295D02*
X134577142Y-89118152D01*
X134577142Y-89118152D02*
X134529523Y-89213390D01*
X134529523Y-89213390D02*
X134481904Y-89261009D01*
X134481904Y-89261009D02*
X134386666Y-89308628D01*
X134386666Y-89308628D02*
X134005714Y-89308628D01*
X135529523Y-89784819D02*
X134958095Y-89784819D01*
X135243809Y-89784819D02*
X135243809Y-88784819D01*
X135243809Y-88784819D02*
X135148571Y-88927676D01*
X135148571Y-88927676D02*
X135053333Y-89022914D01*
X135053333Y-89022914D02*
X134958095Y-89070533D01*
X136005714Y-89784819D02*
X136196190Y-89784819D01*
X136196190Y-89784819D02*
X136291428Y-89737200D01*
X136291428Y-89737200D02*
X136339047Y-89689580D01*
X136339047Y-89689580D02*
X136434285Y-89546723D01*
X136434285Y-89546723D02*
X136481904Y-89356247D01*
X136481904Y-89356247D02*
X136481904Y-88975295D01*
X136481904Y-88975295D02*
X136434285Y-88880057D01*
X136434285Y-88880057D02*
X136386666Y-88832438D01*
X136386666Y-88832438D02*
X136291428Y-88784819D01*
X136291428Y-88784819D02*
X136100952Y-88784819D01*
X136100952Y-88784819D02*
X136005714Y-88832438D01*
X136005714Y-88832438D02*
X135958095Y-88880057D01*
X135958095Y-88880057D02*
X135910476Y-88975295D01*
X135910476Y-88975295D02*
X135910476Y-89213390D01*
X135910476Y-89213390D02*
X135958095Y-89308628D01*
X135958095Y-89308628D02*
X136005714Y-89356247D01*
X136005714Y-89356247D02*
X136100952Y-89403866D01*
X136100952Y-89403866D02*
X136291428Y-89403866D01*
X136291428Y-89403866D02*
X136386666Y-89356247D01*
X136386666Y-89356247D02*
X136434285Y-89308628D01*
X136434285Y-89308628D02*
X136481904Y-89213390D01*
X117693333Y-93834819D02*
X117360000Y-93358628D01*
X117121905Y-93834819D02*
X117121905Y-92834819D01*
X117121905Y-92834819D02*
X117502857Y-92834819D01*
X117502857Y-92834819D02*
X117598095Y-92882438D01*
X117598095Y-92882438D02*
X117645714Y-92930057D01*
X117645714Y-92930057D02*
X117693333Y-93025295D01*
X117693333Y-93025295D02*
X117693333Y-93168152D01*
X117693333Y-93168152D02*
X117645714Y-93263390D01*
X117645714Y-93263390D02*
X117598095Y-93311009D01*
X117598095Y-93311009D02*
X117502857Y-93358628D01*
X117502857Y-93358628D02*
X117121905Y-93358628D01*
X118550476Y-92834819D02*
X118360000Y-92834819D01*
X118360000Y-92834819D02*
X118264762Y-92882438D01*
X118264762Y-92882438D02*
X118217143Y-92930057D01*
X118217143Y-92930057D02*
X118121905Y-93072914D01*
X118121905Y-93072914D02*
X118074286Y-93263390D01*
X118074286Y-93263390D02*
X118074286Y-93644342D01*
X118074286Y-93644342D02*
X118121905Y-93739580D01*
X118121905Y-93739580D02*
X118169524Y-93787200D01*
X118169524Y-93787200D02*
X118264762Y-93834819D01*
X118264762Y-93834819D02*
X118455238Y-93834819D01*
X118455238Y-93834819D02*
X118550476Y-93787200D01*
X118550476Y-93787200D02*
X118598095Y-93739580D01*
X118598095Y-93739580D02*
X118645714Y-93644342D01*
X118645714Y-93644342D02*
X118645714Y-93406247D01*
X118645714Y-93406247D02*
X118598095Y-93311009D01*
X118598095Y-93311009D02*
X118550476Y-93263390D01*
X118550476Y-93263390D02*
X118455238Y-93215771D01*
X118455238Y-93215771D02*
X118264762Y-93215771D01*
X118264762Y-93215771D02*
X118169524Y-93263390D01*
X118169524Y-93263390D02*
X118121905Y-93311009D01*
X118121905Y-93311009D02*
X118074286Y-93406247D01*
X117693333Y-77634819D02*
X117360000Y-77158628D01*
X117121905Y-77634819D02*
X117121905Y-76634819D01*
X117121905Y-76634819D02*
X117502857Y-76634819D01*
X117502857Y-76634819D02*
X117598095Y-76682438D01*
X117598095Y-76682438D02*
X117645714Y-76730057D01*
X117645714Y-76730057D02*
X117693333Y-76825295D01*
X117693333Y-76825295D02*
X117693333Y-76968152D01*
X117693333Y-76968152D02*
X117645714Y-77063390D01*
X117645714Y-77063390D02*
X117598095Y-77111009D01*
X117598095Y-77111009D02*
X117502857Y-77158628D01*
X117502857Y-77158628D02*
X117121905Y-77158628D01*
X118074286Y-76730057D02*
X118121905Y-76682438D01*
X118121905Y-76682438D02*
X118217143Y-76634819D01*
X118217143Y-76634819D02*
X118455238Y-76634819D01*
X118455238Y-76634819D02*
X118550476Y-76682438D01*
X118550476Y-76682438D02*
X118598095Y-76730057D01*
X118598095Y-76730057D02*
X118645714Y-76825295D01*
X118645714Y-76825295D02*
X118645714Y-76920533D01*
X118645714Y-76920533D02*
X118598095Y-77063390D01*
X118598095Y-77063390D02*
X118026667Y-77634819D01*
X118026667Y-77634819D02*
X118645714Y-77634819D01*
X126373333Y-77634819D02*
X126040000Y-77158628D01*
X125801905Y-77634819D02*
X125801905Y-76634819D01*
X125801905Y-76634819D02*
X126182857Y-76634819D01*
X126182857Y-76634819D02*
X126278095Y-76682438D01*
X126278095Y-76682438D02*
X126325714Y-76730057D01*
X126325714Y-76730057D02*
X126373333Y-76825295D01*
X126373333Y-76825295D02*
X126373333Y-76968152D01*
X126373333Y-76968152D02*
X126325714Y-77063390D01*
X126325714Y-77063390D02*
X126278095Y-77111009D01*
X126278095Y-77111009D02*
X126182857Y-77158628D01*
X126182857Y-77158628D02*
X125801905Y-77158628D01*
X126849524Y-77634819D02*
X127040000Y-77634819D01*
X127040000Y-77634819D02*
X127135238Y-77587200D01*
X127135238Y-77587200D02*
X127182857Y-77539580D01*
X127182857Y-77539580D02*
X127278095Y-77396723D01*
X127278095Y-77396723D02*
X127325714Y-77206247D01*
X127325714Y-77206247D02*
X127325714Y-76825295D01*
X127325714Y-76825295D02*
X127278095Y-76730057D01*
X127278095Y-76730057D02*
X127230476Y-76682438D01*
X127230476Y-76682438D02*
X127135238Y-76634819D01*
X127135238Y-76634819D02*
X126944762Y-76634819D01*
X126944762Y-76634819D02*
X126849524Y-76682438D01*
X126849524Y-76682438D02*
X126801905Y-76730057D01*
X126801905Y-76730057D02*
X126754286Y-76825295D01*
X126754286Y-76825295D02*
X126754286Y-77063390D01*
X126754286Y-77063390D02*
X126801905Y-77158628D01*
X126801905Y-77158628D02*
X126849524Y-77206247D01*
X126849524Y-77206247D02*
X126944762Y-77253866D01*
X126944762Y-77253866D02*
X127135238Y-77253866D01*
X127135238Y-77253866D02*
X127230476Y-77206247D01*
X127230476Y-77206247D02*
X127278095Y-77158628D01*
X127278095Y-77158628D02*
X127325714Y-77063390D01*
X125897142Y-93834819D02*
X125563809Y-93358628D01*
X125325714Y-93834819D02*
X125325714Y-92834819D01*
X125325714Y-92834819D02*
X125706666Y-92834819D01*
X125706666Y-92834819D02*
X125801904Y-92882438D01*
X125801904Y-92882438D02*
X125849523Y-92930057D01*
X125849523Y-92930057D02*
X125897142Y-93025295D01*
X125897142Y-93025295D02*
X125897142Y-93168152D01*
X125897142Y-93168152D02*
X125849523Y-93263390D01*
X125849523Y-93263390D02*
X125801904Y-93311009D01*
X125801904Y-93311009D02*
X125706666Y-93358628D01*
X125706666Y-93358628D02*
X125325714Y-93358628D01*
X126849523Y-93834819D02*
X126278095Y-93834819D01*
X126563809Y-93834819D02*
X126563809Y-92834819D01*
X126563809Y-92834819D02*
X126468571Y-92977676D01*
X126468571Y-92977676D02*
X126373333Y-93072914D01*
X126373333Y-93072914D02*
X126278095Y-93120533D01*
X127182857Y-92834819D02*
X127801904Y-92834819D01*
X127801904Y-92834819D02*
X127468571Y-93215771D01*
X127468571Y-93215771D02*
X127611428Y-93215771D01*
X127611428Y-93215771D02*
X127706666Y-93263390D01*
X127706666Y-93263390D02*
X127754285Y-93311009D01*
X127754285Y-93311009D02*
X127801904Y-93406247D01*
X127801904Y-93406247D02*
X127801904Y-93644342D01*
X127801904Y-93644342D02*
X127754285Y-93739580D01*
X127754285Y-93739580D02*
X127706666Y-93787200D01*
X127706666Y-93787200D02*
X127611428Y-93834819D01*
X127611428Y-93834819D02*
X127325714Y-93834819D01*
X127325714Y-93834819D02*
X127230476Y-93787200D01*
X127230476Y-93787200D02*
X127182857Y-93739580D01*
X117693333Y-97884819D02*
X117360000Y-97408628D01*
X117121905Y-97884819D02*
X117121905Y-96884819D01*
X117121905Y-96884819D02*
X117502857Y-96884819D01*
X117502857Y-96884819D02*
X117598095Y-96932438D01*
X117598095Y-96932438D02*
X117645714Y-96980057D01*
X117645714Y-96980057D02*
X117693333Y-97075295D01*
X117693333Y-97075295D02*
X117693333Y-97218152D01*
X117693333Y-97218152D02*
X117645714Y-97313390D01*
X117645714Y-97313390D02*
X117598095Y-97361009D01*
X117598095Y-97361009D02*
X117502857Y-97408628D01*
X117502857Y-97408628D02*
X117121905Y-97408628D01*
X118026667Y-96884819D02*
X118693333Y-96884819D01*
X118693333Y-96884819D02*
X118264762Y-97884819D01*
X125897142Y-85734819D02*
X125563809Y-85258628D01*
X125325714Y-85734819D02*
X125325714Y-84734819D01*
X125325714Y-84734819D02*
X125706666Y-84734819D01*
X125706666Y-84734819D02*
X125801904Y-84782438D01*
X125801904Y-84782438D02*
X125849523Y-84830057D01*
X125849523Y-84830057D02*
X125897142Y-84925295D01*
X125897142Y-84925295D02*
X125897142Y-85068152D01*
X125897142Y-85068152D02*
X125849523Y-85163390D01*
X125849523Y-85163390D02*
X125801904Y-85211009D01*
X125801904Y-85211009D02*
X125706666Y-85258628D01*
X125706666Y-85258628D02*
X125325714Y-85258628D01*
X126849523Y-85734819D02*
X126278095Y-85734819D01*
X126563809Y-85734819D02*
X126563809Y-84734819D01*
X126563809Y-84734819D02*
X126468571Y-84877676D01*
X126468571Y-84877676D02*
X126373333Y-84972914D01*
X126373333Y-84972914D02*
X126278095Y-85020533D01*
X127801904Y-85734819D02*
X127230476Y-85734819D01*
X127516190Y-85734819D02*
X127516190Y-84734819D01*
X127516190Y-84734819D02*
X127420952Y-84877676D01*
X127420952Y-84877676D02*
X127325714Y-84972914D01*
X127325714Y-84972914D02*
X127230476Y-85020533D01*
X117693333Y-85734819D02*
X117360000Y-85258628D01*
X117121905Y-85734819D02*
X117121905Y-84734819D01*
X117121905Y-84734819D02*
X117502857Y-84734819D01*
X117502857Y-84734819D02*
X117598095Y-84782438D01*
X117598095Y-84782438D02*
X117645714Y-84830057D01*
X117645714Y-84830057D02*
X117693333Y-84925295D01*
X117693333Y-84925295D02*
X117693333Y-85068152D01*
X117693333Y-85068152D02*
X117645714Y-85163390D01*
X117645714Y-85163390D02*
X117598095Y-85211009D01*
X117598095Y-85211009D02*
X117502857Y-85258628D01*
X117502857Y-85258628D02*
X117121905Y-85258628D01*
X118550476Y-85068152D02*
X118550476Y-85734819D01*
X118312381Y-84687200D02*
X118074286Y-85401485D01*
X118074286Y-85401485D02*
X118693333Y-85401485D01*
X118063095Y-103644819D02*
X118063095Y-104454342D01*
X118063095Y-104454342D02*
X118110714Y-104549580D01*
X118110714Y-104549580D02*
X118158333Y-104597200D01*
X118158333Y-104597200D02*
X118253571Y-104644819D01*
X118253571Y-104644819D02*
X118444047Y-104644819D01*
X118444047Y-104644819D02*
X118539285Y-104597200D01*
X118539285Y-104597200D02*
X118586904Y-104549580D01*
X118586904Y-104549580D02*
X118634523Y-104454342D01*
X118634523Y-104454342D02*
X118634523Y-103644819D01*
X119634523Y-104644819D02*
X119063095Y-104644819D01*
X119348809Y-104644819D02*
X119348809Y-103644819D01*
X119348809Y-103644819D02*
X119253571Y-103787676D01*
X119253571Y-103787676D02*
X119158333Y-103882914D01*
X119158333Y-103882914D02*
X119063095Y-103930533D01*
X125897142Y-89784819D02*
X125563809Y-89308628D01*
X125325714Y-89784819D02*
X125325714Y-88784819D01*
X125325714Y-88784819D02*
X125706666Y-88784819D01*
X125706666Y-88784819D02*
X125801904Y-88832438D01*
X125801904Y-88832438D02*
X125849523Y-88880057D01*
X125849523Y-88880057D02*
X125897142Y-88975295D01*
X125897142Y-88975295D02*
X125897142Y-89118152D01*
X125897142Y-89118152D02*
X125849523Y-89213390D01*
X125849523Y-89213390D02*
X125801904Y-89261009D01*
X125801904Y-89261009D02*
X125706666Y-89308628D01*
X125706666Y-89308628D02*
X125325714Y-89308628D01*
X126849523Y-89784819D02*
X126278095Y-89784819D01*
X126563809Y-89784819D02*
X126563809Y-88784819D01*
X126563809Y-88784819D02*
X126468571Y-88927676D01*
X126468571Y-88927676D02*
X126373333Y-89022914D01*
X126373333Y-89022914D02*
X126278095Y-89070533D01*
X127230476Y-88880057D02*
X127278095Y-88832438D01*
X127278095Y-88832438D02*
X127373333Y-88784819D01*
X127373333Y-88784819D02*
X127611428Y-88784819D01*
X127611428Y-88784819D02*
X127706666Y-88832438D01*
X127706666Y-88832438D02*
X127754285Y-88880057D01*
X127754285Y-88880057D02*
X127801904Y-88975295D01*
X127801904Y-88975295D02*
X127801904Y-89070533D01*
X127801904Y-89070533D02*
X127754285Y-89213390D01*
X127754285Y-89213390D02*
X127182857Y-89784819D01*
X127182857Y-89784819D02*
X127801904Y-89784819D01*
X117693333Y-89784819D02*
X117360000Y-89308628D01*
X117121905Y-89784819D02*
X117121905Y-88784819D01*
X117121905Y-88784819D02*
X117502857Y-88784819D01*
X117502857Y-88784819D02*
X117598095Y-88832438D01*
X117598095Y-88832438D02*
X117645714Y-88880057D01*
X117645714Y-88880057D02*
X117693333Y-88975295D01*
X117693333Y-88975295D02*
X117693333Y-89118152D01*
X117693333Y-89118152D02*
X117645714Y-89213390D01*
X117645714Y-89213390D02*
X117598095Y-89261009D01*
X117598095Y-89261009D02*
X117502857Y-89308628D01*
X117502857Y-89308628D02*
X117121905Y-89308628D01*
X118598095Y-88784819D02*
X118121905Y-88784819D01*
X118121905Y-88784819D02*
X118074286Y-89261009D01*
X118074286Y-89261009D02*
X118121905Y-89213390D01*
X118121905Y-89213390D02*
X118217143Y-89165771D01*
X118217143Y-89165771D02*
X118455238Y-89165771D01*
X118455238Y-89165771D02*
X118550476Y-89213390D01*
X118550476Y-89213390D02*
X118598095Y-89261009D01*
X118598095Y-89261009D02*
X118645714Y-89356247D01*
X118645714Y-89356247D02*
X118645714Y-89594342D01*
X118645714Y-89594342D02*
X118598095Y-89689580D01*
X118598095Y-89689580D02*
X118550476Y-89737200D01*
X118550476Y-89737200D02*
X118455238Y-89784819D01*
X118455238Y-89784819D02*
X118217143Y-89784819D01*
X118217143Y-89784819D02*
X118121905Y-89737200D01*
X118121905Y-89737200D02*
X118074286Y-89689580D01*
X117693333Y-81684819D02*
X117360000Y-81208628D01*
X117121905Y-81684819D02*
X117121905Y-80684819D01*
X117121905Y-80684819D02*
X117502857Y-80684819D01*
X117502857Y-80684819D02*
X117598095Y-80732438D01*
X117598095Y-80732438D02*
X117645714Y-80780057D01*
X117645714Y-80780057D02*
X117693333Y-80875295D01*
X117693333Y-80875295D02*
X117693333Y-81018152D01*
X117693333Y-81018152D02*
X117645714Y-81113390D01*
X117645714Y-81113390D02*
X117598095Y-81161009D01*
X117598095Y-81161009D02*
X117502857Y-81208628D01*
X117502857Y-81208628D02*
X117121905Y-81208628D01*
X118026667Y-80684819D02*
X118645714Y-80684819D01*
X118645714Y-80684819D02*
X118312381Y-81065771D01*
X118312381Y-81065771D02*
X118455238Y-81065771D01*
X118455238Y-81065771D02*
X118550476Y-81113390D01*
X118550476Y-81113390D02*
X118598095Y-81161009D01*
X118598095Y-81161009D02*
X118645714Y-81256247D01*
X118645714Y-81256247D02*
X118645714Y-81494342D01*
X118645714Y-81494342D02*
X118598095Y-81589580D01*
X118598095Y-81589580D02*
X118550476Y-81637200D01*
X118550476Y-81637200D02*
X118455238Y-81684819D01*
X118455238Y-81684819D02*
X118169524Y-81684819D01*
X118169524Y-81684819D02*
X118074286Y-81637200D01*
X118074286Y-81637200D02*
X118026667Y-81589580D01*
X134577142Y-81684819D02*
X134243809Y-81208628D01*
X134005714Y-81684819D02*
X134005714Y-80684819D01*
X134005714Y-80684819D02*
X134386666Y-80684819D01*
X134386666Y-80684819D02*
X134481904Y-80732438D01*
X134481904Y-80732438D02*
X134529523Y-80780057D01*
X134529523Y-80780057D02*
X134577142Y-80875295D01*
X134577142Y-80875295D02*
X134577142Y-81018152D01*
X134577142Y-81018152D02*
X134529523Y-81113390D01*
X134529523Y-81113390D02*
X134481904Y-81161009D01*
X134481904Y-81161009D02*
X134386666Y-81208628D01*
X134386666Y-81208628D02*
X134005714Y-81208628D01*
X135529523Y-81684819D02*
X134958095Y-81684819D01*
X135243809Y-81684819D02*
X135243809Y-80684819D01*
X135243809Y-80684819D02*
X135148571Y-80827676D01*
X135148571Y-80827676D02*
X135053333Y-80922914D01*
X135053333Y-80922914D02*
X134958095Y-80970533D01*
X135862857Y-80684819D02*
X136529523Y-80684819D01*
X136529523Y-80684819D02*
X136100952Y-81684819D01*
X125897142Y-97884819D02*
X125563809Y-97408628D01*
X125325714Y-97884819D02*
X125325714Y-96884819D01*
X125325714Y-96884819D02*
X125706666Y-96884819D01*
X125706666Y-96884819D02*
X125801904Y-96932438D01*
X125801904Y-96932438D02*
X125849523Y-96980057D01*
X125849523Y-96980057D02*
X125897142Y-97075295D01*
X125897142Y-97075295D02*
X125897142Y-97218152D01*
X125897142Y-97218152D02*
X125849523Y-97313390D01*
X125849523Y-97313390D02*
X125801904Y-97361009D01*
X125801904Y-97361009D02*
X125706666Y-97408628D01*
X125706666Y-97408628D02*
X125325714Y-97408628D01*
X126849523Y-97884819D02*
X126278095Y-97884819D01*
X126563809Y-97884819D02*
X126563809Y-96884819D01*
X126563809Y-96884819D02*
X126468571Y-97027676D01*
X126468571Y-97027676D02*
X126373333Y-97122914D01*
X126373333Y-97122914D02*
X126278095Y-97170533D01*
X127706666Y-97218152D02*
X127706666Y-97884819D01*
X127468571Y-96837200D02*
X127230476Y-97551485D01*
X127230476Y-97551485D02*
X127849523Y-97551485D01*
X134577142Y-77634819D02*
X134243809Y-77158628D01*
X134005714Y-77634819D02*
X134005714Y-76634819D01*
X134005714Y-76634819D02*
X134386666Y-76634819D01*
X134386666Y-76634819D02*
X134481904Y-76682438D01*
X134481904Y-76682438D02*
X134529523Y-76730057D01*
X134529523Y-76730057D02*
X134577142Y-76825295D01*
X134577142Y-76825295D02*
X134577142Y-76968152D01*
X134577142Y-76968152D02*
X134529523Y-77063390D01*
X134529523Y-77063390D02*
X134481904Y-77111009D01*
X134481904Y-77111009D02*
X134386666Y-77158628D01*
X134386666Y-77158628D02*
X134005714Y-77158628D01*
X135529523Y-77634819D02*
X134958095Y-77634819D01*
X135243809Y-77634819D02*
X135243809Y-76634819D01*
X135243809Y-76634819D02*
X135148571Y-76777676D01*
X135148571Y-76777676D02*
X135053333Y-76872914D01*
X135053333Y-76872914D02*
X134958095Y-76920533D01*
X136386666Y-76634819D02*
X136196190Y-76634819D01*
X136196190Y-76634819D02*
X136100952Y-76682438D01*
X136100952Y-76682438D02*
X136053333Y-76730057D01*
X136053333Y-76730057D02*
X135958095Y-76872914D01*
X135958095Y-76872914D02*
X135910476Y-77063390D01*
X135910476Y-77063390D02*
X135910476Y-77444342D01*
X135910476Y-77444342D02*
X135958095Y-77539580D01*
X135958095Y-77539580D02*
X136005714Y-77587200D01*
X136005714Y-77587200D02*
X136100952Y-77634819D01*
X136100952Y-77634819D02*
X136291428Y-77634819D01*
X136291428Y-77634819D02*
X136386666Y-77587200D01*
X136386666Y-77587200D02*
X136434285Y-77539580D01*
X136434285Y-77539580D02*
X136481904Y-77444342D01*
X136481904Y-77444342D02*
X136481904Y-77206247D01*
X136481904Y-77206247D02*
X136434285Y-77111009D01*
X136434285Y-77111009D02*
X136386666Y-77063390D01*
X136386666Y-77063390D02*
X136291428Y-77015771D01*
X136291428Y-77015771D02*
X136100952Y-77015771D01*
X136100952Y-77015771D02*
X136005714Y-77063390D01*
X136005714Y-77063390D02*
X135958095Y-77111009D01*
X135958095Y-77111009D02*
X135910476Y-77206247D01*
D12*
X125370000Y-75500000D02*
X127980000Y-75500000D01*
X125370000Y-75500000D02*
G75*
G02*
X122630000Y-75500000I-1370000J0D01*
G01*
X122630000Y-75500000D02*
G75*
G02*
X125370000Y-75500000I1370000J0D01*
G01*
X125370000Y-83600000D02*
X127980000Y-83600000D01*
X125370000Y-83600000D02*
G75*
G02*
X122630000Y-83600000I-1370000J0D01*
G01*
X122630000Y-83600000D02*
G75*
G02*
X125370000Y-83600000I1370000J0D01*
G01*
X134050000Y-87650000D02*
X136660000Y-87650000D01*
X134050000Y-87650000D02*
G75*
G02*
X131310000Y-87650000I-1370000J0D01*
G01*
X131310000Y-87650000D02*
G75*
G02*
X134050000Y-87650000I1370000J0D01*
G01*
X99380000Y-71880000D02*
X107420000Y-71880000D01*
X99380000Y-132620000D02*
X99380000Y-71880000D01*
X99380000Y-132620000D02*
X107420000Y-132620000D01*
X102014000Y-73253000D02*
X102057000Y-73296000D01*
X102014000Y-78253000D02*
X102057000Y-78296000D01*
X102014000Y-83253000D02*
X102057000Y-83296000D01*
X102014000Y-88253000D02*
X102057000Y-88296000D01*
X102014000Y-93253000D02*
X102057000Y-93296000D01*
X102014000Y-98253000D02*
X102057000Y-98296000D01*
X102014000Y-103253000D02*
X102057000Y-103296000D01*
X102014000Y-108253000D02*
X102057000Y-108296000D01*
X102014000Y-113253000D02*
X102057000Y-113296000D01*
X102014000Y-118253000D02*
X102057000Y-118296000D01*
X102014000Y-123253000D02*
X102057000Y-123296000D01*
X102253000Y-73013000D02*
X102296000Y-73056000D01*
X102253000Y-78013000D02*
X102296000Y-78056000D01*
X102253000Y-83013000D02*
X102296000Y-83056000D01*
X102253000Y-88013000D02*
X102296000Y-88056000D01*
X102253000Y-93013000D02*
X102296000Y-93056000D01*
X102253000Y-98013000D02*
X102296000Y-98056000D01*
X102253000Y-103013000D02*
X102296000Y-103056000D01*
X102253000Y-108013000D02*
X102296000Y-108056000D01*
X102253000Y-113013000D02*
X102296000Y-113056000D01*
X102253000Y-118013000D02*
X102296000Y-118056000D01*
X102253000Y-123013000D02*
X102296000Y-123056000D01*
X103000000Y-72688000D02*
X103000000Y-71880000D01*
X103000000Y-77688000D02*
X103000000Y-76312000D01*
X103000000Y-82688000D02*
X103000000Y-81312000D01*
X103000000Y-87688000D02*
X103000000Y-86312000D01*
X103000000Y-92688000D02*
X103000000Y-91312000D01*
X103000000Y-97688000D02*
X103000000Y-96312000D01*
X103000000Y-102688000D02*
X103000000Y-101312000D01*
X103000000Y-107688000D02*
X103000000Y-106312000D01*
X103000000Y-112688000D02*
X103000000Y-111312000D01*
X103000000Y-117688000D02*
X103000000Y-116312000D01*
X103000000Y-122688000D02*
X103000000Y-121312000D01*
X103000000Y-127620000D02*
X103000000Y-126312000D01*
X103000000Y-132620000D02*
X103000000Y-131380000D01*
X104000000Y-72688000D02*
X104000000Y-71880000D01*
X104000000Y-77688000D02*
X104000000Y-76312000D01*
X104000000Y-82688000D02*
X104000000Y-81312000D01*
X104000000Y-87688000D02*
X104000000Y-86312000D01*
X104000000Y-92688000D02*
X104000000Y-91312000D01*
X104000000Y-97688000D02*
X104000000Y-96312000D01*
X104000000Y-102688000D02*
X104000000Y-101312000D01*
X104000000Y-107688000D02*
X104000000Y-106312000D01*
X104000000Y-112688000D02*
X104000000Y-111312000D01*
X104000000Y-117688000D02*
X104000000Y-116312000D01*
X104000000Y-122688000D02*
X104000000Y-121312000D01*
X104000000Y-127620000D02*
X104000000Y-126312000D01*
X104000000Y-132620000D02*
X104000000Y-131380000D01*
X104704000Y-75944000D02*
X104747000Y-75987000D01*
X104704000Y-80944000D02*
X104747000Y-80987000D01*
X104704000Y-85944000D02*
X104747000Y-85987000D01*
X104704000Y-90944000D02*
X104747000Y-90987000D01*
X104704000Y-95944000D02*
X104747000Y-95987000D01*
X104704000Y-100944000D02*
X104747000Y-100987000D01*
X104704000Y-105944000D02*
X104747000Y-105987000D01*
X104704000Y-110944000D02*
X104747000Y-110987000D01*
X104704000Y-115944000D02*
X104747000Y-115987000D01*
X104704000Y-120944000D02*
X104747000Y-120987000D01*
X104704000Y-125944000D02*
X104747000Y-125987000D01*
X104943000Y-75705000D02*
X104986000Y-75748000D01*
X104943000Y-80705000D02*
X104986000Y-80748000D01*
X104943000Y-85705000D02*
X104986000Y-85748000D01*
X104943000Y-90705000D02*
X104986000Y-90748000D01*
X104943000Y-95705000D02*
X104986000Y-95748000D01*
X104943000Y-100705000D02*
X104986000Y-100748000D01*
X104943000Y-105705000D02*
X104986000Y-105748000D01*
X104943000Y-110705000D02*
X104986000Y-110748000D01*
X104943000Y-115705000D02*
X104986000Y-115748000D01*
X104943000Y-120705000D02*
X104986000Y-120748000D01*
X104943000Y-125705000D02*
X104986000Y-125748000D01*
X105300000Y-73957000D02*
X105300000Y-71880000D01*
X105300000Y-78957000D02*
X105300000Y-75043000D01*
X105300000Y-83957000D02*
X105300000Y-80043000D01*
X105300000Y-88957000D02*
X105300000Y-85043000D01*
X105300000Y-93957000D02*
X105300000Y-90043000D01*
X105300000Y-98957000D02*
X105300000Y-95043000D01*
X105300000Y-103957000D02*
X105300000Y-100043000D01*
X105300000Y-108957000D02*
X105300000Y-105043000D01*
X105300000Y-113957000D02*
X105300000Y-110043000D01*
X105300000Y-118957000D02*
X105300000Y-115043000D01*
X105300000Y-123957000D02*
X105300000Y-120043000D01*
X105300000Y-127620000D02*
X105300000Y-125043000D01*
X105300000Y-132620000D02*
X105300000Y-131380000D01*
X107420000Y-129200000D02*
X107420000Y-71880000D01*
X107420000Y-132620000D02*
X107420000Y-129800000D01*
X101620000Y-130054000D02*
G75*
G02*
X101620139Y-128945528I1880000J554000D01*
G01*
X102946000Y-127620000D02*
G75*
G02*
X104054472Y-127620139I554000J-1880000D01*
G01*
X104054000Y-131380000D02*
G75*
G02*
X102945528Y-131379861I-554000J1879990D01*
G01*
X105380000Y-128946000D02*
G75*
G02*
X105379861Y-130054472I-1879990J-554000D01*
G01*
X105460000Y-74500000D02*
G75*
G02*
X101540000Y-74500000I-1960000J0D01*
G01*
X101540000Y-74500000D02*
G75*
G02*
X105460000Y-74500000I1960000J0D01*
G01*
X105460000Y-79500000D02*
G75*
G02*
X101540000Y-79500000I-1960000J0D01*
G01*
X101540000Y-79500000D02*
G75*
G02*
X105460000Y-79500000I1960000J0D01*
G01*
X105460000Y-84500000D02*
G75*
G02*
X101540000Y-84500000I-1960000J0D01*
G01*
X101540000Y-84500000D02*
G75*
G02*
X105460000Y-84500000I1960000J0D01*
G01*
X105460000Y-89500000D02*
G75*
G02*
X101540000Y-89500000I-1960000J0D01*
G01*
X101540000Y-89500000D02*
G75*
G02*
X105460000Y-89500000I1960000J0D01*
G01*
X105460000Y-94500000D02*
G75*
G02*
X101540000Y-94500000I-1960000J0D01*
G01*
X101540000Y-94500000D02*
G75*
G02*
X105460000Y-94500000I1960000J0D01*
G01*
X105460000Y-99500000D02*
G75*
G02*
X101540000Y-99500000I-1960000J0D01*
G01*
X101540000Y-99500000D02*
G75*
G02*
X105460000Y-99500000I1960000J0D01*
G01*
X105460000Y-104500000D02*
G75*
G02*
X101540000Y-104500000I-1960000J0D01*
G01*
X101540000Y-104500000D02*
G75*
G02*
X105460000Y-104500000I1960000J0D01*
G01*
X105460000Y-109500000D02*
G75*
G02*
X101540000Y-109500000I-1960000J0D01*
G01*
X101540000Y-109500000D02*
G75*
G02*
X105460000Y-109500000I1960000J0D01*
G01*
X105460000Y-114500000D02*
G75*
G02*
X101540000Y-114500000I-1960000J0D01*
G01*
X101540000Y-114500000D02*
G75*
G02*
X105460000Y-114500000I1960000J0D01*
G01*
X105460000Y-119500000D02*
G75*
G02*
X101540000Y-119500000I-1960000J0D01*
G01*
X101540000Y-119500000D02*
G75*
G02*
X105460000Y-119500000I1960000J0D01*
G01*
X105460000Y-124500000D02*
G75*
G02*
X101540000Y-124500000I-1960000J0D01*
G01*
X101540000Y-124500000D02*
G75*
G02*
X105460000Y-124500000I1960000J0D01*
G01*
X108030000Y-129940000D02*
X107420000Y-129500000D01*
X108030000Y-129060000D01*
X108030000Y-129940000D01*
G36*
X108030000Y-129940000D02*
G01*
X107420000Y-129500000D01*
X108030000Y-129060000D01*
X108030000Y-129940000D01*
G37*
X131795000Y-105190000D02*
X131795000Y-125630000D01*
X131795000Y-125630000D02*
X137095000Y-125630000D01*
X133445000Y-105190000D02*
X131795000Y-105190000D01*
X137095000Y-105190000D02*
X135445000Y-105190000D01*
X137095000Y-125630000D02*
X137095000Y-105190000D01*
X135445000Y-105190000D02*
G75*
G02*
X133445000Y-105190000I-1000000J0D01*
G01*
X134050000Y-91700000D02*
X136660000Y-91700000D01*
X134050000Y-91700000D02*
G75*
G02*
X131310000Y-91700000I-1370000J0D01*
G01*
X131310000Y-91700000D02*
G75*
G02*
X134050000Y-91700000I1370000J0D01*
G01*
X116690000Y-95750000D02*
X119300000Y-95750000D01*
X116690000Y-95750000D02*
G75*
G02*
X113950000Y-95750000I-1370000J0D01*
G01*
X113950000Y-95750000D02*
G75*
G02*
X116690000Y-95750000I1370000J0D01*
G01*
X134050000Y-75500000D02*
X136660000Y-75500000D01*
X134050000Y-75500000D02*
G75*
G02*
X131310000Y-75500000I-1370000J0D01*
G01*
X131310000Y-75500000D02*
G75*
G02*
X134050000Y-75500000I1370000J0D01*
G01*
X116690000Y-79550000D02*
X119300000Y-79550000D01*
X116690000Y-79550000D02*
G75*
G02*
X113950000Y-79550000I-1370000J0D01*
G01*
X113950000Y-79550000D02*
G75*
G02*
X116690000Y-79550000I1370000J0D01*
G01*
X144880000Y-71880000D02*
X152920000Y-71880000D01*
X144880000Y-132620000D02*
X144880000Y-71880000D01*
X144880000Y-132620000D02*
X152920000Y-132620000D01*
X147514000Y-73253000D02*
X147557000Y-73296000D01*
X147514000Y-78253000D02*
X147557000Y-78296000D01*
X147514000Y-83253000D02*
X147557000Y-83296000D01*
X147514000Y-88253000D02*
X147557000Y-88296000D01*
X147514000Y-93253000D02*
X147557000Y-93296000D01*
X147514000Y-98253000D02*
X147557000Y-98296000D01*
X147514000Y-103253000D02*
X147557000Y-103296000D01*
X147514000Y-108253000D02*
X147557000Y-108296000D01*
X147514000Y-113253000D02*
X147557000Y-113296000D01*
X147514000Y-118253000D02*
X147557000Y-118296000D01*
X147514000Y-123253000D02*
X147557000Y-123296000D01*
X147753000Y-73013000D02*
X147796000Y-73056000D01*
X147753000Y-78013000D02*
X147796000Y-78056000D01*
X147753000Y-83013000D02*
X147796000Y-83056000D01*
X147753000Y-88013000D02*
X147796000Y-88056000D01*
X147753000Y-93013000D02*
X147796000Y-93056000D01*
X147753000Y-98013000D02*
X147796000Y-98056000D01*
X147753000Y-103013000D02*
X147796000Y-103056000D01*
X147753000Y-108013000D02*
X147796000Y-108056000D01*
X147753000Y-113013000D02*
X147796000Y-113056000D01*
X147753000Y-118013000D02*
X147796000Y-118056000D01*
X147753000Y-123013000D02*
X147796000Y-123056000D01*
X148500000Y-72688000D02*
X148500000Y-71880000D01*
X148500000Y-77688000D02*
X148500000Y-76312000D01*
X148500000Y-82688000D02*
X148500000Y-81312000D01*
X148500000Y-87688000D02*
X148500000Y-86312000D01*
X148500000Y-92688000D02*
X148500000Y-91312000D01*
X148500000Y-97688000D02*
X148500000Y-96312000D01*
X148500000Y-102688000D02*
X148500000Y-101312000D01*
X148500000Y-107688000D02*
X148500000Y-106312000D01*
X148500000Y-112688000D02*
X148500000Y-111312000D01*
X148500000Y-117688000D02*
X148500000Y-116312000D01*
X148500000Y-122688000D02*
X148500000Y-121312000D01*
X148500000Y-127620000D02*
X148500000Y-126312000D01*
X148500000Y-132620000D02*
X148500000Y-131380000D01*
X149500000Y-72688000D02*
X149500000Y-71880000D01*
X149500000Y-77688000D02*
X149500000Y-76312000D01*
X149500000Y-82688000D02*
X149500000Y-81312000D01*
X149500000Y-87688000D02*
X149500000Y-86312000D01*
X149500000Y-92688000D02*
X149500000Y-91312000D01*
X149500000Y-97688000D02*
X149500000Y-96312000D01*
X149500000Y-102688000D02*
X149500000Y-101312000D01*
X149500000Y-107688000D02*
X149500000Y-106312000D01*
X149500000Y-112688000D02*
X149500000Y-111312000D01*
X149500000Y-117688000D02*
X149500000Y-116312000D01*
X149500000Y-122688000D02*
X149500000Y-121312000D01*
X149500000Y-127620000D02*
X149500000Y-126312000D01*
X149500000Y-132620000D02*
X149500000Y-131380000D01*
X150204000Y-75944000D02*
X150247000Y-75987000D01*
X150204000Y-80944000D02*
X150247000Y-80987000D01*
X150204000Y-85944000D02*
X150247000Y-85987000D01*
X150204000Y-90944000D02*
X150247000Y-90987000D01*
X150204000Y-95944000D02*
X150247000Y-95987000D01*
X150204000Y-100944000D02*
X150247000Y-100987000D01*
X150204000Y-105944000D02*
X150247000Y-105987000D01*
X150204000Y-110944000D02*
X150247000Y-110987000D01*
X150204000Y-115944000D02*
X150247000Y-115987000D01*
X150204000Y-120944000D02*
X150247000Y-120987000D01*
X150204000Y-125944000D02*
X150247000Y-125987000D01*
X150443000Y-75705000D02*
X150486000Y-75748000D01*
X150443000Y-80705000D02*
X150486000Y-80748000D01*
X150443000Y-85705000D02*
X150486000Y-85748000D01*
X150443000Y-90705000D02*
X150486000Y-90748000D01*
X150443000Y-95705000D02*
X150486000Y-95748000D01*
X150443000Y-100705000D02*
X150486000Y-100748000D01*
X150443000Y-105705000D02*
X150486000Y-105748000D01*
X150443000Y-110705000D02*
X150486000Y-110748000D01*
X150443000Y-115705000D02*
X150486000Y-115748000D01*
X150443000Y-120705000D02*
X150486000Y-120748000D01*
X150443000Y-125705000D02*
X150486000Y-125748000D01*
X150800000Y-73957000D02*
X150800000Y-71880000D01*
X150800000Y-78957000D02*
X150800000Y-75043000D01*
X150800000Y-83957000D02*
X150800000Y-80043000D01*
X150800000Y-88957000D02*
X150800000Y-85043000D01*
X150800000Y-93957000D02*
X150800000Y-90043000D01*
X150800000Y-98957000D02*
X150800000Y-95043000D01*
X150800000Y-103957000D02*
X150800000Y-100043000D01*
X150800000Y-108957000D02*
X150800000Y-105043000D01*
X150800000Y-113957000D02*
X150800000Y-110043000D01*
X150800000Y-118957000D02*
X150800000Y-115043000D01*
X150800000Y-123957000D02*
X150800000Y-120043000D01*
X150800000Y-127620000D02*
X150800000Y-125043000D01*
X150800000Y-132620000D02*
X150800000Y-131380000D01*
X152920000Y-129200000D02*
X152920000Y-71880000D01*
X152920000Y-132620000D02*
X152920000Y-129800000D01*
X147120000Y-130054000D02*
G75*
G02*
X147120139Y-128945528I1880000J554000D01*
G01*
X148446000Y-127620000D02*
G75*
G02*
X149554472Y-127620139I554000J-1880000D01*
G01*
X149554000Y-131380000D02*
G75*
G02*
X148445528Y-131379861I-554000J1879990D01*
G01*
X150880000Y-128946000D02*
G75*
G02*
X150879861Y-130054472I-1879990J-554000D01*
G01*
X150960000Y-74500000D02*
G75*
G02*
X147040000Y-74500000I-1960000J0D01*
G01*
X147040000Y-74500000D02*
G75*
G02*
X150960000Y-74500000I1960000J0D01*
G01*
X150960000Y-79500000D02*
G75*
G02*
X147040000Y-79500000I-1960000J0D01*
G01*
X147040000Y-79500000D02*
G75*
G02*
X150960000Y-79500000I1960000J0D01*
G01*
X150960000Y-84500000D02*
G75*
G02*
X147040000Y-84500000I-1960000J0D01*
G01*
X147040000Y-84500000D02*
G75*
G02*
X150960000Y-84500000I1960000J0D01*
G01*
X150960000Y-89500000D02*
G75*
G02*
X147040000Y-89500000I-1960000J0D01*
G01*
X147040000Y-89500000D02*
G75*
G02*
X150960000Y-89500000I1960000J0D01*
G01*
X150960000Y-94500000D02*
G75*
G02*
X147040000Y-94500000I-1960000J0D01*
G01*
X147040000Y-94500000D02*
G75*
G02*
X150960000Y-94500000I1960000J0D01*
G01*
X150960000Y-99500000D02*
G75*
G02*
X147040000Y-99500000I-1960000J0D01*
G01*
X147040000Y-99500000D02*
G75*
G02*
X150960000Y-99500000I1960000J0D01*
G01*
X150960000Y-104500000D02*
G75*
G02*
X147040000Y-104500000I-1960000J0D01*
G01*
X147040000Y-104500000D02*
G75*
G02*
X150960000Y-104500000I1960000J0D01*
G01*
X150960000Y-109500000D02*
G75*
G02*
X147040000Y-109500000I-1960000J0D01*
G01*
X147040000Y-109500000D02*
G75*
G02*
X150960000Y-109500000I1960000J0D01*
G01*
X150960000Y-114500000D02*
G75*
G02*
X147040000Y-114500000I-1960000J0D01*
G01*
X147040000Y-114500000D02*
G75*
G02*
X150960000Y-114500000I1960000J0D01*
G01*
X150960000Y-119500000D02*
G75*
G02*
X147040000Y-119500000I-1960000J0D01*
G01*
X147040000Y-119500000D02*
G75*
G02*
X150960000Y-119500000I1960000J0D01*
G01*
X150960000Y-124500000D02*
G75*
G02*
X147040000Y-124500000I-1960000J0D01*
G01*
X147040000Y-124500000D02*
G75*
G02*
X150960000Y-124500000I1960000J0D01*
G01*
X153530000Y-129940000D02*
X152920000Y-129500000D01*
X153530000Y-129060000D01*
X153530000Y-129940000D01*
G36*
X153530000Y-129940000D02*
G01*
X152920000Y-129500000D01*
X153530000Y-129060000D01*
X153530000Y-129940000D01*
G37*
X116690000Y-75500000D02*
X119300000Y-75500000D01*
X116690000Y-75500000D02*
G75*
G02*
X113950000Y-75500000I-1370000J0D01*
G01*
X113950000Y-75500000D02*
G75*
G02*
X116690000Y-75500000I1370000J0D01*
G01*
X125370000Y-79550000D02*
X127980000Y-79550000D01*
X125370000Y-79550000D02*
G75*
G02*
X122630000Y-79550000I-1370000J0D01*
G01*
X122630000Y-79550000D02*
G75*
G02*
X125370000Y-79550000I1370000J0D01*
G01*
X110880000Y-62380000D02*
X110880000Y-70420000D01*
X110880000Y-62380000D02*
X141620000Y-62380000D01*
X110880000Y-66000000D02*
X112120000Y-66000000D01*
X110880000Y-67000000D02*
X112120000Y-67000000D01*
X110880000Y-68300000D02*
X112120000Y-68300000D01*
X110880000Y-70420000D02*
X113700000Y-70420000D01*
X114300000Y-70420000D02*
X141620000Y-70420000D01*
X115880000Y-66000000D02*
X117188000Y-66000000D01*
X115880000Y-67000000D02*
X117188000Y-67000000D01*
X115880000Y-68300000D02*
X118457000Y-68300000D01*
X117556000Y-67704000D02*
X117513000Y-67747000D01*
X117795000Y-67943000D02*
X117752000Y-67986000D01*
X119543000Y-68300000D02*
X123457000Y-68300000D01*
X120247000Y-65014000D02*
X120204000Y-65057000D01*
X120487000Y-65253000D02*
X120444000Y-65296000D01*
X120812000Y-66000000D02*
X122188000Y-66000000D01*
X120812000Y-67000000D02*
X122188000Y-67000000D01*
X122556000Y-67704000D02*
X122513000Y-67747000D01*
X122795000Y-67943000D02*
X122752000Y-67986000D01*
X124543000Y-68300000D02*
X128457000Y-68300000D01*
X125247000Y-65014000D02*
X125204000Y-65057000D01*
X125487000Y-65253000D02*
X125444000Y-65296000D01*
X125812000Y-66000000D02*
X127188000Y-66000000D01*
X125812000Y-67000000D02*
X127188000Y-67000000D01*
X127556000Y-67704000D02*
X127513000Y-67747000D01*
X127795000Y-67943000D02*
X127752000Y-67986000D01*
X129543000Y-68300000D02*
X133457000Y-68300000D01*
X130247000Y-65014000D02*
X130204000Y-65057000D01*
X130487000Y-65253000D02*
X130444000Y-65296000D01*
X130812000Y-66000000D02*
X132188000Y-66000000D01*
X130812000Y-67000000D02*
X132188000Y-67000000D01*
X132556000Y-67704000D02*
X132513000Y-67747000D01*
X132795000Y-67943000D02*
X132752000Y-67986000D01*
X134543000Y-68300000D02*
X138457000Y-68300000D01*
X135247000Y-65014000D02*
X135204000Y-65057000D01*
X135487000Y-65253000D02*
X135444000Y-65296000D01*
X135812000Y-66000000D02*
X137188000Y-66000000D01*
X135812000Y-67000000D02*
X137188000Y-67000000D01*
X137556000Y-67704000D02*
X137513000Y-67747000D01*
X137795000Y-67943000D02*
X137752000Y-67986000D01*
X139543000Y-68300000D02*
X141620000Y-68300000D01*
X140247000Y-65014000D02*
X140204000Y-65057000D01*
X140487000Y-65253000D02*
X140444000Y-65296000D01*
X140812000Y-66000000D02*
X141620000Y-66000000D01*
X140812000Y-67000000D02*
X141620000Y-67000000D01*
X141620000Y-62380000D02*
X141620000Y-70420000D01*
X112120000Y-67054000D02*
G75*
G02*
X112120139Y-65945528I1879990J554000D01*
G01*
X113446000Y-64620000D02*
G75*
G02*
X114554472Y-64620139I554000J-1880000D01*
G01*
X114554000Y-68380000D02*
G75*
G02*
X113445528Y-68379861I-554000J1879990D01*
G01*
X115880000Y-65946000D02*
G75*
G02*
X115879861Y-67054472I-1880000J-554000D01*
G01*
X120960000Y-66500000D02*
G75*
G02*
X117040000Y-66500000I-1960000J0D01*
G01*
X117040000Y-66500000D02*
G75*
G02*
X120960000Y-66500000I1960000J0D01*
G01*
X125960000Y-66500000D02*
G75*
G02*
X122040000Y-66500000I-1960000J0D01*
G01*
X122040000Y-66500000D02*
G75*
G02*
X125960000Y-66500000I1960000J0D01*
G01*
X130960000Y-66500000D02*
G75*
G02*
X127040000Y-66500000I-1960000J0D01*
G01*
X127040000Y-66500000D02*
G75*
G02*
X130960000Y-66500000I1960000J0D01*
G01*
X135960000Y-66500000D02*
G75*
G02*
X132040000Y-66500000I-1960000J0D01*
G01*
X132040000Y-66500000D02*
G75*
G02*
X135960000Y-66500000I1960000J0D01*
G01*
X140960000Y-66500000D02*
G75*
G02*
X137040000Y-66500000I-1960000J0D01*
G01*
X137040000Y-66500000D02*
G75*
G02*
X140960000Y-66500000I1960000J0D01*
G01*
X114440000Y-71030000D02*
X113560000Y-71030000D01*
X114000000Y-70420000D01*
X114440000Y-71030000D01*
G36*
X114440000Y-71030000D02*
G01*
X113560000Y-71030000D01*
X114000000Y-70420000D01*
X114440000Y-71030000D01*
G37*
X125370000Y-95750000D02*
X127980000Y-95750000D01*
X125370000Y-95750000D02*
G75*
G02*
X122630000Y-95750000I-1370000J0D01*
G01*
X122630000Y-95750000D02*
G75*
G02*
X125370000Y-95750000I1370000J0D01*
G01*
X116690000Y-99800000D02*
X119300000Y-99800000D01*
X116690000Y-99800000D02*
G75*
G02*
X113950000Y-99800000I-1370000J0D01*
G01*
X113950000Y-99800000D02*
G75*
G02*
X116690000Y-99800000I1370000J0D01*
G01*
X125370000Y-87650000D02*
X127980000Y-87650000D01*
X125370000Y-87650000D02*
G75*
G02*
X122630000Y-87650000I-1370000J0D01*
G01*
X122630000Y-87650000D02*
G75*
G02*
X125370000Y-87650000I1370000J0D01*
G01*
X116690000Y-87650000D02*
X119300000Y-87650000D01*
X116690000Y-87650000D02*
G75*
G02*
X113950000Y-87650000I-1370000J0D01*
G01*
X113950000Y-87650000D02*
G75*
G02*
X116690000Y-87650000I1370000J0D01*
G01*
X116175000Y-105190000D02*
X116175000Y-125630000D01*
X116175000Y-125630000D02*
X121475000Y-125630000D01*
X117825000Y-105190000D02*
X116175000Y-105190000D01*
X121475000Y-105190000D02*
X119825000Y-105190000D01*
X121475000Y-125630000D02*
X121475000Y-105190000D01*
X119825000Y-105190000D02*
G75*
G02*
X117825000Y-105190000I-1000000J0D01*
G01*
X125370000Y-91700000D02*
X127980000Y-91700000D01*
X125370000Y-91700000D02*
G75*
G02*
X122630000Y-91700000I-1370000J0D01*
G01*
X122630000Y-91700000D02*
G75*
G02*
X125370000Y-91700000I1370000J0D01*
G01*
X116690000Y-91700000D02*
X119300000Y-91700000D01*
X116690000Y-91700000D02*
G75*
G02*
X113950000Y-91700000I-1370000J0D01*
G01*
X113950000Y-91700000D02*
G75*
G02*
X116690000Y-91700000I1370000J0D01*
G01*
X116690000Y-83600000D02*
X119300000Y-83600000D01*
X116690000Y-83600000D02*
G75*
G02*
X113950000Y-83600000I-1370000J0D01*
G01*
X113950000Y-83600000D02*
G75*
G02*
X116690000Y-83600000I1370000J0D01*
G01*
X134050000Y-83600000D02*
X136660000Y-83600000D01*
X134050000Y-83600000D02*
G75*
G02*
X131310000Y-83600000I-1370000J0D01*
G01*
X131310000Y-83600000D02*
G75*
G02*
X134050000Y-83600000I1370000J0D01*
G01*
X125370000Y-99800000D02*
X127980000Y-99800000D01*
X125370000Y-99800000D02*
G75*
G02*
X122630000Y-99800000I-1370000J0D01*
G01*
X122630000Y-99800000D02*
G75*
G02*
X125370000Y-99800000I1370000J0D01*
G01*
X134050000Y-79550000D02*
X136660000Y-79550000D01*
X134050000Y-79550000D02*
G75*
G02*
X131310000Y-79550000I-1370000J0D01*
G01*
X131310000Y-79550000D02*
G75*
G02*
X134050000Y-79550000I1370000J0D01*
G01*
%LPC*%
D13*
X149000000Y-65500000D03*
X104000000Y-65500000D03*
X127000000Y-130000000D03*
D14*
X124000000Y-75500000D03*
D15*
X129080000Y-75500000D03*
D14*
X124000000Y-83600000D03*
D15*
X129080000Y-83600000D03*
D14*
X132680000Y-87650000D03*
D15*
X137760000Y-87650000D03*
D16*
X103500000Y-129500000D03*
D17*
X103500000Y-124500000D03*
X103500000Y-119500000D03*
X103500000Y-114500000D03*
X103500000Y-109500000D03*
X103500000Y-104500000D03*
X103500000Y-99500000D03*
X103500000Y-94500000D03*
X103500000Y-89500000D03*
X103500000Y-84500000D03*
X103500000Y-79500000D03*
X103500000Y-74500000D03*
D18*
X130635000Y-106520000D03*
D15*
X130635000Y-109060000D03*
X130635000Y-111600000D03*
X130635000Y-114140000D03*
X130635000Y-116680000D03*
X130635000Y-119220000D03*
X130635000Y-121760000D03*
X130635000Y-124300000D03*
X138255000Y-124300000D03*
X138255000Y-121760000D03*
X138255000Y-119220000D03*
X138255000Y-116680000D03*
X138255000Y-114140000D03*
X138255000Y-111600000D03*
X138255000Y-109060000D03*
X138255000Y-106520000D03*
D14*
X132680000Y-91700000D03*
D15*
X137760000Y-91700000D03*
D14*
X115320000Y-95750000D03*
D15*
X120400000Y-95750000D03*
D14*
X132680000Y-75500000D03*
D15*
X137760000Y-75500000D03*
D14*
X115320000Y-79550000D03*
D15*
X120400000Y-79550000D03*
D16*
X149000000Y-129500000D03*
D17*
X149000000Y-124500000D03*
X149000000Y-119500000D03*
X149000000Y-114500000D03*
X149000000Y-109500000D03*
X149000000Y-104500000D03*
X149000000Y-99500000D03*
X149000000Y-94500000D03*
X149000000Y-89500000D03*
X149000000Y-84500000D03*
X149000000Y-79500000D03*
X149000000Y-74500000D03*
D14*
X115320000Y-75500000D03*
D15*
X120400000Y-75500000D03*
D14*
X124000000Y-79550000D03*
D15*
X129080000Y-79550000D03*
D19*
X114000000Y-66500000D03*
D17*
X119000000Y-66500000D03*
X124000000Y-66500000D03*
X129000000Y-66500000D03*
X134000000Y-66500000D03*
X139000000Y-66500000D03*
D14*
X124000000Y-95750000D03*
D15*
X129080000Y-95750000D03*
D14*
X115320000Y-99800000D03*
D15*
X120400000Y-99800000D03*
D14*
X124000000Y-87650000D03*
D15*
X129080000Y-87650000D03*
D14*
X115320000Y-87650000D03*
D15*
X120400000Y-87650000D03*
D18*
X115015000Y-106520000D03*
D15*
X115015000Y-109060000D03*
X115015000Y-111600000D03*
X115015000Y-114140000D03*
X115015000Y-116680000D03*
X115015000Y-119220000D03*
X115015000Y-121760000D03*
X115015000Y-124300000D03*
X122635000Y-124300000D03*
X122635000Y-121760000D03*
X122635000Y-119220000D03*
X122635000Y-116680000D03*
X122635000Y-114140000D03*
X122635000Y-111600000D03*
X122635000Y-109060000D03*
X122635000Y-106520000D03*
D14*
X124000000Y-91700000D03*
D15*
X129080000Y-91700000D03*
D14*
X115320000Y-91700000D03*
D15*
X120400000Y-91700000D03*
D14*
X115320000Y-83600000D03*
D15*
X120400000Y-83600000D03*
D14*
X132680000Y-83600000D03*
D15*
X137760000Y-83600000D03*
D14*
X124000000Y-99800000D03*
D15*
X129080000Y-99800000D03*
D14*
X132680000Y-79550000D03*
D15*
X137760000Y-79550000D03*
%LPD*%
M02*
