%TF.GenerationSoftware,KiCad,Pcbnew,8.0.9-8.0.9-0~ubuntu24.04.1*%
%TF.CreationDate,2025-03-04T19:24:35+01:00*%
%TF.ProjectId,SNES_CONTROLLER,534e4553-5f43-44f4-9e54-524f4c4c4552,rev?*%
%TF.SameCoordinates,Original*%
%TF.FileFunction,Drillmap*%
%TF.FilePolarity,Positive*%
%FSLAX45Y45*%
G04 Gerber Fmt 4.5, Leading zero omitted, Abs format (unit mm)*
G04 Created by KiCad (PCBNEW 8.0.9-8.0.9-0~ubuntu24.04.1) date 2025-03-04 19:24:35*
%MOMM*%
%LPD*%
G01*
G04 APERTURE LIST*
%ADD10C,0.050000*%
%ADD11C,0.200000*%
%ADD12C,0.100000*%
%ADD13C,0.130000*%
G04 APERTURE END LIST*
D10*
X9800000Y-5850000D02*
X15500000Y-5850000D01*
X9800000Y-13450000D02*
X9800000Y-5850000D01*
X15500000Y-5850000D02*
X15500000Y-13450000D01*
X15500000Y-13450000D02*
X9800000Y-13450000D01*
D11*
D12*
X11461500Y-10612000D02*
X11541500Y-10692000D01*
X11541500Y-10612000D02*
X11461500Y-10692000D01*
X11461500Y-10866000D02*
X11541500Y-10946000D01*
X11541500Y-10866000D02*
X11461500Y-10946000D01*
X11461500Y-11120000D02*
X11541500Y-11200000D01*
X11541500Y-11120000D02*
X11461500Y-11200000D01*
X11461500Y-11374000D02*
X11541500Y-11454000D01*
X11541500Y-11374000D02*
X11461500Y-11454000D01*
X11461500Y-11628000D02*
X11541500Y-11708000D01*
X11541500Y-11628000D02*
X11461500Y-11708000D01*
X11461500Y-11882000D02*
X11541500Y-11962000D01*
X11541500Y-11882000D02*
X11461500Y-11962000D01*
X11461500Y-12136000D02*
X11541500Y-12216000D01*
X11541500Y-12136000D02*
X11461500Y-12216000D01*
X11461500Y-12390000D02*
X11541500Y-12470000D01*
X11541500Y-12390000D02*
X11461500Y-12470000D01*
X11492000Y-7510000D02*
X11572000Y-7590000D01*
X11572000Y-7510000D02*
X11492000Y-7590000D01*
X11492000Y-7915000D02*
X11572000Y-7995000D01*
X11572000Y-7915000D02*
X11492000Y-7995000D01*
X11492000Y-8320000D02*
X11572000Y-8400000D01*
X11572000Y-8320000D02*
X11492000Y-8400000D01*
X11492000Y-8725000D02*
X11572000Y-8805000D01*
X11572000Y-8725000D02*
X11492000Y-8805000D01*
X11492000Y-9130000D02*
X11572000Y-9210000D01*
X11572000Y-9130000D02*
X11492000Y-9210000D01*
X11492000Y-9535000D02*
X11572000Y-9615000D01*
X11572000Y-9535000D02*
X11492000Y-9615000D01*
X11492000Y-9940000D02*
X11572000Y-10020000D01*
X11572000Y-9940000D02*
X11492000Y-10020000D01*
X12000000Y-7510000D02*
X12080000Y-7590000D01*
X12080000Y-7510000D02*
X12000000Y-7590000D01*
X12000000Y-7915000D02*
X12080000Y-7995000D01*
X12080000Y-7915000D02*
X12000000Y-7995000D01*
X12000000Y-8320000D02*
X12080000Y-8400000D01*
X12080000Y-8320000D02*
X12000000Y-8400000D01*
X12000000Y-8725000D02*
X12080000Y-8805000D01*
X12080000Y-8725000D02*
X12000000Y-8805000D01*
X12000000Y-9130000D02*
X12080000Y-9210000D01*
X12080000Y-9130000D02*
X12000000Y-9210000D01*
X12000000Y-9535000D02*
X12080000Y-9615000D01*
X12080000Y-9535000D02*
X12000000Y-9615000D01*
X12000000Y-9940000D02*
X12080000Y-10020000D01*
X12080000Y-9940000D02*
X12000000Y-10020000D01*
X12223500Y-10612000D02*
X12303500Y-10692000D01*
X12303500Y-10612000D02*
X12223500Y-10692000D01*
X12223500Y-10866000D02*
X12303500Y-10946000D01*
X12303500Y-10866000D02*
X12223500Y-10946000D01*
X12223500Y-11120000D02*
X12303500Y-11200000D01*
X12303500Y-11120000D02*
X12223500Y-11200000D01*
X12223500Y-11374000D02*
X12303500Y-11454000D01*
X12303500Y-11374000D02*
X12223500Y-11454000D01*
X12223500Y-11628000D02*
X12303500Y-11708000D01*
X12303500Y-11628000D02*
X12223500Y-11708000D01*
X12223500Y-11882000D02*
X12303500Y-11962000D01*
X12303500Y-11882000D02*
X12223500Y-11962000D01*
X12223500Y-12136000D02*
X12303500Y-12216000D01*
X12303500Y-12136000D02*
X12223500Y-12216000D01*
X12223500Y-12390000D02*
X12303500Y-12470000D01*
X12303500Y-12390000D02*
X12223500Y-12470000D01*
X12360000Y-7510000D02*
X12440000Y-7590000D01*
X12440000Y-7510000D02*
X12360000Y-7590000D01*
X12360000Y-7915000D02*
X12440000Y-7995000D01*
X12440000Y-7915000D02*
X12360000Y-7995000D01*
X12360000Y-8320000D02*
X12440000Y-8400000D01*
X12440000Y-8320000D02*
X12360000Y-8400000D01*
X12360000Y-8725000D02*
X12440000Y-8805000D01*
X12440000Y-8725000D02*
X12360000Y-8805000D01*
X12360000Y-9130000D02*
X12440000Y-9210000D01*
X12440000Y-9130000D02*
X12360000Y-9210000D01*
X12360000Y-9535000D02*
X12440000Y-9615000D01*
X12440000Y-9535000D02*
X12360000Y-9615000D01*
X12360000Y-9940000D02*
X12440000Y-10020000D01*
X12440000Y-9940000D02*
X12360000Y-10020000D01*
X12868000Y-7510000D02*
X12948000Y-7590000D01*
X12948000Y-7510000D02*
X12868000Y-7590000D01*
X12868000Y-7915000D02*
X12948000Y-7995000D01*
X12948000Y-7915000D02*
X12868000Y-7995000D01*
X12868000Y-8320000D02*
X12948000Y-8400000D01*
X12948000Y-8320000D02*
X12868000Y-8400000D01*
X12868000Y-8725000D02*
X12948000Y-8805000D01*
X12948000Y-8725000D02*
X12868000Y-8805000D01*
X12868000Y-9130000D02*
X12948000Y-9210000D01*
X12948000Y-9130000D02*
X12868000Y-9210000D01*
X12868000Y-9535000D02*
X12948000Y-9615000D01*
X12948000Y-9535000D02*
X12868000Y-9615000D01*
X12868000Y-9940000D02*
X12948000Y-10020000D01*
X12948000Y-9940000D02*
X12868000Y-10020000D01*
X13023500Y-10612000D02*
X13103500Y-10692000D01*
X13103500Y-10612000D02*
X13023500Y-10692000D01*
X13023500Y-10866000D02*
X13103500Y-10946000D01*
X13103500Y-10866000D02*
X13023500Y-10946000D01*
X13023500Y-11120000D02*
X13103500Y-11200000D01*
X13103500Y-11120000D02*
X13023500Y-11200000D01*
X13023500Y-11374000D02*
X13103500Y-11454000D01*
X13103500Y-11374000D02*
X13023500Y-11454000D01*
X13023500Y-11628000D02*
X13103500Y-11708000D01*
X13103500Y-11628000D02*
X13023500Y-11708000D01*
X13023500Y-11882000D02*
X13103500Y-11962000D01*
X13103500Y-11882000D02*
X13023500Y-11962000D01*
X13023500Y-12136000D02*
X13103500Y-12216000D01*
X13103500Y-12136000D02*
X13023500Y-12216000D01*
X13023500Y-12390000D02*
X13103500Y-12470000D01*
X13103500Y-12390000D02*
X13023500Y-12470000D01*
X13228000Y-7510000D02*
X13308000Y-7590000D01*
X13308000Y-7510000D02*
X13228000Y-7590000D01*
X13228000Y-7915000D02*
X13308000Y-7995000D01*
X13308000Y-7915000D02*
X13228000Y-7995000D01*
X13228000Y-8320000D02*
X13308000Y-8400000D01*
X13308000Y-8320000D02*
X13228000Y-8400000D01*
X13228000Y-8725000D02*
X13308000Y-8805000D01*
X13308000Y-8725000D02*
X13228000Y-8805000D01*
X13228000Y-9130000D02*
X13308000Y-9210000D01*
X13308000Y-9130000D02*
X13228000Y-9210000D01*
X13736000Y-7510000D02*
X13816000Y-7590000D01*
X13816000Y-7510000D02*
X13736000Y-7590000D01*
X13736000Y-7915000D02*
X13816000Y-7995000D01*
X13816000Y-7915000D02*
X13736000Y-7995000D01*
X13736000Y-8320000D02*
X13816000Y-8400000D01*
X13816000Y-8320000D02*
X13736000Y-8400000D01*
X13736000Y-8725000D02*
X13816000Y-8805000D01*
X13816000Y-8725000D02*
X13736000Y-8805000D01*
X13736000Y-9130000D02*
X13816000Y-9210000D01*
X13816000Y-9130000D02*
X13736000Y-9210000D01*
X13785500Y-10612000D02*
X13865500Y-10692000D01*
X13865500Y-10612000D02*
X13785500Y-10692000D01*
X13785500Y-10866000D02*
X13865500Y-10946000D01*
X13865500Y-10866000D02*
X13785500Y-10946000D01*
X13785500Y-11120000D02*
X13865500Y-11200000D01*
X13865500Y-11120000D02*
X13785500Y-11200000D01*
X13785500Y-11374000D02*
X13865500Y-11454000D01*
X13865500Y-11374000D02*
X13785500Y-11454000D01*
X13785500Y-11628000D02*
X13865500Y-11708000D01*
X13865500Y-11628000D02*
X13785500Y-11708000D01*
X13785500Y-11882000D02*
X13865500Y-11962000D01*
X13865500Y-11882000D02*
X13785500Y-11962000D01*
X13785500Y-12136000D02*
X13865500Y-12216000D01*
X13865500Y-12136000D02*
X13785500Y-12216000D01*
X13785500Y-12390000D02*
X13865500Y-12470000D01*
X13865500Y-12390000D02*
X13785500Y-12470000D01*
D13*
X10415000Y-7450000D02*
G75*
G02*
X10285000Y-7450000I-65000J0D01*
G01*
X10285000Y-7450000D02*
G75*
G02*
X10415000Y-7450000I65000J0D01*
G01*
X10415000Y-7950000D02*
G75*
G02*
X10285000Y-7950000I-65000J0D01*
G01*
X10285000Y-7950000D02*
G75*
G02*
X10415000Y-7950000I65000J0D01*
G01*
X10415000Y-8450000D02*
G75*
G02*
X10285000Y-8450000I-65000J0D01*
G01*
X10285000Y-8450000D02*
G75*
G02*
X10415000Y-8450000I65000J0D01*
G01*
X10415000Y-8950000D02*
G75*
G02*
X10285000Y-8950000I-65000J0D01*
G01*
X10285000Y-8950000D02*
G75*
G02*
X10415000Y-8950000I65000J0D01*
G01*
X10415000Y-9450000D02*
G75*
G02*
X10285000Y-9450000I-65000J0D01*
G01*
X10285000Y-9450000D02*
G75*
G02*
X10415000Y-9450000I65000J0D01*
G01*
X10415000Y-9950000D02*
G75*
G02*
X10285000Y-9950000I-65000J0D01*
G01*
X10285000Y-9950000D02*
G75*
G02*
X10415000Y-9950000I65000J0D01*
G01*
X10415000Y-10450000D02*
G75*
G02*
X10285000Y-10450000I-65000J0D01*
G01*
X10285000Y-10450000D02*
G75*
G02*
X10415000Y-10450000I65000J0D01*
G01*
X10415000Y-10950000D02*
G75*
G02*
X10285000Y-10950000I-65000J0D01*
G01*
X10285000Y-10950000D02*
G75*
G02*
X10415000Y-10950000I65000J0D01*
G01*
X10415000Y-11450000D02*
G75*
G02*
X10285000Y-11450000I-65000J0D01*
G01*
X10285000Y-11450000D02*
G75*
G02*
X10415000Y-11450000I65000J0D01*
G01*
X10415000Y-11950000D02*
G75*
G02*
X10285000Y-11950000I-65000J0D01*
G01*
X10285000Y-11950000D02*
G75*
G02*
X10415000Y-11950000I65000J0D01*
G01*
X10415000Y-12450000D02*
G75*
G02*
X10285000Y-12450000I-65000J0D01*
G01*
X10285000Y-12450000D02*
G75*
G02*
X10415000Y-12450000I65000J0D01*
G01*
X10415000Y-12950000D02*
G75*
G02*
X10285000Y-12950000I-65000J0D01*
G01*
X10285000Y-12950000D02*
G75*
G02*
X10415000Y-12950000I65000J0D01*
G01*
X11690000Y-6446750D02*
G75*
G02*
X11560000Y-6446750I-65000J0D01*
G01*
X11560000Y-6446750D02*
G75*
G02*
X11690000Y-6446750I65000J0D01*
G01*
X12190000Y-6446750D02*
G75*
G02*
X12060000Y-6446750I-65000J0D01*
G01*
X12060000Y-6446750D02*
G75*
G02*
X12190000Y-6446750I65000J0D01*
G01*
X12690000Y-6446750D02*
G75*
G02*
X12560000Y-6446750I-65000J0D01*
G01*
X12560000Y-6446750D02*
G75*
G02*
X12690000Y-6446750I65000J0D01*
G01*
X13190000Y-6446750D02*
G75*
G02*
X13060000Y-6446750I-65000J0D01*
G01*
X13060000Y-6446750D02*
G75*
G02*
X13190000Y-6446750I65000J0D01*
G01*
X13690000Y-6446750D02*
G75*
G02*
X13560000Y-6446750I-65000J0D01*
G01*
X13560000Y-6446750D02*
G75*
G02*
X13690000Y-6446750I65000J0D01*
G01*
X14965000Y-7450000D02*
G75*
G02*
X14835000Y-7450000I-65000J0D01*
G01*
X14835000Y-7450000D02*
G75*
G02*
X14965000Y-7450000I65000J0D01*
G01*
X14965000Y-7950000D02*
G75*
G02*
X14835000Y-7950000I-65000J0D01*
G01*
X14835000Y-7950000D02*
G75*
G02*
X14965000Y-7950000I65000J0D01*
G01*
X14965000Y-8450000D02*
G75*
G02*
X14835000Y-8450000I-65000J0D01*
G01*
X14835000Y-8450000D02*
G75*
G02*
X14965000Y-8450000I65000J0D01*
G01*
X14965000Y-8950000D02*
G75*
G02*
X14835000Y-8950000I-65000J0D01*
G01*
X14835000Y-8950000D02*
G75*
G02*
X14965000Y-8950000I65000J0D01*
G01*
X14965000Y-9450000D02*
G75*
G02*
X14835000Y-9450000I-65000J0D01*
G01*
X14835000Y-9450000D02*
G75*
G02*
X14965000Y-9450000I65000J0D01*
G01*
X14965000Y-9950000D02*
G75*
G02*
X14835000Y-9950000I-65000J0D01*
G01*
X14835000Y-9950000D02*
G75*
G02*
X14965000Y-9950000I65000J0D01*
G01*
X14965000Y-10450000D02*
G75*
G02*
X14835000Y-10450000I-65000J0D01*
G01*
X14835000Y-10450000D02*
G75*
G02*
X14965000Y-10450000I65000J0D01*
G01*
X14965000Y-10950000D02*
G75*
G02*
X14835000Y-10950000I-65000J0D01*
G01*
X14835000Y-10950000D02*
G75*
G02*
X14965000Y-10950000I65000J0D01*
G01*
X14965000Y-11450000D02*
G75*
G02*
X14835000Y-11450000I-65000J0D01*
G01*
X14835000Y-11450000D02*
G75*
G02*
X14965000Y-11450000I65000J0D01*
G01*
X14965000Y-11950000D02*
G75*
G02*
X14835000Y-11950000I-65000J0D01*
G01*
X14835000Y-11950000D02*
G75*
G02*
X14965000Y-11950000I65000J0D01*
G01*
X14965000Y-12450000D02*
G75*
G02*
X14835000Y-12450000I-65000J0D01*
G01*
X14835000Y-12450000D02*
G75*
G02*
X14965000Y-12450000I65000J0D01*
G01*
X14965000Y-12950000D02*
G75*
G02*
X14835000Y-12950000I-65000J0D01*
G01*
X14835000Y-12950000D02*
G75*
G02*
X14965000Y-12950000I65000J0D01*
G01*
D11*
X10058277Y-13763984D02*
X10058277Y-13563984D01*
X10058277Y-13563984D02*
X10105896Y-13563984D01*
X10105896Y-13563984D02*
X10134467Y-13573508D01*
X10134467Y-13573508D02*
X10153515Y-13592555D01*
X10153515Y-13592555D02*
X10163039Y-13611603D01*
X10163039Y-13611603D02*
X10172563Y-13649698D01*
X10172563Y-13649698D02*
X10172563Y-13678269D01*
X10172563Y-13678269D02*
X10163039Y-13716365D01*
X10163039Y-13716365D02*
X10153515Y-13735412D01*
X10153515Y-13735412D02*
X10134467Y-13754460D01*
X10134467Y-13754460D02*
X10105896Y-13763984D01*
X10105896Y-13763984D02*
X10058277Y-13763984D01*
X10258277Y-13763984D02*
X10258277Y-13630650D01*
X10258277Y-13668746D02*
X10267801Y-13649698D01*
X10267801Y-13649698D02*
X10277324Y-13640174D01*
X10277324Y-13640174D02*
X10296372Y-13630650D01*
X10296372Y-13630650D02*
X10315420Y-13630650D01*
X10382086Y-13763984D02*
X10382086Y-13630650D01*
X10382086Y-13563984D02*
X10372563Y-13573508D01*
X10372563Y-13573508D02*
X10382086Y-13583031D01*
X10382086Y-13583031D02*
X10391610Y-13573508D01*
X10391610Y-13573508D02*
X10382086Y-13563984D01*
X10382086Y-13563984D02*
X10382086Y-13583031D01*
X10505896Y-13763984D02*
X10486848Y-13754460D01*
X10486848Y-13754460D02*
X10477324Y-13735412D01*
X10477324Y-13735412D02*
X10477324Y-13563984D01*
X10610658Y-13763984D02*
X10591610Y-13754460D01*
X10591610Y-13754460D02*
X10582086Y-13735412D01*
X10582086Y-13735412D02*
X10582086Y-13563984D01*
X10839229Y-13763984D02*
X10839229Y-13563984D01*
X10839229Y-13563984D02*
X10905896Y-13706841D01*
X10905896Y-13706841D02*
X10972563Y-13563984D01*
X10972563Y-13563984D02*
X10972563Y-13763984D01*
X11153515Y-13763984D02*
X11153515Y-13659222D01*
X11153515Y-13659222D02*
X11143991Y-13640174D01*
X11143991Y-13640174D02*
X11124944Y-13630650D01*
X11124944Y-13630650D02*
X11086848Y-13630650D01*
X11086848Y-13630650D02*
X11067801Y-13640174D01*
X11153515Y-13754460D02*
X11134467Y-13763984D01*
X11134467Y-13763984D02*
X11086848Y-13763984D01*
X11086848Y-13763984D02*
X11067801Y-13754460D01*
X11067801Y-13754460D02*
X11058277Y-13735412D01*
X11058277Y-13735412D02*
X11058277Y-13716365D01*
X11058277Y-13716365D02*
X11067801Y-13697317D01*
X11067801Y-13697317D02*
X11086848Y-13687793D01*
X11086848Y-13687793D02*
X11134467Y-13687793D01*
X11134467Y-13687793D02*
X11153515Y-13678269D01*
X11248753Y-13630650D02*
X11248753Y-13830650D01*
X11248753Y-13640174D02*
X11267801Y-13630650D01*
X11267801Y-13630650D02*
X11305896Y-13630650D01*
X11305896Y-13630650D02*
X11324943Y-13640174D01*
X11324943Y-13640174D02*
X11334467Y-13649698D01*
X11334467Y-13649698D02*
X11343991Y-13668746D01*
X11343991Y-13668746D02*
X11343991Y-13725888D01*
X11343991Y-13725888D02*
X11334467Y-13744936D01*
X11334467Y-13744936D02*
X11324943Y-13754460D01*
X11324943Y-13754460D02*
X11305896Y-13763984D01*
X11305896Y-13763984D02*
X11267801Y-13763984D01*
X11267801Y-13763984D02*
X11248753Y-13754460D01*
X11429705Y-13744936D02*
X11439229Y-13754460D01*
X11439229Y-13754460D02*
X11429705Y-13763984D01*
X11429705Y-13763984D02*
X11420182Y-13754460D01*
X11420182Y-13754460D02*
X11429705Y-13744936D01*
X11429705Y-13744936D02*
X11429705Y-13763984D01*
X11429705Y-13640174D02*
X11439229Y-13649698D01*
X11439229Y-13649698D02*
X11429705Y-13659222D01*
X11429705Y-13659222D02*
X11420182Y-13649698D01*
X11420182Y-13649698D02*
X11429705Y-13640174D01*
X11429705Y-13640174D02*
X11429705Y-13659222D01*
D12*
X9717500Y-14052500D02*
X9797500Y-14132500D01*
X9797500Y-14052500D02*
X9717500Y-14132500D01*
D11*
X10096372Y-13983984D02*
X10115420Y-13983984D01*
X10115420Y-13983984D02*
X10134467Y-13993508D01*
X10134467Y-13993508D02*
X10143991Y-14003031D01*
X10143991Y-14003031D02*
X10153515Y-14022079D01*
X10153515Y-14022079D02*
X10163039Y-14060174D01*
X10163039Y-14060174D02*
X10163039Y-14107793D01*
X10163039Y-14107793D02*
X10153515Y-14145888D01*
X10153515Y-14145888D02*
X10143991Y-14164936D01*
X10143991Y-14164936D02*
X10134467Y-14174460D01*
X10134467Y-14174460D02*
X10115420Y-14183984D01*
X10115420Y-14183984D02*
X10096372Y-14183984D01*
X10096372Y-14183984D02*
X10077324Y-14174460D01*
X10077324Y-14174460D02*
X10067801Y-14164936D01*
X10067801Y-14164936D02*
X10058277Y-14145888D01*
X10058277Y-14145888D02*
X10048753Y-14107793D01*
X10048753Y-14107793D02*
X10048753Y-14060174D01*
X10048753Y-14060174D02*
X10058277Y-14022079D01*
X10058277Y-14022079D02*
X10067801Y-14003031D01*
X10067801Y-14003031D02*
X10077324Y-13993508D01*
X10077324Y-13993508D02*
X10096372Y-13983984D01*
X10248753Y-14164936D02*
X10258277Y-14174460D01*
X10258277Y-14174460D02*
X10248753Y-14183984D01*
X10248753Y-14183984D02*
X10239229Y-14174460D01*
X10239229Y-14174460D02*
X10248753Y-14164936D01*
X10248753Y-14164936D02*
X10248753Y-14183984D01*
X10372563Y-14069698D02*
X10353515Y-14060174D01*
X10353515Y-14060174D02*
X10343991Y-14050650D01*
X10343991Y-14050650D02*
X10334467Y-14031603D01*
X10334467Y-14031603D02*
X10334467Y-14022079D01*
X10334467Y-14022079D02*
X10343991Y-14003031D01*
X10343991Y-14003031D02*
X10353515Y-13993508D01*
X10353515Y-13993508D02*
X10372563Y-13983984D01*
X10372563Y-13983984D02*
X10410658Y-13983984D01*
X10410658Y-13983984D02*
X10429705Y-13993508D01*
X10429705Y-13993508D02*
X10439229Y-14003031D01*
X10439229Y-14003031D02*
X10448753Y-14022079D01*
X10448753Y-14022079D02*
X10448753Y-14031603D01*
X10448753Y-14031603D02*
X10439229Y-14050650D01*
X10439229Y-14050650D02*
X10429705Y-14060174D01*
X10429705Y-14060174D02*
X10410658Y-14069698D01*
X10410658Y-14069698D02*
X10372563Y-14069698D01*
X10372563Y-14069698D02*
X10353515Y-14079222D01*
X10353515Y-14079222D02*
X10343991Y-14088746D01*
X10343991Y-14088746D02*
X10334467Y-14107793D01*
X10334467Y-14107793D02*
X10334467Y-14145888D01*
X10334467Y-14145888D02*
X10343991Y-14164936D01*
X10343991Y-14164936D02*
X10353515Y-14174460D01*
X10353515Y-14174460D02*
X10372563Y-14183984D01*
X10372563Y-14183984D02*
X10410658Y-14183984D01*
X10410658Y-14183984D02*
X10429705Y-14174460D01*
X10429705Y-14174460D02*
X10439229Y-14164936D01*
X10439229Y-14164936D02*
X10448753Y-14145888D01*
X10448753Y-14145888D02*
X10448753Y-14107793D01*
X10448753Y-14107793D02*
X10439229Y-14088746D01*
X10439229Y-14088746D02*
X10429705Y-14079222D01*
X10429705Y-14079222D02*
X10410658Y-14069698D01*
X10572563Y-13983984D02*
X10591610Y-13983984D01*
X10591610Y-13983984D02*
X10610658Y-13993508D01*
X10610658Y-13993508D02*
X10620182Y-14003031D01*
X10620182Y-14003031D02*
X10629705Y-14022079D01*
X10629705Y-14022079D02*
X10639229Y-14060174D01*
X10639229Y-14060174D02*
X10639229Y-14107793D01*
X10639229Y-14107793D02*
X10629705Y-14145888D01*
X10629705Y-14145888D02*
X10620182Y-14164936D01*
X10620182Y-14164936D02*
X10610658Y-14174460D01*
X10610658Y-14174460D02*
X10591610Y-14183984D01*
X10591610Y-14183984D02*
X10572563Y-14183984D01*
X10572563Y-14183984D02*
X10553515Y-14174460D01*
X10553515Y-14174460D02*
X10543991Y-14164936D01*
X10543991Y-14164936D02*
X10534467Y-14145888D01*
X10534467Y-14145888D02*
X10524944Y-14107793D01*
X10524944Y-14107793D02*
X10524944Y-14060174D01*
X10524944Y-14060174D02*
X10534467Y-14022079D01*
X10534467Y-14022079D02*
X10543991Y-14003031D01*
X10543991Y-14003031D02*
X10553515Y-13993508D01*
X10553515Y-13993508D02*
X10572563Y-13983984D01*
X10763039Y-13983984D02*
X10782086Y-13983984D01*
X10782086Y-13983984D02*
X10801134Y-13993508D01*
X10801134Y-13993508D02*
X10810658Y-14003031D01*
X10810658Y-14003031D02*
X10820182Y-14022079D01*
X10820182Y-14022079D02*
X10829705Y-14060174D01*
X10829705Y-14060174D02*
X10829705Y-14107793D01*
X10829705Y-14107793D02*
X10820182Y-14145888D01*
X10820182Y-14145888D02*
X10810658Y-14164936D01*
X10810658Y-14164936D02*
X10801134Y-14174460D01*
X10801134Y-14174460D02*
X10782086Y-14183984D01*
X10782086Y-14183984D02*
X10763039Y-14183984D01*
X10763039Y-14183984D02*
X10743991Y-14174460D01*
X10743991Y-14174460D02*
X10734467Y-14164936D01*
X10734467Y-14164936D02*
X10724944Y-14145888D01*
X10724944Y-14145888D02*
X10715420Y-14107793D01*
X10715420Y-14107793D02*
X10715420Y-14060174D01*
X10715420Y-14060174D02*
X10724944Y-14022079D01*
X10724944Y-14022079D02*
X10734467Y-14003031D01*
X10734467Y-14003031D02*
X10743991Y-13993508D01*
X10743991Y-13993508D02*
X10763039Y-13983984D01*
X10915420Y-14183984D02*
X10915420Y-14050650D01*
X10915420Y-14069698D02*
X10924944Y-14060174D01*
X10924944Y-14060174D02*
X10943991Y-14050650D01*
X10943991Y-14050650D02*
X10972563Y-14050650D01*
X10972563Y-14050650D02*
X10991610Y-14060174D01*
X10991610Y-14060174D02*
X11001134Y-14079222D01*
X11001134Y-14079222D02*
X11001134Y-14183984D01*
X11001134Y-14079222D02*
X11010658Y-14060174D01*
X11010658Y-14060174D02*
X11029705Y-14050650D01*
X11029705Y-14050650D02*
X11058277Y-14050650D01*
X11058277Y-14050650D02*
X11077325Y-14060174D01*
X11077325Y-14060174D02*
X11086848Y-14079222D01*
X11086848Y-14079222D02*
X11086848Y-14183984D01*
X11182086Y-14183984D02*
X11182086Y-14050650D01*
X11182086Y-14069698D02*
X11191610Y-14060174D01*
X11191610Y-14060174D02*
X11210658Y-14050650D01*
X11210658Y-14050650D02*
X11239229Y-14050650D01*
X11239229Y-14050650D02*
X11258277Y-14060174D01*
X11258277Y-14060174D02*
X11267801Y-14079222D01*
X11267801Y-14079222D02*
X11267801Y-14183984D01*
X11267801Y-14079222D02*
X11277324Y-14060174D01*
X11277324Y-14060174D02*
X11296372Y-14050650D01*
X11296372Y-14050650D02*
X11324943Y-14050650D01*
X11324943Y-14050650D02*
X11343991Y-14060174D01*
X11343991Y-14060174D02*
X11353515Y-14079222D01*
X11353515Y-14079222D02*
X11353515Y-14183984D01*
X11743991Y-13974460D02*
X11572563Y-14231603D01*
X12001134Y-13983984D02*
X12020182Y-13983984D01*
X12020182Y-13983984D02*
X12039229Y-13993508D01*
X12039229Y-13993508D02*
X12048753Y-14003031D01*
X12048753Y-14003031D02*
X12058277Y-14022079D01*
X12058277Y-14022079D02*
X12067801Y-14060174D01*
X12067801Y-14060174D02*
X12067801Y-14107793D01*
X12067801Y-14107793D02*
X12058277Y-14145888D01*
X12058277Y-14145888D02*
X12048753Y-14164936D01*
X12048753Y-14164936D02*
X12039229Y-14174460D01*
X12039229Y-14174460D02*
X12020182Y-14183984D01*
X12020182Y-14183984D02*
X12001134Y-14183984D01*
X12001134Y-14183984D02*
X11982086Y-14174460D01*
X11982086Y-14174460D02*
X11972563Y-14164936D01*
X11972563Y-14164936D02*
X11963039Y-14145888D01*
X11963039Y-14145888D02*
X11953515Y-14107793D01*
X11953515Y-14107793D02*
X11953515Y-14060174D01*
X11953515Y-14060174D02*
X11963039Y-14022079D01*
X11963039Y-14022079D02*
X11972563Y-14003031D01*
X11972563Y-14003031D02*
X11982086Y-13993508D01*
X11982086Y-13993508D02*
X12001134Y-13983984D01*
X12153515Y-14164936D02*
X12163039Y-14174460D01*
X12163039Y-14174460D02*
X12153515Y-14183984D01*
X12153515Y-14183984D02*
X12143991Y-14174460D01*
X12143991Y-14174460D02*
X12153515Y-14164936D01*
X12153515Y-14164936D02*
X12153515Y-14183984D01*
X12286848Y-13983984D02*
X12305896Y-13983984D01*
X12305896Y-13983984D02*
X12324944Y-13993508D01*
X12324944Y-13993508D02*
X12334467Y-14003031D01*
X12334467Y-14003031D02*
X12343991Y-14022079D01*
X12343991Y-14022079D02*
X12353515Y-14060174D01*
X12353515Y-14060174D02*
X12353515Y-14107793D01*
X12353515Y-14107793D02*
X12343991Y-14145888D01*
X12343991Y-14145888D02*
X12334467Y-14164936D01*
X12334467Y-14164936D02*
X12324944Y-14174460D01*
X12324944Y-14174460D02*
X12305896Y-14183984D01*
X12305896Y-14183984D02*
X12286848Y-14183984D01*
X12286848Y-14183984D02*
X12267801Y-14174460D01*
X12267801Y-14174460D02*
X12258277Y-14164936D01*
X12258277Y-14164936D02*
X12248753Y-14145888D01*
X12248753Y-14145888D02*
X12239229Y-14107793D01*
X12239229Y-14107793D02*
X12239229Y-14060174D01*
X12239229Y-14060174D02*
X12248753Y-14022079D01*
X12248753Y-14022079D02*
X12258277Y-14003031D01*
X12258277Y-14003031D02*
X12267801Y-13993508D01*
X12267801Y-13993508D02*
X12286848Y-13983984D01*
X12420182Y-13983984D02*
X12543991Y-13983984D01*
X12543991Y-13983984D02*
X12477325Y-14060174D01*
X12477325Y-14060174D02*
X12505896Y-14060174D01*
X12505896Y-14060174D02*
X12524944Y-14069698D01*
X12524944Y-14069698D02*
X12534467Y-14079222D01*
X12534467Y-14079222D02*
X12543991Y-14098269D01*
X12543991Y-14098269D02*
X12543991Y-14145888D01*
X12543991Y-14145888D02*
X12534467Y-14164936D01*
X12534467Y-14164936D02*
X12524944Y-14174460D01*
X12524944Y-14174460D02*
X12505896Y-14183984D01*
X12505896Y-14183984D02*
X12448753Y-14183984D01*
X12448753Y-14183984D02*
X12429706Y-14174460D01*
X12429706Y-14174460D02*
X12420182Y-14164936D01*
X12734467Y-14183984D02*
X12620182Y-14183984D01*
X12677325Y-14183984D02*
X12677325Y-13983984D01*
X12677325Y-13983984D02*
X12658277Y-14012555D01*
X12658277Y-14012555D02*
X12639229Y-14031603D01*
X12639229Y-14031603D02*
X12620182Y-14041127D01*
X12915420Y-13983984D02*
X12820182Y-13983984D01*
X12820182Y-13983984D02*
X12810658Y-14079222D01*
X12810658Y-14079222D02*
X12820182Y-14069698D01*
X12820182Y-14069698D02*
X12839229Y-14060174D01*
X12839229Y-14060174D02*
X12886848Y-14060174D01*
X12886848Y-14060174D02*
X12905896Y-14069698D01*
X12905896Y-14069698D02*
X12915420Y-14079222D01*
X12915420Y-14079222D02*
X12924944Y-14098269D01*
X12924944Y-14098269D02*
X12924944Y-14145888D01*
X12924944Y-14145888D02*
X12915420Y-14164936D01*
X12915420Y-14164936D02*
X12905896Y-14174460D01*
X12905896Y-14174460D02*
X12886848Y-14183984D01*
X12886848Y-14183984D02*
X12839229Y-14183984D01*
X12839229Y-14183984D02*
X12820182Y-14174460D01*
X12820182Y-14174460D02*
X12810658Y-14164936D01*
X13001134Y-13983984D02*
X13001134Y-14022079D01*
X13077325Y-13983984D02*
X13077325Y-14022079D01*
X13372563Y-14260174D02*
X13363039Y-14250650D01*
X13363039Y-14250650D02*
X13343991Y-14222079D01*
X13343991Y-14222079D02*
X13334468Y-14203031D01*
X13334468Y-14203031D02*
X13324944Y-14174460D01*
X13324944Y-14174460D02*
X13315420Y-14126841D01*
X13315420Y-14126841D02*
X13315420Y-14088746D01*
X13315420Y-14088746D02*
X13324944Y-14041127D01*
X13324944Y-14041127D02*
X13334468Y-14012555D01*
X13334468Y-14012555D02*
X13343991Y-13993508D01*
X13343991Y-13993508D02*
X13363039Y-13964936D01*
X13363039Y-13964936D02*
X13372563Y-13955412D01*
X13429706Y-13983984D02*
X13563039Y-13983984D01*
X13563039Y-13983984D02*
X13477325Y-14183984D01*
X13677325Y-13983984D02*
X13696372Y-13983984D01*
X13696372Y-13983984D02*
X13715420Y-13993508D01*
X13715420Y-13993508D02*
X13724944Y-14003031D01*
X13724944Y-14003031D02*
X13734468Y-14022079D01*
X13734468Y-14022079D02*
X13743991Y-14060174D01*
X13743991Y-14060174D02*
X13743991Y-14107793D01*
X13743991Y-14107793D02*
X13734468Y-14145888D01*
X13734468Y-14145888D02*
X13724944Y-14164936D01*
X13724944Y-14164936D02*
X13715420Y-14174460D01*
X13715420Y-14174460D02*
X13696372Y-14183984D01*
X13696372Y-14183984D02*
X13677325Y-14183984D01*
X13677325Y-14183984D02*
X13658277Y-14174460D01*
X13658277Y-14174460D02*
X13648753Y-14164936D01*
X13648753Y-14164936D02*
X13639229Y-14145888D01*
X13639229Y-14145888D02*
X13629706Y-14107793D01*
X13629706Y-14107793D02*
X13629706Y-14060174D01*
X13629706Y-14060174D02*
X13639229Y-14022079D01*
X13639229Y-14022079D02*
X13648753Y-14003031D01*
X13648753Y-14003031D02*
X13658277Y-13993508D01*
X13658277Y-13993508D02*
X13677325Y-13983984D01*
X13982087Y-14183984D02*
X13982087Y-13983984D01*
X14067801Y-14183984D02*
X14067801Y-14079222D01*
X14067801Y-14079222D02*
X14058277Y-14060174D01*
X14058277Y-14060174D02*
X14039230Y-14050650D01*
X14039230Y-14050650D02*
X14010658Y-14050650D01*
X14010658Y-14050650D02*
X13991610Y-14060174D01*
X13991610Y-14060174D02*
X13982087Y-14069698D01*
X14191610Y-14183984D02*
X14172563Y-14174460D01*
X14172563Y-14174460D02*
X14163039Y-14164936D01*
X14163039Y-14164936D02*
X14153515Y-14145888D01*
X14153515Y-14145888D02*
X14153515Y-14088746D01*
X14153515Y-14088746D02*
X14163039Y-14069698D01*
X14163039Y-14069698D02*
X14172563Y-14060174D01*
X14172563Y-14060174D02*
X14191610Y-14050650D01*
X14191610Y-14050650D02*
X14220182Y-14050650D01*
X14220182Y-14050650D02*
X14239230Y-14060174D01*
X14239230Y-14060174D02*
X14248753Y-14069698D01*
X14248753Y-14069698D02*
X14258277Y-14088746D01*
X14258277Y-14088746D02*
X14258277Y-14145888D01*
X14258277Y-14145888D02*
X14248753Y-14164936D01*
X14248753Y-14164936D02*
X14239230Y-14174460D01*
X14239230Y-14174460D02*
X14220182Y-14183984D01*
X14220182Y-14183984D02*
X14191610Y-14183984D01*
X14372563Y-14183984D02*
X14353515Y-14174460D01*
X14353515Y-14174460D02*
X14343991Y-14155412D01*
X14343991Y-14155412D02*
X14343991Y-13983984D01*
X14524944Y-14174460D02*
X14505896Y-14183984D01*
X14505896Y-14183984D02*
X14467801Y-14183984D01*
X14467801Y-14183984D02*
X14448753Y-14174460D01*
X14448753Y-14174460D02*
X14439230Y-14155412D01*
X14439230Y-14155412D02*
X14439230Y-14079222D01*
X14439230Y-14079222D02*
X14448753Y-14060174D01*
X14448753Y-14060174D02*
X14467801Y-14050650D01*
X14467801Y-14050650D02*
X14505896Y-14050650D01*
X14505896Y-14050650D02*
X14524944Y-14060174D01*
X14524944Y-14060174D02*
X14534468Y-14079222D01*
X14534468Y-14079222D02*
X14534468Y-14098269D01*
X14534468Y-14098269D02*
X14439230Y-14117317D01*
X14610658Y-14174460D02*
X14629706Y-14183984D01*
X14629706Y-14183984D02*
X14667801Y-14183984D01*
X14667801Y-14183984D02*
X14686849Y-14174460D01*
X14686849Y-14174460D02*
X14696372Y-14155412D01*
X14696372Y-14155412D02*
X14696372Y-14145888D01*
X14696372Y-14145888D02*
X14686849Y-14126841D01*
X14686849Y-14126841D02*
X14667801Y-14117317D01*
X14667801Y-14117317D02*
X14639230Y-14117317D01*
X14639230Y-14117317D02*
X14620182Y-14107793D01*
X14620182Y-14107793D02*
X14610658Y-14088746D01*
X14610658Y-14088746D02*
X14610658Y-14079222D01*
X14610658Y-14079222D02*
X14620182Y-14060174D01*
X14620182Y-14060174D02*
X14639230Y-14050650D01*
X14639230Y-14050650D02*
X14667801Y-14050650D01*
X14667801Y-14050650D02*
X14686849Y-14060174D01*
X14763039Y-14260174D02*
X14772563Y-14250650D01*
X14772563Y-14250650D02*
X14791611Y-14222079D01*
X14791611Y-14222079D02*
X14801134Y-14203031D01*
X14801134Y-14203031D02*
X14810658Y-14174460D01*
X14810658Y-14174460D02*
X14820182Y-14126841D01*
X14820182Y-14126841D02*
X14820182Y-14088746D01*
X14820182Y-14088746D02*
X14810658Y-14041127D01*
X14810658Y-14041127D02*
X14801134Y-14012555D01*
X14801134Y-14012555D02*
X14791611Y-13993508D01*
X14791611Y-13993508D02*
X14772563Y-13964936D01*
X14772563Y-13964936D02*
X14763039Y-13955412D01*
D13*
X9797500Y-14356500D02*
G75*
G02*
X9667500Y-14356500I-65000J0D01*
G01*
X9667500Y-14356500D02*
G75*
G02*
X9797500Y-14356500I65000J0D01*
G01*
D11*
X10163039Y-14447984D02*
X10048753Y-14447984D01*
X10105896Y-14447984D02*
X10105896Y-14247984D01*
X10105896Y-14247984D02*
X10086848Y-14276555D01*
X10086848Y-14276555D02*
X10067801Y-14295603D01*
X10067801Y-14295603D02*
X10048753Y-14305127D01*
X10248753Y-14428936D02*
X10258277Y-14438460D01*
X10258277Y-14438460D02*
X10248753Y-14447984D01*
X10248753Y-14447984D02*
X10239229Y-14438460D01*
X10239229Y-14438460D02*
X10248753Y-14428936D01*
X10248753Y-14428936D02*
X10248753Y-14447984D01*
X10324944Y-14247984D02*
X10448753Y-14247984D01*
X10448753Y-14247984D02*
X10382086Y-14324174D01*
X10382086Y-14324174D02*
X10410658Y-14324174D01*
X10410658Y-14324174D02*
X10429705Y-14333698D01*
X10429705Y-14333698D02*
X10439229Y-14343222D01*
X10439229Y-14343222D02*
X10448753Y-14362269D01*
X10448753Y-14362269D02*
X10448753Y-14409888D01*
X10448753Y-14409888D02*
X10439229Y-14428936D01*
X10439229Y-14428936D02*
X10429705Y-14438460D01*
X10429705Y-14438460D02*
X10410658Y-14447984D01*
X10410658Y-14447984D02*
X10353515Y-14447984D01*
X10353515Y-14447984D02*
X10334467Y-14438460D01*
X10334467Y-14438460D02*
X10324944Y-14428936D01*
X10572563Y-14247984D02*
X10591610Y-14247984D01*
X10591610Y-14247984D02*
X10610658Y-14257508D01*
X10610658Y-14257508D02*
X10620182Y-14267031D01*
X10620182Y-14267031D02*
X10629705Y-14286079D01*
X10629705Y-14286079D02*
X10639229Y-14324174D01*
X10639229Y-14324174D02*
X10639229Y-14371793D01*
X10639229Y-14371793D02*
X10629705Y-14409888D01*
X10629705Y-14409888D02*
X10620182Y-14428936D01*
X10620182Y-14428936D02*
X10610658Y-14438460D01*
X10610658Y-14438460D02*
X10591610Y-14447984D01*
X10591610Y-14447984D02*
X10572563Y-14447984D01*
X10572563Y-14447984D02*
X10553515Y-14438460D01*
X10553515Y-14438460D02*
X10543991Y-14428936D01*
X10543991Y-14428936D02*
X10534467Y-14409888D01*
X10534467Y-14409888D02*
X10524944Y-14371793D01*
X10524944Y-14371793D02*
X10524944Y-14324174D01*
X10524944Y-14324174D02*
X10534467Y-14286079D01*
X10534467Y-14286079D02*
X10543991Y-14267031D01*
X10543991Y-14267031D02*
X10553515Y-14257508D01*
X10553515Y-14257508D02*
X10572563Y-14247984D01*
X10763039Y-14247984D02*
X10782086Y-14247984D01*
X10782086Y-14247984D02*
X10801134Y-14257508D01*
X10801134Y-14257508D02*
X10810658Y-14267031D01*
X10810658Y-14267031D02*
X10820182Y-14286079D01*
X10820182Y-14286079D02*
X10829705Y-14324174D01*
X10829705Y-14324174D02*
X10829705Y-14371793D01*
X10829705Y-14371793D02*
X10820182Y-14409888D01*
X10820182Y-14409888D02*
X10810658Y-14428936D01*
X10810658Y-14428936D02*
X10801134Y-14438460D01*
X10801134Y-14438460D02*
X10782086Y-14447984D01*
X10782086Y-14447984D02*
X10763039Y-14447984D01*
X10763039Y-14447984D02*
X10743991Y-14438460D01*
X10743991Y-14438460D02*
X10734467Y-14428936D01*
X10734467Y-14428936D02*
X10724944Y-14409888D01*
X10724944Y-14409888D02*
X10715420Y-14371793D01*
X10715420Y-14371793D02*
X10715420Y-14324174D01*
X10715420Y-14324174D02*
X10724944Y-14286079D01*
X10724944Y-14286079D02*
X10734467Y-14267031D01*
X10734467Y-14267031D02*
X10743991Y-14257508D01*
X10743991Y-14257508D02*
X10763039Y-14247984D01*
X10915420Y-14447984D02*
X10915420Y-14314650D01*
X10915420Y-14333698D02*
X10924944Y-14324174D01*
X10924944Y-14324174D02*
X10943991Y-14314650D01*
X10943991Y-14314650D02*
X10972563Y-14314650D01*
X10972563Y-14314650D02*
X10991610Y-14324174D01*
X10991610Y-14324174D02*
X11001134Y-14343222D01*
X11001134Y-14343222D02*
X11001134Y-14447984D01*
X11001134Y-14343222D02*
X11010658Y-14324174D01*
X11010658Y-14324174D02*
X11029705Y-14314650D01*
X11029705Y-14314650D02*
X11058277Y-14314650D01*
X11058277Y-14314650D02*
X11077325Y-14324174D01*
X11077325Y-14324174D02*
X11086848Y-14343222D01*
X11086848Y-14343222D02*
X11086848Y-14447984D01*
X11182086Y-14447984D02*
X11182086Y-14314650D01*
X11182086Y-14333698D02*
X11191610Y-14324174D01*
X11191610Y-14324174D02*
X11210658Y-14314650D01*
X11210658Y-14314650D02*
X11239229Y-14314650D01*
X11239229Y-14314650D02*
X11258277Y-14324174D01*
X11258277Y-14324174D02*
X11267801Y-14343222D01*
X11267801Y-14343222D02*
X11267801Y-14447984D01*
X11267801Y-14343222D02*
X11277324Y-14324174D01*
X11277324Y-14324174D02*
X11296372Y-14314650D01*
X11296372Y-14314650D02*
X11324943Y-14314650D01*
X11324943Y-14314650D02*
X11343991Y-14324174D01*
X11343991Y-14324174D02*
X11353515Y-14343222D01*
X11353515Y-14343222D02*
X11353515Y-14447984D01*
X11743991Y-14238460D02*
X11572563Y-14495603D01*
X12001134Y-14247984D02*
X12020182Y-14247984D01*
X12020182Y-14247984D02*
X12039229Y-14257508D01*
X12039229Y-14257508D02*
X12048753Y-14267031D01*
X12048753Y-14267031D02*
X12058277Y-14286079D01*
X12058277Y-14286079D02*
X12067801Y-14324174D01*
X12067801Y-14324174D02*
X12067801Y-14371793D01*
X12067801Y-14371793D02*
X12058277Y-14409888D01*
X12058277Y-14409888D02*
X12048753Y-14428936D01*
X12048753Y-14428936D02*
X12039229Y-14438460D01*
X12039229Y-14438460D02*
X12020182Y-14447984D01*
X12020182Y-14447984D02*
X12001134Y-14447984D01*
X12001134Y-14447984D02*
X11982086Y-14438460D01*
X11982086Y-14438460D02*
X11972563Y-14428936D01*
X11972563Y-14428936D02*
X11963039Y-14409888D01*
X11963039Y-14409888D02*
X11953515Y-14371793D01*
X11953515Y-14371793D02*
X11953515Y-14324174D01*
X11953515Y-14324174D02*
X11963039Y-14286079D01*
X11963039Y-14286079D02*
X11972563Y-14267031D01*
X11972563Y-14267031D02*
X11982086Y-14257508D01*
X11982086Y-14257508D02*
X12001134Y-14247984D01*
X12153515Y-14428936D02*
X12163039Y-14438460D01*
X12163039Y-14438460D02*
X12153515Y-14447984D01*
X12153515Y-14447984D02*
X12143991Y-14438460D01*
X12143991Y-14438460D02*
X12153515Y-14428936D01*
X12153515Y-14428936D02*
X12153515Y-14447984D01*
X12286848Y-14247984D02*
X12305896Y-14247984D01*
X12305896Y-14247984D02*
X12324944Y-14257508D01*
X12324944Y-14257508D02*
X12334467Y-14267031D01*
X12334467Y-14267031D02*
X12343991Y-14286079D01*
X12343991Y-14286079D02*
X12353515Y-14324174D01*
X12353515Y-14324174D02*
X12353515Y-14371793D01*
X12353515Y-14371793D02*
X12343991Y-14409888D01*
X12343991Y-14409888D02*
X12334467Y-14428936D01*
X12334467Y-14428936D02*
X12324944Y-14438460D01*
X12324944Y-14438460D02*
X12305896Y-14447984D01*
X12305896Y-14447984D02*
X12286848Y-14447984D01*
X12286848Y-14447984D02*
X12267801Y-14438460D01*
X12267801Y-14438460D02*
X12258277Y-14428936D01*
X12258277Y-14428936D02*
X12248753Y-14409888D01*
X12248753Y-14409888D02*
X12239229Y-14371793D01*
X12239229Y-14371793D02*
X12239229Y-14324174D01*
X12239229Y-14324174D02*
X12248753Y-14286079D01*
X12248753Y-14286079D02*
X12258277Y-14267031D01*
X12258277Y-14267031D02*
X12267801Y-14257508D01*
X12267801Y-14257508D02*
X12286848Y-14247984D01*
X12534467Y-14247984D02*
X12439229Y-14247984D01*
X12439229Y-14247984D02*
X12429706Y-14343222D01*
X12429706Y-14343222D02*
X12439229Y-14333698D01*
X12439229Y-14333698D02*
X12458277Y-14324174D01*
X12458277Y-14324174D02*
X12505896Y-14324174D01*
X12505896Y-14324174D02*
X12524944Y-14333698D01*
X12524944Y-14333698D02*
X12534467Y-14343222D01*
X12534467Y-14343222D02*
X12543991Y-14362269D01*
X12543991Y-14362269D02*
X12543991Y-14409888D01*
X12543991Y-14409888D02*
X12534467Y-14428936D01*
X12534467Y-14428936D02*
X12524944Y-14438460D01*
X12524944Y-14438460D02*
X12505896Y-14447984D01*
X12505896Y-14447984D02*
X12458277Y-14447984D01*
X12458277Y-14447984D02*
X12439229Y-14438460D01*
X12439229Y-14438460D02*
X12429706Y-14428936D01*
X12734467Y-14447984D02*
X12620182Y-14447984D01*
X12677325Y-14447984D02*
X12677325Y-14247984D01*
X12677325Y-14247984D02*
X12658277Y-14276555D01*
X12658277Y-14276555D02*
X12639229Y-14295603D01*
X12639229Y-14295603D02*
X12620182Y-14305127D01*
X12810658Y-14267031D02*
X12820182Y-14257508D01*
X12820182Y-14257508D02*
X12839229Y-14247984D01*
X12839229Y-14247984D02*
X12886848Y-14247984D01*
X12886848Y-14247984D02*
X12905896Y-14257508D01*
X12905896Y-14257508D02*
X12915420Y-14267031D01*
X12915420Y-14267031D02*
X12924944Y-14286079D01*
X12924944Y-14286079D02*
X12924944Y-14305127D01*
X12924944Y-14305127D02*
X12915420Y-14333698D01*
X12915420Y-14333698D02*
X12801134Y-14447984D01*
X12801134Y-14447984D02*
X12924944Y-14447984D01*
X13001134Y-14247984D02*
X13001134Y-14286079D01*
X13077325Y-14247984D02*
X13077325Y-14286079D01*
X13372563Y-14524174D02*
X13363039Y-14514650D01*
X13363039Y-14514650D02*
X13343991Y-14486079D01*
X13343991Y-14486079D02*
X13334468Y-14467031D01*
X13334468Y-14467031D02*
X13324944Y-14438460D01*
X13324944Y-14438460D02*
X13315420Y-14390841D01*
X13315420Y-14390841D02*
X13315420Y-14352746D01*
X13315420Y-14352746D02*
X13324944Y-14305127D01*
X13324944Y-14305127D02*
X13334468Y-14276555D01*
X13334468Y-14276555D02*
X13343991Y-14257508D01*
X13343991Y-14257508D02*
X13363039Y-14228936D01*
X13363039Y-14228936D02*
X13372563Y-14219412D01*
X13439229Y-14267031D02*
X13448753Y-14257508D01*
X13448753Y-14257508D02*
X13467801Y-14247984D01*
X13467801Y-14247984D02*
X13515420Y-14247984D01*
X13515420Y-14247984D02*
X13534468Y-14257508D01*
X13534468Y-14257508D02*
X13543991Y-14267031D01*
X13543991Y-14267031D02*
X13553515Y-14286079D01*
X13553515Y-14286079D02*
X13553515Y-14305127D01*
X13553515Y-14305127D02*
X13543991Y-14333698D01*
X13543991Y-14333698D02*
X13429706Y-14447984D01*
X13429706Y-14447984D02*
X13553515Y-14447984D01*
X13648753Y-14447984D02*
X13686848Y-14447984D01*
X13686848Y-14447984D02*
X13705896Y-14438460D01*
X13705896Y-14438460D02*
X13715420Y-14428936D01*
X13715420Y-14428936D02*
X13734468Y-14400365D01*
X13734468Y-14400365D02*
X13743991Y-14362269D01*
X13743991Y-14362269D02*
X13743991Y-14286079D01*
X13743991Y-14286079D02*
X13734468Y-14267031D01*
X13734468Y-14267031D02*
X13724944Y-14257508D01*
X13724944Y-14257508D02*
X13705896Y-14247984D01*
X13705896Y-14247984D02*
X13667801Y-14247984D01*
X13667801Y-14247984D02*
X13648753Y-14257508D01*
X13648753Y-14257508D02*
X13639229Y-14267031D01*
X13639229Y-14267031D02*
X13629706Y-14286079D01*
X13629706Y-14286079D02*
X13629706Y-14333698D01*
X13629706Y-14333698D02*
X13639229Y-14352746D01*
X13639229Y-14352746D02*
X13648753Y-14362269D01*
X13648753Y-14362269D02*
X13667801Y-14371793D01*
X13667801Y-14371793D02*
X13705896Y-14371793D01*
X13705896Y-14371793D02*
X13724944Y-14362269D01*
X13724944Y-14362269D02*
X13734468Y-14352746D01*
X13734468Y-14352746D02*
X13743991Y-14333698D01*
X13982087Y-14447984D02*
X13982087Y-14247984D01*
X14067801Y-14447984D02*
X14067801Y-14343222D01*
X14067801Y-14343222D02*
X14058277Y-14324174D01*
X14058277Y-14324174D02*
X14039230Y-14314650D01*
X14039230Y-14314650D02*
X14010658Y-14314650D01*
X14010658Y-14314650D02*
X13991610Y-14324174D01*
X13991610Y-14324174D02*
X13982087Y-14333698D01*
X14191610Y-14447984D02*
X14172563Y-14438460D01*
X14172563Y-14438460D02*
X14163039Y-14428936D01*
X14163039Y-14428936D02*
X14153515Y-14409888D01*
X14153515Y-14409888D02*
X14153515Y-14352746D01*
X14153515Y-14352746D02*
X14163039Y-14333698D01*
X14163039Y-14333698D02*
X14172563Y-14324174D01*
X14172563Y-14324174D02*
X14191610Y-14314650D01*
X14191610Y-14314650D02*
X14220182Y-14314650D01*
X14220182Y-14314650D02*
X14239230Y-14324174D01*
X14239230Y-14324174D02*
X14248753Y-14333698D01*
X14248753Y-14333698D02*
X14258277Y-14352746D01*
X14258277Y-14352746D02*
X14258277Y-14409888D01*
X14258277Y-14409888D02*
X14248753Y-14428936D01*
X14248753Y-14428936D02*
X14239230Y-14438460D01*
X14239230Y-14438460D02*
X14220182Y-14447984D01*
X14220182Y-14447984D02*
X14191610Y-14447984D01*
X14372563Y-14447984D02*
X14353515Y-14438460D01*
X14353515Y-14438460D02*
X14343991Y-14419412D01*
X14343991Y-14419412D02*
X14343991Y-14247984D01*
X14524944Y-14438460D02*
X14505896Y-14447984D01*
X14505896Y-14447984D02*
X14467801Y-14447984D01*
X14467801Y-14447984D02*
X14448753Y-14438460D01*
X14448753Y-14438460D02*
X14439230Y-14419412D01*
X14439230Y-14419412D02*
X14439230Y-14343222D01*
X14439230Y-14343222D02*
X14448753Y-14324174D01*
X14448753Y-14324174D02*
X14467801Y-14314650D01*
X14467801Y-14314650D02*
X14505896Y-14314650D01*
X14505896Y-14314650D02*
X14524944Y-14324174D01*
X14524944Y-14324174D02*
X14534468Y-14343222D01*
X14534468Y-14343222D02*
X14534468Y-14362269D01*
X14534468Y-14362269D02*
X14439230Y-14381317D01*
X14610658Y-14438460D02*
X14629706Y-14447984D01*
X14629706Y-14447984D02*
X14667801Y-14447984D01*
X14667801Y-14447984D02*
X14686849Y-14438460D01*
X14686849Y-14438460D02*
X14696372Y-14419412D01*
X14696372Y-14419412D02*
X14696372Y-14409888D01*
X14696372Y-14409888D02*
X14686849Y-14390841D01*
X14686849Y-14390841D02*
X14667801Y-14381317D01*
X14667801Y-14381317D02*
X14639230Y-14381317D01*
X14639230Y-14381317D02*
X14620182Y-14371793D01*
X14620182Y-14371793D02*
X14610658Y-14352746D01*
X14610658Y-14352746D02*
X14610658Y-14343222D01*
X14610658Y-14343222D02*
X14620182Y-14324174D01*
X14620182Y-14324174D02*
X14639230Y-14314650D01*
X14639230Y-14314650D02*
X14667801Y-14314650D01*
X14667801Y-14314650D02*
X14686849Y-14324174D01*
X14763039Y-14524174D02*
X14772563Y-14514650D01*
X14772563Y-14514650D02*
X14791611Y-14486079D01*
X14791611Y-14486079D02*
X14801134Y-14467031D01*
X14801134Y-14467031D02*
X14810658Y-14438460D01*
X14810658Y-14438460D02*
X14820182Y-14390841D01*
X14820182Y-14390841D02*
X14820182Y-14352746D01*
X14820182Y-14352746D02*
X14810658Y-14305127D01*
X14810658Y-14305127D02*
X14801134Y-14276555D01*
X14801134Y-14276555D02*
X14791611Y-14257508D01*
X14791611Y-14257508D02*
X14772563Y-14228936D01*
X14772563Y-14228936D02*
X14763039Y-14219412D01*
M02*
