G04 #@! TF.GenerationSoftware,KiCad,Pcbnew,9.0.0*
G04 #@! TF.CreationDate,2025-04-17T23:52:22+01:00*
G04 #@! TF.ProjectId,SNES_CONTROLLER,534e4553-5f43-44f4-9e54-524f4c4c4552,rev?*
G04 #@! TF.SameCoordinates,Original*
G04 #@! TF.FileFunction,Copper,L1,Top*
G04 #@! TF.FilePolarity,Positive*
%FSLAX46Y46*%
G04 Gerber Fmt 4.6, Leading zero omitted, Abs format (unit mm)*
G04 Created by KiCad (PCBNEW 9.0.0) date 2025-04-17 23:52:22*
%MOMM*%
%LPD*%
G01*
G04 APERTURE LIST*
G04 Aperture macros list*
%AMRoundRect*
0 Rectangle with rounded corners*
0 $1 Rounding radius*
0 $2 $3 $4 $5 $6 $7 $8 $9 X,Y pos of 4 corners*
0 Add a 4 corners polygon primitive as box body*
4,1,4,$2,$3,$4,$5,$6,$7,$8,$9,$2,$3,0*
0 Add four circle primitives for the rounded corners*
1,1,$1+$1,$2,$3*
1,1,$1+$1,$4,$5*
1,1,$1+$1,$6,$7*
1,1,$1+$1,$8,$9*
0 Add four rect primitives between the rounded corners*
20,1,$1+$1,$2,$3,$4,$5,0*
20,1,$1+$1,$4,$5,$6,$7,0*
20,1,$1+$1,$6,$7,$8,$9,0*
20,1,$1+$1,$8,$9,$2,$3,0*%
G04 Aperture macros list end*
G04 #@! TA.AperFunction,ComponentPad*
%ADD10C,1.600000*%
G04 #@! TD*
G04 #@! TA.AperFunction,ComponentPad*
%ADD11O,1.600000X1.600000*%
G04 #@! TD*
G04 #@! TA.AperFunction,ComponentPad*
%ADD12RoundRect,0.250001X1.149999X-1.149999X1.149999X1.149999X-1.149999X1.149999X-1.149999X-1.149999X0*%
G04 #@! TD*
G04 #@! TA.AperFunction,ComponentPad*
%ADD13C,2.800000*%
G04 #@! TD*
G04 #@! TA.AperFunction,ComponentPad*
%ADD14R,1.600000X1.600000*%
G04 #@! TD*
G04 #@! TA.AperFunction,ComponentPad*
%ADD15RoundRect,0.250001X-1.149999X-1.149999X1.149999X-1.149999X1.149999X1.149999X-1.149999X1.149999X0*%
G04 #@! TD*
G04 #@! TA.AperFunction,Conductor*
%ADD16C,0.200000*%
G04 #@! TD*
G04 APERTURE END LIST*
D10*
X124000000Y-75500000D03*
D11*
X129080000Y-75500000D03*
D10*
X124000000Y-83600000D03*
D11*
X129080000Y-83600000D03*
D10*
X132680000Y-87650000D03*
D11*
X137760000Y-87650000D03*
D12*
X103500000Y-129500000D03*
D13*
X103500000Y-124500000D03*
X103500000Y-119500000D03*
X103500000Y-114500000D03*
X103500000Y-109500000D03*
X103500000Y-104500000D03*
X103500000Y-99500000D03*
X103500000Y-94500000D03*
X103500000Y-89500000D03*
X103500000Y-84500000D03*
X103500000Y-79500000D03*
X103500000Y-74500000D03*
D14*
X130635000Y-106520000D03*
D11*
X130635000Y-109060000D03*
X130635000Y-111600000D03*
X130635000Y-114140000D03*
X130635000Y-116680000D03*
X130635000Y-119220000D03*
X130635000Y-121760000D03*
X130635000Y-124300000D03*
X138255000Y-124300000D03*
X138255000Y-121760000D03*
X138255000Y-119220000D03*
X138255000Y-116680000D03*
X138255000Y-114140000D03*
X138255000Y-111600000D03*
X138255000Y-109060000D03*
X138255000Y-106520000D03*
D10*
X132680000Y-91700000D03*
D11*
X137760000Y-91700000D03*
D10*
X115320000Y-95750000D03*
D11*
X120400000Y-95750000D03*
D10*
X132680000Y-75500000D03*
D11*
X137760000Y-75500000D03*
D10*
X115320000Y-79550000D03*
D11*
X120400000Y-79550000D03*
D12*
X149000000Y-129500000D03*
D13*
X149000000Y-124500000D03*
X149000000Y-119500000D03*
X149000000Y-114500000D03*
X149000000Y-109500000D03*
X149000000Y-104500000D03*
X149000000Y-99500000D03*
X149000000Y-94500000D03*
X149000000Y-89500000D03*
X149000000Y-84500000D03*
X149000000Y-79500000D03*
X149000000Y-74500000D03*
D10*
X115320000Y-75500000D03*
D11*
X120400000Y-75500000D03*
D10*
X124000000Y-79550000D03*
D11*
X129080000Y-79550000D03*
D15*
X114000000Y-66500000D03*
D13*
X119000000Y-66500000D03*
X124000000Y-66500000D03*
X129000000Y-66500000D03*
X134000000Y-66500000D03*
X139000000Y-66500000D03*
D10*
X124000000Y-95750000D03*
D11*
X129080000Y-95750000D03*
D10*
X115320000Y-99800000D03*
D11*
X120400000Y-99800000D03*
D10*
X124000000Y-87650000D03*
D11*
X129080000Y-87650000D03*
D10*
X115320000Y-87650000D03*
D11*
X120400000Y-87650000D03*
D14*
X115015000Y-106520000D03*
D11*
X115015000Y-109060000D03*
X115015000Y-111600000D03*
X115015000Y-114140000D03*
X115015000Y-116680000D03*
X115015000Y-119220000D03*
X115015000Y-121760000D03*
X115015000Y-124300000D03*
X122635000Y-124300000D03*
X122635000Y-121760000D03*
X122635000Y-119220000D03*
X122635000Y-116680000D03*
X122635000Y-114140000D03*
X122635000Y-111600000D03*
X122635000Y-109060000D03*
X122635000Y-106520000D03*
D10*
X124000000Y-91700000D03*
D11*
X129080000Y-91700000D03*
D10*
X115320000Y-91700000D03*
D11*
X120400000Y-91700000D03*
D10*
X115320000Y-83600000D03*
D11*
X120400000Y-83600000D03*
D10*
X132680000Y-83600000D03*
D11*
X137760000Y-83600000D03*
D10*
X124000000Y-99800000D03*
D11*
X129080000Y-99800000D03*
D10*
X132680000Y-79550000D03*
D11*
X137760000Y-79550000D03*
D16*
X132680000Y-79550000D02*
X132680000Y-83600000D01*
X115320000Y-75500000D02*
X115320000Y-71680000D01*
X124000000Y-75500000D02*
X124000000Y-79550000D01*
X132680000Y-75500000D02*
X132680000Y-79550000D01*
X132680000Y-83600000D02*
X132680000Y-87650000D01*
X115320000Y-71680000D02*
X115500000Y-71500000D01*
X132680000Y-92180000D02*
X138255000Y-97755000D01*
X116000000Y-71500000D02*
X116500000Y-71500000D01*
X115320000Y-87650000D02*
X115320000Y-91700000D01*
X124000000Y-95750000D02*
X124000000Y-99800000D01*
X115320000Y-79550000D02*
X115320000Y-83600000D01*
X114000000Y-66500000D02*
X115500000Y-66500000D01*
X124000000Y-87650000D02*
X124000000Y-91700000D01*
X124000000Y-105155000D02*
X122635000Y-106520000D01*
X115500000Y-66500000D02*
X116000000Y-67000000D01*
X124000000Y-79550000D02*
X124000000Y-83600000D01*
X115320000Y-83600000D02*
X115320000Y-87650000D01*
X124000000Y-99800000D02*
X124000000Y-105155000D01*
X115500000Y-71500000D02*
X116000000Y-71500000D01*
X116500000Y-71500000D02*
X120000000Y-71500000D01*
X124000000Y-83600000D02*
X124000000Y-87650000D01*
X132680000Y-91700000D02*
X132680000Y-92180000D01*
X132680000Y-87650000D02*
X132680000Y-91700000D01*
X124000000Y-91700000D02*
X124000000Y-95750000D01*
X115320000Y-75500000D02*
X115320000Y-79550000D01*
X138255000Y-97755000D02*
X138255000Y-106520000D01*
X115320000Y-91700000D02*
X115320000Y-95750000D01*
X124000000Y-75500000D02*
X120000000Y-71500000D01*
X115320000Y-95750000D02*
X115320000Y-99800000D01*
X116000000Y-67000000D02*
X116000000Y-71500000D01*
X130180000Y-82500000D02*
X129080000Y-83600000D01*
X125500000Y-66500000D02*
X126000000Y-67000000D01*
X124000000Y-66500000D02*
X125500000Y-66500000D01*
X126000000Y-67000000D02*
X126000000Y-69500000D01*
X126000000Y-69500000D02*
X130180000Y-73680000D01*
X130180000Y-73680000D02*
X130180000Y-82500000D01*
X126600000Y-111730635D02*
X126600000Y-82030000D01*
X123090635Y-115240000D02*
X126600000Y-111730635D01*
X129500000Y-79130000D02*
X129080000Y-79550000D01*
X129500000Y-78000000D02*
X129500000Y-79130000D01*
X120740000Y-115240000D02*
X120500000Y-115480000D01*
X121000000Y-69500000D02*
X129500000Y-78000000D01*
X120740000Y-115240000D02*
X123090635Y-115240000D01*
X122635000Y-121760000D02*
X120500000Y-119625000D01*
X126600000Y-82030000D02*
X129080000Y-79550000D01*
X121000000Y-66500000D02*
X121000000Y-69500000D01*
X119000000Y-66500000D02*
X121000000Y-66500000D01*
X120500000Y-115480000D02*
X120500000Y-119625000D01*
X130580000Y-86150000D02*
X129080000Y-87650000D01*
X130500000Y-66500000D02*
X131250000Y-67250000D01*
X129000000Y-66500000D02*
X130500000Y-66500000D01*
X131250000Y-67250000D02*
X131250000Y-68410000D01*
X131250000Y-68410000D02*
X130580000Y-69080000D01*
X130580000Y-69080000D02*
X130580000Y-86150000D01*
X103500000Y-114500000D02*
X114655000Y-114500000D01*
X114655000Y-114500000D02*
X115015000Y-114140000D01*
X120400000Y-99800000D02*
X120400000Y-110920635D01*
X123090635Y-112700000D02*
X124000000Y-111790635D01*
X122179365Y-112700000D02*
X123090635Y-112700000D01*
X120400000Y-110920635D02*
X122179365Y-112700000D01*
X124000000Y-111790635D02*
X124000000Y-110425000D01*
X124000000Y-110425000D02*
X122635000Y-109060000D01*
X115035000Y-106500000D02*
X115000000Y-106500000D01*
X115015000Y-106520000D02*
X116600000Y-104935000D01*
X116600000Y-104935000D02*
X115035000Y-106500000D01*
X120400000Y-95750000D02*
X121535000Y-96885000D01*
X121535000Y-96885000D02*
X121535000Y-110500000D01*
X121535000Y-110500000D02*
X122635000Y-111600000D01*
X107195000Y-124500000D02*
X115015000Y-116680000D01*
X103500000Y-124500000D02*
X107195000Y-124500000D01*
X119300000Y-92800000D02*
X119300000Y-110805000D01*
X119300000Y-110805000D02*
X122635000Y-114140000D01*
X120400000Y-91700000D02*
X119300000Y-92800000D01*
X117000000Y-119775000D02*
X115015000Y-121760000D01*
X117000000Y-75500000D02*
X117000000Y-119775000D01*
X120400000Y-75500000D02*
X117000000Y-75500000D01*
X135500000Y-111385000D02*
X135500000Y-127500000D01*
X146000000Y-127500000D02*
X149000000Y-124500000D01*
X129080000Y-91700000D02*
X127000000Y-93780000D01*
X130635000Y-106520000D02*
X135500000Y-111385000D01*
X127000000Y-102885000D02*
X130635000Y-106520000D01*
X135500000Y-127500000D02*
X146000000Y-127500000D01*
X127000000Y-93780000D02*
X127000000Y-102885000D01*
X149000000Y-94500000D02*
X139355000Y-104145000D01*
X137760000Y-75500000D02*
X147300000Y-85040000D01*
X147300000Y-92800000D02*
X149000000Y-94500000D01*
X139355000Y-113040000D02*
X138255000Y-114140000D01*
X139355000Y-104145000D02*
X139355000Y-113040000D01*
X147300000Y-85040000D02*
X147300000Y-92800000D01*
X120400000Y-79550000D02*
X117400000Y-82550000D01*
X117400000Y-120930635D02*
X115470635Y-122860000D01*
X113915000Y-122215635D02*
X113915000Y-120320000D01*
X114559365Y-122860000D02*
X113915000Y-122215635D01*
X115470635Y-122860000D02*
X114559365Y-122860000D01*
X117400000Y-82550000D02*
X117400000Y-120930635D01*
X113915000Y-120320000D02*
X115015000Y-119220000D01*
X137155000Y-107960000D02*
X138255000Y-109060000D01*
X137155000Y-103825000D02*
X137155000Y-107960000D01*
X129080000Y-95750000D02*
X137155000Y-103825000D01*
X129080000Y-102425000D02*
X138255000Y-111600000D01*
X129080000Y-99800000D02*
X129080000Y-102425000D01*
X130255000Y-111600000D02*
X130635000Y-111600000D01*
X122635000Y-119220000D02*
X130255000Y-111600000D01*
G04 #@! TA.AperFunction,Conductor*
G36*
X153943039Y-60519685D02*
G01*
X153988794Y-60572489D01*
X154000000Y-60624000D01*
X154000000Y-132876000D01*
X153980315Y-132943039D01*
X153927511Y-132988794D01*
X153876000Y-133000000D01*
X99124000Y-133000000D01*
X99056961Y-132980315D01*
X99011206Y-132927511D01*
X99000000Y-132876000D01*
X99000000Y-128300014D01*
X101600000Y-128300014D01*
X101600000Y-129250000D01*
X102899999Y-129250000D01*
X102874979Y-129310402D01*
X102850000Y-129435981D01*
X102850000Y-129564019D01*
X102874979Y-129689598D01*
X102899999Y-129750000D01*
X101600000Y-129750000D01*
X101600000Y-130699985D01*
X101610493Y-130802689D01*
X101610494Y-130802696D01*
X101665641Y-130969118D01*
X101665643Y-130969123D01*
X101757684Y-131118344D01*
X101881655Y-131242315D01*
X102030876Y-131334356D01*
X102030881Y-131334358D01*
X102197303Y-131389505D01*
X102197310Y-131389506D01*
X102300014Y-131399999D01*
X102300027Y-131400000D01*
X103250000Y-131400000D01*
X103250000Y-130100001D01*
X103310402Y-130125021D01*
X103435981Y-130150000D01*
X103564019Y-130150000D01*
X103689598Y-130125021D01*
X103750000Y-130100001D01*
X103750000Y-131400000D01*
X104699973Y-131400000D01*
X104699985Y-131399999D01*
X104802689Y-131389506D01*
X104802696Y-131389505D01*
X104969118Y-131334358D01*
X104969123Y-131334356D01*
X105118344Y-131242315D01*
X105242315Y-131118344D01*
X105334356Y-130969123D01*
X105334358Y-130969118D01*
X105389505Y-130802696D01*
X105389506Y-130802689D01*
X105399999Y-130699985D01*
X105400000Y-130699972D01*
X105400000Y-129865186D01*
X124599500Y-129865186D01*
X124599500Y-130134813D01*
X124629686Y-130402719D01*
X124629688Y-130402731D01*
X124689684Y-130665594D01*
X124689687Y-130665602D01*
X124778734Y-130920082D01*
X124895714Y-131162994D01*
X124895716Y-131162997D01*
X125039162Y-131391289D01*
X125207266Y-131602085D01*
X125397915Y-131792734D01*
X125608711Y-131960838D01*
X125837003Y-132104284D01*
X126079921Y-132221267D01*
X126271049Y-132288145D01*
X126334397Y-132310312D01*
X126334405Y-132310315D01*
X126334408Y-132310315D01*
X126334409Y-132310316D01*
X126597268Y-132370312D01*
X126865187Y-132400499D01*
X126865188Y-132400500D01*
X126865191Y-132400500D01*
X127134812Y-132400500D01*
X127134812Y-132400499D01*
X127402732Y-132370312D01*
X127665591Y-132310316D01*
X127920079Y-132221267D01*
X128162997Y-132104284D01*
X128391289Y-131960838D01*
X128602085Y-131792734D01*
X128792734Y-131602085D01*
X128960838Y-131391289D01*
X129104284Y-131162997D01*
X129221267Y-130920079D01*
X129310316Y-130665591D01*
X129370312Y-130402732D01*
X129400500Y-130134809D01*
X129400500Y-129865191D01*
X129400499Y-129865186D01*
X129400499Y-129865184D01*
X129383299Y-129712521D01*
X129370313Y-129597280D01*
X129370312Y-129597268D01*
X129310316Y-129334409D01*
X129221267Y-129079921D01*
X129104284Y-128837003D01*
X128960838Y-128608711D01*
X128792734Y-128397915D01*
X128694833Y-128300014D01*
X147100000Y-128300014D01*
X147100000Y-129250000D01*
X148399999Y-129250000D01*
X148374979Y-129310402D01*
X148350000Y-129435981D01*
X148350000Y-129564019D01*
X148374979Y-129689598D01*
X148399999Y-129750000D01*
X147100000Y-129750000D01*
X147100000Y-130699985D01*
X147110493Y-130802689D01*
X147110494Y-130802696D01*
X147165641Y-130969118D01*
X147165643Y-130969123D01*
X147257684Y-131118344D01*
X147381655Y-131242315D01*
X147530876Y-131334356D01*
X147530881Y-131334358D01*
X147697303Y-131389505D01*
X147697310Y-131389506D01*
X147800014Y-131399999D01*
X147800027Y-131400000D01*
X148750000Y-131400000D01*
X148750000Y-130100001D01*
X148810402Y-130125021D01*
X148935981Y-130150000D01*
X149064019Y-130150000D01*
X149189598Y-130125021D01*
X149250000Y-130100001D01*
X149250000Y-131400000D01*
X150199973Y-131400000D01*
X150199985Y-131399999D01*
X150302689Y-131389506D01*
X150302696Y-131389505D01*
X150469118Y-131334358D01*
X150469123Y-131334356D01*
X150618344Y-131242315D01*
X150742315Y-131118344D01*
X150834356Y-130969123D01*
X150834358Y-130969118D01*
X150889505Y-130802696D01*
X150889506Y-130802689D01*
X150899999Y-130699985D01*
X150900000Y-130699972D01*
X150900000Y-129750000D01*
X149600001Y-129750000D01*
X149625021Y-129689598D01*
X149650000Y-129564019D01*
X149650000Y-129435981D01*
X149625021Y-129310402D01*
X149600001Y-129250000D01*
X150900000Y-129250000D01*
X150900000Y-128300027D01*
X150899999Y-128300014D01*
X150889506Y-128197310D01*
X150889505Y-128197303D01*
X150834358Y-128030881D01*
X150834356Y-128030876D01*
X150742315Y-127881655D01*
X150618344Y-127757684D01*
X150469123Y-127665643D01*
X150469118Y-127665641D01*
X150302696Y-127610494D01*
X150302689Y-127610493D01*
X150199985Y-127600000D01*
X149250000Y-127600000D01*
X149250000Y-128899998D01*
X149189598Y-128874979D01*
X149064019Y-128850000D01*
X148935981Y-128850000D01*
X148810402Y-128874979D01*
X148750000Y-128899998D01*
X148750000Y-127600000D01*
X147800014Y-127600000D01*
X147697310Y-127610493D01*
X147697303Y-127610494D01*
X147530881Y-127665641D01*
X147530876Y-127665643D01*
X147381655Y-127757684D01*
X147257684Y-127881655D01*
X147165643Y-128030876D01*
X147165641Y-128030881D01*
X147110494Y-128197303D01*
X147110493Y-128197310D01*
X147100000Y-128300014D01*
X128694833Y-128300014D01*
X128602085Y-128207266D01*
X128391289Y-128039162D01*
X128162997Y-127895716D01*
X128162994Y-127895714D01*
X127920082Y-127778734D01*
X127665602Y-127689687D01*
X127665594Y-127689684D01*
X127468446Y-127644687D01*
X127402732Y-127629688D01*
X127402728Y-127629687D01*
X127402719Y-127629686D01*
X127134813Y-127599500D01*
X127134809Y-127599500D01*
X126865191Y-127599500D01*
X126865186Y-127599500D01*
X126597280Y-127629686D01*
X126597268Y-127629688D01*
X126334405Y-127689684D01*
X126334397Y-127689687D01*
X126079917Y-127778734D01*
X125837005Y-127895714D01*
X125608712Y-128039161D01*
X125397915Y-128207265D01*
X125207265Y-128397915D01*
X125039161Y-128608712D01*
X124895714Y-128837005D01*
X124778734Y-129079917D01*
X124689687Y-129334397D01*
X124689684Y-129334405D01*
X124629688Y-129597268D01*
X124629686Y-129597280D01*
X124599500Y-129865186D01*
X105400000Y-129865186D01*
X105400000Y-129750000D01*
X104100001Y-129750000D01*
X104125021Y-129689598D01*
X104150000Y-129564019D01*
X104150000Y-129435981D01*
X104125021Y-129310402D01*
X104100001Y-129250000D01*
X105400000Y-129250000D01*
X105400000Y-128300027D01*
X105399999Y-128300014D01*
X105389506Y-128197310D01*
X105389505Y-128197303D01*
X105334358Y-128030881D01*
X105334356Y-128030876D01*
X105242315Y-127881655D01*
X105118344Y-127757684D01*
X104969123Y-127665643D01*
X104969118Y-127665641D01*
X104802696Y-127610494D01*
X104802689Y-127610493D01*
X104699985Y-127600000D01*
X103750000Y-127600000D01*
X103750000Y-128899998D01*
X103689598Y-128874979D01*
X103564019Y-128850000D01*
X103435981Y-128850000D01*
X103310402Y-128874979D01*
X103250000Y-128899998D01*
X103250000Y-127600000D01*
X102300014Y-127600000D01*
X102197310Y-127610493D01*
X102197303Y-127610494D01*
X102030881Y-127665641D01*
X102030876Y-127665643D01*
X101881655Y-127757684D01*
X101757684Y-127881655D01*
X101665643Y-128030876D01*
X101665641Y-128030881D01*
X101610494Y-128197303D01*
X101610493Y-128197310D01*
X101600000Y-128300014D01*
X99000000Y-128300014D01*
X99000000Y-119375466D01*
X101600000Y-119375466D01*
X101600000Y-119624533D01*
X101632508Y-119871463D01*
X101696973Y-120112049D01*
X101792283Y-120342148D01*
X101792288Y-120342159D01*
X101916813Y-120557841D01*
X101916819Y-120557849D01*
X101991400Y-120655045D01*
X102898958Y-119747487D01*
X102923978Y-119807890D01*
X102995112Y-119914351D01*
X103085649Y-120004888D01*
X103192110Y-120076022D01*
X103252511Y-120101041D01*
X102344953Y-121008598D01*
X102442150Y-121083180D01*
X102442158Y-121083186D01*
X102657840Y-121207711D01*
X102657851Y-121207716D01*
X102887950Y-121303026D01*
X103128536Y-121367491D01*
X103375466Y-121400000D01*
X103624534Y-121400000D01*
X103871463Y-121367491D01*
X104112049Y-121303026D01*
X104342148Y-121207716D01*
X104342159Y-121207711D01*
X104557855Y-121083178D01*
X104655045Y-121008600D01*
X104655045Y-121008597D01*
X103747488Y-120101041D01*
X103807890Y-120076022D01*
X103914351Y-120004888D01*
X104004888Y-119914351D01*
X104076022Y-119807890D01*
X104101041Y-119747488D01*
X105008597Y-120655045D01*
X105008600Y-120655045D01*
X105083178Y-120557855D01*
X105207711Y-120342159D01*
X105207716Y-120342148D01*
X105303026Y-120112049D01*
X105367491Y-119871463D01*
X105400000Y-119624533D01*
X105400000Y-119375466D01*
X105367491Y-119128536D01*
X105303026Y-118887950D01*
X105207716Y-118657851D01*
X105207711Y-118657840D01*
X105083186Y-118442158D01*
X105083180Y-118442150D01*
X105008598Y-118344953D01*
X104101041Y-119252510D01*
X104076022Y-119192110D01*
X104004888Y-119085649D01*
X103914351Y-118995112D01*
X103807890Y-118923978D01*
X103747487Y-118898957D01*
X104655045Y-117991400D01*
X104557849Y-117916819D01*
X104557841Y-117916813D01*
X104342159Y-117792288D01*
X104342148Y-117792283D01*
X104112049Y-117696973D01*
X103871463Y-117632508D01*
X103624534Y-117600000D01*
X103375466Y-117600000D01*
X103128536Y-117632508D01*
X102887950Y-117696973D01*
X102657851Y-117792283D01*
X102657847Y-117792285D01*
X102442143Y-117916823D01*
X102344953Y-117991399D01*
X102344953Y-117991400D01*
X103252511Y-118898958D01*
X103192110Y-118923978D01*
X103085649Y-118995112D01*
X102995112Y-119085649D01*
X102923978Y-119192110D01*
X102898958Y-119252511D01*
X101991400Y-118344953D01*
X101991399Y-118344953D01*
X101916823Y-118442143D01*
X101792285Y-118657847D01*
X101792283Y-118657851D01*
X101696973Y-118887950D01*
X101632508Y-119128536D01*
X101600000Y-119375466D01*
X99000000Y-119375466D01*
X99000000Y-114375441D01*
X101599500Y-114375441D01*
X101599500Y-114624558D01*
X101599501Y-114624575D01*
X101625441Y-114821614D01*
X101632018Y-114871565D01*
X101666292Y-114999478D01*
X101696498Y-115112207D01*
X101791830Y-115342361D01*
X101791837Y-115342376D01*
X101916400Y-115558126D01*
X102068060Y-115755774D01*
X102068066Y-115755781D01*
X102244218Y-115931933D01*
X102244225Y-115931939D01*
X102441873Y-116083599D01*
X102657623Y-116208162D01*
X102657638Y-116208169D01*
X102756825Y-116249253D01*
X102887793Y-116303502D01*
X103128435Y-116367982D01*
X103375435Y-116400500D01*
X103375442Y-116400500D01*
X103624558Y-116400500D01*
X103624565Y-116400500D01*
X103871565Y-116367982D01*
X104112207Y-116303502D01*
X104342373Y-116208164D01*
X104558127Y-116083599D01*
X104755776Y-115931938D01*
X104931938Y-115755776D01*
X105083599Y-115558127D01*
X105208164Y-115342373D01*
X105276644Y-115177048D01*
X105320485Y-115122644D01*
X105386779Y-115100579D01*
X105391205Y-115100500D01*
X114085193Y-115100500D01*
X114152232Y-115120185D01*
X114165731Y-115130215D01*
X114167788Y-115131972D01*
X114317968Y-115241082D01*
X114333390Y-115252287D01*
X114424840Y-115298883D01*
X114426080Y-115299515D01*
X114476876Y-115347490D01*
X114493671Y-115415311D01*
X114471134Y-115481446D01*
X114426080Y-115520485D01*
X114333386Y-115567715D01*
X114167786Y-115688028D01*
X114023028Y-115832786D01*
X113902715Y-115998386D01*
X113809781Y-116180776D01*
X113746522Y-116375465D01*
X113714500Y-116577648D01*
X113714500Y-116782351D01*
X113746522Y-116984534D01*
X113751173Y-116998848D01*
X113753165Y-117068690D01*
X113720921Y-117124842D01*
X106982584Y-123863181D01*
X106921261Y-123896666D01*
X106894903Y-123899500D01*
X105391205Y-123899500D01*
X105324166Y-123879815D01*
X105278411Y-123827011D01*
X105276644Y-123822952D01*
X105208169Y-123657638D01*
X105208162Y-123657623D01*
X105083599Y-123441873D01*
X104931939Y-123244225D01*
X104931933Y-123244218D01*
X104755781Y-123068066D01*
X104755774Y-123068060D01*
X104558126Y-122916400D01*
X104342376Y-122791837D01*
X104342361Y-122791830D01*
X104112207Y-122696498D01*
X103871561Y-122632017D01*
X103624575Y-122599501D01*
X103624570Y-122599500D01*
X103624565Y-122599500D01*
X103375435Y-122599500D01*
X103375429Y-122599500D01*
X103375424Y-122599501D01*
X103128438Y-122632017D01*
X102887792Y-122696498D01*
X102657638Y-122791830D01*
X102657623Y-122791837D01*
X102441873Y-122916400D01*
X102244225Y-123068060D01*
X102244218Y-123068066D01*
X102068066Y-123244218D01*
X102068060Y-123244225D01*
X101916400Y-123441873D01*
X101791837Y-123657623D01*
X101791830Y-123657638D01*
X101696498Y-123887792D01*
X101632017Y-124128438D01*
X101599501Y-124375424D01*
X101599500Y-124375441D01*
X101599500Y-124624558D01*
X101599501Y-124624575D01*
X101631642Y-124868716D01*
X101632018Y-124871565D01*
X101661435Y-124981349D01*
X101696498Y-125112207D01*
X101791830Y-125342361D01*
X101791837Y-125342376D01*
X101916400Y-125558126D01*
X102068060Y-125755774D01*
X102068066Y-125755781D01*
X102244218Y-125931933D01*
X102244225Y-125931939D01*
X102441873Y-126083599D01*
X102657623Y-126208162D01*
X102657638Y-126208169D01*
X102718552Y-126233400D01*
X102887793Y-126303502D01*
X103128435Y-126367982D01*
X103375435Y-126400500D01*
X103375442Y-126400500D01*
X103624558Y-126400500D01*
X103624565Y-126400500D01*
X103871565Y-126367982D01*
X104112207Y-126303502D01*
X104342373Y-126208164D01*
X104558127Y-126083599D01*
X104755776Y-125931938D01*
X104931938Y-125755776D01*
X105083599Y-125558127D01*
X105208164Y-125342373D01*
X105276644Y-125177048D01*
X105320485Y-125122644D01*
X105386779Y-125100579D01*
X105391205Y-125100500D01*
X107108331Y-125100500D01*
X107108347Y-125100501D01*
X107115943Y-125100501D01*
X107274054Y-125100501D01*
X107274057Y-125100501D01*
X107426785Y-125059577D01*
X107476904Y-125030639D01*
X107563716Y-124980520D01*
X107675520Y-124868716D01*
X107675520Y-124868714D01*
X107685728Y-124858507D01*
X107685730Y-124858504D01*
X113502819Y-119041415D01*
X113564142Y-119007930D01*
X113633834Y-119012914D01*
X113689767Y-119054786D01*
X113714184Y-119120250D01*
X113714500Y-119129096D01*
X113714500Y-119322351D01*
X113746522Y-119524534D01*
X113751173Y-119538848D01*
X113751606Y-119554059D01*
X113756924Y-119568315D01*
X113752582Y-119588271D01*
X113753165Y-119608690D01*
X113745076Y-119622775D01*
X113742072Y-119636588D01*
X113720921Y-119664842D01*
X113546286Y-119839478D01*
X113434481Y-119951282D01*
X113434479Y-119951285D01*
X113384361Y-120038094D01*
X113384359Y-120038096D01*
X113355425Y-120088209D01*
X113355424Y-120088210D01*
X113345561Y-120125021D01*
X113314499Y-120240943D01*
X113314499Y-120240945D01*
X113314499Y-120409046D01*
X113314500Y-120409059D01*
X113314500Y-122128965D01*
X113314499Y-122128983D01*
X113314499Y-122294689D01*
X113314498Y-122294689D01*
X113355423Y-122447422D01*
X113362376Y-122459464D01*
X113362378Y-122459466D01*
X113434477Y-122584347D01*
X113434481Y-122584352D01*
X113553349Y-122703220D01*
X113553355Y-122703225D01*
X114075644Y-123225515D01*
X114109129Y-123286838D01*
X114104145Y-123356530D01*
X114075645Y-123400876D01*
X114023418Y-123453103D01*
X114023417Y-123453105D01*
X113903140Y-123618650D01*
X113810244Y-123800970D01*
X113747009Y-123995586D01*
X113738391Y-124050000D01*
X114699314Y-124050000D01*
X114694920Y-124054394D01*
X114642259Y-124145606D01*
X114615000Y-124247339D01*
X114615000Y-124352661D01*
X114642259Y-124454394D01*
X114694920Y-124545606D01*
X114699314Y-124550000D01*
X113738391Y-124550000D01*
X113747009Y-124604413D01*
X113810244Y-124799029D01*
X113903140Y-124981349D01*
X114023417Y-125146894D01*
X114023417Y-125146895D01*
X114168104Y-125291582D01*
X114333650Y-125411859D01*
X114515968Y-125504754D01*
X114710578Y-125567988D01*
X114765000Y-125576607D01*
X114765000Y-124615686D01*
X114769394Y-124620080D01*
X114860606Y-124672741D01*
X114962339Y-124700000D01*
X115067661Y-124700000D01*
X115169394Y-124672741D01*
X115260606Y-124620080D01*
X115265000Y-124615686D01*
X115265000Y-125576606D01*
X115319421Y-125567988D01*
X115514031Y-125504754D01*
X115696349Y-125411859D01*
X115861894Y-125291582D01*
X115861895Y-125291582D01*
X116006582Y-125146895D01*
X116006582Y-125146894D01*
X116126859Y-124981349D01*
X116219755Y-124799029D01*
X116282990Y-124604413D01*
X116291609Y-124550000D01*
X115330686Y-124550000D01*
X115335080Y-124545606D01*
X115387741Y-124454394D01*
X115415000Y-124352661D01*
X115415000Y-124247339D01*
X115387741Y-124145606D01*
X115335080Y-124054394D01*
X115330686Y-124050000D01*
X116291609Y-124050000D01*
X116282990Y-123995586D01*
X116219755Y-123800970D01*
X116126859Y-123618650D01*
X116006582Y-123453105D01*
X116006582Y-123453104D01*
X115954355Y-123400877D01*
X115950021Y-123392941D01*
X115942779Y-123387521D01*
X115933535Y-123362749D01*
X115920870Y-123339554D01*
X115921515Y-123330534D01*
X115918353Y-123322060D01*
X115923968Y-123296228D01*
X115925854Y-123269862D01*
X115931666Y-123260816D01*
X115933195Y-123253785D01*
X115954303Y-123225586D01*
X115954342Y-123225527D01*
X115954354Y-123225515D01*
X115961359Y-123218509D01*
X115961362Y-123218508D01*
X115961365Y-123218504D01*
X117758506Y-121421363D01*
X117758511Y-121421359D01*
X117768714Y-121411155D01*
X117768716Y-121411155D01*
X117880520Y-121299351D01*
X117945983Y-121185965D01*
X117959577Y-121162420D01*
X118000500Y-121009692D01*
X118000500Y-120851578D01*
X118000500Y-87547648D01*
X119099500Y-87547648D01*
X119099500Y-87752351D01*
X119131522Y-87954534D01*
X119194781Y-88149223D01*
X119287715Y-88331613D01*
X119408028Y-88497213D01*
X119552786Y-88641971D01*
X119707749Y-88754556D01*
X119718390Y-88762287D01*
X119799499Y-88803614D01*
X119900776Y-88855218D01*
X119900778Y-88855218D01*
X119900781Y-88855220D01*
X119961593Y-88874979D01*
X120095465Y-88918477D01*
X120130197Y-88923978D01*
X120297648Y-88950500D01*
X120297649Y-88950500D01*
X120502351Y-88950500D01*
X120502352Y-88950500D01*
X120704534Y-88918477D01*
X120899219Y-88855220D01*
X121081610Y-88762287D01*
X121174590Y-88694732D01*
X121247213Y-88641971D01*
X121247215Y-88641968D01*
X121247219Y-88641966D01*
X121391966Y-88497219D01*
X121391968Y-88497215D01*
X121391971Y-88497213D01*
X121444732Y-88424590D01*
X121512287Y-88331610D01*
X121605220Y-88149219D01*
X121668477Y-87954534D01*
X121700500Y-87752352D01*
X121700500Y-87547648D01*
X121668477Y-87345466D01*
X121605220Y-87150781D01*
X121605218Y-87150778D01*
X121605218Y-87150776D01*
X121571503Y-87084607D01*
X121512287Y-86968390D01*
X121479500Y-86923262D01*
X121391971Y-86802786D01*
X121247213Y-86658028D01*
X121081613Y-86537715D01*
X121081612Y-86537714D01*
X121081610Y-86537713D01*
X121024653Y-86508691D01*
X120899223Y-86444781D01*
X120704534Y-86381522D01*
X120529995Y-86353878D01*
X120502352Y-86349500D01*
X120297648Y-86349500D01*
X120273329Y-86353351D01*
X120095465Y-86381522D01*
X119900776Y-86444781D01*
X119718386Y-86537715D01*
X119552786Y-86658028D01*
X119408028Y-86802786D01*
X119287715Y-86968386D01*
X119194781Y-87150776D01*
X119131522Y-87345465D01*
X119099500Y-87547648D01*
X118000500Y-87547648D01*
X118000500Y-83497648D01*
X119099500Y-83497648D01*
X119099500Y-83702351D01*
X119131522Y-83904534D01*
X119194781Y-84099223D01*
X119287715Y-84281613D01*
X119408028Y-84447213D01*
X119552786Y-84591971D01*
X119665067Y-84673546D01*
X119718390Y-84712287D01*
X119799499Y-84753614D01*
X119900776Y-84805218D01*
X119900778Y-84805218D01*
X119900781Y-84805220D01*
X119975818Y-84829601D01*
X120095465Y-84868477D01*
X120196557Y-84884488D01*
X120297648Y-84900500D01*
X120297649Y-84900500D01*
X120502351Y-84900500D01*
X120502352Y-84900500D01*
X120704534Y-84868477D01*
X120899219Y-84805220D01*
X121081610Y-84712287D01*
X121174590Y-84644732D01*
X121247213Y-84591971D01*
X121247215Y-84591968D01*
X121247219Y-84591966D01*
X121391966Y-84447219D01*
X121391968Y-84447215D01*
X121391971Y-84447213D01*
X121444732Y-84374590D01*
X121512287Y-84281610D01*
X121605220Y-84099219D01*
X121668477Y-83904534D01*
X121700500Y-83702352D01*
X121700500Y-83497648D01*
X121691666Y-83441873D01*
X121668477Y-83295465D01*
X121605218Y-83100776D01*
X121571503Y-83034607D01*
X121512287Y-82918390D01*
X121462670Y-82850097D01*
X121391971Y-82752786D01*
X121247213Y-82608028D01*
X121081613Y-82487715D01*
X121081612Y-82487714D01*
X121081610Y-82487713D01*
X121024653Y-82458691D01*
X120899223Y-82394781D01*
X120704534Y-82331522D01*
X120529995Y-82303878D01*
X120502352Y-82299500D01*
X120297648Y-82299500D01*
X120273329Y-82303351D01*
X120095465Y-82331522D01*
X119900776Y-82394781D01*
X119718386Y-82487715D01*
X119552786Y-82608028D01*
X119408028Y-82752786D01*
X119287715Y-82918386D01*
X119194781Y-83100776D01*
X119131522Y-83295465D01*
X119099500Y-83497648D01*
X118000500Y-83497648D01*
X118000500Y-82850097D01*
X118020185Y-82783058D01*
X118036819Y-82762416D01*
X118848292Y-81950943D01*
X119955159Y-80844075D01*
X120016480Y-80810592D01*
X120081154Y-80813826D01*
X120095466Y-80818477D01*
X120297648Y-80850500D01*
X120297649Y-80850500D01*
X120502351Y-80850500D01*
X120502352Y-80850500D01*
X120704534Y-80818477D01*
X120899219Y-80755220D01*
X121081610Y-80662287D01*
X121174590Y-80594732D01*
X121247213Y-80541971D01*
X121247215Y-80541968D01*
X121247219Y-80541966D01*
X121391966Y-80397219D01*
X121391968Y-80397215D01*
X121391971Y-80397213D01*
X121444732Y-80324590D01*
X121512287Y-80231610D01*
X121605220Y-80049219D01*
X121668477Y-79854534D01*
X121700500Y-79652352D01*
X121700500Y-79447648D01*
X121678762Y-79310402D01*
X121668477Y-79245465D01*
X121605218Y-79050776D01*
X121571503Y-78984607D01*
X121512287Y-78868390D01*
X121479500Y-78823262D01*
X121391971Y-78702786D01*
X121247213Y-78558028D01*
X121081613Y-78437715D01*
X121081612Y-78437714D01*
X121081610Y-78437713D01*
X121024653Y-78408691D01*
X120899223Y-78344781D01*
X120704534Y-78281522D01*
X120529995Y-78253878D01*
X120502352Y-78249500D01*
X120297648Y-78249500D01*
X120273329Y-78253351D01*
X120095465Y-78281522D01*
X119900776Y-78344781D01*
X119718386Y-78437715D01*
X119552786Y-78558028D01*
X119408028Y-78702786D01*
X119287715Y-78868386D01*
X119194781Y-79050776D01*
X119131522Y-79245465D01*
X119099500Y-79447648D01*
X119099500Y-79652351D01*
X119131523Y-79854535D01*
X119136172Y-79868845D01*
X119138165Y-79938687D01*
X119105921Y-79994841D01*
X117812181Y-81288582D01*
X117750858Y-81322067D01*
X117681166Y-81317083D01*
X117625233Y-81275211D01*
X117600816Y-81209747D01*
X117600500Y-81200901D01*
X117600500Y-76224500D01*
X117620185Y-76157461D01*
X117672989Y-76111706D01*
X117724500Y-76100500D01*
X119170398Y-76100500D01*
X119237437Y-76120185D01*
X119280883Y-76168205D01*
X119287715Y-76181614D01*
X119408028Y-76347213D01*
X119552786Y-76491971D01*
X119707749Y-76604556D01*
X119718390Y-76612287D01*
X119799499Y-76653614D01*
X119900776Y-76705218D01*
X119900778Y-76705218D01*
X119900781Y-76705220D01*
X119975818Y-76729601D01*
X120095465Y-76768477D01*
X120196557Y-76784488D01*
X120297648Y-76800500D01*
X120297649Y-76800500D01*
X120502351Y-76800500D01*
X120502352Y-76800500D01*
X120704534Y-76768477D01*
X120899219Y-76705220D01*
X121081610Y-76612287D01*
X121174590Y-76544732D01*
X121247213Y-76491971D01*
X121247215Y-76491968D01*
X121247219Y-76491966D01*
X121391966Y-76347219D01*
X121391968Y-76347215D01*
X121391971Y-76347213D01*
X121444732Y-76274590D01*
X121512287Y-76181610D01*
X121605220Y-75999219D01*
X121668477Y-75804534D01*
X121700500Y-75602352D01*
X121700500Y-75397648D01*
X121682121Y-75281612D01*
X121668477Y-75195465D01*
X121622888Y-75055157D01*
X121605220Y-75000781D01*
X121605218Y-75000778D01*
X121605218Y-75000776D01*
X121571503Y-74934607D01*
X121512287Y-74818390D01*
X121504556Y-74807749D01*
X121391971Y-74652786D01*
X121247213Y-74508028D01*
X121081613Y-74387715D01*
X121081612Y-74387714D01*
X121081610Y-74387713D01*
X121013060Y-74352785D01*
X120899223Y-74294781D01*
X120704534Y-74231522D01*
X120529995Y-74203878D01*
X120502352Y-74199500D01*
X120297648Y-74199500D01*
X120273329Y-74203351D01*
X120095465Y-74231522D01*
X119900776Y-74294781D01*
X119718386Y-74387715D01*
X119552786Y-74508028D01*
X119408028Y-74652786D01*
X119287715Y-74818385D01*
X119280883Y-74831795D01*
X119232909Y-74882591D01*
X119170398Y-74899500D01*
X116920943Y-74899500D01*
X116768216Y-74940423D01*
X116768215Y-74940423D01*
X116669852Y-74997212D01*
X116601951Y-75013683D01*
X116535925Y-74990830D01*
X116497368Y-74946119D01*
X116494466Y-74940423D01*
X116432287Y-74818390D01*
X116432285Y-74818387D01*
X116432284Y-74818385D01*
X116311971Y-74652786D01*
X116167213Y-74508028D01*
X116001610Y-74387712D01*
X115988200Y-74380879D01*
X115937406Y-74332903D01*
X115920500Y-74270397D01*
X115920500Y-72224500D01*
X115940185Y-72157461D01*
X115992989Y-72111706D01*
X116044500Y-72100500D01*
X116079057Y-72100500D01*
X116420943Y-72100500D01*
X119699903Y-72100500D01*
X119766942Y-72120185D01*
X119787584Y-72136819D01*
X122705922Y-75055157D01*
X122739407Y-75116480D01*
X122736173Y-75181155D01*
X122731522Y-75195468D01*
X122699500Y-75397648D01*
X122699500Y-75602351D01*
X122731522Y-75804534D01*
X122794781Y-75999223D01*
X122846385Y-76100500D01*
X122875408Y-76157461D01*
X122887715Y-76181613D01*
X123008028Y-76347213D01*
X123008034Y-76347219D01*
X123152781Y-76491966D01*
X123318390Y-76612287D01*
X123331793Y-76619116D01*
X123382589Y-76667088D01*
X123399500Y-76729601D01*
X123399500Y-78320397D01*
X123379815Y-78387436D01*
X123331800Y-78430879D01*
X123318389Y-78437712D01*
X123152786Y-78558028D01*
X123008028Y-78702786D01*
X122887715Y-78868386D01*
X122794781Y-79050776D01*
X122731522Y-79245465D01*
X122699500Y-79447648D01*
X122699500Y-79652351D01*
X122731522Y-79854534D01*
X122794781Y-80049223D01*
X122887715Y-80231613D01*
X123008028Y-80397213D01*
X123008034Y-80397219D01*
X123152781Y-80541966D01*
X123318390Y-80662287D01*
X123331793Y-80669116D01*
X123382589Y-80717088D01*
X123399500Y-80779601D01*
X123399500Y-82370397D01*
X123379815Y-82437436D01*
X123331800Y-82480879D01*
X123318389Y-82487712D01*
X123152786Y-82608028D01*
X123008028Y-82752786D01*
X122887715Y-82918386D01*
X122794781Y-83100776D01*
X122731522Y-83295465D01*
X122699500Y-83497648D01*
X122699500Y-83702351D01*
X122731522Y-83904534D01*
X122794781Y-84099223D01*
X122887715Y-84281613D01*
X123008028Y-84447213D01*
X123008034Y-84447219D01*
X123152781Y-84591966D01*
X123318390Y-84712287D01*
X123331793Y-84719116D01*
X123382589Y-84767088D01*
X123399500Y-84829601D01*
X123399500Y-86420397D01*
X123379815Y-86487436D01*
X123331800Y-86530879D01*
X123318389Y-86537712D01*
X123152786Y-86658028D01*
X123008028Y-86802786D01*
X122887715Y-86968386D01*
X122794781Y-87150776D01*
X122731522Y-87345465D01*
X122699500Y-87547648D01*
X122699500Y-87752351D01*
X122731522Y-87954534D01*
X122794781Y-88149223D01*
X122887715Y-88331613D01*
X123008028Y-88497213D01*
X123008034Y-88497219D01*
X123152781Y-88641966D01*
X123318390Y-88762287D01*
X123331793Y-88769116D01*
X123382589Y-88817088D01*
X123399500Y-88879601D01*
X123399500Y-90470397D01*
X123379815Y-90537436D01*
X123331800Y-90580879D01*
X123318389Y-90587712D01*
X123152786Y-90708028D01*
X123008028Y-90852786D01*
X122887715Y-91018386D01*
X122794781Y-91200776D01*
X122731522Y-91395465D01*
X122699500Y-91597648D01*
X122699500Y-91802351D01*
X122731522Y-92004534D01*
X122794781Y-92199223D01*
X122887715Y-92381613D01*
X123008028Y-92547213D01*
X123008034Y-92547219D01*
X123152781Y-92691966D01*
X123318390Y-92812287D01*
X123331793Y-92819116D01*
X123382589Y-92867088D01*
X123399500Y-92929601D01*
X123399500Y-94520397D01*
X123379815Y-94587436D01*
X123331800Y-94630879D01*
X123318389Y-94637712D01*
X123152786Y-94758028D01*
X123008028Y-94902786D01*
X122887715Y-95068386D01*
X122794781Y-95250776D01*
X122731522Y-95445465D01*
X122699500Y-95647648D01*
X122699500Y-95852351D01*
X122731522Y-96054534D01*
X122794781Y-96249223D01*
X122887715Y-96431613D01*
X123008028Y-96597213D01*
X123008034Y-96597219D01*
X123152781Y-96741966D01*
X123318390Y-96862287D01*
X123331793Y-96869116D01*
X123382589Y-96917088D01*
X123399500Y-96979601D01*
X123399500Y-98570397D01*
X123379815Y-98637436D01*
X123331800Y-98680879D01*
X123318389Y-98687712D01*
X123152786Y-98808028D01*
X123008028Y-98952786D01*
X122887715Y-99118386D01*
X122794781Y-99300776D01*
X122731522Y-99495465D01*
X122711080Y-99624533D01*
X122699500Y-99697648D01*
X122699500Y-99902352D01*
X122703878Y-99929995D01*
X122731522Y-100104534D01*
X122794781Y-100299223D01*
X122887715Y-100481613D01*
X123008028Y-100647213D01*
X123008034Y-100647219D01*
X123152781Y-100791966D01*
X123318390Y-100912287D01*
X123331793Y-100919116D01*
X123382589Y-100967088D01*
X123399500Y-101029601D01*
X123399500Y-104854901D01*
X123379815Y-104921940D01*
X123363181Y-104942582D01*
X123079841Y-105225921D01*
X123018518Y-105259406D01*
X122953845Y-105256172D01*
X122939535Y-105251523D01*
X122829247Y-105234055D01*
X122737352Y-105219500D01*
X122532648Y-105219500D01*
X122492184Y-105225909D01*
X122330464Y-105251523D01*
X122330457Y-105251524D01*
X122297817Y-105262130D01*
X122227976Y-105264125D01*
X122168143Y-105228044D01*
X122137316Y-105165343D01*
X122135500Y-105144199D01*
X122135500Y-96805945D01*
X122135500Y-96805943D01*
X122094577Y-96653216D01*
X122094573Y-96653209D01*
X122015524Y-96516290D01*
X122015521Y-96516286D01*
X122015520Y-96516284D01*
X121903716Y-96404480D01*
X121903715Y-96404479D01*
X121899385Y-96400149D01*
X121899374Y-96400139D01*
X121694077Y-96194842D01*
X121660592Y-96133519D01*
X121663828Y-96068841D01*
X121664094Y-96068022D01*
X121668477Y-96054534D01*
X121700500Y-95852352D01*
X121700500Y-95647648D01*
X121668477Y-95445466D01*
X121657819Y-95412665D01*
X121625118Y-95312022D01*
X121605220Y-95250781D01*
X121605218Y-95250778D01*
X121605218Y-95250776D01*
X121571503Y-95184607D01*
X121512287Y-95068390D01*
X121479500Y-95023262D01*
X121391971Y-94902786D01*
X121247213Y-94758028D01*
X121081613Y-94637715D01*
X121081612Y-94637714D01*
X121081610Y-94637713D01*
X121024653Y-94608691D01*
X120899223Y-94544781D01*
X120704534Y-94481522D01*
X120529995Y-94453878D01*
X120502352Y-94449500D01*
X120297648Y-94449500D01*
X120243704Y-94458044D01*
X120095464Y-94481523D01*
X120095457Y-94481524D01*
X120062817Y-94492130D01*
X119992976Y-94494125D01*
X119933143Y-94458044D01*
X119902316Y-94395343D01*
X119900500Y-94374199D01*
X119900500Y-93100097D01*
X119909144Y-93070656D01*
X119915668Y-93040670D01*
X119919422Y-93035654D01*
X119920185Y-93033058D01*
X119936819Y-93012416D01*
X119955158Y-92994077D01*
X120016481Y-92960592D01*
X120081157Y-92963827D01*
X120095466Y-92968477D01*
X120297648Y-93000500D01*
X120297649Y-93000500D01*
X120502351Y-93000500D01*
X120502352Y-93000500D01*
X120704534Y-92968477D01*
X120899219Y-92905220D01*
X121081610Y-92812287D01*
X121207333Y-92720945D01*
X121247213Y-92691971D01*
X121247215Y-92691968D01*
X121247219Y-92691966D01*
X121391966Y-92547219D01*
X121391968Y-92547215D01*
X121391971Y-92547213D01*
X121444732Y-92474590D01*
X121512287Y-92381610D01*
X121605220Y-92199219D01*
X121668477Y-92004534D01*
X121700500Y-91802352D01*
X121700500Y-91597648D01*
X121668477Y-91395466D01*
X121659387Y-91367491D01*
X121607473Y-91207716D01*
X121605220Y-91200781D01*
X121605218Y-91200778D01*
X121605218Y-91200776D01*
X121545298Y-91083178D01*
X121512287Y-91018390D01*
X121479500Y-90973262D01*
X121391971Y-90852786D01*
X121247213Y-90708028D01*
X121081613Y-90587715D01*
X121081612Y-90587714D01*
X121081610Y-90587713D01*
X121022983Y-90557841D01*
X120899223Y-90494781D01*
X120704534Y-90431522D01*
X120529995Y-90403878D01*
X120502352Y-90399500D01*
X120297648Y-90399500D01*
X120273329Y-90403351D01*
X120095465Y-90431522D01*
X119900776Y-90494781D01*
X119718386Y-90587715D01*
X119552786Y-90708028D01*
X119408028Y-90852786D01*
X119287715Y-91018386D01*
X119194781Y-91200776D01*
X119131522Y-91395465D01*
X119099500Y-91597648D01*
X119099500Y-91802351D01*
X119131522Y-92004534D01*
X119136173Y-92018848D01*
X119136606Y-92034059D01*
X119141924Y-92048315D01*
X119137582Y-92068271D01*
X119138165Y-92088690D01*
X119130076Y-92102775D01*
X119127072Y-92116588D01*
X119105921Y-92144842D01*
X118931286Y-92319478D01*
X118819481Y-92431282D01*
X118819480Y-92431284D01*
X118776798Y-92505213D01*
X118769361Y-92518094D01*
X118769359Y-92518096D01*
X118740425Y-92568209D01*
X118740424Y-92568210D01*
X118740423Y-92568215D01*
X118699499Y-92720943D01*
X118699499Y-92720945D01*
X118699499Y-92889046D01*
X118699500Y-92889059D01*
X118699500Y-110718330D01*
X118699499Y-110718348D01*
X118699499Y-110884054D01*
X118699498Y-110884054D01*
X118699499Y-110884057D01*
X118740423Y-111036785D01*
X118753178Y-111058878D01*
X118753581Y-111059575D01*
X118753582Y-111059577D01*
X118819477Y-111173712D01*
X118819481Y-111173717D01*
X118938349Y-111292585D01*
X118938355Y-111292590D01*
X121340922Y-113695157D01*
X121374407Y-113756480D01*
X121371173Y-113821155D01*
X121366522Y-113835468D01*
X121334500Y-114037648D01*
X121334500Y-114242351D01*
X121366523Y-114444535D01*
X121366524Y-114444542D01*
X121377130Y-114477183D01*
X121379125Y-114547024D01*
X121343044Y-114606857D01*
X121280343Y-114637684D01*
X121259199Y-114639500D01*
X120819057Y-114639500D01*
X120660942Y-114639500D01*
X120508215Y-114680423D01*
X120482050Y-114695529D01*
X120475038Y-114699578D01*
X120475037Y-114699577D01*
X120371287Y-114759477D01*
X120371282Y-114759481D01*
X120019479Y-115111284D01*
X120007536Y-115131972D01*
X119990810Y-115160943D01*
X119940423Y-115248215D01*
X119899499Y-115400943D01*
X119899499Y-115400945D01*
X119899499Y-115569046D01*
X119899500Y-115569059D01*
X119899500Y-119538330D01*
X119899499Y-119538348D01*
X119899499Y-119704054D01*
X119899498Y-119704054D01*
X119940423Y-119856787D01*
X119940425Y-119856790D01*
X119966302Y-119901609D01*
X119966304Y-119901611D01*
X120019479Y-119993714D01*
X120019481Y-119993717D01*
X120138349Y-120112585D01*
X120138355Y-120112590D01*
X121340922Y-121315157D01*
X121374407Y-121376480D01*
X121371173Y-121441155D01*
X121366522Y-121455468D01*
X121334500Y-121657648D01*
X121334500Y-121862351D01*
X121366522Y-122064534D01*
X121429781Y-122259223D01*
X121522715Y-122441613D01*
X121643028Y-122607213D01*
X121787786Y-122751971D01*
X121942749Y-122864556D01*
X121953390Y-122872287D01*
X122044840Y-122918883D01*
X122046080Y-122919515D01*
X122096876Y-122967490D01*
X122113671Y-123035311D01*
X122091134Y-123101446D01*
X122046080Y-123140485D01*
X121953386Y-123187715D01*
X121787786Y-123308028D01*
X121643028Y-123452786D01*
X121522715Y-123618386D01*
X121429781Y-123800776D01*
X121366522Y-123995465D01*
X121334500Y-124197648D01*
X121334500Y-124402351D01*
X121366522Y-124604534D01*
X121429781Y-124799223D01*
X121466640Y-124871561D01*
X121522157Y-124980519D01*
X121522715Y-124981613D01*
X121643028Y-125147213D01*
X121787786Y-125291971D01*
X121942749Y-125404556D01*
X121953390Y-125412287D01*
X122069607Y-125471503D01*
X122135776Y-125505218D01*
X122135778Y-125505218D01*
X122135781Y-125505220D01*
X122240137Y-125539127D01*
X122330465Y-125568477D01*
X122431557Y-125584488D01*
X122532648Y-125600500D01*
X122532649Y-125600500D01*
X122737351Y-125600500D01*
X122737352Y-125600500D01*
X122939534Y-125568477D01*
X123134219Y-125505220D01*
X123316610Y-125412287D01*
X123412856Y-125342361D01*
X123482213Y-125291971D01*
X123482215Y-125291968D01*
X123482219Y-125291966D01*
X123626966Y-125147219D01*
X123626968Y-125147215D01*
X123626971Y-125147213D01*
X123711663Y-125030642D01*
X123747287Y-124981610D01*
X123840220Y-124799219D01*
X123903477Y-124604534D01*
X123935500Y-124402352D01*
X123935500Y-124197648D01*
X123924538Y-124128435D01*
X123903477Y-123995465D01*
X123860495Y-123863181D01*
X123840220Y-123800781D01*
X123840218Y-123800778D01*
X123840218Y-123800776D01*
X123806503Y-123734607D01*
X123747287Y-123618390D01*
X123739556Y-123607749D01*
X123626971Y-123452786D01*
X123482213Y-123308028D01*
X123316614Y-123187715D01*
X123310006Y-123184348D01*
X123223917Y-123140483D01*
X123173123Y-123092511D01*
X123156328Y-123024690D01*
X123178865Y-122958555D01*
X123223917Y-122919516D01*
X123316610Y-122872287D01*
X123427341Y-122791837D01*
X123482213Y-122751971D01*
X123482215Y-122751968D01*
X123482219Y-122751966D01*
X123626966Y-122607219D01*
X123626968Y-122607215D01*
X123626971Y-122607213D01*
X123679732Y-122534590D01*
X123747287Y-122441610D01*
X123840220Y-122259219D01*
X123903477Y-122064534D01*
X123935500Y-121862352D01*
X123935500Y-121657648D01*
X123903477Y-121455466D01*
X123889079Y-121411155D01*
X123840218Y-121260776D01*
X123790102Y-121162420D01*
X123747287Y-121078390D01*
X123739556Y-121067749D01*
X123626971Y-120912786D01*
X123482213Y-120768028D01*
X123316614Y-120647715D01*
X123310006Y-120644348D01*
X123223917Y-120600483D01*
X123173123Y-120552511D01*
X123156328Y-120484690D01*
X123178865Y-120418555D01*
X123223917Y-120379516D01*
X123316610Y-120332287D01*
X123442333Y-120240945D01*
X123482213Y-120211971D01*
X123482215Y-120211968D01*
X123482219Y-120211966D01*
X123626966Y-120067219D01*
X123626968Y-120067215D01*
X123626971Y-120067213D01*
X123711198Y-119951282D01*
X123747287Y-119901610D01*
X123840220Y-119719219D01*
X123903477Y-119524534D01*
X123935500Y-119322352D01*
X123935500Y-119117648D01*
X123919955Y-119019500D01*
X123903478Y-118915472D01*
X123903477Y-118915471D01*
X123903477Y-118915466D01*
X123898825Y-118901151D01*
X123896832Y-118831312D01*
X123929075Y-118775158D01*
X129256740Y-113447493D01*
X129318061Y-113414010D01*
X129387753Y-113418994D01*
X129443686Y-113460866D01*
X129468103Y-113526330D01*
X129454904Y-113591470D01*
X129429782Y-113640773D01*
X129366522Y-113835465D01*
X129334500Y-114037648D01*
X129334500Y-114242351D01*
X129366522Y-114444534D01*
X129429781Y-114639223D01*
X129489907Y-114757225D01*
X129513668Y-114803859D01*
X129522715Y-114821613D01*
X129643028Y-114987213D01*
X129787786Y-115131971D01*
X129942749Y-115244556D01*
X129953390Y-115252287D01*
X130044840Y-115298883D01*
X130046080Y-115299515D01*
X130096876Y-115347490D01*
X130113671Y-115415311D01*
X130091134Y-115481446D01*
X130046080Y-115520485D01*
X129953386Y-115567715D01*
X129787786Y-115688028D01*
X129643028Y-115832786D01*
X129522715Y-115998386D01*
X129429781Y-116180776D01*
X129366522Y-116375465D01*
X129334500Y-116577648D01*
X129334500Y-116782351D01*
X129366522Y-116984534D01*
X129429781Y-117179223D01*
X129489907Y-117297225D01*
X129513668Y-117343859D01*
X129522715Y-117361613D01*
X129643028Y-117527213D01*
X129787786Y-117671971D01*
X129942749Y-117784556D01*
X129953390Y-117792287D01*
X130044840Y-117838883D01*
X130046080Y-117839515D01*
X130096876Y-117887490D01*
X130113671Y-117955311D01*
X130091134Y-118021446D01*
X130046080Y-118060485D01*
X129953386Y-118107715D01*
X129787786Y-118228028D01*
X129643028Y-118372786D01*
X129522715Y-118538386D01*
X129429781Y-118720776D01*
X129366522Y-118915465D01*
X129334500Y-119117648D01*
X129334500Y-119322351D01*
X129366522Y-119524534D01*
X129429781Y-119719223D01*
X129474960Y-119807890D01*
X129522712Y-119901609D01*
X129522715Y-119901613D01*
X129643028Y-120067213D01*
X129787786Y-120211971D01*
X129942749Y-120324556D01*
X129953390Y-120332287D01*
X130044840Y-120378883D01*
X130046080Y-120379515D01*
X130096876Y-120427490D01*
X130113671Y-120495311D01*
X130091134Y-120561446D01*
X130046080Y-120600485D01*
X129953386Y-120647715D01*
X129787786Y-120768028D01*
X129643028Y-120912786D01*
X129522715Y-121078386D01*
X129429781Y-121260776D01*
X129366522Y-121455465D01*
X129334500Y-121657648D01*
X129334500Y-121862351D01*
X129366522Y-122064534D01*
X129429781Y-122259223D01*
X129522715Y-122441613D01*
X129643028Y-122607213D01*
X129787786Y-122751971D01*
X129942749Y-122864556D01*
X129953390Y-122872287D01*
X130025424Y-122908990D01*
X130046629Y-122919795D01*
X130097425Y-122967770D01*
X130114220Y-123035591D01*
X130091682Y-123101726D01*
X130046629Y-123140765D01*
X129953650Y-123188140D01*
X129788105Y-123308417D01*
X129788104Y-123308417D01*
X129643417Y-123453104D01*
X129643417Y-123453105D01*
X129523140Y-123618650D01*
X129430244Y-123800970D01*
X129367009Y-123995586D01*
X129358391Y-124050000D01*
X130319314Y-124050000D01*
X130314920Y-124054394D01*
X130262259Y-124145606D01*
X130235000Y-124247339D01*
X130235000Y-124352661D01*
X130262259Y-124454394D01*
X130314920Y-124545606D01*
X130319314Y-124550000D01*
X129358391Y-124550000D01*
X129367009Y-124604413D01*
X129430244Y-124799029D01*
X129523140Y-124981349D01*
X129643417Y-125146894D01*
X129643417Y-125146895D01*
X129788104Y-125291582D01*
X129953650Y-125411859D01*
X130135968Y-125504754D01*
X130330578Y-125567988D01*
X130385000Y-125576607D01*
X130385000Y-124615686D01*
X130389394Y-124620080D01*
X130480606Y-124672741D01*
X130582339Y-124700000D01*
X130687661Y-124700000D01*
X130789394Y-124672741D01*
X130880606Y-124620080D01*
X130885000Y-124615686D01*
X130885000Y-125576606D01*
X130939421Y-125567988D01*
X131134031Y-125504754D01*
X131316349Y-125411859D01*
X131481894Y-125291582D01*
X131481895Y-125291582D01*
X131626582Y-125146895D01*
X131626582Y-125146894D01*
X131746859Y-124981349D01*
X131839755Y-124799029D01*
X131902990Y-124604413D01*
X131911609Y-124550000D01*
X130950686Y-124550000D01*
X130955080Y-124545606D01*
X131007741Y-124454394D01*
X131035000Y-124352661D01*
X131035000Y-124247339D01*
X131007741Y-124145606D01*
X130955080Y-124054394D01*
X130950686Y-124050000D01*
X131911609Y-124050000D01*
X131902990Y-123995586D01*
X131839755Y-123800970D01*
X131746859Y-123618650D01*
X131626582Y-123453105D01*
X131626582Y-123453104D01*
X131481895Y-123308417D01*
X131316349Y-123188140D01*
X131223370Y-123140765D01*
X131172574Y-123092790D01*
X131155779Y-123024969D01*
X131178316Y-122958835D01*
X131223370Y-122919795D01*
X131223920Y-122919515D01*
X131316610Y-122872287D01*
X131427341Y-122791837D01*
X131482213Y-122751971D01*
X131482215Y-122751968D01*
X131482219Y-122751966D01*
X131626966Y-122607219D01*
X131626968Y-122607215D01*
X131626971Y-122607213D01*
X131679732Y-122534590D01*
X131747287Y-122441610D01*
X131840220Y-122259219D01*
X131903477Y-122064534D01*
X131935500Y-121862352D01*
X131935500Y-121657648D01*
X131903477Y-121455466D01*
X131889079Y-121411155D01*
X131840218Y-121260776D01*
X131790102Y-121162420D01*
X131747287Y-121078390D01*
X131739556Y-121067749D01*
X131626971Y-120912786D01*
X131482213Y-120768028D01*
X131316614Y-120647715D01*
X131310006Y-120644348D01*
X131223917Y-120600483D01*
X131173123Y-120552511D01*
X131156328Y-120484690D01*
X131178865Y-120418555D01*
X131223917Y-120379516D01*
X131316610Y-120332287D01*
X131442333Y-120240945D01*
X131482213Y-120211971D01*
X131482215Y-120211968D01*
X131482219Y-120211966D01*
X131626966Y-120067219D01*
X131626968Y-120067215D01*
X131626971Y-120067213D01*
X131711198Y-119951282D01*
X131747287Y-119901610D01*
X131840220Y-119719219D01*
X131903477Y-119524534D01*
X131935500Y-119322352D01*
X131935500Y-119117648D01*
X131927257Y-119065606D01*
X131903477Y-118915465D01*
X131872458Y-118820000D01*
X131840220Y-118720781D01*
X131840218Y-118720778D01*
X131840218Y-118720776D01*
X131785015Y-118612435D01*
X131747287Y-118538390D01*
X131739556Y-118527749D01*
X131626971Y-118372786D01*
X131482213Y-118228028D01*
X131316614Y-118107715D01*
X131310006Y-118104348D01*
X131223917Y-118060483D01*
X131173123Y-118012511D01*
X131156328Y-117944690D01*
X131178865Y-117878555D01*
X131223917Y-117839516D01*
X131316610Y-117792287D01*
X131447800Y-117696973D01*
X131482213Y-117671971D01*
X131482215Y-117671968D01*
X131482219Y-117671966D01*
X131626966Y-117527219D01*
X131626968Y-117527215D01*
X131626971Y-117527213D01*
X131679732Y-117454590D01*
X131747287Y-117361610D01*
X131840220Y-117179219D01*
X131903477Y-116984534D01*
X131935500Y-116782352D01*
X131935500Y-116577648D01*
X131903477Y-116375466D01*
X131901045Y-116367982D01*
X131849117Y-116208164D01*
X131840220Y-116180781D01*
X131840218Y-116180778D01*
X131840218Y-116180776D01*
X131785015Y-116072435D01*
X131747287Y-115998390D01*
X131699008Y-115931939D01*
X131626971Y-115832786D01*
X131482213Y-115688028D01*
X131316614Y-115567715D01*
X131310006Y-115564348D01*
X131223917Y-115520483D01*
X131173123Y-115472511D01*
X131156328Y-115404690D01*
X131178865Y-115338555D01*
X131223917Y-115299516D01*
X131316610Y-115252287D01*
X131337770Y-115236913D01*
X131482213Y-115131971D01*
X131482215Y-115131968D01*
X131482219Y-115131966D01*
X131626966Y-114987219D01*
X131626968Y-114987215D01*
X131626971Y-114987213D01*
X131679732Y-114914590D01*
X131747287Y-114821610D01*
X131840220Y-114639219D01*
X131903477Y-114444534D01*
X131935500Y-114242352D01*
X131935500Y-114037648D01*
X131903477Y-113835466D01*
X131896443Y-113813819D01*
X131857888Y-113695157D01*
X131840220Y-113640781D01*
X131840218Y-113640778D01*
X131840218Y-113640776D01*
X131778944Y-113520521D01*
X131747287Y-113458390D01*
X131735287Y-113441873D01*
X131626971Y-113292786D01*
X131482213Y-113148028D01*
X131316614Y-113027715D01*
X131310006Y-113024348D01*
X131223917Y-112980483D01*
X131173123Y-112932511D01*
X131156328Y-112864690D01*
X131178865Y-112798555D01*
X131223917Y-112759516D01*
X131316610Y-112712287D01*
X131427092Y-112632018D01*
X131482213Y-112591971D01*
X131482215Y-112591968D01*
X131482219Y-112591966D01*
X131626966Y-112447219D01*
X131626968Y-112447215D01*
X131626971Y-112447213D01*
X131679732Y-112374590D01*
X131747287Y-112281610D01*
X131840220Y-112099219D01*
X131903477Y-111904534D01*
X131935500Y-111702352D01*
X131935500Y-111497648D01*
X131905137Y-111305945D01*
X131903477Y-111295465D01*
X131840218Y-111100776D01*
X131797168Y-111016287D01*
X131747287Y-110918390D01*
X131722341Y-110884054D01*
X131626971Y-110752786D01*
X131482213Y-110608028D01*
X131316614Y-110487715D01*
X131310006Y-110484348D01*
X131223917Y-110440483D01*
X131173123Y-110392511D01*
X131156328Y-110324690D01*
X131178865Y-110258555D01*
X131223917Y-110219516D01*
X131316610Y-110172287D01*
X131381667Y-110125021D01*
X131482213Y-110051971D01*
X131482215Y-110051968D01*
X131482219Y-110051966D01*
X131626966Y-109907219D01*
X131626968Y-109907215D01*
X131626971Y-109907213D01*
X131699132Y-109807890D01*
X131747287Y-109741610D01*
X131840220Y-109559219D01*
X131903477Y-109364534D01*
X131935500Y-109162352D01*
X131935500Y-108969097D01*
X131955185Y-108902058D01*
X132007989Y-108856303D01*
X132077147Y-108846359D01*
X132140703Y-108875384D01*
X132147181Y-108881416D01*
X134863181Y-111597416D01*
X134896666Y-111658739D01*
X134899500Y-111685097D01*
X134899500Y-127420943D01*
X134899500Y-127579057D01*
X134929143Y-127689684D01*
X134940423Y-127731783D01*
X134940426Y-127731790D01*
X135019475Y-127868709D01*
X135019478Y-127868713D01*
X135019480Y-127868716D01*
X135131284Y-127980520D01*
X135131286Y-127980521D01*
X135131290Y-127980524D01*
X135232854Y-128039161D01*
X135268216Y-128059577D01*
X135420943Y-128100500D01*
X145913331Y-128100500D01*
X145913347Y-128100501D01*
X145920943Y-128100501D01*
X146079054Y-128100501D01*
X146079057Y-128100501D01*
X146231785Y-128059577D01*
X146281904Y-128030639D01*
X146368716Y-127980520D01*
X146480520Y-127868716D01*
X146480520Y-127868714D01*
X146490728Y-127858507D01*
X146490729Y-127858504D01*
X148087335Y-126261899D01*
X148148656Y-126228416D01*
X148218348Y-126233400D01*
X148222435Y-126235008D01*
X148387793Y-126303502D01*
X148628435Y-126367982D01*
X148875435Y-126400500D01*
X148875442Y-126400500D01*
X149124558Y-126400500D01*
X149124565Y-126400500D01*
X149371565Y-126367982D01*
X149612207Y-126303502D01*
X149842373Y-126208164D01*
X150058127Y-126083599D01*
X150255776Y-125931938D01*
X150431938Y-125755776D01*
X150583599Y-125558127D01*
X150708164Y-125342373D01*
X150803502Y-125112207D01*
X150867982Y-124871565D01*
X150900500Y-124624565D01*
X150900500Y-124375435D01*
X150867982Y-124128435D01*
X150803502Y-123887793D01*
X150708164Y-123657627D01*
X150685508Y-123618386D01*
X150583599Y-123441873D01*
X150431939Y-123244225D01*
X150431933Y-123244218D01*
X150255781Y-123068066D01*
X150255774Y-123068060D01*
X150058126Y-122916400D01*
X149842376Y-122791837D01*
X149842361Y-122791830D01*
X149612207Y-122696498D01*
X149371561Y-122632017D01*
X149124575Y-122599501D01*
X149124570Y-122599500D01*
X149124565Y-122599500D01*
X148875435Y-122599500D01*
X148875429Y-122599500D01*
X148875424Y-122599501D01*
X148628438Y-122632017D01*
X148387792Y-122696498D01*
X148157638Y-122791830D01*
X148157623Y-122791837D01*
X147941873Y-122916400D01*
X147744225Y-123068060D01*
X147744218Y-123068066D01*
X147568066Y-123244218D01*
X147568060Y-123244225D01*
X147416400Y-123441873D01*
X147291837Y-123657623D01*
X147291830Y-123657638D01*
X147196498Y-123887792D01*
X147132017Y-124128438D01*
X147099501Y-124375424D01*
X147099500Y-124375441D01*
X147099500Y-124624558D01*
X147099501Y-124624575D01*
X147131642Y-124868716D01*
X147132018Y-124871565D01*
X147161435Y-124981349D01*
X147196498Y-125112207D01*
X147264977Y-125277532D01*
X147272446Y-125347001D01*
X147241170Y-125409480D01*
X147238097Y-125412665D01*
X145787584Y-126863181D01*
X145726261Y-126896666D01*
X145699903Y-126899500D01*
X136224500Y-126899500D01*
X136157461Y-126879815D01*
X136111706Y-126827011D01*
X136100500Y-126775500D01*
X136100500Y-111474059D01*
X136100501Y-111474046D01*
X136100501Y-111305945D01*
X136100501Y-111305943D01*
X136059577Y-111153215D01*
X136029142Y-111100500D01*
X136005112Y-111058878D01*
X135980522Y-111016287D01*
X135980521Y-111016286D01*
X135980520Y-111016284D01*
X135868716Y-110904480D01*
X135868715Y-110904479D01*
X135864385Y-110900149D01*
X135864374Y-110900139D01*
X131971818Y-107007583D01*
X131938333Y-106946260D01*
X131935499Y-106919902D01*
X131935499Y-106429096D01*
X131955184Y-106362057D01*
X132007988Y-106316302D01*
X132077146Y-106306358D01*
X132140702Y-106335383D01*
X132147180Y-106341415D01*
X136960922Y-111155157D01*
X136994407Y-111216480D01*
X136991173Y-111281155D01*
X136986522Y-111295468D01*
X136954500Y-111497648D01*
X136954500Y-111702351D01*
X136986522Y-111904534D01*
X137049781Y-112099223D01*
X137109907Y-112217225D01*
X137142589Y-112281367D01*
X137142715Y-112281613D01*
X137263028Y-112447213D01*
X137407786Y-112591971D01*
X137551658Y-112696498D01*
X137573390Y-112712287D01*
X137664840Y-112758883D01*
X137666080Y-112759515D01*
X137716876Y-112807490D01*
X137733671Y-112875311D01*
X137711134Y-112941446D01*
X137666080Y-112980485D01*
X137573386Y-113027715D01*
X137407786Y-113148028D01*
X137263028Y-113292786D01*
X137142715Y-113458386D01*
X137049781Y-113640776D01*
X136986522Y-113835465D01*
X136954500Y-114037648D01*
X136954500Y-114242351D01*
X136986522Y-114444534D01*
X137049781Y-114639223D01*
X137109907Y-114757225D01*
X137133668Y-114803859D01*
X137142715Y-114821613D01*
X137263028Y-114987213D01*
X137407786Y-115131971D01*
X137562749Y-115244556D01*
X137573390Y-115252287D01*
X137664840Y-115298883D01*
X137666080Y-115299515D01*
X137716876Y-115347490D01*
X137733671Y-115415311D01*
X137711134Y-115481446D01*
X137666080Y-115520485D01*
X137573386Y-115567715D01*
X137407786Y-115688028D01*
X137263028Y-115832786D01*
X137142715Y-115998386D01*
X137049781Y-116180776D01*
X136986522Y-116375465D01*
X136954500Y-116577648D01*
X136954500Y-116782351D01*
X136986522Y-116984534D01*
X137049781Y-117179223D01*
X137109907Y-117297225D01*
X137133668Y-117343859D01*
X137142715Y-117361613D01*
X137263028Y-117527213D01*
X137407786Y-117671971D01*
X137562749Y-117784556D01*
X137573390Y-117792287D01*
X137645424Y-117828990D01*
X137666629Y-117839795D01*
X137717425Y-117887770D01*
X137734220Y-117955591D01*
X137711682Y-118021726D01*
X137666629Y-118060765D01*
X137573650Y-118108140D01*
X137408105Y-118228417D01*
X137408104Y-118228417D01*
X137263417Y-118373104D01*
X137263417Y-118373105D01*
X137143140Y-118538650D01*
X137050244Y-118720970D01*
X136987009Y-118915586D01*
X136978391Y-118970000D01*
X137939314Y-118970000D01*
X137934920Y-118974394D01*
X137882259Y-119065606D01*
X137855000Y-119167339D01*
X137855000Y-119272661D01*
X137882259Y-119374394D01*
X137934920Y-119465606D01*
X137939314Y-119470000D01*
X136978391Y-119470000D01*
X136987009Y-119524413D01*
X137050244Y-119719029D01*
X137143140Y-119901349D01*
X137263417Y-120066894D01*
X137263417Y-120066895D01*
X137408104Y-120211582D01*
X137573652Y-120331861D01*
X137666628Y-120379234D01*
X137717425Y-120427208D01*
X137734220Y-120495029D01*
X137711683Y-120561164D01*
X137666630Y-120600203D01*
X137573388Y-120647713D01*
X137407786Y-120768028D01*
X137263028Y-120912786D01*
X137142715Y-121078386D01*
X137049781Y-121260776D01*
X136986522Y-121455465D01*
X136954500Y-121657648D01*
X136954500Y-121862351D01*
X136986522Y-122064534D01*
X137049781Y-122259223D01*
X137142715Y-122441613D01*
X137263028Y-122607213D01*
X137407786Y-122751971D01*
X137562749Y-122864556D01*
X137573390Y-122872287D01*
X137664840Y-122918883D01*
X137666080Y-122919515D01*
X137716876Y-122967490D01*
X137733671Y-123035311D01*
X137711134Y-123101446D01*
X137666080Y-123140485D01*
X137573386Y-123187715D01*
X137407786Y-123308028D01*
X137263028Y-123452786D01*
X137142715Y-123618386D01*
X137049781Y-123800776D01*
X136986522Y-123995465D01*
X136954500Y-124197648D01*
X136954500Y-124402351D01*
X136986522Y-124604534D01*
X137049781Y-124799223D01*
X137086640Y-124871561D01*
X137142157Y-124980519D01*
X137142715Y-124981613D01*
X137263028Y-125147213D01*
X137407786Y-125291971D01*
X137562749Y-125404556D01*
X137573390Y-125412287D01*
X137689607Y-125471503D01*
X137755776Y-125505218D01*
X137755778Y-125505218D01*
X137755781Y-125505220D01*
X137860137Y-125539127D01*
X137950465Y-125568477D01*
X138051557Y-125584488D01*
X138152648Y-125600500D01*
X138152649Y-125600500D01*
X138357351Y-125600500D01*
X138357352Y-125600500D01*
X138559534Y-125568477D01*
X138754219Y-125505220D01*
X138936610Y-125412287D01*
X139032856Y-125342361D01*
X139102213Y-125291971D01*
X139102215Y-125291968D01*
X139102219Y-125291966D01*
X139246966Y-125147219D01*
X139246968Y-125147215D01*
X139246971Y-125147213D01*
X139331663Y-125030642D01*
X139367287Y-124981610D01*
X139460220Y-124799219D01*
X139523477Y-124604534D01*
X139555500Y-124402352D01*
X139555500Y-124197648D01*
X139544538Y-124128435D01*
X139523477Y-123995465D01*
X139480495Y-123863181D01*
X139460220Y-123800781D01*
X139460218Y-123800778D01*
X139460218Y-123800776D01*
X139426503Y-123734607D01*
X139367287Y-123618390D01*
X139359556Y-123607749D01*
X139246971Y-123452786D01*
X139102213Y-123308028D01*
X138936614Y-123187715D01*
X138930006Y-123184348D01*
X138843917Y-123140483D01*
X138793123Y-123092511D01*
X138776328Y-123024690D01*
X138798865Y-122958555D01*
X138843917Y-122919516D01*
X138936610Y-122872287D01*
X139047341Y-122791837D01*
X139102213Y-122751971D01*
X139102215Y-122751968D01*
X139102219Y-122751966D01*
X139246966Y-122607219D01*
X139246968Y-122607215D01*
X139246971Y-122607213D01*
X139299732Y-122534590D01*
X139367287Y-122441610D01*
X139460220Y-122259219D01*
X139523477Y-122064534D01*
X139555500Y-121862352D01*
X139555500Y-121657648D01*
X139523477Y-121455466D01*
X139509079Y-121411155D01*
X139460218Y-121260776D01*
X139410102Y-121162420D01*
X139367287Y-121078390D01*
X139362348Y-121071592D01*
X139334698Y-121033534D01*
X139334695Y-121033531D01*
X139317374Y-121009691D01*
X139246966Y-120912781D01*
X139102219Y-120768034D01*
X139102213Y-120768028D01*
X138936611Y-120647713D01*
X138843369Y-120600203D01*
X138792574Y-120552229D01*
X138775779Y-120484407D01*
X138798317Y-120418273D01*
X138843371Y-120379234D01*
X138936347Y-120331861D01*
X139101894Y-120211582D01*
X139101895Y-120211582D01*
X139246582Y-120066895D01*
X139246582Y-120066894D01*
X139366859Y-119901349D01*
X139459755Y-119719029D01*
X139522990Y-119524413D01*
X139531609Y-119470000D01*
X138570686Y-119470000D01*
X138575080Y-119465606D01*
X138627122Y-119375466D01*
X147100000Y-119375466D01*
X147100000Y-119624533D01*
X147132508Y-119871463D01*
X147196973Y-120112049D01*
X147292283Y-120342148D01*
X147292288Y-120342159D01*
X147416813Y-120557841D01*
X147416819Y-120557849D01*
X147491400Y-120655045D01*
X148398958Y-119747487D01*
X148423978Y-119807890D01*
X148495112Y-119914351D01*
X148585649Y-120004888D01*
X148692110Y-120076022D01*
X148752511Y-120101041D01*
X147844953Y-121008598D01*
X147942150Y-121083180D01*
X147942158Y-121083186D01*
X148157840Y-121207711D01*
X148157851Y-121207716D01*
X148387950Y-121303026D01*
X148628536Y-121367491D01*
X148875466Y-121400000D01*
X149124534Y-121400000D01*
X149371463Y-121367491D01*
X149612049Y-121303026D01*
X149842148Y-121207716D01*
X149842159Y-121207711D01*
X150057855Y-121083178D01*
X150155045Y-121008600D01*
X150155045Y-121008597D01*
X149247488Y-120101041D01*
X149307890Y-120076022D01*
X149414351Y-120004888D01*
X149504888Y-119914351D01*
X149576022Y-119807890D01*
X149601041Y-119747489D01*
X150508597Y-120655045D01*
X150508600Y-120655045D01*
X150583178Y-120557855D01*
X150707711Y-120342159D01*
X150707716Y-120342148D01*
X150803026Y-120112049D01*
X150867491Y-119871463D01*
X150900000Y-119624533D01*
X150900000Y-119375466D01*
X150867491Y-119128536D01*
X150803026Y-118887950D01*
X150707716Y-118657851D01*
X150707711Y-118657840D01*
X150583186Y-118442158D01*
X150583180Y-118442150D01*
X150508598Y-118344953D01*
X149601041Y-119252510D01*
X149576022Y-119192110D01*
X149504888Y-119085649D01*
X149414351Y-118995112D01*
X149307890Y-118923978D01*
X149247487Y-118898957D01*
X150155045Y-117991400D01*
X150057849Y-117916819D01*
X150057841Y-117916813D01*
X149842159Y-117792288D01*
X149842148Y-117792283D01*
X149612049Y-117696973D01*
X149371463Y-117632508D01*
X149124534Y-117600000D01*
X148875466Y-117600000D01*
X148628536Y-117632508D01*
X148387950Y-117696973D01*
X148157851Y-117792283D01*
X148157847Y-117792285D01*
X147942143Y-117916823D01*
X147844953Y-117991399D01*
X147844953Y-117991400D01*
X148752511Y-118898958D01*
X148692110Y-118923978D01*
X148585649Y-118995112D01*
X148495112Y-119085649D01*
X148423978Y-119192110D01*
X148398958Y-119252511D01*
X147491400Y-118344953D01*
X147491399Y-118344953D01*
X147416823Y-118442143D01*
X147292285Y-118657847D01*
X147292283Y-118657851D01*
X147196973Y-118887950D01*
X147132508Y-119128536D01*
X147100000Y-119375466D01*
X138627122Y-119375466D01*
X138627741Y-119374394D01*
X138655000Y-119272661D01*
X138655000Y-119167339D01*
X138627741Y-119065606D01*
X138575080Y-118974394D01*
X138570686Y-118970000D01*
X139531609Y-118970000D01*
X139522990Y-118915586D01*
X139459755Y-118720970D01*
X139366859Y-118538650D01*
X139246582Y-118373105D01*
X139246582Y-118373104D01*
X139101895Y-118228417D01*
X138984816Y-118143354D01*
X138837268Y-118057437D01*
X138815546Y-118034486D01*
X138792574Y-118012790D01*
X138791710Y-118009301D01*
X138789240Y-118006692D01*
X138783374Y-117975640D01*
X138775779Y-117944969D01*
X138776938Y-117941567D01*
X138776271Y-117938036D01*
X138788122Y-117908746D01*
X138798316Y-117878835D01*
X138801257Y-117876285D01*
X138802479Y-117873268D01*
X138814727Y-117864614D01*
X138843370Y-117839795D01*
X138843920Y-117839515D01*
X138936610Y-117792287D01*
X139067800Y-117696973D01*
X139102213Y-117671971D01*
X139102215Y-117671968D01*
X139102219Y-117671966D01*
X139246966Y-117527219D01*
X139246968Y-117527215D01*
X139246971Y-117527213D01*
X139299732Y-117454590D01*
X139367287Y-117361610D01*
X139460220Y-117179219D01*
X139523477Y-116984534D01*
X139555500Y-116782352D01*
X139555500Y-116577648D01*
X139523477Y-116375466D01*
X139521045Y-116367982D01*
X139469117Y-116208164D01*
X139460220Y-116180781D01*
X139460218Y-116180778D01*
X139460218Y-116180776D01*
X139405015Y-116072435D01*
X139367287Y-115998390D01*
X139319008Y-115931939D01*
X139246971Y-115832786D01*
X139102213Y-115688028D01*
X138936614Y-115567715D01*
X138930006Y-115564348D01*
X138843917Y-115520483D01*
X138793123Y-115472511D01*
X138776328Y-115404690D01*
X138798865Y-115338555D01*
X138843917Y-115299516D01*
X138936610Y-115252287D01*
X138957770Y-115236913D01*
X139102213Y-115131971D01*
X139102215Y-115131968D01*
X139102219Y-115131966D01*
X139246966Y-114987219D01*
X139246968Y-114987215D01*
X139246971Y-114987213D01*
X139299732Y-114914590D01*
X139367287Y-114821610D01*
X139460220Y-114639219D01*
X139523477Y-114444534D01*
X139534421Y-114375441D01*
X147099500Y-114375441D01*
X147099500Y-114624558D01*
X147099501Y-114624575D01*
X147125441Y-114821614D01*
X147132018Y-114871565D01*
X147166292Y-114999478D01*
X147196498Y-115112207D01*
X147291830Y-115342361D01*
X147291837Y-115342376D01*
X147416400Y-115558126D01*
X147568060Y-115755774D01*
X147568066Y-115755781D01*
X147744218Y-115931933D01*
X147744225Y-115931939D01*
X147941873Y-116083599D01*
X148157623Y-116208162D01*
X148157638Y-116208169D01*
X148256825Y-116249253D01*
X148387793Y-116303502D01*
X148628435Y-116367982D01*
X148875435Y-116400500D01*
X148875442Y-116400500D01*
X149124558Y-116400500D01*
X149124565Y-116400500D01*
X149371565Y-116367982D01*
X149612207Y-116303502D01*
X149842373Y-116208164D01*
X150058127Y-116083599D01*
X150255776Y-115931938D01*
X150431938Y-115755776D01*
X150583599Y-115558127D01*
X150708164Y-115342373D01*
X150803502Y-115112207D01*
X150867982Y-114871565D01*
X150900500Y-114624565D01*
X150900500Y-114375435D01*
X150867982Y-114128435D01*
X150803502Y-113887793D01*
X150735412Y-113723410D01*
X150708169Y-113657638D01*
X150708162Y-113657623D01*
X150583599Y-113441873D01*
X150431939Y-113244225D01*
X150431933Y-113244218D01*
X150255781Y-113068066D01*
X150255774Y-113068060D01*
X150058126Y-112916400D01*
X149842376Y-112791837D01*
X149842361Y-112791830D01*
X149612207Y-112696498D01*
X149371561Y-112632017D01*
X149124575Y-112599501D01*
X149124570Y-112599500D01*
X149124565Y-112599500D01*
X148875435Y-112599500D01*
X148875429Y-112599500D01*
X148875424Y-112599501D01*
X148628438Y-112632017D01*
X148387792Y-112696498D01*
X148157638Y-112791830D01*
X148157623Y-112791837D01*
X147941873Y-112916400D01*
X147744225Y-113068060D01*
X147744218Y-113068066D01*
X147568066Y-113244218D01*
X147568060Y-113244225D01*
X147416400Y-113441873D01*
X147291837Y-113657623D01*
X147291830Y-113657638D01*
X147196498Y-113887792D01*
X147132017Y-114128438D01*
X147099501Y-114375424D01*
X147099500Y-114375441D01*
X139534421Y-114375441D01*
X139538137Y-114351978D01*
X139555500Y-114242351D01*
X139555500Y-114037648D01*
X139523478Y-113835472D01*
X139523477Y-113835468D01*
X139523477Y-113835466D01*
X139518825Y-113821151D01*
X139518391Y-113805940D01*
X139513074Y-113791683D01*
X139517414Y-113771728D01*
X139516832Y-113751312D01*
X139524920Y-113737225D01*
X139527926Y-113723410D01*
X139549074Y-113695159D01*
X139723713Y-113520521D01*
X139723716Y-113520520D01*
X139835520Y-113408716D01*
X139885639Y-113321904D01*
X139914577Y-113271785D01*
X139955501Y-113119057D01*
X139955501Y-112960943D01*
X139955501Y-112953348D01*
X139955500Y-112953330D01*
X139955500Y-109375466D01*
X147100000Y-109375466D01*
X147100000Y-109624533D01*
X147132508Y-109871463D01*
X147196973Y-110112049D01*
X147292283Y-110342148D01*
X147292288Y-110342159D01*
X147416813Y-110557841D01*
X147416819Y-110557849D01*
X147491400Y-110655045D01*
X148398958Y-109747487D01*
X148423978Y-109807890D01*
X148495112Y-109914351D01*
X148585649Y-110004888D01*
X148692110Y-110076022D01*
X148752511Y-110101041D01*
X147844953Y-111008598D01*
X147942150Y-111083180D01*
X147942158Y-111083186D01*
X148157840Y-111207711D01*
X148157851Y-111207716D01*
X148387950Y-111303026D01*
X148628536Y-111367491D01*
X148875466Y-111400000D01*
X149124534Y-111400000D01*
X149371463Y-111367491D01*
X149612049Y-111303026D01*
X149842148Y-111207716D01*
X149842159Y-111207711D01*
X150057855Y-111083178D01*
X150155045Y-111008600D01*
X150155045Y-111008597D01*
X149247488Y-110101041D01*
X149307890Y-110076022D01*
X149414351Y-110004888D01*
X149504888Y-109914351D01*
X149576022Y-109807890D01*
X149601041Y-109747489D01*
X150508597Y-110655045D01*
X150508600Y-110655045D01*
X150583178Y-110557855D01*
X150707711Y-110342159D01*
X150707716Y-110342148D01*
X150803026Y-110112049D01*
X150867491Y-109871463D01*
X150900000Y-109624533D01*
X150900000Y-109375466D01*
X150867491Y-109128536D01*
X150803026Y-108887950D01*
X150707716Y-108657851D01*
X150707711Y-108657840D01*
X150583186Y-108442158D01*
X150583180Y-108442150D01*
X150508598Y-108344953D01*
X149601041Y-109252510D01*
X149576022Y-109192110D01*
X149504888Y-109085649D01*
X149414351Y-108995112D01*
X149307890Y-108923978D01*
X149247487Y-108898957D01*
X150155045Y-107991400D01*
X150057849Y-107916819D01*
X150057841Y-107916813D01*
X149842159Y-107792288D01*
X149842148Y-107792283D01*
X149612049Y-107696973D01*
X149371463Y-107632508D01*
X149124534Y-107600000D01*
X148875466Y-107600000D01*
X148628536Y-107632508D01*
X148387950Y-107696973D01*
X148157851Y-107792283D01*
X148157847Y-107792285D01*
X147942143Y-107916823D01*
X147844953Y-107991399D01*
X147844953Y-107991400D01*
X148752511Y-108898958D01*
X148692110Y-108923978D01*
X148585649Y-108995112D01*
X148495112Y-109085649D01*
X148423978Y-109192110D01*
X148398958Y-109252511D01*
X147491400Y-108344953D01*
X147491399Y-108344953D01*
X147416823Y-108442143D01*
X147292285Y-108657847D01*
X147292283Y-108657851D01*
X147196973Y-108887950D01*
X147132508Y-109128536D01*
X147100000Y-109375466D01*
X139955500Y-109375466D01*
X139955500Y-104445096D01*
X139964144Y-104415655D01*
X139970668Y-104385669D01*
X139974422Y-104380653D01*
X139975185Y-104378057D01*
X139977293Y-104375441D01*
X147099500Y-104375441D01*
X147099500Y-104624558D01*
X147099501Y-104624575D01*
X147132017Y-104871561D01*
X147196498Y-105112207D01*
X147291830Y-105342361D01*
X147291837Y-105342376D01*
X147416400Y-105558126D01*
X147568060Y-105755774D01*
X147568066Y-105755781D01*
X147744218Y-105931933D01*
X147744225Y-105931939D01*
X147941873Y-106083599D01*
X148157623Y-106208162D01*
X148157638Y-106208169D01*
X148256825Y-106249253D01*
X148387793Y-106303502D01*
X148628435Y-106367982D01*
X148875435Y-106400500D01*
X148875442Y-106400500D01*
X149124558Y-106400500D01*
X149124565Y-106400500D01*
X149371565Y-106367982D01*
X149612207Y-106303502D01*
X149842373Y-106208164D01*
X150058127Y-106083599D01*
X150255776Y-105931938D01*
X150431938Y-105755776D01*
X150583599Y-105558127D01*
X150708164Y-105342373D01*
X150803502Y-105112207D01*
X150867982Y-104871565D01*
X150900500Y-104624565D01*
X150900500Y-104375435D01*
X150867982Y-104128435D01*
X150803502Y-103887793D01*
X150708164Y-103657627D01*
X150684747Y-103617068D01*
X150583599Y-103441873D01*
X150431939Y-103244225D01*
X150431933Y-103244218D01*
X150255781Y-103068066D01*
X150255774Y-103068060D01*
X150058126Y-102916400D01*
X149842376Y-102791837D01*
X149842361Y-102791830D01*
X149612207Y-102696498D01*
X149371561Y-102632017D01*
X149124575Y-102599501D01*
X149124570Y-102599500D01*
X149124565Y-102599500D01*
X148875435Y-102599500D01*
X148875429Y-102599500D01*
X148875424Y-102599501D01*
X148628438Y-102632017D01*
X148387792Y-102696498D01*
X148157638Y-102791830D01*
X148157623Y-102791837D01*
X147941873Y-102916400D01*
X147744225Y-103068060D01*
X147744218Y-103068066D01*
X147568066Y-103244218D01*
X147568060Y-103244225D01*
X147416400Y-103441873D01*
X147291837Y-103657623D01*
X147291830Y-103657638D01*
X147196498Y-103887792D01*
X147132017Y-104128438D01*
X147099501Y-104375424D01*
X147099500Y-104375441D01*
X139977293Y-104375441D01*
X139991814Y-104357420D01*
X144973767Y-99375466D01*
X147100000Y-99375466D01*
X147100000Y-99624533D01*
X147132508Y-99871463D01*
X147196973Y-100112049D01*
X147292283Y-100342148D01*
X147292288Y-100342159D01*
X147416813Y-100557841D01*
X147416819Y-100557849D01*
X147491400Y-100655045D01*
X148398958Y-99747487D01*
X148423978Y-99807890D01*
X148495112Y-99914351D01*
X148585649Y-100004888D01*
X148692110Y-100076022D01*
X148752511Y-100101041D01*
X147844953Y-101008598D01*
X147942150Y-101083180D01*
X147942158Y-101083186D01*
X148157840Y-101207711D01*
X148157851Y-101207716D01*
X148387950Y-101303026D01*
X148628536Y-101367491D01*
X148875466Y-101400000D01*
X149124534Y-101400000D01*
X149371463Y-101367491D01*
X149612049Y-101303026D01*
X149842148Y-101207716D01*
X149842159Y-101207711D01*
X150057855Y-101083178D01*
X150155045Y-101008600D01*
X150155045Y-101008597D01*
X149247488Y-100101041D01*
X149307890Y-100076022D01*
X149414351Y-100004888D01*
X149504888Y-99914351D01*
X149576022Y-99807890D01*
X149601041Y-99747489D01*
X150508597Y-100655045D01*
X150508600Y-100655045D01*
X150583178Y-100557855D01*
X150707711Y-100342159D01*
X150707716Y-100342148D01*
X150803026Y-100112049D01*
X150867491Y-99871463D01*
X150900000Y-99624533D01*
X150900000Y-99375466D01*
X150867491Y-99128536D01*
X150803026Y-98887950D01*
X150707716Y-98657851D01*
X150707711Y-98657840D01*
X150583186Y-98442158D01*
X150583180Y-98442150D01*
X150508598Y-98344953D01*
X149601041Y-99252510D01*
X149576022Y-99192110D01*
X149504888Y-99085649D01*
X149414351Y-98995112D01*
X149307890Y-98923978D01*
X149247487Y-98898957D01*
X150155045Y-97991400D01*
X150057849Y-97916819D01*
X150057841Y-97916813D01*
X149842159Y-97792288D01*
X149842148Y-97792283D01*
X149612049Y-97696973D01*
X149371463Y-97632508D01*
X149124534Y-97600000D01*
X148875466Y-97600000D01*
X148628536Y-97632508D01*
X148387950Y-97696973D01*
X148157851Y-97792283D01*
X148157847Y-97792285D01*
X147942143Y-97916823D01*
X147844953Y-97991399D01*
X147844953Y-97991400D01*
X148752511Y-98898958D01*
X148692110Y-98923978D01*
X148585649Y-98995112D01*
X148495112Y-99085649D01*
X148423978Y-99192110D01*
X148398958Y-99252511D01*
X147491400Y-98344953D01*
X147491399Y-98344953D01*
X147416823Y-98442143D01*
X147292285Y-98657847D01*
X147292283Y-98657851D01*
X147196973Y-98887950D01*
X147132508Y-99128536D01*
X147100000Y-99375466D01*
X144973767Y-99375466D01*
X148087334Y-96261899D01*
X148148655Y-96228416D01*
X148218347Y-96233400D01*
X148222455Y-96235016D01*
X148387793Y-96303502D01*
X148628435Y-96367982D01*
X148875435Y-96400500D01*
X148875442Y-96400500D01*
X149124558Y-96400500D01*
X149124565Y-96400500D01*
X149371565Y-96367982D01*
X149612207Y-96303502D01*
X149842373Y-96208164D01*
X150058127Y-96083599D01*
X150255776Y-95931938D01*
X150431938Y-95755776D01*
X150583599Y-95558127D01*
X150708164Y-95342373D01*
X150803502Y-95112207D01*
X150867982Y-94871565D01*
X150900500Y-94624565D01*
X150900500Y-94375435D01*
X150867982Y-94128435D01*
X150803502Y-93887793D01*
X150735021Y-93722466D01*
X150708169Y-93657638D01*
X150708162Y-93657623D01*
X150583599Y-93441873D01*
X150431939Y-93244225D01*
X150431933Y-93244218D01*
X150255778Y-93068063D01*
X150255774Y-93068060D01*
X150058126Y-92916400D01*
X149842376Y-92791837D01*
X149842361Y-92791830D01*
X149612207Y-92696498D01*
X149371561Y-92632017D01*
X149124575Y-92599501D01*
X149124570Y-92599500D01*
X149124565Y-92599500D01*
X148875435Y-92599500D01*
X148875429Y-92599500D01*
X148875424Y-92599501D01*
X148628438Y-92632017D01*
X148387792Y-92696498D01*
X148222466Y-92764978D01*
X148202590Y-92767114D01*
X148183860Y-92774101D01*
X148168563Y-92770773D01*
X148152997Y-92772447D01*
X148135120Y-92763498D01*
X148115587Y-92759249D01*
X148093294Y-92742561D01*
X148090518Y-92741171D01*
X148087333Y-92738098D01*
X147936819Y-92587584D01*
X147903334Y-92526261D01*
X147900500Y-92499903D01*
X147900500Y-91273909D01*
X147920185Y-91206870D01*
X147972989Y-91161115D01*
X148042147Y-91151171D01*
X148086501Y-91166522D01*
X148157847Y-91207714D01*
X148157851Y-91207716D01*
X148387950Y-91303026D01*
X148628536Y-91367491D01*
X148875466Y-91400000D01*
X149124534Y-91400000D01*
X149371463Y-91367491D01*
X149612049Y-91303026D01*
X149842148Y-91207716D01*
X149842159Y-91207711D01*
X150057855Y-91083178D01*
X150155045Y-91008600D01*
X150155045Y-91008597D01*
X149247488Y-90101041D01*
X149307890Y-90076022D01*
X149414351Y-90004888D01*
X149504888Y-89914351D01*
X149576022Y-89807890D01*
X149601041Y-89747489D01*
X150508597Y-90655045D01*
X150508600Y-90655045D01*
X150583178Y-90557855D01*
X150707711Y-90342159D01*
X150707716Y-90342148D01*
X150803026Y-90112049D01*
X150867491Y-89871463D01*
X150900000Y-89624533D01*
X150900000Y-89375466D01*
X150867491Y-89128536D01*
X150803026Y-88887950D01*
X150707716Y-88657851D01*
X150707711Y-88657840D01*
X150583186Y-88442158D01*
X150583180Y-88442150D01*
X150508598Y-88344953D01*
X149601041Y-89252510D01*
X149576022Y-89192110D01*
X149504888Y-89085649D01*
X149414351Y-88995112D01*
X149307890Y-88923978D01*
X149247487Y-88898958D01*
X150155045Y-87991400D01*
X150057849Y-87916819D01*
X150057841Y-87916813D01*
X149842159Y-87792288D01*
X149842148Y-87792283D01*
X149612049Y-87696973D01*
X149371463Y-87632508D01*
X149124534Y-87600000D01*
X148875466Y-87600000D01*
X148628536Y-87632508D01*
X148387950Y-87696973D01*
X148157851Y-87792283D01*
X148157840Y-87792288D01*
X148086500Y-87833477D01*
X148018600Y-87849950D01*
X147952573Y-87827097D01*
X147909382Y-87772176D01*
X147900500Y-87726090D01*
X147900500Y-86274485D01*
X147920185Y-86207446D01*
X147972989Y-86161691D01*
X148042147Y-86151747D01*
X148086494Y-86167095D01*
X148157627Y-86208164D01*
X148157635Y-86208167D01*
X148157638Y-86208169D01*
X148208067Y-86229057D01*
X148387793Y-86303502D01*
X148628435Y-86367982D01*
X148875435Y-86400500D01*
X148875442Y-86400500D01*
X149124558Y-86400500D01*
X149124565Y-86400500D01*
X149371565Y-86367982D01*
X149612207Y-86303502D01*
X149842373Y-86208164D01*
X150058127Y-86083599D01*
X150255776Y-85931938D01*
X150431938Y-85755776D01*
X150583599Y-85558127D01*
X150708164Y-85342373D01*
X150803502Y-85112207D01*
X150867982Y-84871565D01*
X150900500Y-84624565D01*
X150900500Y-84375435D01*
X150867982Y-84128435D01*
X150803502Y-83887793D01*
X150726690Y-83702352D01*
X150708169Y-83657638D01*
X150708162Y-83657623D01*
X150583599Y-83441873D01*
X150431939Y-83244225D01*
X150431933Y-83244218D01*
X150255781Y-83068066D01*
X150255774Y-83068060D01*
X150058126Y-82916400D01*
X149842376Y-82791837D01*
X149842361Y-82791830D01*
X149612207Y-82696498D01*
X149489770Y-82663691D01*
X149371565Y-82632018D01*
X149371564Y-82632017D01*
X149371561Y-82632017D01*
X149124575Y-82599501D01*
X149124570Y-82599500D01*
X149124565Y-82599500D01*
X148875435Y-82599500D01*
X148875429Y-82599500D01*
X148875424Y-82599501D01*
X148628438Y-82632017D01*
X148387792Y-82696498D01*
X148157638Y-82791830D01*
X148157623Y-82791837D01*
X147941873Y-82916400D01*
X147744225Y-83068060D01*
X147744218Y-83068066D01*
X147568066Y-83244218D01*
X147568060Y-83244225D01*
X147416400Y-83441873D01*
X147291837Y-83657623D01*
X147291832Y-83657633D01*
X147209092Y-83857387D01*
X147165251Y-83911790D01*
X147098957Y-83933855D01*
X147031257Y-83916576D01*
X147006850Y-83897615D01*
X142484701Y-79375466D01*
X147100000Y-79375466D01*
X147100000Y-79624533D01*
X147132508Y-79871463D01*
X147196973Y-80112049D01*
X147292283Y-80342148D01*
X147292288Y-80342159D01*
X147416813Y-80557841D01*
X147416819Y-80557849D01*
X147491400Y-80655045D01*
X148398958Y-79747487D01*
X148423978Y-79807890D01*
X148495112Y-79914351D01*
X148585649Y-80004888D01*
X148692110Y-80076022D01*
X148752511Y-80101041D01*
X147844953Y-81008598D01*
X147942150Y-81083180D01*
X147942158Y-81083186D01*
X148157840Y-81207711D01*
X148157851Y-81207716D01*
X148387950Y-81303026D01*
X148628536Y-81367491D01*
X148875466Y-81400000D01*
X149124534Y-81400000D01*
X149371463Y-81367491D01*
X149612049Y-81303026D01*
X149842148Y-81207716D01*
X149842159Y-81207711D01*
X150057855Y-81083178D01*
X150155045Y-81008600D01*
X150155045Y-81008597D01*
X149247488Y-80101041D01*
X149307890Y-80076022D01*
X149414351Y-80004888D01*
X149504888Y-79914351D01*
X149576022Y-79807890D01*
X149601041Y-79747489D01*
X150508597Y-80655045D01*
X150508600Y-80655045D01*
X150583178Y-80557855D01*
X150707711Y-80342159D01*
X150707716Y-80342148D01*
X150803026Y-80112049D01*
X150867491Y-79871463D01*
X150900000Y-79624533D01*
X150900000Y-79375466D01*
X150867491Y-79128536D01*
X150803026Y-78887950D01*
X150707716Y-78657851D01*
X150707711Y-78657840D01*
X150583186Y-78442158D01*
X150583180Y-78442150D01*
X150508598Y-78344953D01*
X149601041Y-79252510D01*
X149576022Y-79192110D01*
X149504888Y-79085649D01*
X149414351Y-78995112D01*
X149307890Y-78923978D01*
X149247487Y-78898957D01*
X150155045Y-77991400D01*
X150057849Y-77916819D01*
X150057841Y-77916813D01*
X149842159Y-77792288D01*
X149842148Y-77792283D01*
X149612049Y-77696973D01*
X149371463Y-77632508D01*
X149124534Y-77600000D01*
X148875466Y-77600000D01*
X148628536Y-77632508D01*
X148387950Y-77696973D01*
X148157851Y-77792283D01*
X148157847Y-77792285D01*
X147942143Y-77916823D01*
X147844953Y-77991399D01*
X147844953Y-77991400D01*
X148752511Y-78898958D01*
X148692110Y-78923978D01*
X148585649Y-78995112D01*
X148495112Y-79085649D01*
X148423978Y-79192110D01*
X148398958Y-79252511D01*
X147491400Y-78344953D01*
X147491399Y-78344953D01*
X147416823Y-78442143D01*
X147292285Y-78657847D01*
X147292283Y-78657851D01*
X147196973Y-78887950D01*
X147132508Y-79128536D01*
X147100000Y-79375466D01*
X142484701Y-79375466D01*
X139054077Y-75944842D01*
X139020592Y-75883519D01*
X139023828Y-75818841D01*
X139028477Y-75804534D01*
X139060500Y-75602352D01*
X139060500Y-75397648D01*
X139042121Y-75281612D01*
X139028477Y-75195465D01*
X138982888Y-75055157D01*
X138965220Y-75000781D01*
X138965218Y-75000778D01*
X138965218Y-75000776D01*
X138931503Y-74934607D01*
X138872287Y-74818390D01*
X138864556Y-74807749D01*
X138751971Y-74652786D01*
X138607219Y-74508034D01*
X138557202Y-74471695D01*
X138557200Y-74471692D01*
X138441613Y-74387715D01*
X138441612Y-74387714D01*
X138441610Y-74387713D01*
X138417525Y-74375441D01*
X147099500Y-74375441D01*
X147099500Y-74624558D01*
X147099501Y-74624575D01*
X147125016Y-74818386D01*
X147132018Y-74871565D01*
X147151995Y-74946119D01*
X147196498Y-75112207D01*
X147291830Y-75342361D01*
X147291837Y-75342376D01*
X147416400Y-75558126D01*
X147568060Y-75755774D01*
X147568066Y-75755781D01*
X147744218Y-75931933D01*
X147744225Y-75931939D01*
X147941873Y-76083599D01*
X148157623Y-76208162D01*
X148157638Y-76208169D01*
X148202466Y-76226737D01*
X148387793Y-76303502D01*
X148628435Y-76367982D01*
X148875435Y-76400500D01*
X148875442Y-76400500D01*
X149124558Y-76400500D01*
X149124565Y-76400500D01*
X149371565Y-76367982D01*
X149612207Y-76303502D01*
X149842373Y-76208164D01*
X150058127Y-76083599D01*
X150255776Y-75931938D01*
X150431938Y-75755776D01*
X150583599Y-75558127D01*
X150708164Y-75342373D01*
X150803502Y-75112207D01*
X150867982Y-74871565D01*
X150900500Y-74624565D01*
X150900500Y-74375435D01*
X150867982Y-74128435D01*
X150803502Y-73887793D01*
X150708164Y-73657627D01*
X150583599Y-73441873D01*
X150431938Y-73244224D01*
X150431933Y-73244218D01*
X150255781Y-73068066D01*
X150255774Y-73068060D01*
X150058126Y-72916400D01*
X149842376Y-72791837D01*
X149842361Y-72791830D01*
X149612207Y-72696498D01*
X149371561Y-72632017D01*
X149124575Y-72599501D01*
X149124570Y-72599500D01*
X149124565Y-72599500D01*
X148875435Y-72599500D01*
X148875429Y-72599500D01*
X148875424Y-72599501D01*
X148628438Y-72632017D01*
X148387792Y-72696498D01*
X148157638Y-72791830D01*
X148157623Y-72791837D01*
X147941873Y-72916400D01*
X147744225Y-73068060D01*
X147744218Y-73068066D01*
X147568066Y-73244218D01*
X147568060Y-73244225D01*
X147416400Y-73441873D01*
X147291837Y-73657623D01*
X147291830Y-73657638D01*
X147196498Y-73887792D01*
X147132017Y-74128438D01*
X147099501Y-74375424D01*
X147099500Y-74375441D01*
X138417525Y-74375441D01*
X138373060Y-74352785D01*
X138259223Y-74294781D01*
X138064534Y-74231522D01*
X137889995Y-74203878D01*
X137862352Y-74199500D01*
X137657648Y-74199500D01*
X137633329Y-74203351D01*
X137455465Y-74231522D01*
X137260776Y-74294781D01*
X137078386Y-74387715D01*
X136912786Y-74508028D01*
X136768028Y-74652786D01*
X136647715Y-74818386D01*
X136554781Y-75000776D01*
X136491522Y-75195465D01*
X136459500Y-75397648D01*
X136459500Y-75602351D01*
X136491522Y-75804534D01*
X136554781Y-75999223D01*
X136606385Y-76100500D01*
X136635408Y-76157461D01*
X136647715Y-76181613D01*
X136768028Y-76347213D01*
X136912786Y-76491971D01*
X137067749Y-76604556D01*
X137078390Y-76612287D01*
X137159499Y-76653614D01*
X137260776Y-76705218D01*
X137260778Y-76705218D01*
X137260781Y-76705220D01*
X137335818Y-76729601D01*
X137455465Y-76768477D01*
X137556557Y-76784488D01*
X137657648Y-76800500D01*
X137657649Y-76800500D01*
X137862351Y-76800500D01*
X137862352Y-76800500D01*
X138064534Y-76768477D01*
X138078842Y-76763827D01*
X138148682Y-76761831D01*
X138204842Y-76794077D01*
X146663181Y-85252416D01*
X146696666Y-85313739D01*
X146699500Y-85340097D01*
X146699500Y-92713330D01*
X146699499Y-92713348D01*
X146699499Y-92879054D01*
X146699498Y-92879054D01*
X146737314Y-93020185D01*
X146740423Y-93031785D01*
X146761368Y-93068062D01*
X146819479Y-93168714D01*
X146819481Y-93168717D01*
X146938349Y-93287585D01*
X146938355Y-93287590D01*
X147238098Y-93587333D01*
X147271583Y-93648656D01*
X147266599Y-93718348D01*
X147264978Y-93722466D01*
X147196498Y-93887792D01*
X147132017Y-94128438D01*
X147099501Y-94375424D01*
X147099500Y-94375441D01*
X147099500Y-94624558D01*
X147099501Y-94624575D01*
X147124398Y-94813691D01*
X147132018Y-94871565D01*
X147196498Y-95112207D01*
X147253897Y-95250781D01*
X147264978Y-95277531D01*
X147272447Y-95347001D01*
X147241172Y-95409480D01*
X147238098Y-95412665D01*
X139067181Y-103583583D01*
X139005858Y-103617068D01*
X138936166Y-103612084D01*
X138880233Y-103570212D01*
X138855816Y-103504748D01*
X138855500Y-103495902D01*
X138855500Y-97844060D01*
X138855501Y-97844047D01*
X138855501Y-97675944D01*
X138843862Y-97632508D01*
X138814577Y-97523216D01*
X138814573Y-97523209D01*
X138735524Y-97386290D01*
X138735518Y-97386282D01*
X136372498Y-95023262D01*
X133835251Y-92486016D01*
X133801767Y-92424694D01*
X133806751Y-92355002D01*
X133812448Y-92342041D01*
X133823944Y-92319480D01*
X133885220Y-92199219D01*
X133948477Y-92004534D01*
X133980500Y-91802352D01*
X133980500Y-91597648D01*
X136459500Y-91597648D01*
X136459500Y-91802351D01*
X136491522Y-92004534D01*
X136554781Y-92199223D01*
X136647715Y-92381613D01*
X136768028Y-92547213D01*
X136912786Y-92691971D01*
X137013274Y-92764978D01*
X137078390Y-92812287D01*
X137159499Y-92853614D01*
X137260776Y-92905218D01*
X137260778Y-92905218D01*
X137260781Y-92905220D01*
X137295193Y-92916401D01*
X137455465Y-92968477D01*
X137556557Y-92984488D01*
X137657648Y-93000500D01*
X137657649Y-93000500D01*
X137862351Y-93000500D01*
X137862352Y-93000500D01*
X138064534Y-92968477D01*
X138259219Y-92905220D01*
X138441610Y-92812287D01*
X138567333Y-92720945D01*
X138607213Y-92691971D01*
X138607215Y-92691968D01*
X138607219Y-92691966D01*
X138751966Y-92547219D01*
X138751968Y-92547215D01*
X138751971Y-92547213D01*
X138804732Y-92474590D01*
X138872287Y-92381610D01*
X138965220Y-92199219D01*
X139028477Y-92004534D01*
X139060500Y-91802352D01*
X139060500Y-91597648D01*
X139028477Y-91395466D01*
X139019387Y-91367491D01*
X138967473Y-91207716D01*
X138965220Y-91200781D01*
X138965218Y-91200778D01*
X138965218Y-91200776D01*
X138905298Y-91083178D01*
X138872287Y-91018390D01*
X138839500Y-90973262D01*
X138751971Y-90852786D01*
X138607213Y-90708028D01*
X138441613Y-90587715D01*
X138441612Y-90587714D01*
X138441610Y-90587713D01*
X138382983Y-90557841D01*
X138259223Y-90494781D01*
X138064534Y-90431522D01*
X137889995Y-90403878D01*
X137862352Y-90399500D01*
X137657648Y-90399500D01*
X137633329Y-90403351D01*
X137455465Y-90431522D01*
X137260776Y-90494781D01*
X137078386Y-90587715D01*
X136912786Y-90708028D01*
X136768028Y-90852786D01*
X136647715Y-91018386D01*
X136554781Y-91200776D01*
X136491522Y-91395465D01*
X136459500Y-91597648D01*
X133980500Y-91597648D01*
X133948477Y-91395466D01*
X133939387Y-91367491D01*
X133887473Y-91207716D01*
X133885220Y-91200781D01*
X133885218Y-91200778D01*
X133885218Y-91200776D01*
X133825298Y-91083178D01*
X133792287Y-91018390D01*
X133759500Y-90973262D01*
X133671971Y-90852786D01*
X133527213Y-90708028D01*
X133361610Y-90587712D01*
X133348200Y-90580879D01*
X133297406Y-90532903D01*
X133280500Y-90470397D01*
X133280500Y-88879601D01*
X133300185Y-88812562D01*
X133348206Y-88769116D01*
X133361610Y-88762287D01*
X133527219Y-88641966D01*
X133671966Y-88497219D01*
X133671968Y-88497215D01*
X133671971Y-88497213D01*
X133724732Y-88424590D01*
X133792287Y-88331610D01*
X133885220Y-88149219D01*
X133948477Y-87954534D01*
X133980500Y-87752352D01*
X133980500Y-87547648D01*
X136459500Y-87547648D01*
X136459500Y-87752351D01*
X136491522Y-87954534D01*
X136554781Y-88149223D01*
X136647715Y-88331613D01*
X136768028Y-88497213D01*
X136912786Y-88641971D01*
X137067749Y-88754556D01*
X137078390Y-88762287D01*
X137159499Y-88803614D01*
X137260776Y-88855218D01*
X137260778Y-88855218D01*
X137260781Y-88855220D01*
X137321593Y-88874979D01*
X137455465Y-88918477D01*
X137490197Y-88923978D01*
X137657648Y-88950500D01*
X137657649Y-88950500D01*
X137862351Y-88950500D01*
X137862352Y-88950500D01*
X138064534Y-88918477D01*
X138259219Y-88855220D01*
X138441610Y-88762287D01*
X138534590Y-88694732D01*
X138607213Y-88641971D01*
X138607215Y-88641968D01*
X138607219Y-88641966D01*
X138751966Y-88497219D01*
X138751968Y-88497215D01*
X138751971Y-88497213D01*
X138804732Y-88424590D01*
X138872287Y-88331610D01*
X138965220Y-88149219D01*
X139028477Y-87954534D01*
X139060500Y-87752352D01*
X139060500Y-87547648D01*
X139028477Y-87345466D01*
X138965220Y-87150781D01*
X138965218Y-87150778D01*
X138965218Y-87150776D01*
X138931503Y-87084607D01*
X138872287Y-86968390D01*
X138839500Y-86923262D01*
X138751971Y-86802786D01*
X138607213Y-86658028D01*
X138441613Y-86537715D01*
X138441612Y-86537714D01*
X138441610Y-86537713D01*
X138384653Y-86508691D01*
X138259223Y-86444781D01*
X138064534Y-86381522D01*
X137889995Y-86353878D01*
X137862352Y-86349500D01*
X137657648Y-86349500D01*
X137633329Y-86353351D01*
X137455465Y-86381522D01*
X137260776Y-86444781D01*
X137078386Y-86537715D01*
X136912786Y-86658028D01*
X136768028Y-86802786D01*
X136647715Y-86968386D01*
X136554781Y-87150776D01*
X136491522Y-87345465D01*
X136459500Y-87547648D01*
X133980500Y-87547648D01*
X133948477Y-87345466D01*
X133885220Y-87150781D01*
X133885218Y-87150778D01*
X133885218Y-87150776D01*
X133851503Y-87084607D01*
X133792287Y-86968390D01*
X133759500Y-86923262D01*
X133671971Y-86802786D01*
X133527213Y-86658028D01*
X133361610Y-86537712D01*
X133348200Y-86530879D01*
X133297406Y-86482903D01*
X133280500Y-86420397D01*
X133280500Y-84829601D01*
X133300185Y-84762562D01*
X133348206Y-84719116D01*
X133361610Y-84712287D01*
X133527219Y-84591966D01*
X133671966Y-84447219D01*
X133671968Y-84447215D01*
X133671971Y-84447213D01*
X133724732Y-84374590D01*
X133792287Y-84281610D01*
X133885220Y-84099219D01*
X133948477Y-83904534D01*
X133980500Y-83702352D01*
X133980500Y-83497648D01*
X136459500Y-83497648D01*
X136459500Y-83702351D01*
X136491522Y-83904534D01*
X136554781Y-84099223D01*
X136647715Y-84281613D01*
X136768028Y-84447213D01*
X136912786Y-84591971D01*
X137025067Y-84673546D01*
X137078390Y-84712287D01*
X137159499Y-84753614D01*
X137260776Y-84805218D01*
X137260778Y-84805218D01*
X137260781Y-84805220D01*
X137335818Y-84829601D01*
X137455465Y-84868477D01*
X137556557Y-84884488D01*
X137657648Y-84900500D01*
X137657649Y-84900500D01*
X137862351Y-84900500D01*
X137862352Y-84900500D01*
X138064534Y-84868477D01*
X138259219Y-84805220D01*
X138441610Y-84712287D01*
X138534590Y-84644732D01*
X138607213Y-84591971D01*
X138607215Y-84591968D01*
X138607219Y-84591966D01*
X138751966Y-84447219D01*
X138751968Y-84447215D01*
X138751971Y-84447213D01*
X138804732Y-84374590D01*
X138872287Y-84281610D01*
X138965220Y-84099219D01*
X139028477Y-83904534D01*
X139060500Y-83702352D01*
X139060500Y-83497648D01*
X139051666Y-83441873D01*
X139028477Y-83295465D01*
X138965218Y-83100776D01*
X138931503Y-83034607D01*
X138872287Y-82918390D01*
X138822670Y-82850097D01*
X138751971Y-82752786D01*
X138607213Y-82608028D01*
X138441613Y-82487715D01*
X138441612Y-82487714D01*
X138441610Y-82487713D01*
X138384653Y-82458691D01*
X138259223Y-82394781D01*
X138064534Y-82331522D01*
X137889995Y-82303878D01*
X137862352Y-82299500D01*
X137657648Y-82299500D01*
X137633329Y-82303351D01*
X137455465Y-82331522D01*
X137260776Y-82394781D01*
X137078386Y-82487715D01*
X136912786Y-82608028D01*
X136768028Y-82752786D01*
X136647715Y-82918386D01*
X136554781Y-83100776D01*
X136491522Y-83295465D01*
X136459500Y-83497648D01*
X133980500Y-83497648D01*
X133971666Y-83441873D01*
X133948477Y-83295465D01*
X133885218Y-83100776D01*
X133851503Y-83034607D01*
X133792287Y-82918390D01*
X133742670Y-82850097D01*
X133671971Y-82752786D01*
X133527213Y-82608028D01*
X133361610Y-82487712D01*
X133348200Y-82480879D01*
X133297406Y-82432903D01*
X133280500Y-82370397D01*
X133280500Y-80779601D01*
X133300185Y-80712562D01*
X133348206Y-80669116D01*
X133361610Y-80662287D01*
X133527219Y-80541966D01*
X133671966Y-80397219D01*
X133671968Y-80397215D01*
X133671971Y-80397213D01*
X133724732Y-80324590D01*
X133792287Y-80231610D01*
X133885220Y-80049219D01*
X133948477Y-79854534D01*
X133980500Y-79652352D01*
X133980500Y-79447648D01*
X136459500Y-79447648D01*
X136459500Y-79652351D01*
X136491522Y-79854534D01*
X136554781Y-80049223D01*
X136647715Y-80231613D01*
X136768028Y-80397213D01*
X136912786Y-80541971D01*
X137067749Y-80654556D01*
X137078390Y-80662287D01*
X137159499Y-80703614D01*
X137260776Y-80755218D01*
X137260778Y-80755218D01*
X137260781Y-80755220D01*
X137335818Y-80779601D01*
X137455465Y-80818477D01*
X137556557Y-80834488D01*
X137657648Y-80850500D01*
X137657649Y-80850500D01*
X137862351Y-80850500D01*
X137862352Y-80850500D01*
X138064534Y-80818477D01*
X138259219Y-80755220D01*
X138441610Y-80662287D01*
X138534590Y-80594732D01*
X138607213Y-80541971D01*
X138607215Y-80541968D01*
X138607219Y-80541966D01*
X138751966Y-80397219D01*
X138751968Y-80397215D01*
X138751971Y-80397213D01*
X138804732Y-80324590D01*
X138872287Y-80231610D01*
X138965220Y-80049219D01*
X139028477Y-79854534D01*
X139060500Y-79652352D01*
X139060500Y-79447648D01*
X139038762Y-79310402D01*
X139028477Y-79245465D01*
X138965218Y-79050776D01*
X138931503Y-78984607D01*
X138872287Y-78868390D01*
X138839500Y-78823262D01*
X138751971Y-78702786D01*
X138607213Y-78558028D01*
X138441613Y-78437715D01*
X138441612Y-78437714D01*
X138441610Y-78437713D01*
X138384653Y-78408691D01*
X138259223Y-78344781D01*
X138064534Y-78281522D01*
X137889995Y-78253878D01*
X137862352Y-78249500D01*
X137657648Y-78249500D01*
X137633329Y-78253351D01*
X137455465Y-78281522D01*
X137260776Y-78344781D01*
X137078386Y-78437715D01*
X136912786Y-78558028D01*
X136768028Y-78702786D01*
X136647715Y-78868386D01*
X136554781Y-79050776D01*
X136491522Y-79245465D01*
X136459500Y-79447648D01*
X133980500Y-79447648D01*
X133958762Y-79310402D01*
X133948477Y-79245465D01*
X133885218Y-79050776D01*
X133851503Y-78984607D01*
X133792287Y-78868390D01*
X133759500Y-78823262D01*
X133671971Y-78702786D01*
X133527213Y-78558028D01*
X133361610Y-78437712D01*
X133348200Y-78430879D01*
X133297406Y-78382903D01*
X133280500Y-78320397D01*
X133280500Y-76729601D01*
X133300185Y-76662562D01*
X133348206Y-76619116D01*
X133361610Y-76612287D01*
X133527219Y-76491966D01*
X133671966Y-76347219D01*
X133671968Y-76347215D01*
X133671971Y-76347213D01*
X133724732Y-76274590D01*
X133792287Y-76181610D01*
X133885220Y-75999219D01*
X133948477Y-75804534D01*
X133980500Y-75602352D01*
X133980500Y-75397648D01*
X133962121Y-75281612D01*
X133948477Y-75195465D01*
X133902888Y-75055157D01*
X133885220Y-75000781D01*
X133885218Y-75000778D01*
X133885218Y-75000776D01*
X133851503Y-74934607D01*
X133792287Y-74818390D01*
X133784556Y-74807749D01*
X133671971Y-74652786D01*
X133527213Y-74508028D01*
X133361613Y-74387715D01*
X133361612Y-74387714D01*
X133361610Y-74387713D01*
X133293060Y-74352785D01*
X133179223Y-74294781D01*
X132984534Y-74231522D01*
X132809995Y-74203878D01*
X132782352Y-74199500D01*
X132577648Y-74199500D01*
X132553329Y-74203351D01*
X132375465Y-74231522D01*
X132180776Y-74294781D01*
X131998386Y-74387715D01*
X131832786Y-74508028D01*
X131688028Y-74652786D01*
X131567715Y-74818386D01*
X131474781Y-75000776D01*
X131422431Y-75161894D01*
X131382993Y-75219569D01*
X131318634Y-75246767D01*
X131249788Y-75234852D01*
X131198312Y-75187608D01*
X131180500Y-75123575D01*
X131180500Y-69380096D01*
X131200185Y-69313057D01*
X131216815Y-69292419D01*
X131618713Y-68890521D01*
X131618716Y-68890520D01*
X131730520Y-68778716D01*
X131780639Y-68691904D01*
X131809577Y-68641785D01*
X131850500Y-68489057D01*
X131850500Y-68330943D01*
X131850500Y-67170943D01*
X131809577Y-67018216D01*
X131809577Y-67018215D01*
X131809577Y-67018214D01*
X131780639Y-66968095D01*
X131780637Y-66968092D01*
X131753417Y-66920944D01*
X131730520Y-66881284D01*
X131618716Y-66769480D01*
X131618715Y-66769479D01*
X131614385Y-66765149D01*
X131614374Y-66765139D01*
X131224701Y-66375466D01*
X132100000Y-66375466D01*
X132100000Y-66624533D01*
X132132508Y-66871463D01*
X132196973Y-67112049D01*
X132292283Y-67342148D01*
X132292288Y-67342159D01*
X132416813Y-67557841D01*
X132416819Y-67557849D01*
X132491400Y-67655045D01*
X133398958Y-66747487D01*
X133423978Y-66807890D01*
X133495112Y-66914351D01*
X133585649Y-67004888D01*
X133692110Y-67076022D01*
X133752511Y-67101041D01*
X132844953Y-68008598D01*
X132942150Y-68083180D01*
X132942158Y-68083186D01*
X133157840Y-68207711D01*
X133157851Y-68207716D01*
X133387950Y-68303026D01*
X133628536Y-68367491D01*
X133875466Y-68400000D01*
X134124534Y-68400000D01*
X134371463Y-68367491D01*
X134612049Y-68303026D01*
X134842148Y-68207716D01*
X134842159Y-68207711D01*
X135057855Y-68083178D01*
X135155045Y-68008600D01*
X135155045Y-68008597D01*
X134247488Y-67101041D01*
X134307890Y-67076022D01*
X134414351Y-67004888D01*
X134504888Y-66914351D01*
X134576022Y-66807890D01*
X134601041Y-66747489D01*
X135508597Y-67655045D01*
X135508600Y-67655045D01*
X135583178Y-67557855D01*
X135707711Y-67342159D01*
X135707716Y-67342148D01*
X135803026Y-67112049D01*
X135867491Y-66871463D01*
X135900000Y-66624533D01*
X135900000Y-66375466D01*
X135899997Y-66375441D01*
X137099500Y-66375441D01*
X137099500Y-66624558D01*
X137099501Y-66624575D01*
X137132004Y-66871463D01*
X137132018Y-66871565D01*
X137137303Y-66891287D01*
X137196498Y-67112207D01*
X137291830Y-67342361D01*
X137291837Y-67342376D01*
X137416400Y-67558126D01*
X137568060Y-67755774D01*
X137568066Y-67755781D01*
X137744218Y-67931933D01*
X137744225Y-67931939D01*
X137941873Y-68083599D01*
X138157623Y-68208162D01*
X138157638Y-68208169D01*
X138256825Y-68249253D01*
X138387793Y-68303502D01*
X138628435Y-68367982D01*
X138875435Y-68400500D01*
X138875442Y-68400500D01*
X139124558Y-68400500D01*
X139124565Y-68400500D01*
X139371565Y-68367982D01*
X139612207Y-68303502D01*
X139842373Y-68208164D01*
X140058127Y-68083599D01*
X140255776Y-67931938D01*
X140431938Y-67755776D01*
X140583599Y-67558127D01*
X140708164Y-67342373D01*
X140803502Y-67112207D01*
X140867982Y-66871565D01*
X140900500Y-66624565D01*
X140900500Y-66375435D01*
X140867982Y-66128435D01*
X140803502Y-65887793D01*
X140708257Y-65657851D01*
X140708169Y-65657638D01*
X140708162Y-65657623D01*
X140583599Y-65441873D01*
X140580012Y-65437198D01*
X140524755Y-65365186D01*
X146599500Y-65365186D01*
X146599500Y-65634813D01*
X146629686Y-65902719D01*
X146629687Y-65902728D01*
X146629688Y-65902732D01*
X146640457Y-65949913D01*
X146689684Y-66165594D01*
X146689687Y-66165602D01*
X146778734Y-66420082D01*
X146895714Y-66662994D01*
X146895716Y-66662997D01*
X147039162Y-66891289D01*
X147100413Y-66968095D01*
X147196868Y-67089047D01*
X147207266Y-67102085D01*
X147397915Y-67292734D01*
X147608711Y-67460838D01*
X147837003Y-67604284D01*
X148079921Y-67721267D01*
X148271049Y-67788145D01*
X148334397Y-67810312D01*
X148334405Y-67810315D01*
X148334408Y-67810315D01*
X148334409Y-67810316D01*
X148597268Y-67870312D01*
X148865187Y-67900499D01*
X148865188Y-67900500D01*
X148865191Y-67900500D01*
X149134812Y-67900500D01*
X149134812Y-67900499D01*
X149402732Y-67870312D01*
X149665591Y-67810316D01*
X149920079Y-67721267D01*
X150162997Y-67604284D01*
X150391289Y-67460838D01*
X150602085Y-67292734D01*
X150792734Y-67102085D01*
X150960838Y-66891289D01*
X151104284Y-66662997D01*
X151221267Y-66420079D01*
X151310316Y-66165591D01*
X151370312Y-65902732D01*
X151400500Y-65634809D01*
X151400500Y-65365191D01*
X151370312Y-65097268D01*
X151310316Y-64834409D01*
X151295419Y-64791837D01*
X151262059Y-64696498D01*
X151221267Y-64579921D01*
X151104284Y-64337003D01*
X150960838Y-64108711D01*
X150792734Y-63897915D01*
X150602085Y-63707266D01*
X150391289Y-63539162D01*
X150162997Y-63395716D01*
X150162994Y-63395714D01*
X149920082Y-63278734D01*
X149665602Y-63189687D01*
X149665594Y-63189684D01*
X149468446Y-63144687D01*
X149402732Y-63129688D01*
X149402728Y-63129687D01*
X149402719Y-63129686D01*
X149134813Y-63099500D01*
X149134809Y-63099500D01*
X148865191Y-63099500D01*
X148865186Y-63099500D01*
X148597280Y-63129686D01*
X148597268Y-63129688D01*
X148334405Y-63189684D01*
X148334397Y-63189687D01*
X148079917Y-63278734D01*
X147837005Y-63395714D01*
X147608712Y-63539161D01*
X147397915Y-63707265D01*
X147207265Y-63897915D01*
X147039161Y-64108712D01*
X146895714Y-64337005D01*
X146778734Y-64579917D01*
X146689687Y-64834397D01*
X146689684Y-64834405D01*
X146629688Y-65097268D01*
X146629686Y-65097280D01*
X146599500Y-65365186D01*
X140524755Y-65365186D01*
X140431939Y-65244225D01*
X140431933Y-65244218D01*
X140255781Y-65068066D01*
X140255774Y-65068060D01*
X140058126Y-64916400D01*
X139842376Y-64791837D01*
X139842361Y-64791830D01*
X139612207Y-64696498D01*
X139495349Y-64665186D01*
X139371565Y-64632018D01*
X139371564Y-64632017D01*
X139371561Y-64632017D01*
X139124575Y-64599501D01*
X139124570Y-64599500D01*
X139124565Y-64599500D01*
X138875435Y-64599500D01*
X138875429Y-64599500D01*
X138875424Y-64599501D01*
X138628438Y-64632017D01*
X138387792Y-64696498D01*
X138157638Y-64791830D01*
X138157623Y-64791837D01*
X137941873Y-64916400D01*
X137744225Y-65068060D01*
X137744218Y-65068066D01*
X137568066Y-65244218D01*
X137568060Y-65244225D01*
X137416400Y-65441873D01*
X137291837Y-65657623D01*
X137291830Y-65657638D01*
X137196498Y-65887792D01*
X137132017Y-66128438D01*
X137099501Y-66375424D01*
X137099500Y-66375441D01*
X135899997Y-66375441D01*
X135867491Y-66128536D01*
X135803026Y-65887950D01*
X135707716Y-65657851D01*
X135707711Y-65657840D01*
X135583186Y-65442158D01*
X135583180Y-65442150D01*
X135508598Y-65344953D01*
X134601041Y-66252510D01*
X134576022Y-66192110D01*
X134504888Y-66085649D01*
X134414351Y-65995112D01*
X134307890Y-65923978D01*
X134247487Y-65898957D01*
X135155045Y-64991400D01*
X135057849Y-64916819D01*
X135057841Y-64916813D01*
X134842159Y-64792288D01*
X134842148Y-64792283D01*
X134612049Y-64696973D01*
X134371463Y-64632508D01*
X134124534Y-64600000D01*
X133875466Y-64600000D01*
X133628536Y-64632508D01*
X133387950Y-64696973D01*
X133157851Y-64792283D01*
X133157847Y-64792285D01*
X132942143Y-64916823D01*
X132844953Y-64991399D01*
X132844953Y-64991400D01*
X133752511Y-65898958D01*
X133692110Y-65923978D01*
X133585649Y-65995112D01*
X133495112Y-66085649D01*
X133423978Y-66192110D01*
X133398958Y-66252511D01*
X132491400Y-65344953D01*
X132491399Y-65344953D01*
X132416823Y-65442143D01*
X132292285Y-65657847D01*
X132292283Y-65657851D01*
X132196973Y-65887950D01*
X132132508Y-66128536D01*
X132100000Y-66375466D01*
X131224701Y-66375466D01*
X130988029Y-66138794D01*
X130980521Y-66131286D01*
X130980520Y-66131284D01*
X130868716Y-66019480D01*
X130863274Y-66016338D01*
X130853060Y-66006312D01*
X130839560Y-65982127D01*
X130823230Y-65959759D01*
X130820147Y-65949913D01*
X130817604Y-65940423D01*
X130803502Y-65887793D01*
X130708257Y-65657851D01*
X130708169Y-65657638D01*
X130708162Y-65657623D01*
X130583599Y-65441873D01*
X130431939Y-65244225D01*
X130431933Y-65244218D01*
X130255781Y-65068066D01*
X130255774Y-65068060D01*
X130058126Y-64916400D01*
X129842376Y-64791837D01*
X129842361Y-64791830D01*
X129612207Y-64696498D01*
X129495349Y-64665186D01*
X129371565Y-64632018D01*
X129371564Y-64632017D01*
X129371561Y-64632017D01*
X129124575Y-64599501D01*
X129124570Y-64599500D01*
X129124565Y-64599500D01*
X128875435Y-64599500D01*
X128875429Y-64599500D01*
X128875424Y-64599501D01*
X128628438Y-64632017D01*
X128387792Y-64696498D01*
X128157638Y-64791830D01*
X128157623Y-64791837D01*
X127941873Y-64916400D01*
X127744225Y-65068060D01*
X127744218Y-65068066D01*
X127568066Y-65244218D01*
X127568060Y-65244225D01*
X127416400Y-65441873D01*
X127291837Y-65657623D01*
X127291830Y-65657638D01*
X127196498Y-65887792D01*
X127132017Y-66128438D01*
X127099501Y-66375424D01*
X127099500Y-66375441D01*
X127099500Y-66624558D01*
X127099501Y-66624575D01*
X127132004Y-66871463D01*
X127132018Y-66871565D01*
X127137303Y-66891287D01*
X127196498Y-67112207D01*
X127291830Y-67342361D01*
X127291837Y-67342376D01*
X127416400Y-67558126D01*
X127568060Y-67755774D01*
X127568066Y-67755781D01*
X127744218Y-67931933D01*
X127744225Y-67931939D01*
X127941873Y-68083599D01*
X128157623Y-68208162D01*
X128157638Y-68208169D01*
X128256825Y-68249253D01*
X128387793Y-68303502D01*
X128628435Y-68367982D01*
X128875435Y-68400500D01*
X128875442Y-68400500D01*
X129124558Y-68400500D01*
X129124565Y-68400500D01*
X129371565Y-68367982D01*
X129612207Y-68303502D01*
X129842373Y-68208164D01*
X130058127Y-68083599D01*
X130255776Y-67931938D01*
X130431938Y-67755776D01*
X130431946Y-67755765D01*
X130432263Y-67755405D01*
X130432391Y-67755323D01*
X130434809Y-67752906D01*
X130435349Y-67753446D01*
X130491261Y-67717975D01*
X130561129Y-67718383D01*
X130619686Y-67756500D01*
X130648339Y-67820224D01*
X130649500Y-67837154D01*
X130649500Y-68109902D01*
X130629815Y-68176941D01*
X130613181Y-68197583D01*
X130099481Y-68711282D01*
X130099480Y-68711284D01*
X130060549Y-68778716D01*
X130049361Y-68798094D01*
X130049359Y-68798096D01*
X130020425Y-68848209D01*
X130020424Y-68848210D01*
X130020423Y-68848215D01*
X129979499Y-69000943D01*
X129979499Y-69000945D01*
X129979499Y-69169046D01*
X129979500Y-69169059D01*
X129979500Y-72330902D01*
X129959815Y-72397941D01*
X129907011Y-72443696D01*
X129837853Y-72453640D01*
X129774297Y-72424615D01*
X129767819Y-72418583D01*
X126636819Y-69287583D01*
X126603334Y-69226260D01*
X126600500Y-69199902D01*
X126600500Y-67089060D01*
X126600501Y-67089047D01*
X126600501Y-66920944D01*
X126600501Y-66920943D01*
X126559577Y-66768216D01*
X126557801Y-66765139D01*
X126480524Y-66631290D01*
X126480518Y-66631282D01*
X125868715Y-66019479D01*
X125864429Y-66016190D01*
X125823230Y-65959759D01*
X125820147Y-65949913D01*
X125817604Y-65940423D01*
X125803502Y-65887793D01*
X125708257Y-65657851D01*
X125708169Y-65657638D01*
X125708162Y-65657623D01*
X125583599Y-65441873D01*
X125431939Y-65244225D01*
X125431933Y-65244218D01*
X125255781Y-65068066D01*
X125255774Y-65068060D01*
X125058126Y-64916400D01*
X124842376Y-64791837D01*
X124842361Y-64791830D01*
X124612207Y-64696498D01*
X124495349Y-64665186D01*
X124371565Y-64632018D01*
X124371564Y-64632017D01*
X124371561Y-64632017D01*
X124124575Y-64599501D01*
X124124570Y-64599500D01*
X124124565Y-64599500D01*
X123875435Y-64599500D01*
X123875429Y-64599500D01*
X123875424Y-64599501D01*
X123628438Y-64632017D01*
X123387792Y-64696498D01*
X123157638Y-64791830D01*
X123157623Y-64791837D01*
X122941873Y-64916400D01*
X122744225Y-65068060D01*
X122744218Y-65068066D01*
X122568066Y-65244218D01*
X122568060Y-65244225D01*
X122416400Y-65441873D01*
X122291837Y-65657623D01*
X122291830Y-65657638D01*
X122196498Y-65887792D01*
X122132017Y-66128438D01*
X122099501Y-66375424D01*
X122099500Y-66375441D01*
X122099500Y-66624558D01*
X122099501Y-66624575D01*
X122132004Y-66871463D01*
X122132018Y-66871565D01*
X122137303Y-66891287D01*
X122196498Y-67112207D01*
X122291830Y-67342361D01*
X122291837Y-67342376D01*
X122416400Y-67558126D01*
X122568060Y-67755774D01*
X122568066Y-67755781D01*
X122744218Y-67931933D01*
X122744225Y-67931939D01*
X122941873Y-68083599D01*
X123157623Y-68208162D01*
X123157638Y-68208169D01*
X123256825Y-68249253D01*
X123387793Y-68303502D01*
X123628435Y-68367982D01*
X123875435Y-68400500D01*
X123875442Y-68400500D01*
X124124558Y-68400500D01*
X124124565Y-68400500D01*
X124371565Y-68367982D01*
X124612207Y-68303502D01*
X124842373Y-68208164D01*
X125058127Y-68083599D01*
X125155868Y-68008600D01*
X125200014Y-67974726D01*
X125265183Y-67949532D01*
X125333628Y-67963570D01*
X125383617Y-68012385D01*
X125399500Y-68073102D01*
X125399500Y-69413330D01*
X125399499Y-69413348D01*
X125399499Y-69579054D01*
X125399498Y-69579054D01*
X125440423Y-69731785D01*
X125469358Y-69781900D01*
X125469359Y-69781904D01*
X125469360Y-69781904D01*
X125519479Y-69868714D01*
X125519481Y-69868717D01*
X125638349Y-69987585D01*
X125638355Y-69987590D01*
X129543181Y-73892416D01*
X129557884Y-73919343D01*
X129574477Y-73945162D01*
X129575368Y-73951362D01*
X129576666Y-73953739D01*
X129579500Y-73980097D01*
X129579500Y-74124199D01*
X129559815Y-74191238D01*
X129507011Y-74236993D01*
X129437853Y-74246937D01*
X129417183Y-74242130D01*
X129384542Y-74231524D01*
X129384535Y-74231523D01*
X129222898Y-74205922D01*
X129182352Y-74199500D01*
X128977648Y-74199500D01*
X128953329Y-74203351D01*
X128775465Y-74231522D01*
X128580776Y-74294781D01*
X128398386Y-74387715D01*
X128232786Y-74508028D01*
X128088028Y-74652786D01*
X127967715Y-74818386D01*
X127874781Y-75000776D01*
X127810017Y-75200100D01*
X127809004Y-75199771D01*
X127776766Y-75255922D01*
X127714740Y-75288087D01*
X127645171Y-75281612D01*
X127603300Y-75254065D01*
X121636819Y-69287584D01*
X121603334Y-69226261D01*
X121600500Y-69199903D01*
X121600500Y-66420945D01*
X121600500Y-66420943D01*
X121559577Y-66268216D01*
X121515638Y-66192110D01*
X121480524Y-66131290D01*
X121480521Y-66131286D01*
X121480520Y-66131284D01*
X121368716Y-66019480D01*
X121368714Y-66019479D01*
X121368709Y-66019475D01*
X121231790Y-65940426D01*
X121231786Y-65940424D01*
X121231784Y-65940423D01*
X121079057Y-65899500D01*
X121079056Y-65899500D01*
X120891205Y-65899500D01*
X120824166Y-65879815D01*
X120778411Y-65827011D01*
X120776644Y-65822952D01*
X120708169Y-65657638D01*
X120708162Y-65657623D01*
X120583599Y-65441873D01*
X120431939Y-65244225D01*
X120431933Y-65244218D01*
X120255781Y-65068066D01*
X120255774Y-65068060D01*
X120058126Y-64916400D01*
X119842376Y-64791837D01*
X119842361Y-64791830D01*
X119612207Y-64696498D01*
X119495349Y-64665186D01*
X119371565Y-64632018D01*
X119371564Y-64632017D01*
X119371561Y-64632017D01*
X119124575Y-64599501D01*
X119124570Y-64599500D01*
X119124565Y-64599500D01*
X118875435Y-64599500D01*
X118875429Y-64599500D01*
X118875424Y-64599501D01*
X118628438Y-64632017D01*
X118387792Y-64696498D01*
X118157638Y-64791830D01*
X118157623Y-64791837D01*
X117941873Y-64916400D01*
X117744225Y-65068060D01*
X117744218Y-65068066D01*
X117568066Y-65244218D01*
X117568060Y-65244225D01*
X117416400Y-65441873D01*
X117291837Y-65657623D01*
X117291830Y-65657638D01*
X117196498Y-65887792D01*
X117132017Y-66128438D01*
X117099501Y-66375424D01*
X117099500Y-66375441D01*
X117099500Y-66624558D01*
X117099501Y-66624575D01*
X117132004Y-66871463D01*
X117132018Y-66871565D01*
X117137303Y-66891287D01*
X117196498Y-67112207D01*
X117291830Y-67342361D01*
X117291837Y-67342376D01*
X117416400Y-67558126D01*
X117568060Y-67755774D01*
X117568066Y-67755781D01*
X117744218Y-67931933D01*
X117744225Y-67931939D01*
X117941873Y-68083599D01*
X118157623Y-68208162D01*
X118157638Y-68208169D01*
X118256825Y-68249253D01*
X118387793Y-68303502D01*
X118628435Y-68367982D01*
X118875435Y-68400500D01*
X118875442Y-68400500D01*
X119124558Y-68400500D01*
X119124565Y-68400500D01*
X119371565Y-68367982D01*
X119612207Y-68303502D01*
X119842373Y-68208164D01*
X120058127Y-68083599D01*
X120155868Y-68008600D01*
X120200014Y-67974726D01*
X120265183Y-67949532D01*
X120333628Y-67963570D01*
X120383617Y-68012385D01*
X120399500Y-68073102D01*
X120399500Y-69413330D01*
X120399499Y-69413348D01*
X120399499Y-69579054D01*
X120399498Y-69579054D01*
X120440423Y-69731785D01*
X120469358Y-69781900D01*
X120469359Y-69781904D01*
X120469360Y-69781904D01*
X120519479Y-69868714D01*
X120519481Y-69868717D01*
X120638349Y-69987585D01*
X120638355Y-69987590D01*
X124872535Y-74221770D01*
X124906020Y-74283093D01*
X124901036Y-74352785D01*
X124859164Y-74408718D01*
X124793700Y-74433135D01*
X124725427Y-74418283D01*
X124711969Y-74409770D01*
X124681609Y-74387712D01*
X124499223Y-74294781D01*
X124304534Y-74231522D01*
X124129995Y-74203878D01*
X124102352Y-74199500D01*
X123897648Y-74199500D01*
X123859599Y-74205526D01*
X123695468Y-74231522D01*
X123686717Y-74234365D01*
X123681154Y-74236173D01*
X123611313Y-74238167D01*
X123555157Y-74205922D01*
X120487590Y-71138355D01*
X120487588Y-71138352D01*
X120368717Y-71019481D01*
X120368716Y-71019480D01*
X120281904Y-70969360D01*
X120281904Y-70969359D01*
X120281900Y-70969358D01*
X120231785Y-70940423D01*
X120079057Y-70899499D01*
X119920943Y-70899499D01*
X119913347Y-70899499D01*
X119913331Y-70899500D01*
X116724500Y-70899500D01*
X116657461Y-70879815D01*
X116611706Y-70827011D01*
X116600500Y-70775500D01*
X116600500Y-67089060D01*
X116600501Y-67089047D01*
X116600501Y-66920944D01*
X116600501Y-66920943D01*
X116559577Y-66768216D01*
X116557801Y-66765139D01*
X116480524Y-66631290D01*
X116480518Y-66631282D01*
X115936819Y-66087583D01*
X115903334Y-66026260D01*
X115900500Y-65999902D01*
X115900500Y-65299997D01*
X115900499Y-65299984D01*
X115889999Y-65197204D01*
X115889999Y-65197203D01*
X115834814Y-65030666D01*
X115810594Y-64991400D01*
X115742713Y-64881348D01*
X115742710Y-64881344D01*
X115618655Y-64757289D01*
X115618651Y-64757286D01*
X115469337Y-64665187D01*
X115469335Y-64665186D01*
X115386065Y-64637593D01*
X115302797Y-64610001D01*
X115302795Y-64610000D01*
X115200015Y-64599500D01*
X115200008Y-64599500D01*
X112799992Y-64599500D01*
X112799984Y-64599500D01*
X112697204Y-64610000D01*
X112697203Y-64610001D01*
X112530664Y-64665186D01*
X112530662Y-64665187D01*
X112381348Y-64757286D01*
X112381344Y-64757289D01*
X112257289Y-64881344D01*
X112257286Y-64881348D01*
X112165187Y-65030662D01*
X112165186Y-65030664D01*
X112110001Y-65197203D01*
X112110000Y-65197204D01*
X112099500Y-65299984D01*
X112099500Y-67700015D01*
X112110000Y-67802795D01*
X112110001Y-67802797D01*
X112112493Y-67810316D01*
X112165186Y-67969335D01*
X112165187Y-67969337D01*
X112257286Y-68118651D01*
X112257289Y-68118655D01*
X112381344Y-68242710D01*
X112381348Y-68242713D01*
X112530662Y-68334812D01*
X112530664Y-68334813D01*
X112530666Y-68334814D01*
X112697203Y-68389999D01*
X112799992Y-68400500D01*
X112799997Y-68400500D01*
X115200003Y-68400500D01*
X115200008Y-68400500D01*
X115262897Y-68394075D01*
X115331590Y-68406844D01*
X115382475Y-68454724D01*
X115399500Y-68517433D01*
X115399500Y-70810096D01*
X115379815Y-70877135D01*
X115327011Y-70922890D01*
X115307597Y-70929870D01*
X115268217Y-70940422D01*
X115268209Y-70940426D01*
X115131290Y-71019475D01*
X115131282Y-71019481D01*
X114839481Y-71311282D01*
X114839479Y-71311285D01*
X114789361Y-71398094D01*
X114789359Y-71398096D01*
X114760425Y-71448209D01*
X114760424Y-71448210D01*
X114760423Y-71448215D01*
X114719499Y-71600943D01*
X114719499Y-71600945D01*
X114719499Y-71769046D01*
X114719500Y-71769059D01*
X114719500Y-74270397D01*
X114699815Y-74337436D01*
X114651800Y-74380879D01*
X114638389Y-74387712D01*
X114472786Y-74508028D01*
X114328028Y-74652786D01*
X114207715Y-74818386D01*
X114114781Y-75000776D01*
X114051522Y-75195465D01*
X114019500Y-75397648D01*
X114019500Y-75602351D01*
X114051522Y-75804534D01*
X114114781Y-75999223D01*
X114166385Y-76100500D01*
X114195408Y-76157461D01*
X114207715Y-76181613D01*
X114328028Y-76347213D01*
X114328034Y-76347219D01*
X114472781Y-76491966D01*
X114638390Y-76612287D01*
X114651793Y-76619116D01*
X114702589Y-76667088D01*
X114719500Y-76729601D01*
X114719500Y-78320397D01*
X114699815Y-78387436D01*
X114651800Y-78430879D01*
X114638389Y-78437712D01*
X114472786Y-78558028D01*
X114328028Y-78702786D01*
X114207715Y-78868386D01*
X114114781Y-79050776D01*
X114051522Y-79245465D01*
X114019500Y-79447648D01*
X114019500Y-79652351D01*
X114051522Y-79854534D01*
X114114781Y-80049223D01*
X114207715Y-80231613D01*
X114328028Y-80397213D01*
X114328034Y-80397219D01*
X114472781Y-80541966D01*
X114638390Y-80662287D01*
X114651793Y-80669116D01*
X114702589Y-80717088D01*
X114719500Y-80779601D01*
X114719500Y-82370397D01*
X114699815Y-82437436D01*
X114651800Y-82480879D01*
X114638389Y-82487712D01*
X114472786Y-82608028D01*
X114328028Y-82752786D01*
X114207715Y-82918386D01*
X114114781Y-83100776D01*
X114051522Y-83295465D01*
X114019500Y-83497648D01*
X114019500Y-83702351D01*
X114051522Y-83904534D01*
X114114781Y-84099223D01*
X114207715Y-84281613D01*
X114328028Y-84447213D01*
X114328034Y-84447219D01*
X114472781Y-84591966D01*
X114638390Y-84712287D01*
X114651793Y-84719116D01*
X114702589Y-84767088D01*
X114719500Y-84829601D01*
X114719500Y-86420397D01*
X114699815Y-86487436D01*
X114651800Y-86530879D01*
X114638389Y-86537712D01*
X114472786Y-86658028D01*
X114328028Y-86802786D01*
X114207715Y-86968386D01*
X114114781Y-87150776D01*
X114051522Y-87345465D01*
X114019500Y-87547648D01*
X114019500Y-87752351D01*
X114051522Y-87954534D01*
X114114781Y-88149223D01*
X114207715Y-88331613D01*
X114328028Y-88497213D01*
X114328034Y-88497219D01*
X114472781Y-88641966D01*
X114638390Y-88762287D01*
X114651793Y-88769116D01*
X114702589Y-88817088D01*
X114719500Y-88879601D01*
X114719500Y-90470397D01*
X114699815Y-90537436D01*
X114651800Y-90580879D01*
X114638389Y-90587712D01*
X114472786Y-90708028D01*
X114328028Y-90852786D01*
X114207715Y-91018386D01*
X114114781Y-91200776D01*
X114051522Y-91395465D01*
X114019500Y-91597648D01*
X114019500Y-91802351D01*
X114051522Y-92004534D01*
X114114781Y-92199223D01*
X114207715Y-92381613D01*
X114328028Y-92547213D01*
X114328034Y-92547219D01*
X114472781Y-92691966D01*
X114638390Y-92812287D01*
X114651793Y-92819116D01*
X114702589Y-92867088D01*
X114719500Y-92929601D01*
X114719500Y-94520397D01*
X114699815Y-94587436D01*
X114651800Y-94630879D01*
X114638389Y-94637712D01*
X114472786Y-94758028D01*
X114328028Y-94902786D01*
X114207715Y-95068386D01*
X114114781Y-95250776D01*
X114051522Y-95445465D01*
X114019500Y-95647648D01*
X114019500Y-95852351D01*
X114051522Y-96054534D01*
X114114781Y-96249223D01*
X114207715Y-96431613D01*
X114328028Y-96597213D01*
X114328034Y-96597219D01*
X114472781Y-96741966D01*
X114638390Y-96862287D01*
X114651793Y-96869116D01*
X114702589Y-96917088D01*
X114719500Y-96979601D01*
X114719500Y-98570397D01*
X114699815Y-98637436D01*
X114651800Y-98680879D01*
X114638389Y-98687712D01*
X114472786Y-98808028D01*
X114328028Y-98952786D01*
X114207715Y-99118386D01*
X114114781Y-99300776D01*
X114051522Y-99495465D01*
X114031080Y-99624533D01*
X114019500Y-99697648D01*
X114019500Y-99902352D01*
X114023878Y-99929995D01*
X114051522Y-100104534D01*
X114114781Y-100299223D01*
X114207715Y-100481613D01*
X114328028Y-100647213D01*
X114472786Y-100791971D01*
X114584267Y-100872965D01*
X114638390Y-100912287D01*
X114719499Y-100953614D01*
X114820776Y-101005218D01*
X114820778Y-101005218D01*
X114820781Y-101005220D01*
X114895818Y-101029601D01*
X115015465Y-101068477D01*
X115108283Y-101083178D01*
X115217648Y-101100500D01*
X115217649Y-101100500D01*
X115422351Y-101100500D01*
X115422352Y-101100500D01*
X115624534Y-101068477D01*
X115819219Y-101005220D01*
X116001610Y-100912287D01*
X116094590Y-100844732D01*
X116167213Y-100791971D01*
X116167215Y-100791968D01*
X116167219Y-100791966D01*
X116187819Y-100771366D01*
X116249142Y-100737881D01*
X116318834Y-100742865D01*
X116374767Y-100784737D01*
X116399184Y-100850201D01*
X116399500Y-100859047D01*
X116399500Y-104285769D01*
X116379815Y-104352808D01*
X116337501Y-104393156D01*
X116231284Y-104454481D01*
X116231281Y-104454483D01*
X115502583Y-105183181D01*
X115441260Y-105216666D01*
X115414902Y-105219500D01*
X114167129Y-105219500D01*
X114167123Y-105219501D01*
X114107516Y-105225908D01*
X113972671Y-105276202D01*
X113972664Y-105276206D01*
X113857455Y-105362452D01*
X113857452Y-105362455D01*
X113771206Y-105477664D01*
X113771202Y-105477671D01*
X113720908Y-105612517D01*
X113714501Y-105672116D01*
X113714500Y-105672135D01*
X113714500Y-107367870D01*
X113714501Y-107367876D01*
X113720908Y-107427483D01*
X113771202Y-107562328D01*
X113771206Y-107562335D01*
X113857452Y-107677544D01*
X113857455Y-107677547D01*
X113972664Y-107763793D01*
X113972671Y-107763797D01*
X114017618Y-107780561D01*
X114107517Y-107814091D01*
X114144441Y-107818060D01*
X114208989Y-107844796D01*
X114248838Y-107902188D01*
X114251333Y-107972013D01*
X114215681Y-108032102D01*
X114204071Y-108041666D01*
X114167784Y-108068030D01*
X114023028Y-108212786D01*
X113902715Y-108378386D01*
X113809781Y-108560776D01*
X113746522Y-108755465D01*
X113714500Y-108957648D01*
X113714500Y-109162351D01*
X113746522Y-109364534D01*
X113809781Y-109559223D01*
X113869907Y-109677225D01*
X113893668Y-109723859D01*
X113902715Y-109741613D01*
X114023028Y-109907213D01*
X114167786Y-110051971D01*
X114268333Y-110125021D01*
X114333390Y-110172287D01*
X114424840Y-110218883D01*
X114426080Y-110219515D01*
X114476876Y-110267490D01*
X114493671Y-110335311D01*
X114471134Y-110401446D01*
X114426080Y-110440485D01*
X114333386Y-110487715D01*
X114167786Y-110608028D01*
X114023028Y-110752786D01*
X113902715Y-110918386D01*
X113809781Y-111100776D01*
X113746522Y-111295465D01*
X113714500Y-111497648D01*
X113714500Y-111702351D01*
X113746522Y-111904534D01*
X113809781Y-112099223D01*
X113869907Y-112217225D01*
X113902589Y-112281367D01*
X113902715Y-112281613D01*
X114023028Y-112447213D01*
X114167786Y-112591971D01*
X114311658Y-112696498D01*
X114333390Y-112712287D01*
X114424840Y-112758883D01*
X114426080Y-112759515D01*
X114476876Y-112807490D01*
X114493671Y-112875311D01*
X114471134Y-112941446D01*
X114426080Y-112980485D01*
X114333386Y-113027715D01*
X114167786Y-113148028D01*
X114023028Y-113292786D01*
X113902715Y-113458386D01*
X113809781Y-113640776D01*
X113753556Y-113813819D01*
X113714118Y-113871494D01*
X113649759Y-113898692D01*
X113635625Y-113899500D01*
X105391205Y-113899500D01*
X105324166Y-113879815D01*
X105278411Y-113827011D01*
X105276644Y-113822952D01*
X105208169Y-113657638D01*
X105208162Y-113657623D01*
X105083599Y-113441873D01*
X104931939Y-113244225D01*
X104931933Y-113244218D01*
X104755781Y-113068066D01*
X104755774Y-113068060D01*
X104558126Y-112916400D01*
X104342376Y-112791837D01*
X104342361Y-112791830D01*
X104112207Y-112696498D01*
X103871561Y-112632017D01*
X103624575Y-112599501D01*
X103624570Y-112599500D01*
X103624565Y-112599500D01*
X103375435Y-112599500D01*
X103375429Y-112599500D01*
X103375424Y-112599501D01*
X103128438Y-112632017D01*
X102887792Y-112696498D01*
X102657638Y-112791830D01*
X102657623Y-112791837D01*
X102441873Y-112916400D01*
X102244225Y-113068060D01*
X102244218Y-113068066D01*
X102068066Y-113244218D01*
X102068060Y-113244225D01*
X101916400Y-113441873D01*
X101791837Y-113657623D01*
X101791830Y-113657638D01*
X101696498Y-113887792D01*
X101632017Y-114128438D01*
X101599501Y-114375424D01*
X101599500Y-114375441D01*
X99000000Y-114375441D01*
X99000000Y-109375466D01*
X101600000Y-109375466D01*
X101600000Y-109624533D01*
X101632508Y-109871463D01*
X101696973Y-110112049D01*
X101792283Y-110342148D01*
X101792288Y-110342159D01*
X101916813Y-110557841D01*
X101916819Y-110557849D01*
X101991400Y-110655045D01*
X102898958Y-109747487D01*
X102923978Y-109807890D01*
X102995112Y-109914351D01*
X103085649Y-110004888D01*
X103192110Y-110076022D01*
X103252511Y-110101041D01*
X102344953Y-111008598D01*
X102442150Y-111083180D01*
X102442158Y-111083186D01*
X102657840Y-111207711D01*
X102657851Y-111207716D01*
X102887950Y-111303026D01*
X103128536Y-111367491D01*
X103375466Y-111400000D01*
X103624534Y-111400000D01*
X103871463Y-111367491D01*
X104112049Y-111303026D01*
X104342148Y-111207716D01*
X104342159Y-111207711D01*
X104557855Y-111083178D01*
X104655045Y-111008600D01*
X104655045Y-111008597D01*
X103747488Y-110101041D01*
X103807890Y-110076022D01*
X103914351Y-110004888D01*
X104004888Y-109914351D01*
X104076022Y-109807890D01*
X104101041Y-109747488D01*
X105008597Y-110655045D01*
X105008600Y-110655045D01*
X105083178Y-110557855D01*
X105207711Y-110342159D01*
X105207716Y-110342148D01*
X105303026Y-110112049D01*
X105367491Y-109871463D01*
X105400000Y-109624533D01*
X105400000Y-109375466D01*
X105367491Y-109128536D01*
X105303026Y-108887950D01*
X105207716Y-108657851D01*
X105207711Y-108657840D01*
X105083186Y-108442158D01*
X105083180Y-108442150D01*
X105008598Y-108344953D01*
X104101041Y-109252510D01*
X104076022Y-109192110D01*
X104004888Y-109085649D01*
X103914351Y-108995112D01*
X103807890Y-108923978D01*
X103747487Y-108898957D01*
X104655045Y-107991400D01*
X104557849Y-107916819D01*
X104557841Y-107916813D01*
X104342159Y-107792288D01*
X104342148Y-107792283D01*
X104112049Y-107696973D01*
X103871463Y-107632508D01*
X103624534Y-107600000D01*
X103375466Y-107600000D01*
X103128536Y-107632508D01*
X102887950Y-107696973D01*
X102657851Y-107792283D01*
X102657847Y-107792285D01*
X102442143Y-107916823D01*
X102344953Y-107991399D01*
X102344953Y-107991400D01*
X103252511Y-108898958D01*
X103192110Y-108923978D01*
X103085649Y-108995112D01*
X102995112Y-109085649D01*
X102923978Y-109192110D01*
X102898958Y-109252511D01*
X101991400Y-108344953D01*
X101991399Y-108344953D01*
X101916823Y-108442143D01*
X101792285Y-108657847D01*
X101792283Y-108657851D01*
X101696973Y-108887950D01*
X101632508Y-109128536D01*
X101600000Y-109375466D01*
X99000000Y-109375466D01*
X99000000Y-104375441D01*
X101599500Y-104375441D01*
X101599500Y-104624558D01*
X101599501Y-104624575D01*
X101632017Y-104871561D01*
X101696498Y-105112207D01*
X101791830Y-105342361D01*
X101791837Y-105342376D01*
X101916400Y-105558126D01*
X102068060Y-105755774D01*
X102068066Y-105755781D01*
X102244218Y-105931933D01*
X102244225Y-105931939D01*
X102441873Y-106083599D01*
X102657623Y-106208162D01*
X102657638Y-106208169D01*
X102756825Y-106249253D01*
X102887793Y-106303502D01*
X103128435Y-106367982D01*
X103375435Y-106400500D01*
X103375442Y-106400500D01*
X103624558Y-106400500D01*
X103624565Y-106400500D01*
X103871565Y-106367982D01*
X104112207Y-106303502D01*
X104342373Y-106208164D01*
X104558127Y-106083599D01*
X104755776Y-105931938D01*
X104931938Y-105755776D01*
X105083599Y-105558127D01*
X105208164Y-105342373D01*
X105303502Y-105112207D01*
X105367982Y-104871565D01*
X105400500Y-104624565D01*
X105400500Y-104375435D01*
X105367982Y-104128435D01*
X105303502Y-103887793D01*
X105208164Y-103657627D01*
X105184747Y-103617068D01*
X105083599Y-103441873D01*
X104931939Y-103244225D01*
X104931933Y-103244218D01*
X104755781Y-103068066D01*
X104755774Y-103068060D01*
X104558126Y-102916400D01*
X104342376Y-102791837D01*
X104342361Y-102791830D01*
X104112207Y-102696498D01*
X103871561Y-102632017D01*
X103624575Y-102599501D01*
X103624570Y-102599500D01*
X103624565Y-102599500D01*
X103375435Y-102599500D01*
X103375429Y-102599500D01*
X103375424Y-102599501D01*
X103128438Y-102632017D01*
X102887792Y-102696498D01*
X102657638Y-102791830D01*
X102657623Y-102791837D01*
X102441873Y-102916400D01*
X102244225Y-103068060D01*
X102244218Y-103068066D01*
X102068066Y-103244218D01*
X102068060Y-103244225D01*
X101916400Y-103441873D01*
X101791837Y-103657623D01*
X101791830Y-103657638D01*
X101696498Y-103887792D01*
X101632017Y-104128438D01*
X101599501Y-104375424D01*
X101599500Y-104375441D01*
X99000000Y-104375441D01*
X99000000Y-99375466D01*
X101600000Y-99375466D01*
X101600000Y-99624533D01*
X101632508Y-99871463D01*
X101696973Y-100112049D01*
X101792283Y-100342148D01*
X101792288Y-100342159D01*
X101916813Y-100557841D01*
X101916819Y-100557849D01*
X101991400Y-100655045D01*
X102898958Y-99747487D01*
X102923978Y-99807890D01*
X102995112Y-99914351D01*
X103085649Y-100004888D01*
X103192110Y-100076022D01*
X103252511Y-100101041D01*
X102344953Y-101008598D01*
X102442150Y-101083180D01*
X102442158Y-101083186D01*
X102657840Y-101207711D01*
X102657851Y-101207716D01*
X102887950Y-101303026D01*
X103128536Y-101367491D01*
X103375466Y-101400000D01*
X103624534Y-101400000D01*
X103871463Y-101367491D01*
X104112049Y-101303026D01*
X104342148Y-101207716D01*
X104342159Y-101207711D01*
X104557855Y-101083178D01*
X104655045Y-101008600D01*
X104655045Y-101008597D01*
X103747488Y-100101041D01*
X103807890Y-100076022D01*
X103914351Y-100004888D01*
X104004888Y-99914351D01*
X104076022Y-99807890D01*
X104101041Y-99747488D01*
X105008597Y-100655045D01*
X105008600Y-100655045D01*
X105083178Y-100557855D01*
X105207711Y-100342159D01*
X105207716Y-100342148D01*
X105303026Y-100112049D01*
X105367491Y-99871463D01*
X105400000Y-99624533D01*
X105400000Y-99375466D01*
X105367491Y-99128536D01*
X105303026Y-98887950D01*
X105207716Y-98657851D01*
X105207711Y-98657840D01*
X105083186Y-98442158D01*
X105083180Y-98442150D01*
X105008598Y-98344953D01*
X104101041Y-99252510D01*
X104076022Y-99192110D01*
X104004888Y-99085649D01*
X103914351Y-98995112D01*
X103807890Y-98923978D01*
X103747487Y-98898957D01*
X104655045Y-97991400D01*
X104557849Y-97916819D01*
X104557841Y-97916813D01*
X104342159Y-97792288D01*
X104342148Y-97792283D01*
X104112049Y-97696973D01*
X103871463Y-97632508D01*
X103624534Y-97600000D01*
X103375466Y-97600000D01*
X103128536Y-97632508D01*
X102887950Y-97696973D01*
X102657851Y-97792283D01*
X102657847Y-97792285D01*
X102442143Y-97916823D01*
X102344953Y-97991399D01*
X102344953Y-97991400D01*
X103252511Y-98898958D01*
X103192110Y-98923978D01*
X103085649Y-98995112D01*
X102995112Y-99085649D01*
X102923978Y-99192110D01*
X102898958Y-99252511D01*
X101991400Y-98344953D01*
X101991399Y-98344953D01*
X101916823Y-98442143D01*
X101792285Y-98657847D01*
X101792283Y-98657851D01*
X101696973Y-98887950D01*
X101632508Y-99128536D01*
X101600000Y-99375466D01*
X99000000Y-99375466D01*
X99000000Y-94375441D01*
X101599500Y-94375441D01*
X101599500Y-94624558D01*
X101599501Y-94624575D01*
X101632017Y-94871561D01*
X101696498Y-95112207D01*
X101791830Y-95342361D01*
X101791837Y-95342376D01*
X101916400Y-95558126D01*
X102068060Y-95755774D01*
X102068066Y-95755781D01*
X102244218Y-95931933D01*
X102244225Y-95931939D01*
X102441873Y-96083599D01*
X102657623Y-96208162D01*
X102657638Y-96208169D01*
X102718552Y-96233400D01*
X102887793Y-96303502D01*
X103128435Y-96367982D01*
X103375435Y-96400500D01*
X103375442Y-96400500D01*
X103624558Y-96400500D01*
X103624565Y-96400500D01*
X103871565Y-96367982D01*
X104112207Y-96303502D01*
X104342373Y-96208164D01*
X104558127Y-96083599D01*
X104755776Y-95931938D01*
X104931938Y-95755776D01*
X105083599Y-95558127D01*
X105208164Y-95342373D01*
X105303502Y-95112207D01*
X105367982Y-94871565D01*
X105400500Y-94624565D01*
X105400500Y-94375435D01*
X105367982Y-94128435D01*
X105303502Y-93887793D01*
X105235021Y-93722466D01*
X105208169Y-93657638D01*
X105208162Y-93657623D01*
X105083599Y-93441873D01*
X104931939Y-93244225D01*
X104931933Y-93244218D01*
X104755778Y-93068063D01*
X104755774Y-93068060D01*
X104558126Y-92916400D01*
X104342376Y-92791837D01*
X104342361Y-92791830D01*
X104112207Y-92696498D01*
X103871561Y-92632017D01*
X103624575Y-92599501D01*
X103624570Y-92599500D01*
X103624565Y-92599500D01*
X103375435Y-92599500D01*
X103375429Y-92599500D01*
X103375424Y-92599501D01*
X103128438Y-92632017D01*
X102887792Y-92696498D01*
X102657638Y-92791830D01*
X102657623Y-92791837D01*
X102441873Y-92916400D01*
X102244225Y-93068060D01*
X102244222Y-93068063D01*
X102068066Y-93244218D01*
X102068060Y-93244225D01*
X101916400Y-93441873D01*
X101791837Y-93657623D01*
X101791830Y-93657638D01*
X101696498Y-93887792D01*
X101632017Y-94128438D01*
X101599501Y-94375424D01*
X101599500Y-94375441D01*
X99000000Y-94375441D01*
X99000000Y-89375466D01*
X101600000Y-89375466D01*
X101600000Y-89624533D01*
X101632508Y-89871463D01*
X101696973Y-90112049D01*
X101792283Y-90342148D01*
X101792288Y-90342159D01*
X101916813Y-90557841D01*
X101916819Y-90557849D01*
X101991400Y-90655045D01*
X102898958Y-89747487D01*
X102923978Y-89807890D01*
X102995112Y-89914351D01*
X103085649Y-90004888D01*
X103192110Y-90076022D01*
X103252511Y-90101041D01*
X102344953Y-91008598D01*
X102442150Y-91083180D01*
X102442158Y-91083186D01*
X102657840Y-91207711D01*
X102657851Y-91207716D01*
X102887950Y-91303026D01*
X103128536Y-91367491D01*
X103375466Y-91400000D01*
X103624534Y-91400000D01*
X103871463Y-91367491D01*
X104112049Y-91303026D01*
X104342148Y-91207716D01*
X104342159Y-91207711D01*
X104557855Y-91083178D01*
X104655045Y-91008600D01*
X104655045Y-91008597D01*
X103747488Y-90101041D01*
X103807890Y-90076022D01*
X103914351Y-90004888D01*
X104004888Y-89914351D01*
X104076022Y-89807890D01*
X104101041Y-89747488D01*
X105008597Y-90655045D01*
X105008600Y-90655045D01*
X105083178Y-90557855D01*
X105207711Y-90342159D01*
X105207716Y-90342148D01*
X105303026Y-90112049D01*
X105367491Y-89871463D01*
X105400000Y-89624533D01*
X105400000Y-89375466D01*
X105367491Y-89128536D01*
X105303026Y-88887950D01*
X105207716Y-88657851D01*
X105207711Y-88657840D01*
X105083186Y-88442158D01*
X105083180Y-88442150D01*
X105008598Y-88344953D01*
X104101041Y-89252510D01*
X104076022Y-89192110D01*
X104004888Y-89085649D01*
X103914351Y-88995112D01*
X103807890Y-88923978D01*
X103747487Y-88898957D01*
X104655045Y-87991400D01*
X104557849Y-87916819D01*
X104557841Y-87916813D01*
X104342159Y-87792288D01*
X104342148Y-87792283D01*
X104112049Y-87696973D01*
X103871463Y-87632508D01*
X103624534Y-87600000D01*
X103375466Y-87600000D01*
X103128536Y-87632508D01*
X102887950Y-87696973D01*
X102657851Y-87792283D01*
X102657847Y-87792285D01*
X102442143Y-87916823D01*
X102344953Y-87991399D01*
X102344953Y-87991400D01*
X103252511Y-88898958D01*
X103192110Y-88923978D01*
X103085649Y-88995112D01*
X102995112Y-89085649D01*
X102923978Y-89192110D01*
X102898958Y-89252511D01*
X101991400Y-88344953D01*
X101991399Y-88344953D01*
X101916823Y-88442143D01*
X101792285Y-88657847D01*
X101792283Y-88657851D01*
X101696973Y-88887950D01*
X101632508Y-89128536D01*
X101600000Y-89375466D01*
X99000000Y-89375466D01*
X99000000Y-84375441D01*
X101599500Y-84375441D01*
X101599500Y-84624558D01*
X101599501Y-84624575D01*
X101632017Y-84871561D01*
X101696498Y-85112207D01*
X101791830Y-85342361D01*
X101791837Y-85342376D01*
X101916400Y-85558126D01*
X102068060Y-85755774D01*
X102068066Y-85755781D01*
X102244218Y-85931933D01*
X102244225Y-85931939D01*
X102441873Y-86083599D01*
X102657623Y-86208162D01*
X102657638Y-86208169D01*
X102708067Y-86229057D01*
X102887793Y-86303502D01*
X103128435Y-86367982D01*
X103375435Y-86400500D01*
X103375442Y-86400500D01*
X103624558Y-86400500D01*
X103624565Y-86400500D01*
X103871565Y-86367982D01*
X104112207Y-86303502D01*
X104342373Y-86208164D01*
X104558127Y-86083599D01*
X104755776Y-85931938D01*
X104931938Y-85755776D01*
X105083599Y-85558127D01*
X105208164Y-85342373D01*
X105303502Y-85112207D01*
X105367982Y-84871565D01*
X105400500Y-84624565D01*
X105400500Y-84375435D01*
X105367982Y-84128435D01*
X105303502Y-83887793D01*
X105226690Y-83702352D01*
X105208169Y-83657638D01*
X105208162Y-83657623D01*
X105083599Y-83441873D01*
X104931939Y-83244225D01*
X104931933Y-83244218D01*
X104755781Y-83068066D01*
X104755774Y-83068060D01*
X104558126Y-82916400D01*
X104342376Y-82791837D01*
X104342361Y-82791830D01*
X104112207Y-82696498D01*
X103989770Y-82663691D01*
X103871565Y-82632018D01*
X103871564Y-82632017D01*
X103871561Y-82632017D01*
X103624575Y-82599501D01*
X103624570Y-82599500D01*
X103624565Y-82599500D01*
X103375435Y-82599500D01*
X103375429Y-82599500D01*
X103375424Y-82599501D01*
X103128438Y-82632017D01*
X102887792Y-82696498D01*
X102657638Y-82791830D01*
X102657623Y-82791837D01*
X102441873Y-82916400D01*
X102244225Y-83068060D01*
X102244218Y-83068066D01*
X102068066Y-83244218D01*
X102068060Y-83244225D01*
X101916400Y-83441873D01*
X101791837Y-83657623D01*
X101791830Y-83657638D01*
X101696498Y-83887792D01*
X101632017Y-84128438D01*
X101599501Y-84375424D01*
X101599500Y-84375441D01*
X99000000Y-84375441D01*
X99000000Y-79375466D01*
X101600000Y-79375466D01*
X101600000Y-79624533D01*
X101632508Y-79871463D01*
X101696973Y-80112049D01*
X101792283Y-80342148D01*
X101792288Y-80342159D01*
X101916813Y-80557841D01*
X101916819Y-80557849D01*
X101991400Y-80655045D01*
X102898958Y-79747487D01*
X102923978Y-79807890D01*
X102995112Y-79914351D01*
X103085649Y-80004888D01*
X103192110Y-80076022D01*
X103252511Y-80101041D01*
X102344953Y-81008598D01*
X102442150Y-81083180D01*
X102442158Y-81083186D01*
X102657840Y-81207711D01*
X102657851Y-81207716D01*
X102887950Y-81303026D01*
X103128536Y-81367491D01*
X103375466Y-81400000D01*
X103624534Y-81400000D01*
X103871463Y-81367491D01*
X104112049Y-81303026D01*
X104342148Y-81207716D01*
X104342159Y-81207711D01*
X104557855Y-81083178D01*
X104655045Y-81008600D01*
X104655045Y-81008597D01*
X103747488Y-80101041D01*
X103807890Y-80076022D01*
X103914351Y-80004888D01*
X104004888Y-79914351D01*
X104076022Y-79807890D01*
X104101041Y-79747488D01*
X105008597Y-80655045D01*
X105008600Y-80655045D01*
X105083178Y-80557855D01*
X105207711Y-80342159D01*
X105207716Y-80342148D01*
X105303026Y-80112049D01*
X105367491Y-79871463D01*
X105400000Y-79624533D01*
X105400000Y-79375466D01*
X105367491Y-79128536D01*
X105303026Y-78887950D01*
X105207716Y-78657851D01*
X105207711Y-78657840D01*
X105083186Y-78442158D01*
X105083180Y-78442150D01*
X105008598Y-78344953D01*
X104101041Y-79252510D01*
X104076022Y-79192110D01*
X104004888Y-79085649D01*
X103914351Y-78995112D01*
X103807890Y-78923978D01*
X103747487Y-78898957D01*
X104655045Y-77991400D01*
X104557849Y-77916819D01*
X104557841Y-77916813D01*
X104342159Y-77792288D01*
X104342148Y-77792283D01*
X104112049Y-77696973D01*
X103871463Y-77632508D01*
X103624534Y-77600000D01*
X103375466Y-77600000D01*
X103128536Y-77632508D01*
X102887950Y-77696973D01*
X102657851Y-77792283D01*
X102657847Y-77792285D01*
X102442143Y-77916823D01*
X102344953Y-77991399D01*
X102344953Y-77991400D01*
X103252511Y-78898958D01*
X103192110Y-78923978D01*
X103085649Y-78995112D01*
X102995112Y-79085649D01*
X102923978Y-79192110D01*
X102898958Y-79252511D01*
X101991400Y-78344953D01*
X101991399Y-78344953D01*
X101916823Y-78442143D01*
X101792285Y-78657847D01*
X101792283Y-78657851D01*
X101696973Y-78887950D01*
X101632508Y-79128536D01*
X101600000Y-79375466D01*
X99000000Y-79375466D01*
X99000000Y-74375441D01*
X101599500Y-74375441D01*
X101599500Y-74624558D01*
X101599501Y-74624575D01*
X101625016Y-74818386D01*
X101632018Y-74871565D01*
X101651995Y-74946119D01*
X101696498Y-75112207D01*
X101791830Y-75342361D01*
X101791837Y-75342376D01*
X101916400Y-75558126D01*
X102068060Y-75755774D01*
X102068066Y-75755781D01*
X102244218Y-75931933D01*
X102244225Y-75931939D01*
X102441873Y-76083599D01*
X102657623Y-76208162D01*
X102657638Y-76208169D01*
X102702466Y-76226737D01*
X102887793Y-76303502D01*
X103128435Y-76367982D01*
X103375435Y-76400500D01*
X103375442Y-76400500D01*
X103624558Y-76400500D01*
X103624565Y-76400500D01*
X103871565Y-76367982D01*
X104112207Y-76303502D01*
X104342373Y-76208164D01*
X104558127Y-76083599D01*
X104755776Y-75931938D01*
X104931938Y-75755776D01*
X105083599Y-75558127D01*
X105208164Y-75342373D01*
X105303502Y-75112207D01*
X105367982Y-74871565D01*
X105400500Y-74624565D01*
X105400500Y-74375435D01*
X105367982Y-74128435D01*
X105303502Y-73887793D01*
X105208164Y-73657627D01*
X105083599Y-73441873D01*
X104931938Y-73244224D01*
X104931933Y-73244218D01*
X104755781Y-73068066D01*
X104755774Y-73068060D01*
X104558126Y-72916400D01*
X104342376Y-72791837D01*
X104342361Y-72791830D01*
X104112207Y-72696498D01*
X103871561Y-72632017D01*
X103624575Y-72599501D01*
X103624570Y-72599500D01*
X103624565Y-72599500D01*
X103375435Y-72599500D01*
X103375429Y-72599500D01*
X103375424Y-72599501D01*
X103128438Y-72632017D01*
X102887792Y-72696498D01*
X102657638Y-72791830D01*
X102657623Y-72791837D01*
X102441873Y-72916400D01*
X102244225Y-73068060D01*
X102244218Y-73068066D01*
X102068066Y-73244218D01*
X102068060Y-73244225D01*
X101916400Y-73441873D01*
X101791837Y-73657623D01*
X101791830Y-73657638D01*
X101696498Y-73887792D01*
X101632017Y-74128438D01*
X101599501Y-74375424D01*
X101599500Y-74375441D01*
X99000000Y-74375441D01*
X99000000Y-65365186D01*
X101599500Y-65365186D01*
X101599500Y-65634813D01*
X101629686Y-65902719D01*
X101629687Y-65902728D01*
X101629688Y-65902732D01*
X101640457Y-65949913D01*
X101689684Y-66165594D01*
X101689687Y-66165602D01*
X101778734Y-66420082D01*
X101895714Y-66662994D01*
X101895716Y-66662997D01*
X102039162Y-66891289D01*
X102100413Y-66968095D01*
X102196868Y-67089047D01*
X102207266Y-67102085D01*
X102397915Y-67292734D01*
X102608711Y-67460838D01*
X102837003Y-67604284D01*
X103079921Y-67721267D01*
X103271049Y-67788145D01*
X103334397Y-67810312D01*
X103334405Y-67810315D01*
X103334408Y-67810315D01*
X103334409Y-67810316D01*
X103597268Y-67870312D01*
X103865187Y-67900499D01*
X103865188Y-67900500D01*
X103865191Y-67900500D01*
X104134812Y-67900500D01*
X104134812Y-67900499D01*
X104402732Y-67870312D01*
X104665591Y-67810316D01*
X104920079Y-67721267D01*
X105162997Y-67604284D01*
X105391289Y-67460838D01*
X105602085Y-67292734D01*
X105792734Y-67102085D01*
X105960838Y-66891289D01*
X106104284Y-66662997D01*
X106221267Y-66420079D01*
X106310316Y-66165591D01*
X106370312Y-65902732D01*
X106400500Y-65634809D01*
X106400500Y-65365191D01*
X106370312Y-65097268D01*
X106310316Y-64834409D01*
X106295419Y-64791837D01*
X106262059Y-64696498D01*
X106221267Y-64579921D01*
X106104284Y-64337003D01*
X105960838Y-64108711D01*
X105792734Y-63897915D01*
X105602085Y-63707266D01*
X105391289Y-63539162D01*
X105162997Y-63395716D01*
X105162994Y-63395714D01*
X104920082Y-63278734D01*
X104665602Y-63189687D01*
X104665594Y-63189684D01*
X104468446Y-63144687D01*
X104402732Y-63129688D01*
X104402728Y-63129687D01*
X104402719Y-63129686D01*
X104134813Y-63099500D01*
X104134809Y-63099500D01*
X103865191Y-63099500D01*
X103865186Y-63099500D01*
X103597280Y-63129686D01*
X103597268Y-63129688D01*
X103334405Y-63189684D01*
X103334397Y-63189687D01*
X103079917Y-63278734D01*
X102837005Y-63395714D01*
X102608712Y-63539161D01*
X102397915Y-63707265D01*
X102207265Y-63897915D01*
X102039161Y-64108712D01*
X101895714Y-64337005D01*
X101778734Y-64579917D01*
X101689687Y-64834397D01*
X101689684Y-64834405D01*
X101629688Y-65097268D01*
X101629686Y-65097280D01*
X101599500Y-65365186D01*
X99000000Y-65365186D01*
X99000000Y-60624000D01*
X99019685Y-60556961D01*
X99072489Y-60511206D01*
X99124000Y-60500000D01*
X153876000Y-60500000D01*
X153943039Y-60519685D01*
G37*
G04 #@! TD.AperFunction*
M02*
