G04 #@! TF.GenerationSoftware,KiCad,Pcbnew,9.0.0*
G04 #@! TF.CreationDate,2025-04-17T23:52:23+01:00*
G04 #@! TF.ProjectId,SNES_CONTROLLER,534e4553-5f43-44f4-9e54-524f4c4c4552,rev?*
G04 #@! TF.SameCoordinates,Original*
G04 #@! TF.FileFunction,Soldermask,Top*
G04 #@! TF.FilePolarity,Negative*
%FSLAX46Y46*%
G04 Gerber Fmt 4.6, Leading zero omitted, Abs format (unit mm)*
G04 Created by KiCad (PCBNEW 9.0.0) date 2025-04-17 23:52:23*
%MOMM*%
%LPD*%
G01*
G04 APERTURE LIST*
G04 Aperture macros list*
%AMRoundRect*
0 Rectangle with rounded corners*
0 $1 Rounding radius*
0 $2 $3 $4 $5 $6 $7 $8 $9 X,Y pos of 4 corners*
0 Add a 4 corners polygon primitive as box body*
4,1,4,$2,$3,$4,$5,$6,$7,$8,$9,$2,$3,0*
0 Add four circle primitives for the rounded corners*
1,1,$1+$1,$2,$3*
1,1,$1+$1,$4,$5*
1,1,$1+$1,$6,$7*
1,1,$1+$1,$8,$9*
0 Add four rect primitives between the rounded corners*
20,1,$1+$1,$2,$3,$4,$5,0*
20,1,$1+$1,$4,$5,$6,$7,0*
20,1,$1+$1,$6,$7,$8,$9,0*
20,1,$1+$1,$8,$9,$2,$3,0*%
G04 Aperture macros list end*
%ADD10C,4.300000*%
%ADD11C,1.600000*%
%ADD12O,1.600000X1.600000*%
%ADD13RoundRect,0.250001X1.149999X-1.149999X1.149999X1.149999X-1.149999X1.149999X-1.149999X-1.149999X0*%
%ADD14C,2.800000*%
%ADD15R,1.600000X1.600000*%
%ADD16RoundRect,0.250001X-1.149999X-1.149999X1.149999X-1.149999X1.149999X1.149999X-1.149999X1.149999X0*%
G04 APERTURE END LIST*
D10*
X149000000Y-65500000D03*
X104000000Y-65500000D03*
X127000000Y-130000000D03*
D11*
X124000000Y-75500000D03*
D12*
X129080000Y-75500000D03*
D11*
X124000000Y-83600000D03*
D12*
X129080000Y-83600000D03*
D11*
X132680000Y-87650000D03*
D12*
X137760000Y-87650000D03*
D13*
X103500000Y-129500000D03*
D14*
X103500000Y-124500000D03*
X103500000Y-119500000D03*
X103500000Y-114500000D03*
X103500000Y-109500000D03*
X103500000Y-104500000D03*
X103500000Y-99500000D03*
X103500000Y-94500000D03*
X103500000Y-89500000D03*
X103500000Y-84500000D03*
X103500000Y-79500000D03*
X103500000Y-74500000D03*
D15*
X130635000Y-106520000D03*
D12*
X130635000Y-109060000D03*
X130635000Y-111600000D03*
X130635000Y-114140000D03*
X130635000Y-116680000D03*
X130635000Y-119220000D03*
X130635000Y-121760000D03*
X130635000Y-124300000D03*
X138255000Y-124300000D03*
X138255000Y-121760000D03*
X138255000Y-119220000D03*
X138255000Y-116680000D03*
X138255000Y-114140000D03*
X138255000Y-111600000D03*
X138255000Y-109060000D03*
X138255000Y-106520000D03*
D11*
X132680000Y-91700000D03*
D12*
X137760000Y-91700000D03*
D11*
X115320000Y-95750000D03*
D12*
X120400000Y-95750000D03*
D11*
X132680000Y-75500000D03*
D12*
X137760000Y-75500000D03*
D11*
X115320000Y-79550000D03*
D12*
X120400000Y-79550000D03*
D13*
X149000000Y-129500000D03*
D14*
X149000000Y-124500000D03*
X149000000Y-119500000D03*
X149000000Y-114500000D03*
X149000000Y-109500000D03*
X149000000Y-104500000D03*
X149000000Y-99500000D03*
X149000000Y-94500000D03*
X149000000Y-89500000D03*
X149000000Y-84500000D03*
X149000000Y-79500000D03*
X149000000Y-74500000D03*
D11*
X115320000Y-75500000D03*
D12*
X120400000Y-75500000D03*
D11*
X124000000Y-79550000D03*
D12*
X129080000Y-79550000D03*
D16*
X114000000Y-66500000D03*
D14*
X119000000Y-66500000D03*
X124000000Y-66500000D03*
X129000000Y-66500000D03*
X134000000Y-66500000D03*
X139000000Y-66500000D03*
D11*
X124000000Y-95750000D03*
D12*
X129080000Y-95750000D03*
D11*
X115320000Y-99800000D03*
D12*
X120400000Y-99800000D03*
D11*
X124000000Y-87650000D03*
D12*
X129080000Y-87650000D03*
D11*
X115320000Y-87650000D03*
D12*
X120400000Y-87650000D03*
D15*
X115015000Y-106520000D03*
D12*
X115015000Y-109060000D03*
X115015000Y-111600000D03*
X115015000Y-114140000D03*
X115015000Y-116680000D03*
X115015000Y-119220000D03*
X115015000Y-121760000D03*
X115015000Y-124300000D03*
X122635000Y-124300000D03*
X122635000Y-121760000D03*
X122635000Y-119220000D03*
X122635000Y-116680000D03*
X122635000Y-114140000D03*
X122635000Y-111600000D03*
X122635000Y-109060000D03*
X122635000Y-106520000D03*
D11*
X124000000Y-91700000D03*
D12*
X129080000Y-91700000D03*
D11*
X115320000Y-91700000D03*
D12*
X120400000Y-91700000D03*
D11*
X115320000Y-83600000D03*
D12*
X120400000Y-83600000D03*
D11*
X132680000Y-83600000D03*
D12*
X137760000Y-83600000D03*
D11*
X124000000Y-99800000D03*
D12*
X129080000Y-99800000D03*
D11*
X132680000Y-79550000D03*
D12*
X137760000Y-79550000D03*
M02*
