%TF.GenerationSoftware,KiCad,Pcbnew,8.0.9-8.0.9-0~ubuntu24.04.1*%
%TF.CreationDate,2025-03-04T19:24:35+01:00*%
%TF.ProjectId,SNES_CONTROLLER,534e4553-5f43-44f4-9e54-524f4c4c4552,rev?*%
%TF.SameCoordinates,Original*%
%TF.FileFunction,Drillmap*%
%TF.FilePolarity,Positive*%
%FSLAX45Y45*%
G04 Gerber Fmt 4.5, Leading zero omitted, Abs format (unit mm)*
G04 Created by KiCad (PCBNEW 8.0.9-8.0.9-0~ubuntu24.04.1) date 2025-03-04 19:24:35*
%MOMM*%
%LPD*%
G01*
G04 APERTURE LIST*
%ADD10C,0.050000*%
%ADD11C,0.200000*%
G04 APERTURE END LIST*
D10*
X9800000Y-5850000D02*
X15500000Y-5850000D01*
X9800000Y-13450000D02*
X9800000Y-5850000D01*
X15500000Y-5850000D02*
X15500000Y-13450000D01*
X15500000Y-13450000D02*
X9800000Y-13450000D01*
D11*
X10058277Y-13763984D02*
X10058277Y-13563984D01*
X10058277Y-13563984D02*
X10105896Y-13563984D01*
X10105896Y-13563984D02*
X10134467Y-13573508D01*
X10134467Y-13573508D02*
X10153515Y-13592555D01*
X10153515Y-13592555D02*
X10163039Y-13611603D01*
X10163039Y-13611603D02*
X10172563Y-13649698D01*
X10172563Y-13649698D02*
X10172563Y-13678269D01*
X10172563Y-13678269D02*
X10163039Y-13716365D01*
X10163039Y-13716365D02*
X10153515Y-13735412D01*
X10153515Y-13735412D02*
X10134467Y-13754460D01*
X10134467Y-13754460D02*
X10105896Y-13763984D01*
X10105896Y-13763984D02*
X10058277Y-13763984D01*
X10258277Y-13763984D02*
X10258277Y-13630650D01*
X10258277Y-13668746D02*
X10267801Y-13649698D01*
X10267801Y-13649698D02*
X10277324Y-13640174D01*
X10277324Y-13640174D02*
X10296372Y-13630650D01*
X10296372Y-13630650D02*
X10315420Y-13630650D01*
X10382086Y-13763984D02*
X10382086Y-13630650D01*
X10382086Y-13563984D02*
X10372563Y-13573508D01*
X10372563Y-13573508D02*
X10382086Y-13583031D01*
X10382086Y-13583031D02*
X10391610Y-13573508D01*
X10391610Y-13573508D02*
X10382086Y-13563984D01*
X10382086Y-13563984D02*
X10382086Y-13583031D01*
X10505896Y-13763984D02*
X10486848Y-13754460D01*
X10486848Y-13754460D02*
X10477324Y-13735412D01*
X10477324Y-13735412D02*
X10477324Y-13563984D01*
X10610658Y-13763984D02*
X10591610Y-13754460D01*
X10591610Y-13754460D02*
X10582086Y-13735412D01*
X10582086Y-13735412D02*
X10582086Y-13563984D01*
X10839229Y-13763984D02*
X10839229Y-13563984D01*
X10839229Y-13563984D02*
X10905896Y-13706841D01*
X10905896Y-13706841D02*
X10972563Y-13563984D01*
X10972563Y-13563984D02*
X10972563Y-13763984D01*
X11153515Y-13763984D02*
X11153515Y-13659222D01*
X11153515Y-13659222D02*
X11143991Y-13640174D01*
X11143991Y-13640174D02*
X11124944Y-13630650D01*
X11124944Y-13630650D02*
X11086848Y-13630650D01*
X11086848Y-13630650D02*
X11067801Y-13640174D01*
X11153515Y-13754460D02*
X11134467Y-13763984D01*
X11134467Y-13763984D02*
X11086848Y-13763984D01*
X11086848Y-13763984D02*
X11067801Y-13754460D01*
X11067801Y-13754460D02*
X11058277Y-13735412D01*
X11058277Y-13735412D02*
X11058277Y-13716365D01*
X11058277Y-13716365D02*
X11067801Y-13697317D01*
X11067801Y-13697317D02*
X11086848Y-13687793D01*
X11086848Y-13687793D02*
X11134467Y-13687793D01*
X11134467Y-13687793D02*
X11153515Y-13678269D01*
X11248753Y-13630650D02*
X11248753Y-13830650D01*
X11248753Y-13640174D02*
X11267801Y-13630650D01*
X11267801Y-13630650D02*
X11305896Y-13630650D01*
X11305896Y-13630650D02*
X11324943Y-13640174D01*
X11324943Y-13640174D02*
X11334467Y-13649698D01*
X11334467Y-13649698D02*
X11343991Y-13668746D01*
X11343991Y-13668746D02*
X11343991Y-13725888D01*
X11343991Y-13725888D02*
X11334467Y-13744936D01*
X11334467Y-13744936D02*
X11324943Y-13754460D01*
X11324943Y-13754460D02*
X11305896Y-13763984D01*
X11305896Y-13763984D02*
X11267801Y-13763984D01*
X11267801Y-13763984D02*
X11248753Y-13754460D01*
X11429705Y-13744936D02*
X11439229Y-13754460D01*
X11439229Y-13754460D02*
X11429705Y-13763984D01*
X11429705Y-13763984D02*
X11420182Y-13754460D01*
X11420182Y-13754460D02*
X11429705Y-13744936D01*
X11429705Y-13744936D02*
X11429705Y-13763984D01*
X11429705Y-13640174D02*
X11439229Y-13649698D01*
X11439229Y-13649698D02*
X11429705Y-13659222D01*
X11429705Y-13659222D02*
X11420182Y-13649698D01*
X11420182Y-13649698D02*
X11429705Y-13640174D01*
X11429705Y-13640174D02*
X11429705Y-13659222D01*
M02*
