M48
; DRILL file {KiCad 9.0.0} date 2025-04-17T23:54:37+0100
; FORMAT={-:-/ absolute / metric / decimal}
; #@! TF.CreationDate,2025-04-17T23:54:37+01:00
; #@! TF.GenerationSoftware,Kicad,Pcbnew,9.0.0
; #@! TF.FileFunction,Plated,1,2,PTH
FMAT,2
METRIC
; #@! TA.AperFunction,Plated,PTH,ComponentDrill
T1C0.800
; #@! TA.AperFunction,Plated,PTH,ComponentDrill
T2C1.300
%
G90
G05
T1
X115.015Y-106.52
X115.015Y-109.06
X115.015Y-111.6
X115.015Y-114.14
X115.015Y-116.68
X115.015Y-119.22
X115.015Y-121.76
X115.015Y-124.3
X115.32Y-75.5
X115.32Y-79.55
X115.32Y-83.6
X115.32Y-87.65
X115.32Y-91.7
X115.32Y-95.75
X115.32Y-99.8
X120.4Y-75.5
X120.4Y-79.55
X120.4Y-83.6
X120.4Y-87.65
X120.4Y-91.7
X120.4Y-95.75
X120.4Y-99.8
X122.635Y-106.52
X122.635Y-109.06
X122.635Y-111.6
X122.635Y-114.14
X122.635Y-116.68
X122.635Y-119.22
X122.635Y-121.76
X122.635Y-124.3
X124.0Y-75.5
X124.0Y-79.55
X124.0Y-83.6
X124.0Y-87.65
X124.0Y-91.7
X124.0Y-95.75
X124.0Y-99.8
X129.08Y-75.5
X129.08Y-79.55
X129.08Y-83.6
X129.08Y-87.65
X129.08Y-91.7
X129.08Y-95.75
X129.08Y-99.8
X130.635Y-106.52
X130.635Y-109.06
X130.635Y-111.6
X130.635Y-114.14
X130.635Y-116.68
X130.635Y-119.22
X130.635Y-121.76
X130.635Y-124.3
X132.68Y-75.5
X132.68Y-79.55
X132.68Y-83.6
X132.68Y-87.65
X132.68Y-91.7
X137.76Y-75.5
X137.76Y-79.55
X137.76Y-83.6
X137.76Y-87.65
X137.76Y-91.7
X138.255Y-106.52
X138.255Y-109.06
X138.255Y-111.6
X138.255Y-114.14
X138.255Y-116.68
X138.255Y-119.22
X138.255Y-121.76
X138.255Y-124.3
T2
X103.5Y-74.5
X103.5Y-79.5
X103.5Y-84.5
X103.5Y-89.5
X103.5Y-94.5
X103.5Y-99.5
X103.5Y-104.5
X103.5Y-109.5
X103.5Y-114.5
X103.5Y-119.5
X103.5Y-124.5
X103.5Y-129.5
X114.0Y-66.5
X119.0Y-66.5
X124.0Y-66.5
X129.0Y-66.5
X134.0Y-66.5
X139.0Y-66.5
X149.0Y-74.5
X149.0Y-79.5
X149.0Y-84.5
X149.0Y-89.5
X149.0Y-94.5
X149.0Y-99.5
X149.0Y-104.5
X149.0Y-109.5
X149.0Y-114.5
X149.0Y-119.5
X149.0Y-124.5
X149.0Y-129.5
M30
