G04 #@! TF.GenerationSoftware,KiCad,Pcbnew,9.0.0*
G04 #@! TF.CreationDate,2025-04-17T23:52:22+01:00*
G04 #@! TF.ProjectId,SNES_CONTROLLER,534e4553-5f43-44f4-9e54-524f4c4c4552,rev?*
G04 #@! TF.SameCoordinates,Original*
G04 #@! TF.FileFunction,Copper,L2,Bot*
G04 #@! TF.FilePolarity,Positive*
%FSLAX46Y46*%
G04 Gerber Fmt 4.6, Leading zero omitted, Abs format (unit mm)*
G04 Created by KiCad (PCBNEW 9.0.0) date 2025-04-17 23:52:22*
%MOMM*%
%LPD*%
G01*
G04 APERTURE LIST*
G04 Aperture macros list*
%AMRoundRect*
0 Rectangle with rounded corners*
0 $1 Rounding radius*
0 $2 $3 $4 $5 $6 $7 $8 $9 X,Y pos of 4 corners*
0 Add a 4 corners polygon primitive as box body*
4,1,4,$2,$3,$4,$5,$6,$7,$8,$9,$2,$3,0*
0 Add four circle primitives for the rounded corners*
1,1,$1+$1,$2,$3*
1,1,$1+$1,$4,$5*
1,1,$1+$1,$6,$7*
1,1,$1+$1,$8,$9*
0 Add four rect primitives between the rounded corners*
20,1,$1+$1,$2,$3,$4,$5,0*
20,1,$1+$1,$4,$5,$6,$7,0*
20,1,$1+$1,$6,$7,$8,$9,0*
20,1,$1+$1,$8,$9,$2,$3,0*%
G04 Aperture macros list end*
G04 #@! TA.AperFunction,ComponentPad*
%ADD10C,1.600000*%
G04 #@! TD*
G04 #@! TA.AperFunction,ComponentPad*
%ADD11O,1.600000X1.600000*%
G04 #@! TD*
G04 #@! TA.AperFunction,ComponentPad*
%ADD12RoundRect,0.250001X1.149999X-1.149999X1.149999X1.149999X-1.149999X1.149999X-1.149999X-1.149999X0*%
G04 #@! TD*
G04 #@! TA.AperFunction,ComponentPad*
%ADD13C,2.800000*%
G04 #@! TD*
G04 #@! TA.AperFunction,ComponentPad*
%ADD14R,1.600000X1.600000*%
G04 #@! TD*
G04 #@! TA.AperFunction,ComponentPad*
%ADD15RoundRect,0.250001X-1.149999X-1.149999X1.149999X-1.149999X1.149999X1.149999X-1.149999X1.149999X0*%
G04 #@! TD*
G04 #@! TA.AperFunction,Conductor*
%ADD16C,0.200000*%
G04 #@! TD*
G04 APERTURE END LIST*
D10*
X124000000Y-75500000D03*
D11*
X129080000Y-75500000D03*
D10*
X124000000Y-83600000D03*
D11*
X129080000Y-83600000D03*
D10*
X132680000Y-87650000D03*
D11*
X137760000Y-87650000D03*
D12*
X103500000Y-129500000D03*
D13*
X103500000Y-124500000D03*
X103500000Y-119500000D03*
X103500000Y-114500000D03*
X103500000Y-109500000D03*
X103500000Y-104500000D03*
X103500000Y-99500000D03*
X103500000Y-94500000D03*
X103500000Y-89500000D03*
X103500000Y-84500000D03*
X103500000Y-79500000D03*
X103500000Y-74500000D03*
D14*
X130635000Y-106520000D03*
D11*
X130635000Y-109060000D03*
X130635000Y-111600000D03*
X130635000Y-114140000D03*
X130635000Y-116680000D03*
X130635000Y-119220000D03*
X130635000Y-121760000D03*
X130635000Y-124300000D03*
X138255000Y-124300000D03*
X138255000Y-121760000D03*
X138255000Y-119220000D03*
X138255000Y-116680000D03*
X138255000Y-114140000D03*
X138255000Y-111600000D03*
X138255000Y-109060000D03*
X138255000Y-106520000D03*
D10*
X132680000Y-91700000D03*
D11*
X137760000Y-91700000D03*
D10*
X115320000Y-95750000D03*
D11*
X120400000Y-95750000D03*
D10*
X132680000Y-75500000D03*
D11*
X137760000Y-75500000D03*
D10*
X115320000Y-79550000D03*
D11*
X120400000Y-79550000D03*
D12*
X149000000Y-129500000D03*
D13*
X149000000Y-124500000D03*
X149000000Y-119500000D03*
X149000000Y-114500000D03*
X149000000Y-109500000D03*
X149000000Y-104500000D03*
X149000000Y-99500000D03*
X149000000Y-94500000D03*
X149000000Y-89500000D03*
X149000000Y-84500000D03*
X149000000Y-79500000D03*
X149000000Y-74500000D03*
D10*
X115320000Y-75500000D03*
D11*
X120400000Y-75500000D03*
D10*
X124000000Y-79550000D03*
D11*
X129080000Y-79550000D03*
D15*
X114000000Y-66500000D03*
D13*
X119000000Y-66500000D03*
X124000000Y-66500000D03*
X129000000Y-66500000D03*
X134000000Y-66500000D03*
X139000000Y-66500000D03*
D10*
X124000000Y-95750000D03*
D11*
X129080000Y-95750000D03*
D10*
X115320000Y-99800000D03*
D11*
X120400000Y-99800000D03*
D10*
X124000000Y-87650000D03*
D11*
X129080000Y-87650000D03*
D10*
X115320000Y-87650000D03*
D11*
X120400000Y-87650000D03*
D14*
X115015000Y-106520000D03*
D11*
X115015000Y-109060000D03*
X115015000Y-111600000D03*
X115015000Y-114140000D03*
X115015000Y-116680000D03*
X115015000Y-119220000D03*
X115015000Y-121760000D03*
X115015000Y-124300000D03*
X122635000Y-124300000D03*
X122635000Y-121760000D03*
X122635000Y-119220000D03*
X122635000Y-116680000D03*
X122635000Y-114140000D03*
X122635000Y-111600000D03*
X122635000Y-109060000D03*
X122635000Y-106520000D03*
D10*
X124000000Y-91700000D03*
D11*
X129080000Y-91700000D03*
D10*
X115320000Y-91700000D03*
D11*
X120400000Y-91700000D03*
D10*
X115320000Y-83600000D03*
D11*
X120400000Y-83600000D03*
D10*
X132680000Y-83600000D03*
D11*
X137760000Y-83600000D03*
D10*
X124000000Y-99800000D03*
D11*
X129080000Y-99800000D03*
D10*
X132680000Y-79550000D03*
D11*
X137760000Y-79550000D03*
D16*
X131580000Y-74400000D02*
X132680000Y-75500000D01*
X124000000Y-75500000D02*
X125100000Y-74400000D01*
X125100000Y-74400000D02*
X131580000Y-74400000D01*
X123735000Y-125400000D02*
X137155000Y-125400000D01*
X122635000Y-124300000D02*
X123735000Y-125400000D01*
X127100000Y-85580000D02*
X127100000Y-119835000D01*
X127100000Y-119835000D02*
X122635000Y-124300000D01*
X137155000Y-125400000D02*
X138255000Y-124300000D01*
X129080000Y-83600000D02*
X127100000Y-85580000D01*
X138310635Y-125800000D02*
X122579365Y-125800000D01*
X139355000Y-122860000D02*
X139355000Y-124755635D01*
X121500000Y-122895000D02*
X122635000Y-121760000D01*
X139355000Y-124755635D02*
X138310635Y-125800000D01*
X138255000Y-121760000D02*
X139355000Y-122860000D01*
X122579365Y-125800000D02*
X121500000Y-124720635D01*
X121500000Y-124720635D02*
X121500000Y-122895000D01*
X115015000Y-111600000D02*
X113515000Y-113100000D01*
X126500000Y-82500000D02*
X129535635Y-82500000D01*
X113515000Y-119275635D02*
X114559365Y-120320000D01*
X126500000Y-109290635D02*
X126500000Y-82500000D01*
X123090635Y-112700000D02*
X126500000Y-109290635D01*
X129535635Y-82500000D02*
X130180000Y-83144365D01*
X113515000Y-113100000D02*
X113515000Y-119275635D01*
X121535000Y-114255635D02*
X121535000Y-113344365D01*
X114559365Y-120320000D02*
X115470635Y-120320000D01*
X130180000Y-83144365D02*
X130180000Y-86550000D01*
X115470635Y-120320000D02*
X121535000Y-114255635D01*
X130180000Y-86550000D02*
X129080000Y-87650000D01*
X122179365Y-112700000D02*
X123090635Y-112700000D01*
X121535000Y-113344365D02*
X122179365Y-112700000D01*
X115470635Y-117780000D02*
X114559365Y-117780000D01*
X121900000Y-83544365D02*
X121900000Y-103000000D01*
X120400000Y-87650000D02*
X119300000Y-86550000D01*
X119300000Y-86550000D02*
X119300000Y-83144365D01*
X119300000Y-83144365D02*
X119944365Y-82500000D01*
X121900000Y-103000000D02*
X123735000Y-104835000D01*
X114559365Y-117780000D02*
X113915000Y-117135635D01*
X113915000Y-117135635D02*
X113915000Y-115240000D01*
X119944365Y-82500000D02*
X120855635Y-82500000D01*
X120855635Y-82500000D02*
X121900000Y-83544365D01*
X123735000Y-104835000D02*
X123735000Y-109515635D01*
X122179365Y-110160000D02*
X116115000Y-116224365D01*
X116115000Y-117135635D02*
X115470635Y-117780000D01*
X116115000Y-116224365D02*
X116115000Y-117135635D01*
X113915000Y-115240000D02*
X115015000Y-114140000D01*
X123735000Y-109515635D02*
X123090635Y-110160000D01*
X123090635Y-110160000D02*
X122179365Y-110160000D01*
X115700000Y-104500000D02*
X120400000Y-99800000D01*
X103500000Y-104500000D02*
X115700000Y-104500000D01*
X105600000Y-76600000D02*
X127980000Y-76600000D01*
X101800000Y-76200000D02*
X103500000Y-74500000D01*
X127980000Y-76600000D02*
X129080000Y-75500000D01*
X101800000Y-105204164D02*
X101800000Y-76200000D01*
X103115836Y-106520000D02*
X101800000Y-105204164D01*
X103500000Y-74500000D02*
X105600000Y-76600000D01*
X115015000Y-106520000D02*
X103115836Y-106520000D01*
X103500000Y-94500000D02*
X119150000Y-94500000D01*
X119150000Y-94500000D02*
X120400000Y-95750000D01*
X121500000Y-110195000D02*
X115015000Y-116680000D01*
X120400000Y-83600000D02*
X121500000Y-84700000D01*
X121500000Y-84700000D02*
X121500000Y-110195000D01*
X120400000Y-91174365D02*
X120400000Y-91700000D01*
X113725635Y-84500000D02*
X120400000Y-91174365D01*
X103500000Y-84500000D02*
X113725635Y-84500000D01*
X152000000Y-71000000D02*
X124900000Y-71000000D01*
X149000000Y-84500000D02*
X152000000Y-81500000D01*
X152000000Y-81500000D02*
X152000000Y-71000000D01*
X124900000Y-71000000D02*
X120400000Y-75500000D01*
X146000000Y-77500000D02*
X122450000Y-77500000D01*
X149000000Y-74500000D02*
X146000000Y-77500000D01*
X122450000Y-77500000D02*
X120400000Y-79550000D01*
X137700000Y-112700000D02*
X137155000Y-112155000D01*
X137155000Y-110160000D02*
X138255000Y-109060000D01*
X147200000Y-112700000D02*
X137700000Y-112700000D01*
X137155000Y-112155000D02*
X137155000Y-110160000D01*
X149000000Y-114500000D02*
X147200000Y-112700000D01*
X149000000Y-104500000D02*
X145355000Y-104500000D01*
X145355000Y-104500000D02*
X138255000Y-111600000D01*
X137760000Y-79550000D02*
X137760000Y-81014365D01*
X127500000Y-91274365D02*
X127500000Y-111005000D01*
X137760000Y-81014365D02*
X127500000Y-91274365D01*
X127500000Y-111005000D02*
X130635000Y-114140000D01*
X130179365Y-120660000D02*
X131169314Y-120660000D01*
X131735000Y-120094314D02*
X131735000Y-117780000D01*
X131735000Y-117780000D02*
X130635000Y-116680000D01*
X133900000Y-109319365D02*
X133900000Y-120050635D01*
X129535000Y-122215635D02*
X129535000Y-121304365D01*
X130179365Y-122860000D02*
X129535000Y-122215635D01*
X131090635Y-122860000D02*
X130179365Y-122860000D01*
X129535000Y-121304365D02*
X130179365Y-120660000D01*
X137760000Y-83600000D02*
X138860000Y-84700000D01*
X138860000Y-104359365D02*
X133900000Y-109319365D01*
X131169314Y-120660000D02*
X131735000Y-120094314D01*
X133900000Y-120050635D02*
X131090635Y-122860000D01*
X138860000Y-84700000D02*
X138860000Y-104359365D01*
X130180000Y-104820000D02*
X129000000Y-106000000D01*
X130179365Y-115580000D02*
X129535000Y-116224365D01*
X131090635Y-115580000D02*
X130179365Y-115580000D01*
X131090635Y-110500000D02*
X131735000Y-111144365D01*
X137760000Y-88781370D02*
X130180000Y-96361370D01*
X129000000Y-106000000D02*
X129000000Y-110000000D01*
X137760000Y-87650000D02*
X137760000Y-88781370D01*
X129000000Y-110000000D02*
X129500000Y-110500000D01*
X131735000Y-111144365D02*
X131735000Y-114935635D01*
X131735000Y-114935635D02*
X131090635Y-115580000D01*
X130180000Y-96361370D02*
X130180000Y-104820000D01*
X129500000Y-110500000D02*
X131090635Y-110500000D01*
X129535000Y-118120000D02*
X130635000Y-119220000D01*
X129535000Y-116224365D02*
X129535000Y-118120000D01*
X133500000Y-118895000D02*
X130635000Y-121760000D01*
X133500000Y-95960000D02*
X133500000Y-118895000D01*
X137760000Y-91700000D02*
X133500000Y-95960000D01*
M02*
