M48
;GenerationSoftware,Autodesk,EAGLE,9.6.2*%
;CreationDate,2022-09-21T00:52:53Z*%
FMAT,2
ICI,OFF
METRIC,TZ,000.000
T5C0.305
T4C0.813
T3C0.900
T2C1.016
T1C2.500
%
G90
M71
T1
X3155Y9500
X4055Y2800
X4055Y16200
T2
X14732Y14317
X14732Y16858
X17273Y14317
X17273Y16858
X19813Y14317
X19813Y16858
T3
X9455Y6100
X9455Y12900
X6955Y6100
X6955Y8200
X6955Y10800
X6955Y12900
T4
X24765Y5080
X27940Y14605
X33020Y4445
X33020Y14605
X35560Y14605
X35560Y4445
X24765Y7620
X24765Y10160
X24765Y12700
X24765Y15240
X13335Y10160
X13335Y7620
X13335Y5080
X13335Y2540
X20955Y2540
X20955Y5080
X20955Y7620
X20955Y10160
X30480Y4445
X30480Y14605
X27940Y4445
T5
X24500Y16875
X19500Y6000
X21750Y1250
X18605Y1260
X30250Y8625
M30