G04 EAGLE Gerber RS-274X export*
G75*
%MOMM*%
%FSLAX34Y34*%
%LPD*%
%INSilkscreen Top*%
%IPPOS*%
%AMOC8*
5,1,8,0,0,1.08239X$1,22.5*%
G01*
%ADD10C,0.101600*%
%ADD11C,0.127000*%
%ADD12C,0.152400*%
%ADD13C,0.203200*%
%ADD14C,0.120000*%
%ADD15R,0.609600X0.863600*%


D10*
X236713Y180000D02*
X235188Y181525D01*
X232138Y181525D01*
X230612Y180000D01*
X230612Y178474D01*
X232138Y176949D01*
X235188Y176949D01*
X236713Y175424D01*
X236713Y173898D01*
X235188Y172373D01*
X232138Y172373D01*
X230612Y173898D01*
X239967Y172373D02*
X239967Y181525D01*
X246069Y172373D01*
X246069Y181525D01*
X249323Y181525D02*
X255424Y181525D01*
X249323Y181525D02*
X249323Y172373D01*
X255424Y172373D01*
X252373Y176949D02*
X249323Y176949D01*
X263254Y181525D02*
X264779Y180000D01*
X263254Y181525D02*
X260203Y181525D01*
X258678Y180000D01*
X258678Y178474D01*
X260203Y176949D01*
X263254Y176949D01*
X264779Y175424D01*
X264779Y173898D01*
X263254Y172373D01*
X260203Y172373D01*
X258678Y173898D01*
D11*
X65451Y37998D02*
X64328Y39121D01*
X62083Y39121D01*
X60960Y37998D01*
X60960Y33508D01*
X62083Y32385D01*
X64328Y32385D01*
X65451Y33508D01*
X65451Y35753D01*
X63205Y35753D01*
X68326Y32385D02*
X68326Y39121D01*
X72817Y32385D01*
X72817Y39121D01*
X75693Y39121D02*
X75693Y32385D01*
X79060Y32385D01*
X80183Y33508D01*
X80183Y37998D01*
X79060Y39121D01*
X75693Y39121D01*
X57970Y123636D02*
X53479Y123636D01*
X57970Y123636D02*
X60215Y125881D01*
X57970Y128127D01*
X53479Y128127D01*
X53479Y134370D02*
X54602Y135493D01*
X53479Y134370D02*
X53479Y132125D01*
X54602Y131002D01*
X59092Y131002D01*
X60215Y132125D01*
X60215Y134370D01*
X59092Y135493D01*
X53479Y141737D02*
X54602Y142859D01*
X53479Y141737D02*
X53479Y139491D01*
X54602Y138369D01*
X59092Y138369D01*
X60215Y139491D01*
X60215Y141737D01*
X59092Y142859D01*
X59840Y67445D02*
X53104Y67445D01*
X59840Y67445D02*
X59840Y70813D01*
X58717Y71935D01*
X54227Y71935D01*
X53104Y70813D01*
X53104Y67445D01*
X55350Y74811D02*
X59840Y74811D01*
X55350Y74811D02*
X53104Y77056D01*
X55350Y79302D01*
X59840Y79302D01*
X56472Y79302D02*
X56472Y74811D01*
X59840Y84423D02*
X53104Y84423D01*
X53104Y86668D02*
X53104Y82177D01*
X55350Y89544D02*
X59840Y89544D01*
X55350Y89544D02*
X53104Y91789D01*
X55350Y94034D01*
X59840Y94034D01*
X56472Y94034D02*
X56472Y89544D01*
X89728Y39121D02*
X90851Y37998D01*
X89728Y39121D02*
X87483Y39121D01*
X86360Y37998D01*
X86360Y33508D01*
X87483Y32385D01*
X89728Y32385D01*
X90851Y33508D01*
X93726Y32385D02*
X93726Y39121D01*
X93726Y32385D02*
X98217Y32385D01*
X101093Y32385D02*
X101093Y39121D01*
X105583Y39121D02*
X101093Y34630D01*
X102215Y35753D02*
X105583Y32385D01*
D10*
X58133Y14660D02*
X58133Y7033D01*
X59658Y5508D01*
X62709Y5508D01*
X64234Y7033D01*
X64234Y14660D01*
X67488Y11609D02*
X73589Y11609D01*
X67488Y5508D01*
X73589Y5508D01*
X78369Y5508D02*
X81419Y5508D01*
X78369Y5508D02*
X76843Y7033D01*
X76843Y10084D01*
X78369Y11609D01*
X81419Y11609D01*
X82945Y10084D01*
X82945Y8559D01*
X76843Y8559D01*
X86199Y5508D02*
X86199Y14660D01*
X86199Y5508D02*
X90774Y5508D01*
X92300Y7033D01*
X92300Y10084D01*
X90774Y11609D01*
X86199Y11609D01*
X97079Y5508D02*
X100130Y5508D01*
X101655Y7033D01*
X101655Y10084D01*
X100130Y11609D01*
X97079Y11609D01*
X95554Y10084D01*
X95554Y7033D01*
X97079Y5508D01*
X104909Y11609D02*
X111010Y5508D01*
X104909Y5508D02*
X111010Y11609D01*
X123619Y14660D02*
X123619Y5508D01*
X123619Y8559D02*
X129721Y14660D01*
X125145Y10084D02*
X129721Y5508D01*
X134500Y5508D02*
X137550Y5508D01*
X134500Y5508D02*
X132975Y7033D01*
X132975Y10084D01*
X134500Y11609D01*
X137550Y11609D01*
X139076Y10084D01*
X139076Y8559D01*
X132975Y8559D01*
X142330Y7033D02*
X142330Y11609D01*
X142330Y7033D02*
X143855Y5508D01*
X148431Y5508D01*
X148431Y3983D02*
X148431Y11609D01*
X148431Y3983D02*
X146906Y2457D01*
X145380Y2457D01*
X151685Y5508D02*
X151685Y14660D01*
X151685Y5508D02*
X156261Y5508D01*
X157786Y7033D01*
X157786Y10084D01*
X156261Y11609D01*
X151685Y11609D01*
X162565Y5508D02*
X165616Y5508D01*
X167141Y7033D01*
X167141Y10084D01*
X165616Y11609D01*
X162565Y11609D01*
X161040Y10084D01*
X161040Y7033D01*
X162565Y5508D01*
X171921Y11609D02*
X174971Y11609D01*
X176496Y10084D01*
X176496Y5508D01*
X171921Y5508D01*
X170395Y7033D01*
X171921Y8559D01*
X176496Y8559D01*
X179750Y11609D02*
X179750Y5508D01*
X179750Y8559D02*
X182801Y11609D01*
X184326Y11609D01*
X193648Y14660D02*
X193648Y5508D01*
X189072Y5508D01*
X187546Y7033D01*
X187546Y10084D01*
X189072Y11609D01*
X193648Y11609D01*
X206257Y5508D02*
X209307Y5508D01*
X207782Y5508D02*
X207782Y14660D01*
X206257Y14660D02*
X209307Y14660D01*
X212494Y11609D02*
X212494Y5508D01*
X212494Y11609D02*
X217069Y11609D01*
X218595Y10084D01*
X218595Y5508D01*
X223374Y7033D02*
X223374Y13135D01*
X223374Y7033D02*
X224899Y5508D01*
X224899Y11609D02*
X221849Y11609D01*
X229611Y5508D02*
X232661Y5508D01*
X229611Y5508D02*
X228086Y7033D01*
X228086Y10084D01*
X229611Y11609D01*
X232661Y11609D01*
X234187Y10084D01*
X234187Y8559D01*
X228086Y8559D01*
X237441Y5508D02*
X237441Y11609D01*
X237441Y8559D02*
X240491Y11609D01*
X242017Y11609D01*
X246762Y13135D02*
X246762Y5508D01*
X246762Y13135D02*
X248287Y14660D01*
X248287Y10084D02*
X245237Y10084D01*
X252999Y11609D02*
X256049Y11609D01*
X257575Y10084D01*
X257575Y5508D01*
X252999Y5508D01*
X251473Y7033D01*
X252999Y8559D01*
X257575Y8559D01*
X262354Y11609D02*
X266930Y11609D01*
X262354Y11609D02*
X260829Y10084D01*
X260829Y7033D01*
X262354Y5508D01*
X266930Y5508D01*
X271709Y5508D02*
X274760Y5508D01*
X271709Y5508D02*
X270184Y7033D01*
X270184Y10084D01*
X271709Y11609D01*
X274760Y11609D01*
X276285Y10084D01*
X276285Y8559D01*
X270184Y8559D01*
X288894Y8559D02*
X288894Y14660D01*
X288894Y8559D02*
X291945Y5508D01*
X294995Y8559D01*
X294995Y14660D01*
X298249Y11609D02*
X301300Y14660D01*
X301300Y5508D01*
X298249Y5508D02*
X304351Y5508D01*
X307605Y5508D02*
X307605Y7033D01*
X309130Y7033D01*
X309130Y5508D01*
X307605Y5508D01*
X312282Y5508D02*
X318383Y5508D01*
X312282Y5508D02*
X318383Y11609D01*
X318383Y13135D01*
X316858Y14660D01*
X313807Y14660D01*
X312282Y13135D01*
D12*
X223944Y50868D02*
X222530Y49454D01*
X222530Y46626D01*
X223944Y45212D01*
X229599Y45212D01*
X231013Y46626D01*
X231013Y49454D01*
X229599Y50868D01*
X226771Y50868D01*
X226771Y48040D01*
X222530Y54420D02*
X231013Y54420D01*
X231013Y58661D01*
X229599Y60075D01*
X223944Y60075D01*
X222530Y58661D01*
X222530Y54420D01*
X222530Y70612D02*
X231013Y70612D01*
X231013Y74854D01*
X229599Y76268D01*
X223944Y76268D01*
X222530Y74854D01*
X222530Y70612D01*
X222530Y82648D02*
X231013Y82648D01*
X222530Y79820D02*
X222530Y85475D01*
X222530Y96012D02*
X231013Y96012D01*
X231013Y101668D01*
X231013Y108048D02*
X222530Y108048D01*
X222530Y110875D02*
X222530Y105220D01*
X222530Y125654D02*
X223944Y127068D01*
X222530Y125654D02*
X222530Y122826D01*
X223944Y121412D01*
X229599Y121412D01*
X231013Y122826D01*
X231013Y125654D01*
X229599Y127068D01*
X231013Y130620D02*
X222530Y130620D01*
X228185Y130620D02*
X222530Y136275D01*
X226771Y132034D02*
X231013Y136275D01*
X222530Y146812D02*
X222530Y152468D01*
X222530Y146812D02*
X226771Y146812D01*
X225358Y149640D01*
X225358Y151054D01*
X226771Y152468D01*
X229599Y152468D01*
X231013Y151054D01*
X231013Y148226D01*
X229599Y146812D01*
X228185Y156020D02*
X222530Y156020D01*
X228185Y156020D02*
X231013Y158848D01*
X228185Y161675D01*
X222530Y161675D01*
D13*
X140975Y130475D02*
X134625Y136825D01*
X153675Y130475D02*
X160025Y136825D01*
X166375Y130475D01*
X179075Y130475D02*
X185425Y136825D01*
X191775Y130475D01*
X204475Y130475D02*
X210825Y136825D01*
X134625Y136825D02*
X134625Y174925D01*
X140975Y181275D01*
X153675Y181275D01*
X160025Y174925D01*
X166375Y181275D01*
X179075Y181275D01*
X185425Y174925D01*
X191775Y181275D01*
X204475Y181275D01*
X210825Y174925D01*
X160025Y174925D02*
X160025Y136825D01*
X185425Y136825D02*
X185425Y174925D01*
X210825Y174925D02*
X210825Y136825D01*
X204475Y130475D02*
X191775Y130475D01*
X179075Y130475D02*
X166375Y130475D01*
X153675Y130475D02*
X140975Y130475D01*
X140975Y127125D02*
X153675Y127125D01*
D10*
X129027Y148136D02*
X129027Y151186D01*
X129027Y149661D02*
X119875Y149661D01*
X119875Y148136D02*
X119875Y151186D01*
X119875Y158949D02*
X121401Y160474D01*
X119875Y158949D02*
X119875Y155898D01*
X121401Y154373D01*
X122926Y154373D01*
X124451Y155898D01*
X124451Y158949D01*
X125976Y160474D01*
X127502Y160474D01*
X129027Y158949D01*
X129027Y155898D01*
X127502Y154373D01*
X129027Y163728D02*
X119875Y163728D01*
X119875Y168304D01*
X121401Y169829D01*
X124451Y169829D01*
X125976Y168304D01*
X125976Y163728D01*
D13*
X108550Y28000D02*
X-15450Y28000D01*
X-15450Y162000D02*
X108550Y162000D01*
X-15450Y162000D02*
X-15450Y28000D01*
X108550Y28000D02*
X108550Y162000D01*
D12*
X15138Y119062D02*
X6495Y119062D01*
X6495Y123384D01*
X7935Y124824D01*
X10816Y124824D01*
X12257Y123384D01*
X12257Y119062D01*
X6495Y132739D02*
X7935Y134179D01*
X6495Y132739D02*
X6495Y129858D01*
X7935Y128417D01*
X9376Y128417D01*
X10816Y129858D01*
X10816Y132739D01*
X12257Y134179D01*
X13697Y134179D01*
X15138Y132739D01*
X15138Y129858D01*
X13697Y128417D01*
X15138Y137772D02*
X6495Y143535D01*
X15138Y147128D02*
X15138Y152890D01*
X15138Y147128D02*
X9376Y152890D01*
X7935Y152890D01*
X6495Y151449D01*
X6495Y148568D01*
X7935Y147128D01*
D11*
X234950Y165100D02*
X234950Y38100D01*
X234950Y165100D02*
X260350Y165100D01*
X260350Y38100D01*
X234950Y38100D01*
X149371Y95250D02*
X149373Y95418D01*
X149379Y95586D01*
X149390Y95753D01*
X149404Y95920D01*
X149422Y96087D01*
X149445Y96253D01*
X149472Y96419D01*
X149502Y96584D01*
X149537Y96748D01*
X149576Y96912D01*
X149619Y97074D01*
X149665Y97235D01*
X149716Y97395D01*
X149771Y97554D01*
X149829Y97711D01*
X149892Y97867D01*
X149958Y98021D01*
X150028Y98174D01*
X150101Y98325D01*
X150179Y98474D01*
X150259Y98621D01*
X150344Y98766D01*
X150432Y98909D01*
X150524Y99050D01*
X150619Y99188D01*
X150717Y99324D01*
X150818Y99458D01*
X150923Y99589D01*
X151031Y99717D01*
X151143Y99843D01*
X151257Y99966D01*
X151374Y100086D01*
X151494Y100203D01*
X151617Y100317D01*
X151743Y100429D01*
X151871Y100537D01*
X152002Y100642D01*
X152136Y100743D01*
X152272Y100841D01*
X152410Y100936D01*
X152551Y101028D01*
X152694Y101116D01*
X152839Y101201D01*
X152986Y101281D01*
X153135Y101359D01*
X153286Y101432D01*
X153439Y101502D01*
X153593Y101568D01*
X153749Y101631D01*
X153906Y101689D01*
X154065Y101744D01*
X154225Y101795D01*
X154386Y101841D01*
X154548Y101884D01*
X154712Y101923D01*
X154876Y101958D01*
X155041Y101988D01*
X155207Y102015D01*
X155373Y102038D01*
X155540Y102056D01*
X155707Y102070D01*
X155874Y102081D01*
X156042Y102087D01*
X156210Y102089D01*
X156378Y102087D01*
X156546Y102081D01*
X156713Y102070D01*
X156880Y102056D01*
X157047Y102038D01*
X157213Y102015D01*
X157379Y101988D01*
X157544Y101958D01*
X157708Y101923D01*
X157872Y101884D01*
X158034Y101841D01*
X158195Y101795D01*
X158355Y101744D01*
X158514Y101689D01*
X158671Y101631D01*
X158827Y101568D01*
X158981Y101502D01*
X159134Y101432D01*
X159285Y101359D01*
X159434Y101281D01*
X159581Y101201D01*
X159726Y101116D01*
X159869Y101028D01*
X160010Y100936D01*
X160148Y100841D01*
X160284Y100743D01*
X160418Y100642D01*
X160549Y100537D01*
X160677Y100429D01*
X160803Y100317D01*
X160926Y100203D01*
X161046Y100086D01*
X161163Y99966D01*
X161277Y99843D01*
X161389Y99717D01*
X161497Y99589D01*
X161602Y99458D01*
X161703Y99324D01*
X161801Y99188D01*
X161896Y99050D01*
X161988Y98909D01*
X162076Y98766D01*
X162161Y98621D01*
X162241Y98474D01*
X162319Y98325D01*
X162392Y98174D01*
X162462Y98021D01*
X162528Y97867D01*
X162591Y97711D01*
X162649Y97554D01*
X162704Y97395D01*
X162755Y97235D01*
X162801Y97074D01*
X162844Y96912D01*
X162883Y96748D01*
X162918Y96584D01*
X162948Y96419D01*
X162975Y96253D01*
X162998Y96087D01*
X163016Y95920D01*
X163030Y95753D01*
X163041Y95586D01*
X163047Y95418D01*
X163049Y95250D01*
X163047Y95082D01*
X163041Y94914D01*
X163030Y94747D01*
X163016Y94580D01*
X162998Y94413D01*
X162975Y94247D01*
X162948Y94081D01*
X162918Y93916D01*
X162883Y93752D01*
X162844Y93588D01*
X162801Y93426D01*
X162755Y93265D01*
X162704Y93105D01*
X162649Y92946D01*
X162591Y92789D01*
X162528Y92633D01*
X162462Y92479D01*
X162392Y92326D01*
X162319Y92175D01*
X162241Y92026D01*
X162161Y91879D01*
X162076Y91734D01*
X161988Y91591D01*
X161896Y91450D01*
X161801Y91312D01*
X161703Y91176D01*
X161602Y91042D01*
X161497Y90911D01*
X161389Y90783D01*
X161277Y90657D01*
X161163Y90534D01*
X161046Y90414D01*
X160926Y90297D01*
X160803Y90183D01*
X160677Y90071D01*
X160549Y89963D01*
X160418Y89858D01*
X160284Y89757D01*
X160148Y89659D01*
X160010Y89564D01*
X159869Y89472D01*
X159726Y89384D01*
X159581Y89299D01*
X159434Y89219D01*
X159285Y89141D01*
X159134Y89068D01*
X158981Y88998D01*
X158827Y88932D01*
X158671Y88869D01*
X158514Y88811D01*
X158355Y88756D01*
X158195Y88705D01*
X158034Y88659D01*
X157872Y88616D01*
X157708Y88577D01*
X157544Y88542D01*
X157379Y88512D01*
X157213Y88485D01*
X157047Y88462D01*
X156880Y88444D01*
X156713Y88430D01*
X156546Y88419D01*
X156378Y88413D01*
X156210Y88411D01*
X156042Y88413D01*
X155874Y88419D01*
X155707Y88430D01*
X155540Y88444D01*
X155373Y88462D01*
X155207Y88485D01*
X155041Y88512D01*
X154876Y88542D01*
X154712Y88577D01*
X154548Y88616D01*
X154386Y88659D01*
X154225Y88705D01*
X154065Y88756D01*
X153906Y88811D01*
X153749Y88869D01*
X153593Y88932D01*
X153439Y88998D01*
X153286Y89068D01*
X153135Y89141D01*
X152986Y89219D01*
X152839Y89299D01*
X152694Y89384D01*
X152551Y89472D01*
X152410Y89564D01*
X152272Y89659D01*
X152136Y89757D01*
X152002Y89858D01*
X151871Y89963D01*
X151743Y90071D01*
X151617Y90183D01*
X151494Y90297D01*
X151374Y90414D01*
X151257Y90534D01*
X151143Y90657D01*
X151031Y90783D01*
X150923Y90911D01*
X150818Y91042D01*
X150717Y91176D01*
X150619Y91312D01*
X150524Y91450D01*
X150432Y91591D01*
X150344Y91734D01*
X150259Y91879D01*
X150179Y92026D01*
X150101Y92175D01*
X150028Y92326D01*
X149958Y92479D01*
X149892Y92633D01*
X149829Y92789D01*
X149771Y92946D01*
X149716Y93105D01*
X149665Y93265D01*
X149619Y93426D01*
X149576Y93588D01*
X149537Y93752D01*
X149502Y93916D01*
X149472Y94081D01*
X149445Y94247D01*
X149422Y94413D01*
X149404Y94580D01*
X149390Y94747D01*
X149379Y94914D01*
X149373Y95082D01*
X149371Y95250D01*
D14*
X144800Y17145D02*
X198100Y17145D01*
X144800Y17145D02*
X144800Y109855D01*
X198100Y109855D01*
X198100Y17145D01*
D11*
X162085Y63342D02*
X162085Y72875D01*
X162085Y63342D02*
X163992Y61435D01*
X167805Y61435D01*
X169712Y63342D01*
X169712Y72875D01*
X173779Y69062D02*
X177592Y72875D01*
X177592Y61435D01*
X173779Y61435D02*
X181405Y61435D01*
D12*
X293370Y66040D02*
X293372Y65940D01*
X293378Y65841D01*
X293388Y65741D01*
X293401Y65643D01*
X293419Y65544D01*
X293440Y65447D01*
X293465Y65351D01*
X293494Y65255D01*
X293527Y65161D01*
X293563Y65068D01*
X293603Y64977D01*
X293647Y64887D01*
X293694Y64799D01*
X293744Y64713D01*
X293798Y64629D01*
X293855Y64547D01*
X293915Y64468D01*
X293979Y64390D01*
X294045Y64316D01*
X294114Y64244D01*
X294186Y64175D01*
X294260Y64109D01*
X294338Y64045D01*
X294417Y63985D01*
X294499Y63928D01*
X294583Y63874D01*
X294669Y63824D01*
X294757Y63777D01*
X294847Y63733D01*
X294938Y63693D01*
X295031Y63657D01*
X295125Y63624D01*
X295221Y63595D01*
X295317Y63570D01*
X295414Y63549D01*
X295513Y63531D01*
X295611Y63518D01*
X295711Y63508D01*
X295810Y63502D01*
X295910Y63500D01*
X313690Y63500D02*
X313790Y63502D01*
X313889Y63508D01*
X313989Y63518D01*
X314087Y63531D01*
X314186Y63549D01*
X314283Y63570D01*
X314379Y63595D01*
X314475Y63624D01*
X314569Y63657D01*
X314662Y63693D01*
X314753Y63733D01*
X314843Y63777D01*
X314931Y63824D01*
X315017Y63874D01*
X315101Y63928D01*
X315183Y63985D01*
X315262Y64045D01*
X315340Y64109D01*
X315414Y64175D01*
X315486Y64244D01*
X315555Y64316D01*
X315621Y64390D01*
X315685Y64468D01*
X315745Y64547D01*
X315802Y64629D01*
X315856Y64713D01*
X315906Y64799D01*
X315953Y64887D01*
X315997Y64977D01*
X316037Y65068D01*
X316073Y65161D01*
X316106Y65255D01*
X316135Y65351D01*
X316160Y65447D01*
X316181Y65544D01*
X316199Y65643D01*
X316212Y65741D01*
X316222Y65841D01*
X316228Y65940D01*
X316230Y66040D01*
X316230Y124460D02*
X316228Y124560D01*
X316222Y124659D01*
X316212Y124759D01*
X316199Y124857D01*
X316181Y124956D01*
X316160Y125053D01*
X316135Y125149D01*
X316106Y125245D01*
X316073Y125339D01*
X316037Y125432D01*
X315997Y125523D01*
X315953Y125613D01*
X315906Y125701D01*
X315856Y125787D01*
X315802Y125871D01*
X315745Y125953D01*
X315685Y126032D01*
X315621Y126110D01*
X315555Y126184D01*
X315486Y126256D01*
X315414Y126325D01*
X315340Y126391D01*
X315262Y126455D01*
X315183Y126515D01*
X315101Y126572D01*
X315017Y126626D01*
X314931Y126676D01*
X314843Y126723D01*
X314753Y126767D01*
X314662Y126807D01*
X314569Y126843D01*
X314475Y126876D01*
X314379Y126905D01*
X314283Y126930D01*
X314186Y126951D01*
X314087Y126969D01*
X313989Y126982D01*
X313889Y126992D01*
X313790Y126998D01*
X313690Y127000D01*
X295910Y127000D02*
X295810Y126998D01*
X295711Y126992D01*
X295611Y126982D01*
X295513Y126969D01*
X295414Y126951D01*
X295317Y126930D01*
X295221Y126905D01*
X295125Y126876D01*
X295031Y126843D01*
X294938Y126807D01*
X294847Y126767D01*
X294757Y126723D01*
X294669Y126676D01*
X294583Y126626D01*
X294499Y126572D01*
X294417Y126515D01*
X294338Y126455D01*
X294260Y126391D01*
X294186Y126325D01*
X294114Y126256D01*
X294045Y126184D01*
X293979Y126110D01*
X293915Y126032D01*
X293855Y125953D01*
X293798Y125871D01*
X293744Y125787D01*
X293694Y125701D01*
X293647Y125613D01*
X293603Y125523D01*
X293563Y125432D01*
X293527Y125339D01*
X293494Y125245D01*
X293465Y125149D01*
X293440Y125053D01*
X293419Y124956D01*
X293401Y124857D01*
X293388Y124759D01*
X293378Y124659D01*
X293372Y124560D01*
X293370Y124460D01*
X295910Y63500D02*
X313690Y63500D01*
X293370Y66040D02*
X293370Y69850D01*
X294640Y71120D01*
X316230Y69850D02*
X316230Y66040D01*
X316230Y69850D02*
X314960Y71120D01*
X294640Y119380D02*
X293370Y120650D01*
X294640Y119380D02*
X294640Y71120D01*
X314960Y119380D02*
X316230Y120650D01*
X314960Y119380D02*
X314960Y71120D01*
X293370Y120650D02*
X293370Y124460D01*
X316230Y124460D02*
X316230Y120650D01*
X313690Y127000D02*
X295910Y127000D01*
D15*
X304800Y131318D03*
X304800Y59182D03*
D11*
X310515Y85197D02*
X299075Y85197D01*
X299075Y90917D01*
X300982Y92824D01*
X304795Y92824D01*
X306702Y90917D01*
X306702Y85197D01*
X306702Y89010D02*
X310515Y92824D01*
X310515Y96891D02*
X310515Y104518D01*
X302889Y104518D02*
X310515Y96891D01*
X302889Y104518D02*
X300982Y104518D01*
X299075Y102611D01*
X299075Y98798D01*
X300982Y96891D01*
D12*
X267970Y66040D02*
X267972Y65940D01*
X267978Y65841D01*
X267988Y65741D01*
X268001Y65643D01*
X268019Y65544D01*
X268040Y65447D01*
X268065Y65351D01*
X268094Y65255D01*
X268127Y65161D01*
X268163Y65068D01*
X268203Y64977D01*
X268247Y64887D01*
X268294Y64799D01*
X268344Y64713D01*
X268398Y64629D01*
X268455Y64547D01*
X268515Y64468D01*
X268579Y64390D01*
X268645Y64316D01*
X268714Y64244D01*
X268786Y64175D01*
X268860Y64109D01*
X268938Y64045D01*
X269017Y63985D01*
X269099Y63928D01*
X269183Y63874D01*
X269269Y63824D01*
X269357Y63777D01*
X269447Y63733D01*
X269538Y63693D01*
X269631Y63657D01*
X269725Y63624D01*
X269821Y63595D01*
X269917Y63570D01*
X270014Y63549D01*
X270113Y63531D01*
X270211Y63518D01*
X270311Y63508D01*
X270410Y63502D01*
X270510Y63500D01*
X288290Y63500D02*
X288390Y63502D01*
X288489Y63508D01*
X288589Y63518D01*
X288687Y63531D01*
X288786Y63549D01*
X288883Y63570D01*
X288979Y63595D01*
X289075Y63624D01*
X289169Y63657D01*
X289262Y63693D01*
X289353Y63733D01*
X289443Y63777D01*
X289531Y63824D01*
X289617Y63874D01*
X289701Y63928D01*
X289783Y63985D01*
X289862Y64045D01*
X289940Y64109D01*
X290014Y64175D01*
X290086Y64244D01*
X290155Y64316D01*
X290221Y64390D01*
X290285Y64468D01*
X290345Y64547D01*
X290402Y64629D01*
X290456Y64713D01*
X290506Y64799D01*
X290553Y64887D01*
X290597Y64977D01*
X290637Y65068D01*
X290673Y65161D01*
X290706Y65255D01*
X290735Y65351D01*
X290760Y65447D01*
X290781Y65544D01*
X290799Y65643D01*
X290812Y65741D01*
X290822Y65841D01*
X290828Y65940D01*
X290830Y66040D01*
X290830Y124460D02*
X290828Y124560D01*
X290822Y124659D01*
X290812Y124759D01*
X290799Y124857D01*
X290781Y124956D01*
X290760Y125053D01*
X290735Y125149D01*
X290706Y125245D01*
X290673Y125339D01*
X290637Y125432D01*
X290597Y125523D01*
X290553Y125613D01*
X290506Y125701D01*
X290456Y125787D01*
X290402Y125871D01*
X290345Y125953D01*
X290285Y126032D01*
X290221Y126110D01*
X290155Y126184D01*
X290086Y126256D01*
X290014Y126325D01*
X289940Y126391D01*
X289862Y126455D01*
X289783Y126515D01*
X289701Y126572D01*
X289617Y126626D01*
X289531Y126676D01*
X289443Y126723D01*
X289353Y126767D01*
X289262Y126807D01*
X289169Y126843D01*
X289075Y126876D01*
X288979Y126905D01*
X288883Y126930D01*
X288786Y126951D01*
X288687Y126969D01*
X288589Y126982D01*
X288489Y126992D01*
X288390Y126998D01*
X288290Y127000D01*
X270510Y127000D02*
X270410Y126998D01*
X270311Y126992D01*
X270211Y126982D01*
X270113Y126969D01*
X270014Y126951D01*
X269917Y126930D01*
X269821Y126905D01*
X269725Y126876D01*
X269631Y126843D01*
X269538Y126807D01*
X269447Y126767D01*
X269357Y126723D01*
X269269Y126676D01*
X269183Y126626D01*
X269099Y126572D01*
X269017Y126515D01*
X268938Y126455D01*
X268860Y126391D01*
X268786Y126325D01*
X268714Y126256D01*
X268645Y126184D01*
X268579Y126110D01*
X268515Y126032D01*
X268455Y125953D01*
X268398Y125871D01*
X268344Y125787D01*
X268294Y125701D01*
X268247Y125613D01*
X268203Y125523D01*
X268163Y125432D01*
X268127Y125339D01*
X268094Y125245D01*
X268065Y125149D01*
X268040Y125053D01*
X268019Y124956D01*
X268001Y124857D01*
X267988Y124759D01*
X267978Y124659D01*
X267972Y124560D01*
X267970Y124460D01*
X270510Y63500D02*
X288290Y63500D01*
X267970Y66040D02*
X267970Y69850D01*
X269240Y71120D01*
X290830Y69850D02*
X290830Y66040D01*
X290830Y69850D02*
X289560Y71120D01*
X269240Y119380D02*
X267970Y120650D01*
X269240Y119380D02*
X269240Y71120D01*
X289560Y119380D02*
X290830Y120650D01*
X289560Y119380D02*
X289560Y71120D01*
X267970Y120650D02*
X267970Y124460D01*
X290830Y124460D02*
X290830Y120650D01*
X288290Y127000D02*
X270510Y127000D01*
D15*
X279400Y131318D03*
X279400Y59182D03*
D11*
X285115Y85197D02*
X273675Y85197D01*
X273675Y90917D01*
X275582Y92824D01*
X279395Y92824D01*
X281302Y90917D01*
X281302Y85197D01*
X281302Y89010D02*
X285115Y92824D01*
X277489Y96891D02*
X273675Y100704D01*
X285115Y100704D01*
X285115Y96891D02*
X285115Y104518D01*
D12*
X318770Y66040D02*
X318772Y65940D01*
X318778Y65841D01*
X318788Y65741D01*
X318801Y65643D01*
X318819Y65544D01*
X318840Y65447D01*
X318865Y65351D01*
X318894Y65255D01*
X318927Y65161D01*
X318963Y65068D01*
X319003Y64977D01*
X319047Y64887D01*
X319094Y64799D01*
X319144Y64713D01*
X319198Y64629D01*
X319255Y64547D01*
X319315Y64468D01*
X319379Y64390D01*
X319445Y64316D01*
X319514Y64244D01*
X319586Y64175D01*
X319660Y64109D01*
X319738Y64045D01*
X319817Y63985D01*
X319899Y63928D01*
X319983Y63874D01*
X320069Y63824D01*
X320157Y63777D01*
X320247Y63733D01*
X320338Y63693D01*
X320431Y63657D01*
X320525Y63624D01*
X320621Y63595D01*
X320717Y63570D01*
X320814Y63549D01*
X320913Y63531D01*
X321011Y63518D01*
X321111Y63508D01*
X321210Y63502D01*
X321310Y63500D01*
X339090Y63500D02*
X339190Y63502D01*
X339289Y63508D01*
X339389Y63518D01*
X339487Y63531D01*
X339586Y63549D01*
X339683Y63570D01*
X339779Y63595D01*
X339875Y63624D01*
X339969Y63657D01*
X340062Y63693D01*
X340153Y63733D01*
X340243Y63777D01*
X340331Y63824D01*
X340417Y63874D01*
X340501Y63928D01*
X340583Y63985D01*
X340662Y64045D01*
X340740Y64109D01*
X340814Y64175D01*
X340886Y64244D01*
X340955Y64316D01*
X341021Y64390D01*
X341085Y64468D01*
X341145Y64547D01*
X341202Y64629D01*
X341256Y64713D01*
X341306Y64799D01*
X341353Y64887D01*
X341397Y64977D01*
X341437Y65068D01*
X341473Y65161D01*
X341506Y65255D01*
X341535Y65351D01*
X341560Y65447D01*
X341581Y65544D01*
X341599Y65643D01*
X341612Y65741D01*
X341622Y65841D01*
X341628Y65940D01*
X341630Y66040D01*
X341630Y124460D02*
X341628Y124560D01*
X341622Y124659D01*
X341612Y124759D01*
X341599Y124857D01*
X341581Y124956D01*
X341560Y125053D01*
X341535Y125149D01*
X341506Y125245D01*
X341473Y125339D01*
X341437Y125432D01*
X341397Y125523D01*
X341353Y125613D01*
X341306Y125701D01*
X341256Y125787D01*
X341202Y125871D01*
X341145Y125953D01*
X341085Y126032D01*
X341021Y126110D01*
X340955Y126184D01*
X340886Y126256D01*
X340814Y126325D01*
X340740Y126391D01*
X340662Y126455D01*
X340583Y126515D01*
X340501Y126572D01*
X340417Y126626D01*
X340331Y126676D01*
X340243Y126723D01*
X340153Y126767D01*
X340062Y126807D01*
X339969Y126843D01*
X339875Y126876D01*
X339779Y126905D01*
X339683Y126930D01*
X339586Y126951D01*
X339487Y126969D01*
X339389Y126982D01*
X339289Y126992D01*
X339190Y126998D01*
X339090Y127000D01*
X321310Y127000D02*
X321210Y126998D01*
X321111Y126992D01*
X321011Y126982D01*
X320913Y126969D01*
X320814Y126951D01*
X320717Y126930D01*
X320621Y126905D01*
X320525Y126876D01*
X320431Y126843D01*
X320338Y126807D01*
X320247Y126767D01*
X320157Y126723D01*
X320069Y126676D01*
X319983Y126626D01*
X319899Y126572D01*
X319817Y126515D01*
X319738Y126455D01*
X319660Y126391D01*
X319586Y126325D01*
X319514Y126256D01*
X319445Y126184D01*
X319379Y126110D01*
X319315Y126032D01*
X319255Y125953D01*
X319198Y125871D01*
X319144Y125787D01*
X319094Y125701D01*
X319047Y125613D01*
X319003Y125523D01*
X318963Y125432D01*
X318927Y125339D01*
X318894Y125245D01*
X318865Y125149D01*
X318840Y125053D01*
X318819Y124956D01*
X318801Y124857D01*
X318788Y124759D01*
X318778Y124659D01*
X318772Y124560D01*
X318770Y124460D01*
X321310Y63500D02*
X339090Y63500D01*
X318770Y66040D02*
X318770Y69850D01*
X320040Y71120D01*
X341630Y69850D02*
X341630Y66040D01*
X341630Y69850D02*
X340360Y71120D01*
X320040Y119380D02*
X318770Y120650D01*
X320040Y119380D02*
X320040Y71120D01*
X340360Y119380D02*
X341630Y120650D01*
X340360Y119380D02*
X340360Y71120D01*
X318770Y120650D02*
X318770Y124460D01*
X341630Y124460D02*
X341630Y120650D01*
X339090Y127000D02*
X321310Y127000D01*
D15*
X330200Y131318D03*
X330200Y59182D03*
D11*
X335915Y85197D02*
X324475Y85197D01*
X324475Y90917D01*
X326382Y92824D01*
X330195Y92824D01*
X332102Y90917D01*
X332102Y85197D01*
X332102Y89010D02*
X335915Y92824D01*
X326382Y96891D02*
X324475Y98798D01*
X324475Y102611D01*
X326382Y104518D01*
X328289Y104518D01*
X330195Y102611D01*
X330195Y100704D01*
X330195Y102611D02*
X332102Y104518D01*
X334008Y104518D01*
X335915Y102611D01*
X335915Y98798D01*
X334008Y96891D01*
D12*
X364490Y127000D02*
X364590Y126998D01*
X364689Y126992D01*
X364789Y126982D01*
X364887Y126969D01*
X364986Y126951D01*
X365083Y126930D01*
X365179Y126905D01*
X365275Y126876D01*
X365369Y126843D01*
X365462Y126807D01*
X365553Y126767D01*
X365643Y126723D01*
X365731Y126676D01*
X365817Y126626D01*
X365901Y126572D01*
X365983Y126515D01*
X366062Y126455D01*
X366140Y126391D01*
X366214Y126325D01*
X366286Y126256D01*
X366355Y126184D01*
X366421Y126110D01*
X366485Y126032D01*
X366545Y125953D01*
X366602Y125871D01*
X366656Y125787D01*
X366706Y125701D01*
X366753Y125613D01*
X366797Y125523D01*
X366837Y125432D01*
X366873Y125339D01*
X366906Y125245D01*
X366935Y125149D01*
X366960Y125053D01*
X366981Y124956D01*
X366999Y124857D01*
X367012Y124759D01*
X367022Y124659D01*
X367028Y124560D01*
X367030Y124460D01*
X346710Y127000D02*
X346610Y126998D01*
X346511Y126992D01*
X346411Y126982D01*
X346313Y126969D01*
X346214Y126951D01*
X346117Y126930D01*
X346021Y126905D01*
X345925Y126876D01*
X345831Y126843D01*
X345738Y126807D01*
X345647Y126767D01*
X345557Y126723D01*
X345469Y126676D01*
X345383Y126626D01*
X345299Y126572D01*
X345217Y126515D01*
X345138Y126455D01*
X345060Y126391D01*
X344986Y126325D01*
X344914Y126256D01*
X344845Y126184D01*
X344779Y126110D01*
X344715Y126032D01*
X344655Y125953D01*
X344598Y125871D01*
X344544Y125787D01*
X344494Y125701D01*
X344447Y125613D01*
X344403Y125523D01*
X344363Y125432D01*
X344327Y125339D01*
X344294Y125245D01*
X344265Y125149D01*
X344240Y125053D01*
X344219Y124956D01*
X344201Y124857D01*
X344188Y124759D01*
X344178Y124659D01*
X344172Y124560D01*
X344170Y124460D01*
X344170Y66040D02*
X344172Y65940D01*
X344178Y65841D01*
X344188Y65741D01*
X344201Y65643D01*
X344219Y65544D01*
X344240Y65447D01*
X344265Y65351D01*
X344294Y65255D01*
X344327Y65161D01*
X344363Y65068D01*
X344403Y64977D01*
X344447Y64887D01*
X344494Y64799D01*
X344544Y64713D01*
X344598Y64629D01*
X344655Y64547D01*
X344715Y64468D01*
X344779Y64390D01*
X344845Y64316D01*
X344914Y64244D01*
X344986Y64175D01*
X345060Y64109D01*
X345138Y64045D01*
X345217Y63985D01*
X345299Y63928D01*
X345383Y63874D01*
X345469Y63824D01*
X345557Y63777D01*
X345647Y63733D01*
X345738Y63693D01*
X345831Y63657D01*
X345925Y63624D01*
X346021Y63595D01*
X346117Y63570D01*
X346214Y63549D01*
X346313Y63531D01*
X346411Y63518D01*
X346511Y63508D01*
X346610Y63502D01*
X346710Y63500D01*
X364490Y63500D02*
X364590Y63502D01*
X364689Y63508D01*
X364789Y63518D01*
X364887Y63531D01*
X364986Y63549D01*
X365083Y63570D01*
X365179Y63595D01*
X365275Y63624D01*
X365369Y63657D01*
X365462Y63693D01*
X365553Y63733D01*
X365643Y63777D01*
X365731Y63824D01*
X365817Y63874D01*
X365901Y63928D01*
X365983Y63985D01*
X366062Y64045D01*
X366140Y64109D01*
X366214Y64175D01*
X366286Y64244D01*
X366355Y64316D01*
X366421Y64390D01*
X366485Y64468D01*
X366545Y64547D01*
X366602Y64629D01*
X366656Y64713D01*
X366706Y64799D01*
X366753Y64887D01*
X366797Y64977D01*
X366837Y65068D01*
X366873Y65161D01*
X366906Y65255D01*
X366935Y65351D01*
X366960Y65447D01*
X366981Y65544D01*
X366999Y65643D01*
X367012Y65741D01*
X367022Y65841D01*
X367028Y65940D01*
X367030Y66040D01*
X364490Y127000D02*
X346710Y127000D01*
X367030Y124460D02*
X367030Y120650D01*
X365760Y119380D01*
X344170Y120650D02*
X344170Y124460D01*
X344170Y120650D02*
X345440Y119380D01*
X365760Y71120D02*
X367030Y69850D01*
X365760Y71120D02*
X365760Y119380D01*
X345440Y71120D02*
X344170Y69850D01*
X345440Y71120D02*
X345440Y119380D01*
X367030Y69850D02*
X367030Y66040D01*
X344170Y66040D02*
X344170Y69850D01*
X346710Y63500D02*
X364490Y63500D01*
D15*
X355600Y59182D03*
X355600Y131318D03*
D11*
X350165Y85527D02*
X361605Y85527D01*
X350165Y85527D02*
X350165Y91247D01*
X352072Y93154D01*
X355885Y93154D01*
X357792Y91247D01*
X357792Y85527D01*
X357792Y89340D02*
X361605Y93154D01*
X361605Y102941D02*
X350165Y102941D01*
X355885Y97221D01*
X355885Y104848D01*
M02*
