M48
;GenerationSoftware,Autodesk,EAGLE,9.5.1*%
;CreationDate,2019-09-28T20:28:16Z*%
FMAT,2
ICI,OFF
METRIC,TZ,000.000
T14C0.305
T13C0.508
T12C0.600
T11C0.813
T10C0.900
T9C1.000
T8C1.016
T7C1.118
T6C1.550
T5C2.200
T4C2.300
T3C2.800
T2C3.000
T1C3.302
%
G90
M71
T1
X7620Y59436
X3000Y3000
X97000Y3000
X55136Y71154
T2
X7720Y73048
X3020Y70148
X7720Y67148
T3
X30115Y78650
X38465Y78650
X51165Y78650
X42815Y78650
T4
X34290Y75500
X46990Y75500
X34290Y71000
X46990Y71000
T5
X27070Y75384
X13570Y75384
X20320Y76184
T6
X71880Y75370
X96140Y75370
T7
X5080Y44450
X10160Y44450
X7620Y44450
X12700Y40640
X2540Y40640
T8
X77470Y8890
X74930Y8890
X72390Y8890
X25400Y8890
X22860Y8890
X20320Y8890
X17780Y8890
X15240Y8890
X63500Y71940
X80721Y11709
X74219Y11709
X80721Y16231
X74219Y16231
X24111Y11709
X17609Y11709
X24111Y16231
X17609Y16231
X63500Y78105
X63500Y75565
X60960Y78105
X60960Y75565
X58420Y78105
X58420Y75565
X6350Y29210
X34290Y44958
X34290Y42418
X31750Y44958
X31750Y42418
X29210Y44958
X29210Y42418
X26670Y44958
X26670Y42418
X82550Y8890
X80010Y8890
X8890Y29210
X6350Y26670
X8890Y26670
X6350Y24130
X8890Y24130
X6350Y21590
X8890Y21590
X6350Y19050
X8890Y19050
X6350Y16510
X8890Y16510
X6350Y13970
X8890Y13970
X6350Y11430
X8890Y11430
X58420Y69400
X58420Y71940
X60960Y69400
X60960Y71940
X63500Y69400
T9
X23720Y72384
X23720Y69884
X16920Y69884
T10
X31750Y64730
X31750Y59730
X16920Y72384
T11
X62310Y53340
X64850Y63500
X64850Y53340
X20320Y22860
X22860Y22860
X25400Y22860
X27940Y22860
X30480Y22860
X33020Y22860
X35560Y22860
X38100Y22860
X40640Y22860
X43180Y22860
X45720Y22860
X48260Y22860
X50800Y22860
X53340Y22860
X55880Y22860
X58420Y22860
X60960Y22860
X63500Y22860
X66040Y22860
X68580Y22860
X68580Y38100
X66040Y38100
X63500Y38100
X60960Y38100
X58420Y38100
X55880Y38100
X53340Y38100
X50800Y38100
X48260Y38100
X45720Y38100
X43180Y38100
X40640Y38100
X38100Y38100
X35560Y38100
X33020Y38100
X30480Y38100
X27940Y38100
X25400Y38100
X22860Y38100
X20320Y38100
X33020Y49530
X33020Y52070
X53340Y55880
X50800Y55880
X53340Y58420
X50800Y58420
X53340Y60960
X50800Y60960
X38100Y49530
X40640Y49530
X53340Y53340
X50800Y53340
X46228Y48260
X43688Y48260
X31750Y55880
X34290Y55880
X44450Y67310
X54610Y67310
X56213Y18415
X16510Y43180
X47180Y19050
X44640Y19050
X62960Y19050
X60420Y19050
X43180Y43180
X40640Y43180
X57150Y66040
X67310Y66040
X72390Y46990
X82550Y46990
X72390Y44450
X82550Y44450
X82550Y41910
X72390Y41910
X85090Y46990
X95250Y46990
X95250Y41910
X85090Y41910
X85090Y44450
X95250Y44450
X52070Y2540
X49530Y2540
X29940Y19050
X40100Y19050
X25400Y64770
X25400Y54610
X22860Y64770
X22860Y54610
X44450Y64770
X54610Y64770
X3810Y36830
X6350Y36830
X11430Y36830
X8890Y36830
X25400Y52070
X25400Y49530
X39370Y67310
X39370Y64770
X17780Y50800
X17780Y48260
X17780Y53721
X17780Y55880
X17780Y58039
X17780Y63500
X17780Y60960
X19050Y43180
X49530Y50800
X51387Y18415
X62230Y40640
X62230Y50800
X64770Y40640
X64770Y50800
X67310Y40640
X67310Y50800
X54610Y40640
X54610Y50800
X57150Y40640
X57150Y50800
X59690Y40640
X59690Y50800
X49530Y40640
X85190Y18175
X85190Y15635
X85190Y13095
X85190Y10555
X92810Y10555
X92810Y13095
X92810Y15635
X92810Y18175
X73660Y28321
X73660Y30480
X73660Y32639
X73660Y23114
X73660Y25146
X73660Y35814
X73660Y37846
X52070Y40640
X52070Y50800
X59610Y53340
X59610Y63500
X62310Y63500
T12
X83500Y37500
X85500Y23500
X85500Y37500
X79500Y37500
X89500Y37500
X87500Y37500
X81500Y37500
X77500Y37500
X77500Y23500
X79500Y23500
X81500Y23500
X83500Y23500
X87500Y23500
X89500Y23500
X91500Y23500
X91500Y37500
T13
X28956Y46736
X29210Y55372
X44196Y55880
X76454Y33020
X39370Y29718
X60198Y32893
X11684Y6858
X10160Y32258
X5080Y5842
X11684Y20828
X71882Y21844
X82423Y20701
X54610Y15240
X12827Y19812
X81280Y27432
X56388Y59436
X33020Y61976
X72644Y49784
X31496Y26416
X20574Y33528
X39370Y47244
X35179Y53340
X88773Y26035
X49276Y54864
X31750Y27940
X46990Y29718
X60706Y25908
X41656Y48260
X26670Y13208
X30226Y59944
X67945Y18542
X57404Y15748
X40132Y59182
X43180Y3810
X70866Y36830
X84582Y54197
X64516Y16764
X29718Y28702
X35052Y25908
X74168Y55880
X71882Y71374
X32766Y28956
X64643Y30861
T14
X89662Y18288
X90297Y11684
X86487Y28067
X89662Y31369
X90424Y20574
X87757Y7239
M30