G04 EAGLE Gerber RS-274X export*
G75*
%MOMM*%
%FSLAX34Y34*%
%LPD*%
%INSoldermask Bottom*%
%IPPOS*%
%AMOC8*
5,1,8,0,0,1.08239X$1,22.5*%
G01*
%ADD10P,1.539592X8X112.500000*%
%ADD11P,1.539592X8X292.500000*%
%ADD12C,1.422400*%
%ADD13P,1.842011X8X292.500000*%
%ADD14C,1.701800*%
%ADD15P,1.539592X8X202.500000*%
%ADD16P,1.539592X8X22.500000*%
%ADD17P,1.842011X8X22.500000*%
%ADD18C,1.524000*%
%ADD19C,4.901600*%
%ADD20C,2.032000*%
%ADD21C,1.422400*%
%ADD22C,3.911600*%
%ADD23C,2.901600*%
%ADD24P,2.144431X8X22.500000*%
%ADD25C,1.981200*%
%ADD26P,1.924489X8X202.500000*%
%ADD27P,1.633976X8X22.500000*%
%ADD28P,1.742215X8X22.500000*%
%ADD29C,3.601600*%
%ADD30P,1.842011X8X112.500000*%
%ADD31P,1.924489X8X112.500000*%
%ADD32C,1.778000*%
%ADD33C,3.403600*%
%ADD34P,1.842011X8X202.500000*%
%ADD35P,1.759533X8X22.500000*%
%ADD36P,1.759533X8X292.500000*%
%ADD37C,1.651600*%
%ADD38R,1.209600X1.209600*%
%ADD39P,1.649562X8X292.500000*%


D10*
X622300Y406400D03*
X622300Y508000D03*
X647700Y406400D03*
X647700Y508000D03*
X673100Y406400D03*
X673100Y508000D03*
X546100Y406400D03*
X546100Y508000D03*
X571500Y406400D03*
X571500Y508000D03*
X596900Y406400D03*
X596900Y508000D03*
X495300Y406400D03*
X495300Y508000D03*
X520700Y406400D03*
X520700Y508000D03*
X596100Y533400D03*
X596100Y635000D03*
D11*
X623100Y635000D03*
X623100Y533400D03*
X648500Y635000D03*
X648500Y533400D03*
D12*
X203200Y235204D02*
X203200Y221996D01*
X228600Y221996D02*
X228600Y235204D01*
X254000Y235204D02*
X254000Y221996D01*
X279400Y221996D02*
X279400Y235204D01*
X304800Y235204D02*
X304800Y221996D01*
X330200Y221996D02*
X330200Y235204D01*
X355600Y235204D02*
X355600Y221996D01*
X381000Y221996D02*
X381000Y235204D01*
X406400Y235204D02*
X406400Y221996D01*
X431800Y221996D02*
X431800Y235204D01*
X457200Y235204D02*
X457200Y221996D01*
X482600Y221996D02*
X482600Y235204D01*
X508000Y235204D02*
X508000Y221996D01*
X533400Y221996D02*
X533400Y235204D01*
X558800Y235204D02*
X558800Y221996D01*
X584200Y221996D02*
X584200Y235204D01*
X609600Y235204D02*
X609600Y221996D01*
X635000Y221996D02*
X635000Y235204D01*
X660400Y235204D02*
X660400Y221996D01*
X685800Y221996D02*
X685800Y235204D01*
X685800Y374396D02*
X685800Y387604D01*
X660400Y387604D02*
X660400Y374396D01*
X635000Y374396D02*
X635000Y387604D01*
X609600Y387604D02*
X609600Y374396D01*
X584200Y374396D02*
X584200Y387604D01*
X558800Y387604D02*
X558800Y374396D01*
X533400Y374396D02*
X533400Y387604D01*
X508000Y387604D02*
X508000Y374396D01*
X482600Y374396D02*
X482600Y387604D01*
X457200Y387604D02*
X457200Y374396D01*
X431800Y374396D02*
X431800Y387604D01*
X406400Y387604D02*
X406400Y374396D01*
X381000Y374396D02*
X381000Y387604D01*
X355600Y387604D02*
X355600Y374396D01*
X330200Y374396D02*
X330200Y387604D01*
X304800Y387604D02*
X304800Y374396D01*
X279400Y374396D02*
X279400Y387604D01*
X254000Y387604D02*
X254000Y374396D01*
X228600Y374396D02*
X228600Y387604D01*
X203200Y387604D02*
X203200Y374396D01*
D13*
X330200Y495300D03*
D14*
X330200Y520700D03*
D15*
X533400Y558800D03*
X508000Y558800D03*
X533400Y584200D03*
X508000Y584200D03*
X533400Y609600D03*
X508000Y609600D03*
D16*
X381000Y495300D03*
X406400Y495300D03*
D15*
X533400Y533400D03*
X508000Y533400D03*
D17*
X462280Y482600D03*
D14*
X436880Y482600D03*
D16*
X317500Y558800D03*
X342900Y558800D03*
D18*
X317500Y647300D03*
X317500Y597300D03*
D16*
X444500Y673100D03*
X546100Y673100D03*
D19*
X30200Y701480D03*
X77200Y671480D03*
X77200Y730480D03*
D20*
X127000Y406400D03*
X25400Y406400D03*
D21*
X562130Y184150D03*
X513870Y184150D03*
D15*
X471800Y190500D03*
X446400Y190500D03*
X629600Y190500D03*
X604200Y190500D03*
D17*
X431800Y431800D03*
D14*
X406400Y431800D03*
D16*
X571500Y660400D03*
X673100Y660400D03*
D22*
X469900Y710000D03*
X469900Y755000D03*
D23*
X428150Y786500D03*
X511650Y786500D03*
D24*
X584200Y755650D03*
X584200Y781050D03*
X609600Y755650D03*
X609600Y781050D03*
X635000Y755650D03*
X635000Y781050D03*
D16*
X723900Y469900D03*
X825500Y469900D03*
X723900Y444500D03*
X825500Y444500D03*
D15*
X825500Y419100D03*
X723900Y419100D03*
D16*
X850900Y469900D03*
X952500Y469900D03*
D15*
X952500Y419100D03*
X850900Y419100D03*
D16*
X850900Y444500D03*
X952500Y444500D03*
D22*
X342900Y710000D03*
X342900Y755000D03*
D23*
X301150Y786500D03*
X384650Y786500D03*
D25*
X176088Y162306D03*
X241112Y162306D03*
X176088Y117094D03*
X241112Y117094D03*
D26*
X520700Y25400D03*
X495300Y25400D03*
D16*
X299400Y190500D03*
X401000Y190500D03*
D27*
X169200Y723840D03*
D28*
X237200Y723840D03*
X169200Y698840D03*
X237200Y698840D03*
D29*
X203200Y761840D03*
X135700Y753840D03*
X270700Y753840D03*
D11*
X254000Y647700D03*
X254000Y546100D03*
X228600Y647700D03*
X228600Y546100D03*
D16*
X444500Y647700D03*
X546100Y647700D03*
X38100Y368300D03*
X63500Y368300D03*
D15*
X114300Y368300D03*
X88900Y368300D03*
D30*
X254000Y520700D03*
D14*
X254000Y495300D03*
D30*
X393700Y673100D03*
D14*
X393700Y647700D03*
D30*
X177800Y508000D03*
D14*
X177800Y482600D03*
D31*
X177800Y537210D03*
X177800Y558800D03*
X177800Y580390D03*
D32*
X50800Y452882D02*
X50800Y436118D01*
X76200Y436118D02*
X76200Y452882D01*
X101600Y452882D02*
X101600Y436118D01*
D33*
X76200Y594360D03*
D25*
X742188Y162306D03*
X807212Y162306D03*
X742188Y117094D03*
X807212Y117094D03*
D33*
X30000Y30000D03*
X970000Y30000D03*
X551360Y711540D03*
D30*
X177800Y635000D03*
D14*
X177800Y609600D03*
D34*
X165100Y431800D03*
D14*
X190500Y431800D03*
D25*
X152400Y88900D03*
X177800Y88900D03*
X203200Y88900D03*
X228600Y88900D03*
X254000Y88900D03*
X723900Y88900D03*
X749300Y88900D03*
X774700Y88900D03*
X800100Y88900D03*
X825500Y88900D03*
D35*
X266700Y424180D03*
X266700Y449580D03*
X292100Y424180D03*
X292100Y449580D03*
X317500Y424180D03*
X317500Y449580D03*
X342900Y424180D03*
X342900Y449580D03*
D36*
X63500Y292100D03*
X88900Y292100D03*
X63500Y266700D03*
X88900Y266700D03*
X63500Y241300D03*
X88900Y241300D03*
X63500Y215900D03*
X88900Y215900D03*
X63500Y190500D03*
X88900Y190500D03*
X63500Y165100D03*
X88900Y165100D03*
X63500Y139700D03*
X88900Y139700D03*
X63500Y114300D03*
X88900Y114300D03*
D37*
X718800Y753700D03*
X961400Y753700D03*
D38*
X915000Y375000D03*
X895000Y375000D03*
X875000Y375000D03*
X855000Y375000D03*
X835000Y375000D03*
X815000Y375000D03*
X795000Y375000D03*
X775000Y375000D03*
X775000Y235000D03*
X795000Y235000D03*
X815000Y235000D03*
X835000Y235000D03*
X855000Y235000D03*
X875000Y235000D03*
X895000Y235000D03*
X915000Y235000D03*
D12*
X865108Y181750D02*
X851900Y181750D01*
X851900Y156350D02*
X865108Y156350D01*
X865108Y130950D02*
X851900Y130950D01*
X851900Y105550D02*
X865108Y105550D01*
X914892Y105550D02*
X928100Y105550D01*
X928100Y130950D02*
X914892Y130950D01*
X914892Y156350D02*
X928100Y156350D01*
X928100Y181750D02*
X914892Y181750D01*
D31*
X736600Y283210D03*
X736600Y304800D03*
X736600Y326390D03*
D39*
X736600Y231140D03*
D18*
X736600Y251460D03*
D39*
X736600Y358140D03*
D18*
X736600Y378460D03*
D24*
X584200Y694000D03*
X584200Y719400D03*
X609600Y694000D03*
X609600Y719400D03*
X635000Y694000D03*
X635000Y719400D03*
M02*
